M48
;Layer_Color=9474304
;FILE_FORMAT=2:5
INCH,LZ
;TYPE=PLATED
T1F00S00C0.02362
T2F00S00C0.03543
T3F00S00C0.11811
%
T01
X0066772Y0106299
X0071772
X0076772
X0081772
X0086772
T02
X0020669Y0061024
X0038386
Y0086614
X0020669
X0067913
X0066772Y0100394
X0076772
X0086772
X0096772
X008563Y0086614
Y0061024
X0067913
X0115157
X0132874
Y003937
X0115157
Y001378
X0132874
Y0086614
X0115157
X0056772Y0100394
T03
X0076772Y0026575
X0011811Y0098425
X0141732
M30
