G04*
G04 #@! TF.GenerationSoftware,Altium Limited,Altium Designer,18.1.7 (191)*
G04*
G04 Layer_Color=16711935*
%FSLAX42Y42*%
%MOMM*%
G71*
G01*
G75*
%ADD33C,0.50*%
D33*
X3945Y7700D02*
X4133Y7691D01*
X3755Y7700D02*
X3945D01*
X3567Y7691D02*
X3755Y7700D01*
X3379Y7672D02*
X3567Y7691D01*
X3192Y7644D02*
X3379Y7672D01*
X3006Y7608D02*
X3192Y7644D01*
X2823Y7562D02*
X3006Y7608D01*
X2642Y7507D02*
X2823Y7562D01*
X2464Y7443D02*
X2642Y7507D01*
X2289Y7371D02*
X2464Y7443D01*
X2118Y7290D02*
X2289Y7371D01*
X1952Y7201D02*
X2118Y7290D01*
X1790Y7104D02*
X1952Y7201D01*
X1632Y6999D02*
X1790Y7104D01*
X1481Y6886D02*
X1632Y6999D01*
X1335Y6766D02*
X1481Y6886D01*
X1194Y6639D02*
X1335Y6766D01*
X1061Y6506D02*
X1194Y6639D01*
X934Y6365D02*
X1061Y6506D01*
X814Y6219D02*
X934Y6365D01*
X701Y6068D02*
X814Y6219D01*
X596Y5910D02*
X701Y6068D01*
X499Y5748D02*
X596Y5910D01*
X410Y5582D02*
X499Y5748D01*
X329Y5411D02*
X410Y5582D01*
X257Y5236D02*
X329Y5411D01*
X193Y5058D02*
X257Y5236D01*
X138Y4877D02*
X193Y5058D01*
X92Y4694D02*
X138Y4877D01*
X56Y4508D02*
X92Y4694D01*
X28Y4321D02*
X56Y4508D01*
X9Y4133D02*
X28Y4321D01*
X-0Y3945D02*
X9Y4133D01*
X-0Y3850D02*
Y3945D01*
X1350Y3850D02*
X1355Y4009D01*
X1371Y4172D01*
X1397Y4334D01*
X1434Y4493D01*
X1482Y4650D01*
X1539Y4804D01*
X1606Y4953D01*
X1683Y5097D01*
X1770Y5237D01*
X1865Y5370D01*
X1969Y5497D01*
X2081Y5616D01*
X2200Y5728D01*
X2327Y5832D01*
X2460Y5928D01*
X2599Y6014D01*
X2743Y6092D01*
X2892Y6159D01*
X3046Y6217D01*
X3202Y6265D01*
X3362Y6302D01*
X3523Y6329D01*
X3686Y6345D01*
X3850Y6350D01*
X4039Y6343D01*
X4227Y6321D01*
X4413Y6286D01*
X4596Y6236D01*
X4774Y6173D01*
X4816Y6150D01*
X4851Y6118D01*
X4878Y6079D01*
X4894Y6034D01*
X4900Y5987D01*
Y5200D02*
Y5987D01*
Y5200D02*
X4906Y5141D01*
X4923Y5085D01*
X4951Y5033D01*
X4988Y4988D01*
X5033Y4951D01*
X5085Y4923D01*
X5141Y4906D01*
X5200Y4900D01*
X5987D01*
X6034Y4894D01*
X6079Y4878D01*
X6118Y4851D01*
X6150Y4816D01*
X6173Y4774D01*
X6228Y4623D01*
X6272Y4469D01*
X6307Y4312D01*
X6332Y4153D01*
X6346Y3993D01*
X6350Y3850D01*
X7700D02*
Y3945D01*
X7691Y4133D02*
X7700Y3945D01*
X7672Y4321D02*
X7691Y4133D01*
X7644Y4508D02*
X7672Y4321D01*
X7608Y4694D02*
X7644Y4508D01*
X7562Y4877D02*
X7608Y4694D01*
X7507Y5058D02*
X7562Y4877D01*
X7443Y5236D02*
X7507Y5058D01*
X7371Y5411D02*
X7443Y5236D01*
X7290Y5582D02*
X7371Y5411D01*
X7201Y5748D02*
X7290Y5582D01*
X7104Y5910D02*
X7201Y5748D01*
X6999Y6068D02*
X7104Y5910D01*
X6886Y6219D02*
X6999Y6068D01*
X6766Y6365D02*
X6886Y6219D01*
X6639Y6506D02*
X6766Y6365D01*
X6506Y6639D02*
X6639Y6506D01*
X6365Y6766D02*
X6506Y6639D01*
X6219Y6886D02*
X6365Y6766D01*
X6068Y6999D02*
X6219Y6886D01*
X5910Y7104D02*
X6068Y6999D01*
X5748Y7201D02*
X5910Y7104D01*
X5582Y7290D02*
X5748Y7201D01*
X5411Y7371D02*
X5582Y7290D01*
X5236Y7443D02*
X5411Y7371D01*
X5058Y7507D02*
X5236Y7443D01*
X4877Y7562D02*
X5058Y7507D01*
X4694Y7608D02*
X4877Y7562D01*
X4508Y7644D02*
X4694Y7608D01*
X4321Y7672D02*
X4508Y7644D01*
X4133Y7691D02*
X4321Y7672D01*
X-0Y3850D02*
X0Y3755D01*
X9Y3567D01*
X28Y3379D01*
X56Y3192D01*
X92Y3006D01*
X138Y2823D01*
X193Y2642D01*
X257Y2464D01*
X329Y2289D01*
X410Y2118D01*
X499Y1952D01*
X596Y1790D01*
X701Y1632D01*
X814Y1481D01*
X934Y1335D01*
X1061Y1194D01*
X1194Y1061D01*
X1335Y934D01*
X1481Y814D01*
X1632Y701D01*
X1790Y596D01*
X1952Y499D01*
X2118Y410D01*
X2289Y329D01*
X2464Y257D01*
X2642Y193D01*
X2823Y138D01*
X3006Y92D01*
X3192Y56D01*
X3379Y28D01*
X3567Y9D01*
X3755Y0D01*
X3945D01*
X4133Y9D01*
X4321Y28D01*
X4508Y56D01*
X4694Y92D01*
X4877Y138D01*
X5058Y193D01*
X5236Y257D01*
X5411Y329D01*
X5582Y410D01*
X5748Y499D01*
X5910Y596D01*
X6068Y701D01*
X6219Y814D01*
X6365Y934D01*
X6506Y1061D01*
X6639Y1194D01*
X6766Y1335D01*
X6886Y1481D01*
X6999Y1632D01*
X7104Y1790D01*
X7201Y1952D01*
X7290Y2118D01*
X7371Y2289D01*
X7443Y2464D01*
X7507Y2642D01*
X7562Y2823D01*
X7608Y3006D01*
X7644Y3192D01*
X7672Y3379D01*
X7691Y3567D01*
X7700Y3755D01*
Y3850D01*
X6350D02*
X6350Y3833D01*
X6344Y3672D02*
X6350Y3833D01*
X6327Y3512D02*
X6344Y3672D01*
X6300Y3354D02*
X6327Y3512D01*
X6263Y3198D02*
X6300Y3354D01*
X6248Y3157D02*
X6263Y3198D01*
X6223Y3121D02*
X6248Y3157D01*
X6192Y3091D02*
X6223Y3121D01*
X6155Y3069D02*
X6192Y3091D01*
X6114Y3055D02*
X6155Y3069D01*
X6070Y3050D02*
X6114Y3055D01*
X5269Y3050D02*
X6070D01*
X5236Y3046D02*
X5269Y3050D01*
X5205Y3036D02*
X5236Y3046D01*
X5177Y3019D02*
X5205Y3036D01*
X5153Y2996D02*
X5177Y3019D01*
X5135Y2969D02*
X5153Y2996D01*
X5123Y2938D02*
X5135Y2969D01*
X5119Y2906D02*
X5123Y2938D01*
X5111Y2860D02*
X5119Y2906D01*
X5094Y2817D02*
X5111Y2860D01*
X5067Y2779D02*
X5094Y2817D01*
X5031Y2748D02*
X5067Y2779D01*
X4988Y2712D02*
X5031Y2748D01*
X4952Y2669D02*
X4988Y2712D01*
X4925Y2620D02*
X4952Y2669D01*
X4902Y2580D02*
X4925Y2620D01*
X4870Y2546D02*
X4902Y2580D01*
X4831Y2521D02*
X4870Y2546D01*
X4788Y2505D02*
X4831Y2521D01*
X4742Y2500D02*
X4788Y2505D01*
X2958Y2500D02*
X4742D01*
X2912Y2505D02*
X2958Y2500D01*
X2869Y2521D02*
X2912Y2505D01*
X2830Y2546D02*
X2869Y2521D01*
X2798Y2580D02*
X2830Y2546D01*
X2775Y2620D02*
X2798Y2580D01*
X2747Y2671D02*
X2775Y2620D01*
X2709Y2715D02*
X2747Y2671D01*
X2663Y2752D02*
X2709Y2715D01*
X2611Y2779D02*
X2663Y2752D01*
X2576Y2797D02*
X2611Y2779D01*
X2544Y2822D02*
X2576Y2797D01*
X2519Y2854D02*
X2544Y2822D01*
X2500Y2889D02*
X2519Y2854D01*
X2489Y2928D02*
X2500Y2889D01*
X2479Y2961D02*
X2489Y2928D01*
X2461Y2990D02*
X2479Y2961D01*
X2437Y3015D02*
X2461Y2990D01*
X2408Y3034D02*
X2437Y3015D01*
X2376Y3046D02*
X2408Y3034D01*
X2341Y3050D02*
X2376Y3046D01*
X1630Y3050D02*
X2341D01*
X1586Y3055D02*
X1630Y3050D01*
X1545Y3069D02*
X1586Y3055D01*
X1508Y3091D02*
X1545Y3069D01*
X1477Y3121D02*
X1508Y3091D01*
X1452Y3157D02*
X1477Y3121D01*
X1437Y3198D02*
X1452Y3157D01*
X1399Y3357D02*
X1437Y3198D01*
X1372Y3519D02*
X1399Y3357D01*
X1356Y3682D02*
X1372Y3519D01*
X1350Y3845D02*
X1356Y3682D01*
X1350Y3845D02*
X1350Y3850D01*
M02*
