G04*
G04 #@! TF.GenerationSoftware,Altium Limited,Altium Designer,18.1.7 (191)*
G04*
G04 Layer_Color=16711935*
%FSLAX42Y42*%
%MOMM*%
G71*
G01*
G75*
%ADD21R,1.02X0.75*%
%ADD22R,0.75X1.02*%
%ADD25C,1.60*%
%ADD26C,1.50*%
%ADD27C,2.00*%
%ADD28R,2.00X2.00*%
%ADD29C,3.00*%
%ADD30C,0.90*%
%ADD31C,1.00*%
%ADD32C,0.30*%
%ADD41R,1.10X1.30*%
%ADD42O,1.65X0.55*%
%ADD43O,0.55X1.65*%
D21*
X4483Y2051D02*
D03*
Y1903D02*
D03*
X4436Y989D02*
D03*
Y841D02*
D03*
D22*
X3101Y1867D02*
D03*
X3249D02*
D03*
X4613Y1557D02*
D03*
X4762D02*
D03*
D25*
X1298Y1300D02*
D03*
X1477Y1120D02*
D03*
X1118Y1480D02*
D03*
X518Y2473D02*
D03*
X615Y2238D02*
D03*
X420Y2707D02*
D03*
X245Y3855D02*
D03*
Y3601D02*
D03*
Y4109D02*
D03*
X522Y5233D02*
D03*
X425Y4998D02*
D03*
X620Y5467D02*
D03*
X1302Y6405D02*
D03*
X1123Y6225D02*
D03*
X1482Y6585D02*
D03*
X2473Y7185D02*
D03*
X2238Y7088D02*
D03*
X2707Y7282D02*
D03*
X3853Y7460D02*
D03*
X3599D02*
D03*
X4106D02*
D03*
X5233Y7193D02*
D03*
X4998Y7290D02*
D03*
X5467Y7095D02*
D03*
X6403Y6407D02*
D03*
X6223Y6587D02*
D03*
X6582Y6228D02*
D03*
X7188Y5235D02*
D03*
X7090Y5470D02*
D03*
X7285Y5000D02*
D03*
X7465Y3855D02*
D03*
Y4109D02*
D03*
Y3601D02*
D03*
X7182Y2475D02*
D03*
X7280Y2710D02*
D03*
X7085Y2240D02*
D03*
X6400Y1307D02*
D03*
X6580Y1487D02*
D03*
X6220Y1128D02*
D03*
X5233Y525D02*
D03*
X5467Y622D02*
D03*
X4998Y428D02*
D03*
X3853Y253D02*
D03*
X4106D02*
D03*
X3599D02*
D03*
X2473Y520D02*
D03*
X2707Y423D02*
D03*
X2238Y617D02*
D03*
D26*
X5724Y2067D02*
D03*
X5469D02*
D03*
X4708D02*
D03*
X4962D02*
D03*
X5215D02*
D03*
D27*
X1725Y2877D02*
D03*
X1979D02*
D03*
X1471D02*
D03*
D28*
X2233D02*
D03*
D29*
X7150Y3850D02*
D03*
X550D02*
D03*
X3850Y6650D02*
D03*
X5200Y5200D02*
D03*
X2500Y2500D02*
D03*
X5200D02*
D03*
X3850Y950D02*
D03*
D30*
X1690Y2615D02*
D03*
X1815D02*
D03*
X2065D02*
D03*
X1940D02*
D03*
D31*
X5212Y1858D02*
D03*
X5085D02*
D03*
X4958D02*
D03*
X5340D02*
D03*
X5467D02*
D03*
D32*
X7350Y4800D02*
D03*
X7200Y4500D02*
D03*
X7350Y4200D02*
D03*
X7200Y3300D02*
D03*
X7350Y3000D02*
D03*
X6900Y5700D02*
D03*
Y5100D02*
D03*
Y4500D02*
D03*
X7050Y4200D02*
D03*
X6900Y3900D02*
D03*
X7050Y3000D02*
D03*
X6900Y2700D02*
D03*
X7050Y2400D02*
D03*
X6900Y2100D02*
D03*
X6750Y6000D02*
D03*
Y5400D02*
D03*
Y4800D02*
D03*
Y3600D02*
D03*
X6600Y2700D02*
D03*
X6750Y2400D02*
D03*
X6600Y2100D02*
D03*
X6750Y1800D02*
D03*
X6300Y6300D02*
D03*
X6450Y6000D02*
D03*
X6300Y5700D02*
D03*
X6450Y5400D02*
D03*
Y1800D02*
D03*
X6300Y1500D02*
D03*
X6000Y6300D02*
D03*
X6150Y6000D02*
D03*
X6000Y5700D02*
D03*
X6150Y5400D02*
D03*
X6000Y5100D02*
D03*
X6150Y3000D02*
D03*
X6000Y1500D02*
D03*
X5700Y6900D02*
D03*
X5850Y6600D02*
D03*
X5700Y6300D02*
D03*
X5850Y6000D02*
D03*
X5700Y5700D02*
D03*
Y5100D02*
D03*
Y2700D02*
D03*
Y900D02*
D03*
X5550Y6000D02*
D03*
X5400Y5700D02*
D03*
X5550Y5400D02*
D03*
X5400Y5100D02*
D03*
Y2700D02*
D03*
X5550Y2400D02*
D03*
Y1200D02*
D03*
X5400Y900D02*
D03*
X5100Y6900D02*
D03*
X5250Y6600D02*
D03*
X5100Y6300D02*
D03*
X5250Y6000D02*
D03*
X5100Y5700D02*
D03*
X5250Y5400D02*
D03*
X5100Y2700D02*
D03*
X5250Y1200D02*
D03*
X5100Y900D02*
D03*
X4800Y6900D02*
D03*
X4950Y6600D02*
D03*
X4800Y6300D02*
D03*
Y900D02*
D03*
Y300D02*
D03*
X4650Y7200D02*
D03*
X4500Y6900D02*
D03*
X4650Y6600D02*
D03*
Y1800D02*
D03*
Y600D02*
D03*
X4500Y300D02*
D03*
X4350Y7200D02*
D03*
X4200Y6900D02*
D03*
X4350Y6600D02*
D03*
X4200Y900D02*
D03*
X4350Y600D02*
D03*
X4050Y7200D02*
D03*
X3900Y6900D02*
D03*
X4050Y6600D02*
D03*
X3600Y6900D02*
D03*
X3750Y1200D02*
D03*
X3600Y900D02*
D03*
X3750Y600D02*
D03*
X3450Y7200D02*
D03*
Y6600D02*
D03*
Y2400D02*
D03*
X3150Y7200D02*
D03*
X3000Y6900D02*
D03*
X3150Y2400D02*
D03*
X3000Y900D02*
D03*
X3150Y600D02*
D03*
X3000Y300D02*
D03*
X2850Y7200D02*
D03*
Y2400D02*
D03*
X2700Y900D02*
D03*
X2850Y600D02*
D03*
X2400Y6900D02*
D03*
X2550Y6600D02*
D03*
X2400Y6300D02*
D03*
Y2700D02*
D03*
X2550Y1800D02*
D03*
X2100Y6900D02*
D03*
X2250Y6600D02*
D03*
X2100Y6300D02*
D03*
X2250Y1200D02*
D03*
X2100Y900D02*
D03*
X1800Y6900D02*
D03*
X1950Y6600D02*
D03*
X1800Y6300D02*
D03*
X1950Y6000D02*
D03*
X1800Y5700D02*
D03*
X1950Y1200D02*
D03*
X1800Y900D02*
D03*
X1650Y6600D02*
D03*
X1500Y6300D02*
D03*
Y1500D02*
D03*
X1650Y1200D02*
D03*
X1350Y6000D02*
D03*
X1200Y5700D02*
D03*
X1350Y5400D02*
D03*
X1050Y6000D02*
D03*
X900Y5700D02*
D03*
Y5100D02*
D03*
Y4500D02*
D03*
Y3900D02*
D03*
Y3300D02*
D03*
Y2100D02*
D03*
X600Y5100D02*
D03*
X750Y4800D02*
D03*
X600Y4500D02*
D03*
X750Y3600D02*
D03*
X600Y3300D02*
D03*
X750Y3000D02*
D03*
Y2400D02*
D03*
X600Y2100D02*
D03*
X450Y4800D02*
D03*
X300Y4500D02*
D03*
X450Y3600D02*
D03*
X300Y3300D02*
D03*
X450Y3000D02*
D03*
X4364Y2277D02*
D03*
X3953Y1662D02*
D03*
X2858Y1855D02*
D03*
X3968Y2430D02*
D03*
X4840Y2373D02*
D03*
X2105Y2515D02*
D03*
X4128Y2058D02*
D03*
X3650Y1304D02*
D03*
X4547Y2233D02*
D03*
X3750Y1980D02*
D03*
X3730Y1344D02*
D03*
X4033Y2085D02*
D03*
X3890Y2180D02*
D03*
X3810Y2100D02*
D03*
X3730Y2180D02*
D03*
D41*
X4612Y1157D02*
D03*
X4433D02*
D03*
Y1388D02*
D03*
X4612D02*
D03*
D42*
X4270Y2170D02*
D03*
Y2090D02*
D03*
Y2010D02*
D03*
Y1930D02*
D03*
Y1850D02*
D03*
Y1770D02*
D03*
Y1690D02*
D03*
Y1610D02*
D03*
X3430D02*
D03*
Y1690D02*
D03*
Y1770D02*
D03*
Y1850D02*
D03*
Y1930D02*
D03*
Y2010D02*
D03*
Y2090D02*
D03*
Y2170D02*
D03*
D43*
X4130Y1470D02*
D03*
X4050D02*
D03*
X3970D02*
D03*
X3890D02*
D03*
X3810D02*
D03*
X3730D02*
D03*
X3650D02*
D03*
X3570D02*
D03*
Y2310D02*
D03*
X3650D02*
D03*
X3730D02*
D03*
X3810D02*
D03*
X3890D02*
D03*
X3970D02*
D03*
X4050D02*
D03*
X4130D02*
D03*
M02*
