G04*
G04 #@! TF.GenerationSoftware,Altium Limited,Altium Designer,18.1.7 (191)*
G04*
G04 Layer_Physical_Order=2*
G04 Layer_Color=16711680*
%FSLAX42Y42*%
%MOMM*%
G71*
G01*
G75*
%ADD21R,1.02X0.75*%
%ADD22R,0.75X1.02*%
%ADD25C,1.60*%
%ADD26C,1.50*%
%ADD27C,2.00*%
%ADD28R,2.00X2.00*%
%ADD29C,3.00*%
%ADD30C,0.90*%
%ADD31C,1.00*%
%ADD33C,0.50*%
%ADD34C,0.40*%
%ADD35C,0.70*%
%ADD37C,1.00*%
%ADD38C,0.80*%
%ADD39C,0.60*%
%ADD40C,0.70*%
%ADD41R,1.10X1.30*%
%ADD42O,1.65X0.55*%
%ADD43O,0.55X1.65*%
G36*
X3903Y7562D02*
X3904Y7546D01*
X3905Y7539D01*
X3906Y7533D01*
X3908Y7527D01*
X3909Y7521D01*
X3911Y7516D01*
X3914Y7512D01*
X3916Y7508D01*
X3789D01*
X3791Y7512D01*
X3794Y7516D01*
X3796Y7521D01*
X3797Y7527D01*
X3799Y7533D01*
X3800Y7539D01*
X3801Y7546D01*
X3802Y7562D01*
X3803Y7570D01*
X3903D01*
X3903Y7562D01*
D02*
G37*
G36*
X3773Y7568D02*
X3777Y7560D01*
X3776Y7549D01*
X3775Y7544D01*
X3774Y7539D01*
X3773Y7534D01*
X3772Y7530D01*
X3771Y7527D01*
X3769Y7525D01*
X3767Y7522D01*
X3767Y7521D01*
X3761Y7513D01*
X3750Y7487D01*
X3747Y7460D01*
X3750Y7433D01*
X3761Y7407D01*
X3778Y7385D01*
X3800Y7368D01*
X3825Y7358D01*
X3853Y7354D01*
X3880Y7358D01*
X3905Y7368D01*
X3927Y7385D01*
X3944Y7407D01*
X3955Y7433D01*
X3958Y7460D01*
X3955Y7487D01*
X3944Y7513D01*
X3938Y7521D01*
X3938Y7522D01*
X3936Y7525D01*
X3934Y7527D01*
X3933Y7530D01*
X3932Y7534D01*
X3931Y7539D01*
X3930Y7544D01*
X3929Y7549D01*
X3928Y7560D01*
X3932Y7568D01*
X3937Y7573D01*
X4033Y7570D01*
X4060Y7568D01*
X4063Y7555D01*
X4054Y7552D01*
X4032Y7535D01*
X4015Y7513D01*
X4004Y7487D01*
X4001Y7460D01*
X4004Y7433D01*
X4015Y7407D01*
X4032Y7385D01*
X4054Y7368D01*
X4079Y7358D01*
X4106Y7354D01*
X4134Y7358D01*
X4159Y7368D01*
X4181Y7385D01*
X4198Y7407D01*
X4209Y7433D01*
X4212Y7460D01*
X4209Y7487D01*
X4198Y7513D01*
X4181Y7535D01*
X4164Y7548D01*
X4169Y7560D01*
X4215Y7557D01*
X4397Y7535D01*
X4577Y7503D01*
X4755Y7463D01*
X4931Y7414D01*
X4975Y7400D01*
X4974Y7387D01*
X4959Y7383D01*
X4936Y7370D01*
X4918Y7351D01*
X4917Y7350D01*
X5007Y7313D01*
X5098Y7275D01*
X5098Y7277D01*
X5098Y7303D01*
X5091Y7328D01*
X5078Y7351D01*
X5076Y7353D01*
X5082Y7365D01*
X5105Y7357D01*
X5193Y7323D01*
X5199Y7307D01*
X5198Y7305D01*
X5195Y7300D01*
X5192Y7296D01*
X5189Y7292D01*
X5187Y7289D01*
X5184Y7287D01*
X5182Y7285D01*
X5179Y7283D01*
X5178Y7282D01*
X5168Y7277D01*
X5148Y7257D01*
X5135Y7233D01*
X5128Y7206D01*
Y7179D01*
X5135Y7152D01*
X5148Y7128D01*
X5168Y7108D01*
X5192Y7095D01*
X5219Y7088D01*
X5246D01*
X5273Y7095D01*
X5297Y7108D01*
X5317Y7128D01*
X5330Y7152D01*
X5338Y7179D01*
Y7206D01*
X5335Y7214D01*
X5335Y7216D01*
X5335Y7219D01*
X5335Y7222D01*
X5335Y7225D01*
X5335Y7229D01*
X5336Y7233D01*
X5337Y7238D01*
X5338Y7244D01*
X5340Y7249D01*
X5355Y7256D01*
X5443Y7217D01*
X5452Y7212D01*
X5450Y7199D01*
X5427Y7193D01*
X5403Y7179D01*
X5383Y7160D01*
X5369Y7136D01*
X5362Y7109D01*
Y7081D01*
X5369Y7055D01*
X5383Y7031D01*
X5403Y7011D01*
X5427Y6997D01*
X5453Y6990D01*
X5481D01*
X5508Y6997D01*
X5532Y7011D01*
X5551Y7031D01*
X5565Y7055D01*
X5572Y7081D01*
Y7109D01*
X5565Y7136D01*
X5560Y7144D01*
X5565Y7150D01*
X5570Y7153D01*
X5606Y7135D01*
X5765Y7045D01*
X5798Y7024D01*
X5919Y6947D01*
X6069Y6842D01*
X6213Y6729D01*
X6250Y6697D01*
X6245Y6685D01*
X6223Y6688D01*
X6197Y6685D01*
X6172Y6674D01*
X6172Y6674D01*
X6241Y6605D01*
X6310Y6536D01*
X6310Y6537D01*
X6320Y6561D01*
X6324Y6587D01*
X6320Y6613D01*
X6316Y6624D01*
X6327Y6631D01*
X6351Y6610D01*
X6422Y6543D01*
X6420Y6527D01*
X6417Y6524D01*
X6412Y6521D01*
X6408Y6518D01*
X6404Y6516D01*
X6400Y6515D01*
X6397Y6514D01*
X6394Y6513D01*
X6391Y6512D01*
X6389Y6512D01*
X6375Y6510D01*
X6350Y6499D01*
X6328Y6482D01*
X6311Y6460D01*
X6300Y6435D01*
X6297Y6407D01*
X6300Y6380D01*
X6311Y6355D01*
X6328Y6333D01*
X6350Y6316D01*
X6375Y6305D01*
X6403Y6302D01*
X6430Y6305D01*
X6455Y6316D01*
X6477Y6333D01*
X6494Y6355D01*
X6505Y6380D01*
X6506Y6386D01*
X6506Y6387D01*
X6507Y6390D01*
X6508Y6392D01*
X6509Y6395D01*
X6511Y6399D01*
X6513Y6403D01*
X6516Y6407D01*
X6520Y6411D01*
X6528Y6419D01*
X6541Y6424D01*
X6610Y6351D01*
X6620Y6339D01*
X6613Y6329D01*
X6610Y6330D01*
X6582Y6334D01*
X6555Y6330D01*
X6529Y6320D01*
X6507Y6303D01*
X6490Y6281D01*
X6480Y6255D01*
X6476Y6228D01*
X6480Y6200D01*
X6490Y6175D01*
X6507Y6153D01*
X6529Y6136D01*
X6555Y6126D01*
X6582Y6122D01*
X6610Y6126D01*
X6635Y6136D01*
X6657Y6153D01*
X6674Y6175D01*
X6684Y6200D01*
X6688Y6228D01*
X6686Y6244D01*
X6698Y6249D01*
X6729Y6213D01*
X6838Y6073D01*
X6842Y6069D01*
X6947Y5919D01*
X7045Y5765D01*
X7135Y5606D01*
X7158Y5561D01*
X7148Y5552D01*
X7129Y5563D01*
X7103Y5570D01*
X7077Y5570D01*
X7076Y5569D01*
X7113Y5479D01*
X7151Y5389D01*
X7152Y5390D01*
X7170Y5408D01*
X7183Y5431D01*
X7190Y5456D01*
Y5468D01*
X7203Y5471D01*
X7217Y5443D01*
X7253Y5361D01*
X7238Y5352D01*
X7226Y5346D01*
X7221Y5344D01*
X7216Y5342D01*
X7211Y5341D01*
X7208Y5340D01*
X7204Y5340D01*
X7202Y5340D01*
X7201Y5340D01*
X7174D01*
X7147Y5333D01*
X7123Y5319D01*
X7103Y5299D01*
X7090Y5276D01*
X7082Y5249D01*
Y5221D01*
X7090Y5194D01*
X7103Y5171D01*
X7123Y5151D01*
X7147Y5137D01*
X7174Y5130D01*
X7201D01*
X7228Y5137D01*
X7252Y5151D01*
X7272Y5171D01*
X7285Y5194D01*
X7286Y5196D01*
X7287Y5198D01*
X7289Y5201D01*
X7292Y5204D01*
X7295Y5207D01*
X7299Y5210D01*
X7302Y5213D01*
X7311Y5212D01*
X7316Y5211D01*
X7357Y5105D01*
X7360Y5095D01*
X7360Y5095D01*
X7360Y5095D01*
X7362Y5089D01*
X7351Y5082D01*
X7349Y5084D01*
X7325Y5098D01*
X7299Y5105D01*
X7271D01*
X7244Y5098D01*
X7220Y5084D01*
X7201Y5065D01*
X7187Y5041D01*
X7180Y5014D01*
Y4987D01*
X7187Y4960D01*
X7201Y4936D01*
X7220Y4916D01*
X7244Y4902D01*
X7271Y4895D01*
X7299D01*
X7325Y4902D01*
X7349Y4916D01*
X7369Y4936D01*
X7383Y4960D01*
X7387Y4975D01*
X7400Y4975D01*
X7414Y4931D01*
X7463Y4755D01*
X7484Y4665D01*
X7503Y4577D01*
X7535Y4397D01*
X7557Y4215D01*
X7560Y4170D01*
X7548Y4165D01*
X7536Y4180D01*
X7515Y4196D01*
X7491Y4206D01*
X7490Y4207D01*
Y4109D01*
Y4011D01*
X7491Y4012D01*
X7515Y4022D01*
X7536Y4038D01*
X7552Y4059D01*
X7555Y4065D01*
X7568Y4063D01*
X7570Y4033D01*
X7573Y3939D01*
X7560Y3928D01*
X7557Y3929D01*
X7551Y3930D01*
X7546Y3931D01*
X7542Y3932D01*
X7538Y3933D01*
X7535Y3935D01*
X7533Y3936D01*
X7530Y3938D01*
X7528Y3939D01*
X7518Y3947D01*
X7492Y3957D01*
X7465Y3961D01*
X7438Y3957D01*
X7412Y3947D01*
X7390Y3930D01*
X7373Y3908D01*
X7363Y3882D01*
X7359Y3855D01*
X7363Y3828D01*
X7373Y3802D01*
X7390Y3780D01*
X7412Y3763D01*
X7438Y3753D01*
X7465Y3749D01*
X7492Y3753D01*
X7518Y3763D01*
X7523Y3768D01*
X7524Y3768D01*
X7527Y3770D01*
X7530Y3771D01*
X7533Y3772D01*
X7537Y3773D01*
X7541Y3774D01*
X7546Y3775D01*
X7552Y3776D01*
X7560Y3776D01*
X7573Y3767D01*
X7570Y3667D01*
X7570Y3656D01*
X7557Y3654D01*
X7557Y3654D01*
X7540Y3676D01*
X7518Y3693D01*
X7492Y3703D01*
X7465Y3707D01*
X7438Y3703D01*
X7412Y3693D01*
X7390Y3676D01*
X7373Y3654D01*
X7363Y3628D01*
X7359Y3601D01*
X7363Y3574D01*
X7373Y3548D01*
X7390Y3526D01*
X7412Y3509D01*
X7438Y3499D01*
X7465Y3495D01*
X7492Y3499D01*
X7518Y3509D01*
X7540Y3526D01*
X7548Y3537D01*
X7560Y3532D01*
X7557Y3485D01*
X7535Y3303D01*
X7503Y3123D01*
X7463Y2945D01*
X7414Y2769D01*
X7392Y2702D01*
X7380Y2704D01*
X7380Y2723D01*
X7373Y2748D01*
X7360Y2771D01*
X7341Y2790D01*
X7340Y2790D01*
X7303Y2700D01*
X7265Y2610D01*
X7267Y2610D01*
X7293Y2610D01*
X7318Y2616D01*
X7341Y2630D01*
X7360Y2648D01*
X7363Y2655D01*
X7375Y2649D01*
X7357Y2595D01*
X7318Y2493D01*
X7302Y2489D01*
X7299Y2491D01*
X7295Y2495D01*
X7291Y2498D01*
X7288Y2502D01*
X7285Y2505D01*
X7284Y2507D01*
X7282Y2510D01*
X7281Y2512D01*
X7280Y2516D01*
X7267Y2539D01*
X7247Y2559D01*
X7223Y2573D01*
X7196Y2580D01*
X7169D01*
X7142Y2573D01*
X7118Y2559D01*
X7098Y2539D01*
X7085Y2516D01*
X7078Y2489D01*
Y2461D01*
X7085Y2434D01*
X7098Y2411D01*
X7118Y2391D01*
X7142Y2377D01*
X7169Y2370D01*
X7187D01*
X7189Y2370D01*
X7192Y2370D01*
X7195Y2370D01*
X7198Y2369D01*
X7202Y2368D01*
X7206Y2367D01*
X7211Y2365D01*
X7216Y2362D01*
X7228Y2356D01*
X7253Y2339D01*
X7217Y2257D01*
X7203Y2229D01*
X7190Y2232D01*
Y2254D01*
X7183Y2281D01*
X7169Y2305D01*
X7150Y2324D01*
X7126Y2338D01*
X7099Y2345D01*
X7071D01*
X7045Y2338D01*
X7021Y2324D01*
X7001Y2305D01*
X6987Y2281D01*
X6980Y2254D01*
Y2227D01*
X6987Y2200D01*
X7001Y2176D01*
X7021Y2156D01*
X7045Y2142D01*
X7071Y2135D01*
X7099D01*
X7126Y2142D01*
X7150Y2156D01*
X7154Y2161D01*
X7165Y2154D01*
X7135Y2094D01*
X7045Y1935D01*
X7009Y1878D01*
X6947Y1781D01*
X6842Y1631D01*
X6729Y1487D01*
X6613Y1352D01*
X6612Y1352D01*
X6609Y1348D01*
X6546Y1281D01*
X6533Y1281D01*
X6526Y1288D01*
X6517Y1299D01*
X6514Y1303D01*
X6511Y1307D01*
X6509Y1311D01*
X6507Y1315D01*
X6506Y1318D01*
X6505Y1320D01*
X6504Y1324D01*
X6504Y1325D01*
X6502Y1335D01*
X6492Y1360D01*
X6475Y1382D01*
X6453Y1399D01*
X6427Y1410D01*
X6400Y1413D01*
X6373Y1410D01*
X6347Y1399D01*
X6325Y1382D01*
X6308Y1360D01*
X6298Y1335D01*
X6294Y1307D01*
X6298Y1280D01*
X6308Y1255D01*
X6325Y1233D01*
X6347Y1216D01*
X6373Y1205D01*
X6382Y1204D01*
X6384Y1203D01*
X6387Y1203D01*
X6390Y1202D01*
X6393Y1201D01*
X6396Y1199D01*
X6400Y1197D01*
X6404Y1194D01*
X6409Y1190D01*
X6419Y1181D01*
X6426Y1174D01*
X6426Y1161D01*
X6351Y1090D01*
X6317Y1060D01*
X6307Y1069D01*
X6312Y1075D01*
X6323Y1100D01*
X6326Y1128D01*
X6323Y1155D01*
X6312Y1181D01*
X6295Y1203D01*
X6273Y1220D01*
X6248Y1230D01*
X6220Y1234D01*
X6193Y1230D01*
X6167Y1220D01*
X6146Y1203D01*
X6129Y1181D01*
X6118Y1155D01*
X6114Y1128D01*
X6118Y1100D01*
X6129Y1075D01*
X6146Y1053D01*
X6167Y1036D01*
X6193Y1026D01*
X6220Y1022D01*
X6248Y1026D01*
X6266Y1033D01*
X6273Y1022D01*
X6213Y971D01*
X6122Y900D01*
X5800Y1223D01*
Y1973D01*
X5800Y1982D01*
X5800Y1988D01*
X5802Y1998D01*
X5802Y2002D01*
X5803Y2005D01*
X5804Y2007D01*
X5804Y2008D01*
X5805Y2009D01*
X5806Y2010D01*
X5811Y2017D01*
X5821Y2041D01*
X5824Y2067D01*
X5821Y2094D01*
X5811Y2118D01*
X5795Y2139D01*
X5774Y2155D01*
X5750Y2165D01*
X5724Y2168D01*
X5697Y2165D01*
X5673Y2155D01*
X5652Y2139D01*
X5636Y2118D01*
X5626Y2094D01*
X5623Y2067D01*
X5626Y2041D01*
X5636Y2017D01*
X5642Y2010D01*
X5642Y2008D01*
X5643Y2007D01*
X5644Y2006D01*
X5645Y2004D01*
X5646Y2001D01*
X5646Y1997D01*
X5647Y1993D01*
X5648Y1974D01*
Y1191D01*
X5651Y1172D01*
X5658Y1153D01*
X5671Y1138D01*
X5992Y816D01*
X5989Y802D01*
X5919Y753D01*
X5765Y655D01*
X5606Y565D01*
X5443Y483D01*
X5365Y448D01*
X5349Y476D01*
X5347Y481D01*
X5341Y493D01*
X5340Y498D01*
X5339Y502D01*
X5338Y506D01*
X5337Y509D01*
X5337Y510D01*
X5338Y511D01*
Y539D01*
X5330Y566D01*
X5317Y589D01*
X5297Y609D01*
X5273Y623D01*
X5246Y630D01*
X5219D01*
X5192Y623D01*
X5168Y609D01*
X5148Y589D01*
X5135Y566D01*
X5128Y539D01*
Y511D01*
X5135Y484D01*
X5148Y461D01*
X5168Y441D01*
X5192Y427D01*
X5194Y427D01*
X5194Y427D01*
X5196Y425D01*
X5199Y423D01*
X5202Y420D01*
X5205Y417D01*
X5209Y413D01*
X5212Y409D01*
X5218Y400D01*
X5217Y389D01*
X5216Y386D01*
X5105Y343D01*
X5061Y328D01*
X5056Y340D01*
X5062Y344D01*
X5082Y363D01*
X5096Y387D01*
X5103Y414D01*
Y442D01*
X5096Y468D01*
X5082Y492D01*
X5062Y512D01*
X5038Y526D01*
X5012Y533D01*
X4984D01*
X4957Y526D01*
X4933Y512D01*
X4914Y492D01*
X4900Y468D01*
X4893Y442D01*
Y414D01*
X4900Y387D01*
X4914Y363D01*
X4933Y344D01*
X4957Y330D01*
X4984Y323D01*
X5004D01*
X5006Y310D01*
X4931Y286D01*
X4755Y237D01*
X4707Y226D01*
Y226D01*
X4577Y197D01*
X4397Y165D01*
X4215Y143D01*
X4033Y130D01*
X3945Y127D01*
X3936Y136D01*
Y158D01*
X3936Y171D01*
X3938Y183D01*
X3938Y187D01*
X3939Y190D01*
X3940Y193D01*
X3940Y194D01*
X3941Y196D01*
X3941Y196D01*
X3944Y200D01*
X3955Y225D01*
X3958Y253D01*
X3955Y280D01*
X3944Y305D01*
X3927Y327D01*
X3905Y344D01*
X3880Y355D01*
X3853Y358D01*
X3825Y355D01*
X3800Y344D01*
X3778Y327D01*
X3761Y305D01*
X3750Y280D01*
X3747Y253D01*
X3750Y225D01*
X3761Y200D01*
X3770Y187D01*
X3771Y185D01*
X3774Y182D01*
X3776Y179D01*
X3778Y175D01*
X3779Y171D01*
X3781Y167D01*
X3782Y162D01*
X3783Y157D01*
X3784Y143D01*
X3784Y143D01*
Y136D01*
X3775Y127D01*
X3667Y130D01*
X3603Y134D01*
X3603Y147D01*
X3626Y150D01*
X3651Y161D01*
X3673Y178D01*
X3690Y200D01*
X3701Y225D01*
X3704Y253D01*
X3701Y280D01*
X3690Y305D01*
X3673Y327D01*
X3651Y344D01*
X3626Y355D01*
X3599Y358D01*
X3571Y355D01*
X3546Y344D01*
X3524Y327D01*
X3507Y305D01*
X3496Y280D01*
X3493Y253D01*
X3496Y225D01*
X3507Y200D01*
X3524Y178D01*
X3546Y161D01*
X3571Y150D01*
X3584Y149D01*
X3583Y136D01*
X3485Y143D01*
X3478Y144D01*
X3428Y150D01*
Y921D01*
X3428Y934D01*
X3428Y938D01*
X3428Y939D01*
X3428Y940D01*
X3429Y942D01*
X3428Y944D01*
X3429Y945D01*
X3428Y947D01*
Y980D01*
X3426Y1000D01*
X3418Y1018D01*
X3406Y1033D01*
X3390Y1046D01*
X3372Y1053D01*
X3353Y1056D01*
X3333Y1053D01*
X3315Y1046D01*
X3299Y1033D01*
X3287Y1018D01*
X3279Y1000D01*
X3277Y980D01*
Y945D01*
X3276Y942D01*
X3276Y942D01*
X3276Y941D01*
X3277Y910D01*
Y180D01*
X3267Y172D01*
X3123Y197D01*
X2945Y237D01*
X2769Y286D01*
X2694Y310D01*
X2696Y323D01*
X2720Y323D01*
X2746Y330D01*
X2769Y343D01*
X2787Y361D01*
X2788Y362D01*
X2698Y400D01*
X2607Y437D01*
X2607Y436D01*
X2607Y410D01*
X2614Y384D01*
X2627Y361D01*
X2646Y343D01*
X2659Y335D01*
X2654Y324D01*
X2595Y343D01*
X2468Y392D01*
Y408D01*
X2469Y409D01*
X2476Y414D01*
X2477Y415D01*
X2486D01*
X2513Y422D01*
X2537Y436D01*
X2557Y456D01*
X2570Y479D01*
X2577Y506D01*
Y534D01*
X2570Y561D01*
X2557Y584D01*
X2537Y604D01*
X2513Y618D01*
X2486Y625D01*
X2459D01*
X2432Y618D01*
X2408Y604D01*
X2388Y584D01*
X2375Y561D01*
X2367Y534D01*
Y525D01*
X2348Y502D01*
X2339Y493D01*
X2327Y478D01*
X2323Y468D01*
X2308Y460D01*
X2257Y483D01*
X2224Y500D01*
X2227Y512D01*
X2252D01*
X2278Y519D01*
X2302Y533D01*
X2322Y553D01*
X2336Y577D01*
X2343Y603D01*
Y631D01*
X2336Y658D01*
X2322Y682D01*
X2302Y701D01*
X2278Y715D01*
X2252Y722D01*
X2224D01*
X2197Y715D01*
X2173Y701D01*
X2154Y682D01*
X2140Y658D01*
X2133Y631D01*
Y603D01*
X2140Y577D01*
X2154Y553D01*
X2161Y546D01*
X2154Y535D01*
X2094Y565D01*
X1935Y655D01*
X1781Y753D01*
X1631Y858D01*
X1487Y971D01*
X1434Y1016D01*
X1441Y1027D01*
X1451Y1023D01*
X1477Y1020D01*
X1503Y1023D01*
X1528Y1033D01*
X1528Y1034D01*
X1459Y1103D01*
X1390Y1172D01*
X1390Y1171D01*
X1380Y1147D01*
X1376Y1120D01*
X1380Y1094D01*
X1384Y1084D01*
X1376Y1069D01*
X1374Y1068D01*
X1349Y1090D01*
X1276Y1159D01*
X1276Y1172D01*
X1278Y1174D01*
X1289Y1183D01*
X1293Y1186D01*
X1297Y1189D01*
X1301Y1191D01*
X1305Y1193D01*
X1308Y1194D01*
X1310Y1195D01*
X1314Y1196D01*
X1315Y1196D01*
X1325Y1198D01*
X1350Y1208D01*
X1372Y1225D01*
X1389Y1247D01*
X1400Y1273D01*
X1403Y1300D01*
X1400Y1327D01*
X1389Y1353D01*
X1372Y1375D01*
X1350Y1392D01*
X1325Y1402D01*
X1298Y1406D01*
X1270Y1402D01*
X1245Y1392D01*
X1223Y1375D01*
X1206Y1353D01*
X1195Y1327D01*
X1194Y1318D01*
X1193Y1316D01*
X1193Y1313D01*
X1192Y1310D01*
X1191Y1307D01*
X1189Y1304D01*
X1187Y1300D01*
X1184Y1296D01*
X1180Y1291D01*
X1172Y1281D01*
X1169Y1279D01*
X1156Y1279D01*
X1090Y1349D01*
X1070Y1372D01*
X1077Y1383D01*
X1090Y1377D01*
X1118Y1374D01*
X1145Y1377D01*
X1171Y1388D01*
X1193Y1405D01*
X1210Y1427D01*
X1220Y1452D01*
X1224Y1480D01*
X1220Y1507D01*
X1210Y1533D01*
X1193Y1554D01*
X1171Y1571D01*
X1145Y1582D01*
X1118Y1586D01*
X1090Y1582D01*
X1065Y1571D01*
X1043Y1554D01*
X1026Y1533D01*
X1016Y1507D01*
X1012Y1480D01*
X1015Y1455D01*
X1009Y1450D01*
X1004Y1448D01*
X971Y1487D01*
X907Y1569D01*
X1002Y1665D01*
X1004Y1667D01*
X1693Y2356D01*
X1827Y2222D01*
X1842Y2210D01*
X1861Y2202D01*
X1868Y2201D01*
X2169Y1899D01*
X2189Y1886D01*
X2213Y1881D01*
X2750D01*
X2984Y1647D01*
X3004Y1633D01*
X3027Y1629D01*
X3312D01*
X3323Y1618D01*
X3321Y1610D01*
X3326Y1590D01*
X3337Y1572D01*
X3355Y1561D01*
X3375Y1556D01*
X3485D01*
X3505Y1561D01*
X3523Y1572D01*
X3534Y1590D01*
X3539Y1610D01*
X3537Y1618D01*
X3547Y1629D01*
X3650D01*
X3673Y1633D01*
X3693Y1647D01*
X3915Y1869D01*
X4059D01*
Y1810D01*
X4063Y1787D01*
X4077Y1767D01*
X4117Y1727D01*
X4137Y1713D01*
X4153Y1710D01*
X4163Y1697D01*
X4161Y1690D01*
X4166Y1670D01*
X4177Y1652D01*
Y1648D01*
X4166Y1630D01*
X4161Y1610D01*
X4166Y1590D01*
X4177Y1572D01*
X4195Y1561D01*
X4215Y1556D01*
X4217D01*
X4218Y1553D01*
X4219Y1547D01*
X4219Y1544D01*
Y1255D01*
X4223Y1235D01*
X4234Y1219D01*
X4326Y1126D01*
X4343Y1115D01*
X4353Y1114D01*
Y1068D01*
X4365D01*
X4369Y1061D01*
X4364Y1052D01*
X4360D01*
Y1027D01*
X4360Y1026D01*
X4360Y1025D01*
Y1023D01*
X4360Y1023D01*
X4360Y1023D01*
Y927D01*
X4512D01*
Y1052D01*
X4501D01*
X4496Y1060D01*
X4501Y1068D01*
X4512D01*
Y1248D01*
X4353D01*
X4353Y1248D01*
Y1248D01*
X4343Y1254D01*
X4321Y1276D01*
Y1544D01*
X4321Y1547D01*
X4322Y1553D01*
X4323Y1556D01*
X4325D01*
X4345Y1561D01*
X4363Y1572D01*
X4374Y1590D01*
X4379Y1610D01*
X4375Y1626D01*
X4383Y1639D01*
X4509D01*
X4551Y1598D01*
Y1507D01*
X4551Y1506D01*
X4551Y1505D01*
Y1481D01*
X4540Y1477D01*
X4533D01*
Y1298D01*
X4692D01*
Y1477D01*
X4687D01*
X4676Y1481D01*
Y1505D01*
X4676Y1506D01*
X4676Y1507D01*
Y1632D01*
X4657D01*
X4650Y1643D01*
X4567Y1726D01*
X4550Y1737D01*
X4531Y1741D01*
X4383D01*
X4375Y1754D01*
X4379Y1770D01*
X4374Y1790D01*
X4365Y1804D01*
X4359Y1816D01*
X4365Y1825D01*
X4270D01*
Y1875D01*
X4375D01*
X4378Y1879D01*
X4393D01*
X4397Y1879D01*
X4402Y1878D01*
X4406Y1877D01*
X4407Y1876D01*
Y1841D01*
X4558D01*
Y1966D01*
X4519D01*
X4519Y1966D01*
X4513Y1970D01*
X4510Y1987D01*
X4512Y1989D01*
X4558D01*
Y2028D01*
X4584Y2053D01*
X4595Y2070D01*
X4598Y2090D01*
Y2210D01*
X4599Y2211D01*
X4604Y2233D01*
X4599Y2254D01*
X4587Y2272D01*
X4569Y2284D01*
X4547Y2289D01*
X4526Y2284D01*
X4508Y2272D01*
X4496Y2254D01*
X4491Y2233D01*
X4496Y2211D01*
X4497Y2210D01*
Y2114D01*
X4407D01*
Y1994D01*
X4407Y1989D01*
X4397Y1981D01*
X4377D01*
X4375Y1985D01*
X4270D01*
Y2035D01*
X4365D01*
X4359Y2044D01*
X4365Y2056D01*
X4374Y2070D01*
X4379Y2090D01*
X4374Y2110D01*
X4363Y2128D01*
Y2132D01*
X4374Y2150D01*
X4379Y2170D01*
X4374Y2190D01*
X4363Y2208D01*
X4345Y2219D01*
X4325Y2224D01*
X4215D01*
X4207Y2222D01*
X4186Y2221D01*
X4179Y2234D01*
X4179Y2235D01*
X4184Y2255D01*
Y2365D01*
X4180Y2381D01*
X4188Y2394D01*
X4536D01*
X4842Y2088D01*
X4843Y2087D01*
X4846Y2083D01*
X4852Y2073D01*
X4854Y2067D01*
X4863Y2045D01*
X4864Y2043D01*
X4864Y2041D01*
X4865Y2039D01*
X4866Y2037D01*
X4866Y2036D01*
X4874Y2017D01*
X4890Y1996D01*
X4911Y1980D01*
X4935Y1970D01*
X4962Y1967D01*
X4988Y1970D01*
X5012Y1980D01*
X5033Y1996D01*
X5049Y2017D01*
X5059Y2041D01*
X5062Y2067D01*
X5059Y2094D01*
X5049Y2118D01*
X5033Y2139D01*
X5012Y2155D01*
X4988Y2165D01*
X4962Y2168D01*
X4958Y2168D01*
X4948Y2168D01*
X4938Y2168D01*
X4919Y2169D01*
X4913Y2170D01*
X4907Y2172D01*
X4903Y2173D01*
X4900Y2174D01*
X4616Y2458D01*
X4621Y2469D01*
X4742D01*
X4743Y2470D01*
X4745Y2470D01*
X4791Y2475D01*
X4795Y2476D01*
X4798Y2477D01*
X4842Y2492D01*
X4845Y2494D01*
X4848Y2496D01*
X4887Y2521D01*
X4889Y2523D01*
X4892Y2525D01*
X4924Y2559D01*
X4926Y2562D01*
X4928Y2565D01*
X4951Y2605D01*
X4952Y2605D01*
X4952Y2605D01*
X4978Y2652D01*
X5010Y2691D01*
X5051Y2724D01*
X5051Y2725D01*
X5051Y2725D01*
X5087Y2756D01*
X5089Y2758D01*
X5091Y2761D01*
X5119Y2799D01*
X5120Y2802D01*
X5122Y2805D01*
X5140Y2848D01*
X5140Y2852D01*
X5142Y2855D01*
X5149Y2901D01*
X5149Y2901D01*
X5149Y2901D01*
X5153Y2930D01*
X5163Y2955D01*
X5177Y2976D01*
X5196Y2994D01*
X5218Y3008D01*
X5243Y3016D01*
X5270Y3019D01*
X6070D01*
X6072Y3020D01*
X6074Y3020D01*
X6117Y3024D01*
X6120Y3025D01*
X6123Y3026D01*
X6165Y3040D01*
X6167Y3041D01*
X6171Y3043D01*
X6208Y3065D01*
X6210Y3067D01*
X6213Y3069D01*
X6245Y3099D01*
X6246Y3102D01*
X6249Y3104D01*
X6273Y3140D01*
X6274Y3143D01*
X6276Y3146D01*
X6292Y3187D01*
X6292Y3189D01*
X6293Y3191D01*
X6330Y3347D01*
X6330Y3348D01*
X6330Y3349D01*
X6357Y3507D01*
X6357Y3508D01*
X6358Y3509D01*
X6374Y3669D01*
X6374Y3670D01*
X6374Y3671D01*
X6381Y3831D01*
X6380Y3832D01*
X6381Y3833D01*
X6376Y3994D01*
X6376Y3995D01*
X6376Y3996D01*
X6362Y4156D01*
X6362Y4157D01*
X6362Y4158D01*
X6337Y4317D01*
X6337Y4317D01*
X6337Y4318D01*
X6302Y4475D01*
X6302Y4476D01*
X6302Y4477D01*
X6257Y4631D01*
X6256Y4632D01*
X6256Y4633D01*
X6202Y4784D01*
X6201Y4786D01*
X6200Y4789D01*
X6177Y4830D01*
X6175Y4833D01*
X6173Y4836D01*
X6141Y4872D01*
X6138Y4874D01*
X6136Y4876D01*
X6096Y4903D01*
X6093Y4904D01*
X6090Y4906D01*
X6045Y4923D01*
X6042Y4924D01*
X6038Y4925D01*
X5991Y4930D01*
X5989Y4930D01*
X5987Y4931D01*
X5202D01*
X5147Y4936D01*
X5097Y4951D01*
X5050Y4976D01*
X5010Y5010D01*
X4976Y5050D01*
X4951Y5097D01*
X4936Y5147D01*
X4931Y5202D01*
Y5987D01*
X4930Y5989D01*
X4930Y5991D01*
X4925Y6038D01*
X4924Y6042D01*
X4923Y6045D01*
X4906Y6090D01*
X4904Y6093D01*
X4903Y6096D01*
X4876Y6136D01*
X4874Y6138D01*
X4872Y6141D01*
X4836Y6173D01*
X4833Y6175D01*
X4830Y6177D01*
X4789Y6200D01*
X4786Y6201D01*
X4784Y6202D01*
X4606Y6265D01*
X4605Y6265D01*
X4604Y6266D01*
X4421Y6315D01*
X4420Y6315D01*
X4419Y6316D01*
X4233Y6351D01*
X4232Y6351D01*
X4231Y6352D01*
X4043Y6373D01*
X4041Y6373D01*
X4040Y6373D01*
X3851Y6381D01*
X3850Y6380D01*
X3849Y6381D01*
X3685Y6375D01*
X3684Y6375D01*
X3683Y6375D01*
X3520Y6359D01*
X3519Y6359D01*
X3518Y6359D01*
X3357Y6332D01*
X3356Y6332D01*
X3355Y6332D01*
X3195Y6294D01*
X3194Y6294D01*
X3193Y6294D01*
X3037Y6246D01*
X3036Y6246D01*
X3035Y6246D01*
X2881Y6188D01*
X2881Y6187D01*
X2880Y6187D01*
X2730Y6119D01*
X2730Y6119D01*
X2729Y6119D01*
X2584Y6041D01*
X2583Y6041D01*
X2583Y6040D01*
X2443Y5954D01*
X2443Y5953D01*
X2442Y5953D01*
X2309Y5857D01*
X2308Y5856D01*
X2307Y5856D01*
X2181Y5752D01*
X2180Y5751D01*
X2179Y5751D01*
X2060Y5638D01*
X2059Y5638D01*
X2058Y5637D01*
X1946Y5517D01*
X1946Y5517D01*
X1945Y5516D01*
X1841Y5389D01*
X1841Y5388D01*
X1840Y5388D01*
X1745Y5254D01*
X1744Y5253D01*
X1744Y5253D01*
X1657Y5113D01*
X1657Y5113D01*
X1656Y5112D01*
X1579Y4967D01*
X1579Y4966D01*
X1579Y4965D01*
X1511Y4816D01*
X1511Y4815D01*
X1510Y4814D01*
X1453Y4661D01*
X1453Y4660D01*
X1452Y4659D01*
X1405Y4502D01*
X1405Y4501D01*
X1404Y4500D01*
X1367Y4341D01*
X1367Y4340D01*
X1367Y4339D01*
X1341Y4177D01*
X1341Y4176D01*
X1340Y4175D01*
X1325Y4012D01*
X1325Y4011D01*
X1324Y4010D01*
X1319Y3846D01*
X1320Y3845D01*
X1319Y3844D01*
X1325Y3681D01*
X1325Y3680D01*
X1325Y3679D01*
X1342Y3516D01*
X1342Y3515D01*
X1342Y3514D01*
X1369Y3352D01*
X1369Y3351D01*
X1369Y3350D01*
X1407Y3191D01*
X1408Y3189D01*
X1408Y3187D01*
X1424Y3146D01*
X1426Y3143D01*
X1427Y3140D01*
X1451Y3104D01*
X1454Y3102D01*
X1455Y3099D01*
X1487Y3069D01*
X1490Y3067D01*
X1492Y3065D01*
X1529Y3043D01*
X1533Y3041D01*
X1535Y3040D01*
X1577Y3026D01*
X1580Y3025D01*
X1583Y3024D01*
X1626Y3020D01*
X1628Y3020D01*
X1630Y3019D01*
X2340D01*
X2369Y3016D01*
X2395Y3007D01*
X2418Y2992D01*
X2437Y2972D01*
X2451Y2948D01*
X2460Y2919D01*
X2471Y2880D01*
X2472Y2878D01*
X2473Y2875D01*
X2492Y2839D01*
X2494Y2837D01*
X2495Y2834D01*
X2521Y2803D01*
X2523Y2801D01*
X2525Y2799D01*
X2556Y2773D01*
X2559Y2772D01*
X2562Y2770D01*
X2597Y2751D01*
X2597Y2751D01*
X2597Y2751D01*
X2646Y2726D01*
X2687Y2693D01*
X2721Y2653D01*
X2748Y2605D01*
X2748Y2605D01*
X2749Y2605D01*
X2772Y2565D01*
X2774Y2562D01*
X2776Y2559D01*
X2808Y2525D01*
X2811Y2523D01*
X2813Y2521D01*
X2852Y2496D01*
X2855Y2494D01*
X2858Y2492D01*
X2902Y2477D01*
X2905Y2476D01*
X2909Y2475D01*
X2955Y2470D01*
X2957Y2470D01*
X2958Y2469D01*
X3914D01*
X3920Y2458D01*
X3916Y2452D01*
X3912Y2430D01*
X3912Y2427D01*
X3901Y2416D01*
X3890Y2419D01*
X3870Y2414D01*
X3860Y2408D01*
X3850Y2404D01*
X3840Y2408D01*
X3830Y2414D01*
X3810Y2419D01*
X3790Y2414D01*
X3780Y2408D01*
X3770Y2404D01*
X3760Y2408D01*
X3750Y2414D01*
X3730Y2419D01*
X3710Y2414D01*
X3700Y2408D01*
X3690Y2404D01*
X3680Y2408D01*
X3670Y2414D01*
X3650Y2419D01*
X3630Y2414D01*
X3620Y2408D01*
X3610Y2404D01*
X3600Y2408D01*
X3590Y2414D01*
X3570Y2419D01*
X3550Y2414D01*
X3532Y2403D01*
X3521Y2385D01*
X3516Y2365D01*
Y2255D01*
X3521Y2235D01*
X3532Y2217D01*
X3550Y2206D01*
X3570Y2201D01*
X3590Y2206D01*
X3600Y2212D01*
X3610Y2216D01*
X3620Y2212D01*
X3630Y2206D01*
X3650Y2201D01*
X3666Y2205D01*
X3676Y2197D01*
X3677Y2195D01*
X3674Y2180D01*
X3678Y2159D01*
X3690Y2140D01*
X3709Y2128D01*
X3730Y2124D01*
X3746Y2127D01*
X3750Y2126D01*
X3756Y2119D01*
X3757Y2117D01*
X3754Y2100D01*
X3758Y2079D01*
X3770Y2060D01*
X3789Y2048D01*
X3810Y2044D01*
X3831Y2048D01*
X3850Y2060D01*
X3862Y2079D01*
X3866Y2100D01*
X3863Y2117D01*
X3864Y2119D01*
X3870Y2126D01*
X3874Y2127D01*
X3890Y2124D01*
X3911Y2128D01*
X3930Y2140D01*
X3942Y2159D01*
X3946Y2180D01*
X3943Y2195D01*
X3944Y2197D01*
X3954Y2205D01*
X3970Y2201D01*
X3990Y2206D01*
X4000Y2212D01*
X4010Y2216D01*
X4020Y2212D01*
X4030Y2206D01*
X4050Y2201D01*
X4057Y2203D01*
X4072Y2193D01*
X4072Y2190D01*
X4021Y2139D01*
X4011Y2137D01*
X3993Y2125D01*
X3981Y2106D01*
X3976Y2085D01*
X3981Y2064D01*
X3993Y2045D01*
X4011Y2033D01*
X4033Y2029D01*
X4054Y2033D01*
X4062Y2039D01*
X4076Y2036D01*
X4076Y2036D01*
X4088Y2018D01*
X4106Y2006D01*
X4115Y2004D01*
X4114Y1991D01*
X3890D01*
X3867Y1987D01*
X3847Y1973D01*
X3625Y1751D01*
X3547D01*
X3537Y1762D01*
X3539Y1770D01*
X3534Y1790D01*
X3528Y1800D01*
X3524Y1810D01*
X3528Y1820D01*
X3534Y1830D01*
X3539Y1850D01*
X3534Y1870D01*
X3525Y1884D01*
X3519Y1896D01*
X3525Y1905D01*
X3430D01*
Y1955D01*
X3525D01*
X3519Y1964D01*
X3525Y1976D01*
X3534Y1990D01*
X3539Y2010D01*
X3535Y2026D01*
X3543Y2039D01*
X3619D01*
X3698Y1960D01*
X3698Y1959D01*
X3710Y1940D01*
X3729Y1928D01*
X3750Y1924D01*
X3771Y1928D01*
X3790Y1940D01*
X3802Y1959D01*
X3806Y1980D01*
X3802Y2001D01*
X3790Y2020D01*
X3771Y2032D01*
X3770Y2032D01*
X3676Y2126D01*
X3660Y2137D01*
X3640Y2141D01*
X3543D01*
X3535Y2154D01*
X3539Y2170D01*
X3534Y2190D01*
X3523Y2208D01*
X3505Y2219D01*
X3485Y2224D01*
X3375D01*
X3355Y2219D01*
X3337Y2208D01*
X3326Y2190D01*
X3321Y2170D01*
X3326Y2150D01*
X3337Y2132D01*
Y2128D01*
X3326Y2110D01*
X3321Y2090D01*
X3326Y2070D01*
X3332Y2060D01*
X3336Y2050D01*
X3332Y2040D01*
X3326Y2030D01*
X3321Y2010D01*
X3326Y1990D01*
X3335Y1976D01*
X3341Y1964D01*
X3330Y1949D01*
X3327Y1930D01*
X3330Y1915D01*
X3322Y1905D01*
X3312Y1908D01*
Y1943D01*
X3186D01*
Y1792D01*
X3285D01*
X3286Y1792D01*
X3287Y1792D01*
X3288Y1792D01*
X3289Y1792D01*
X3312D01*
X3312Y1792D01*
X3314Y1791D01*
X3323Y1778D01*
X3321Y1770D01*
X3323Y1762D01*
X3312Y1751D01*
X3053D01*
X2818Y1986D01*
X2798Y1999D01*
X2775Y2004D01*
X2238D01*
X1981Y2261D01*
X1977Y2266D01*
X1973Y2273D01*
X1970Y2278D01*
X1969Y2283D01*
X1969Y2286D01*
X1969Y2289D01*
X1970Y2292D01*
X1970Y2292D01*
X2023Y2346D01*
X2141Y2464D01*
X2152Y2480D01*
X2154Y2489D01*
X2157Y2494D01*
X2161Y2515D01*
X2157Y2536D01*
X2145Y2555D01*
X2126Y2567D01*
X2124Y2567D01*
X2119Y2579D01*
X2122Y2582D01*
X2125Y2590D01*
X2065D01*
Y2615D01*
X2040D01*
Y2675D01*
X2032Y2672D01*
X2019Y2661D01*
X2018Y2661D01*
X2006Y2665D01*
Y2717D01*
X2006Y2720D01*
X2007Y2723D01*
X2008Y2727D01*
X2012Y2733D01*
X2016Y2739D01*
X2021Y2746D01*
X2028Y2753D01*
X2047Y2771D01*
X2058Y2780D01*
X2059Y2781D01*
X2068Y2788D01*
X2088Y2814D01*
X2101Y2845D01*
X2113Y2843D01*
Y2758D01*
X2208D01*
Y2877D01*
Y2998D01*
X2113D01*
Y2912D01*
X2101Y2910D01*
X2088Y2941D01*
X2068Y2967D01*
X2042Y2987D01*
X2012Y2999D01*
X1979Y3004D01*
X1946Y2999D01*
X1916Y2987D01*
X1890Y2967D01*
X1870Y2941D01*
X1859Y2913D01*
X1859Y2913D01*
X1845D01*
X1845Y2913D01*
X1834Y2941D01*
X1814Y2967D01*
X1788Y2987D01*
X1758Y2999D01*
X1725Y3004D01*
X1692Y2999D01*
X1662Y2987D01*
X1636Y2967D01*
X1616Y2941D01*
X1605Y2913D01*
X1604Y2913D01*
X1591D01*
X1591Y2913D01*
X1580Y2941D01*
X1560Y2967D01*
X1534Y2987D01*
X1504Y2999D01*
X1471Y3004D01*
X1438Y2999D01*
X1408Y2987D01*
X1382Y2967D01*
X1362Y2941D01*
X1349Y2910D01*
X1345Y2877D01*
X1349Y2845D01*
X1362Y2814D01*
X1382Y2788D01*
X1408Y2768D01*
X1438Y2756D01*
X1451Y2754D01*
X1453Y2753D01*
X1462Y2752D01*
X1470Y2750D01*
X1477Y2748D01*
X1484Y2745D01*
X1491Y2742D01*
X1498Y2739D01*
X1504Y2735D01*
X1510Y2730D01*
X1516Y2726D01*
X1518Y2724D01*
X1613Y2629D01*
X1611Y2612D01*
X1614Y2491D01*
X895Y1772D01*
X894Y1770D01*
X822Y1699D01*
X810Y1700D01*
X753Y1781D01*
X655Y1935D01*
X565Y2094D01*
X530Y2163D01*
X541Y2170D01*
X553Y2158D01*
X576Y2145D01*
X602Y2138D01*
X628Y2138D01*
X629Y2138D01*
X592Y2228D01*
X554Y2318D01*
X553Y2318D01*
X535Y2299D01*
X522Y2276D01*
X515Y2251D01*
X515Y2225D01*
X516Y2219D01*
X504Y2215D01*
X483Y2257D01*
X427Y2383D01*
X432Y2392D01*
X436Y2395D01*
X439Y2394D01*
X443Y2393D01*
X447Y2392D01*
X450Y2391D01*
X452Y2389D01*
X453Y2388D01*
X477Y2375D01*
X504Y2367D01*
X531D01*
X558Y2375D01*
X582Y2388D01*
X602Y2408D01*
X615Y2432D01*
X622Y2459D01*
Y2486D01*
X615Y2513D01*
X602Y2537D01*
X582Y2557D01*
X558Y2570D01*
X531Y2577D01*
X504D01*
X477Y2570D01*
X453Y2557D01*
X452Y2556D01*
X450Y2554D01*
X447Y2553D01*
X443Y2552D01*
X439Y2551D01*
X434Y2550D01*
X428Y2549D01*
X415Y2548D01*
X367D01*
X361Y2547D01*
X343Y2595D01*
X332Y2629D01*
X343Y2636D01*
X356Y2623D01*
X380Y2609D01*
X406Y2602D01*
X434D01*
X461Y2609D01*
X485Y2623D01*
X504Y2643D01*
X518Y2667D01*
X525Y2693D01*
Y2721D01*
X518Y2748D01*
X504Y2772D01*
X485Y2791D01*
X461Y2805D01*
X434Y2812D01*
X406D01*
X380Y2805D01*
X356Y2791D01*
X336Y2772D01*
X322Y2748D01*
X315Y2721D01*
Y2719D01*
X303Y2717D01*
X286Y2769D01*
X237Y2945D01*
X234Y2955D01*
X234Y2957D01*
X234Y2958D01*
X197Y3123D01*
X165Y3303D01*
X143Y3483D01*
X143Y3483D01*
X143Y3486D01*
X137Y3567D01*
X150Y3570D01*
X158Y3551D01*
X174Y3530D01*
X195Y3514D01*
X219Y3504D01*
X220Y3503D01*
Y3601D01*
Y3699D01*
X219Y3698D01*
X195Y3688D01*
X174Y3672D01*
X158Y3651D01*
X148Y3627D01*
X146Y3616D01*
X133Y3617D01*
X130Y3667D01*
X127Y3770D01*
X136Y3779D01*
X142D01*
X156Y3778D01*
X161Y3778D01*
X166Y3777D01*
X171Y3775D01*
X175Y3774D01*
X178Y3773D01*
X180Y3772D01*
X183Y3770D01*
X184Y3769D01*
X192Y3763D01*
X218Y3753D01*
X245Y3749D01*
X272Y3753D01*
X298Y3763D01*
X320Y3780D01*
X337Y3802D01*
X347Y3828D01*
X351Y3855D01*
X347Y3882D01*
X337Y3908D01*
X320Y3930D01*
X298Y3947D01*
X272Y3957D01*
X245Y3961D01*
X218Y3957D01*
X192Y3947D01*
X184Y3941D01*
X183Y3940D01*
X180Y3938D01*
X178Y3937D01*
X175Y3936D01*
X171Y3935D01*
X166Y3933D01*
X161Y3932D01*
X156Y3932D01*
X142Y3931D01*
X136D01*
X127Y3940D01*
X130Y4033D01*
X133Y4073D01*
X145Y4075D01*
X153Y4056D01*
X170Y4034D01*
X192Y4017D01*
X218Y4007D01*
X245Y4003D01*
X272Y4007D01*
X298Y4017D01*
X320Y4034D01*
X337Y4056D01*
X347Y4082D01*
X351Y4109D01*
X347Y4136D01*
X337Y4162D01*
X320Y4184D01*
X298Y4201D01*
X272Y4211D01*
X245Y4215D01*
X218Y4211D01*
X192Y4201D01*
X170Y4184D01*
X153Y4162D01*
X152Y4158D01*
X139Y4161D01*
X143Y4215D01*
X165Y4397D01*
X197Y4577D01*
X237Y4755D01*
X243Y4779D01*
X267Y4864D01*
X286Y4931D01*
X313Y5015D01*
X325Y5012D01*
X325Y5011D01*
X325Y4985D01*
X332Y4959D01*
X345Y4936D01*
X364Y4918D01*
X365Y4917D01*
X402Y5007D01*
X440Y5098D01*
X438Y5098D01*
X412Y5098D01*
X387Y5091D01*
X364Y5078D01*
X345Y5059D01*
X336Y5043D01*
X324Y5048D01*
X343Y5105D01*
X364Y5159D01*
X379Y5157D01*
X379Y5157D01*
X420D01*
X433Y5156D01*
X439Y5155D01*
X444Y5154D01*
X448Y5153D01*
X452Y5152D01*
X455Y5151D01*
X457Y5149D01*
X458Y5148D01*
X482Y5135D01*
X509Y5128D01*
X536D01*
X563Y5135D01*
X587Y5148D01*
X607Y5168D01*
X620Y5192D01*
X628Y5219D01*
Y5246D01*
X620Y5273D01*
X607Y5297D01*
X587Y5317D01*
X563Y5330D01*
X536Y5338D01*
X509D01*
X482Y5330D01*
X458Y5317D01*
X457Y5316D01*
X455Y5314D01*
X452Y5313D01*
X448Y5312D01*
X444Y5311D01*
X439Y5310D01*
X438Y5310D01*
X428Y5320D01*
X483Y5443D01*
X502Y5481D01*
X515Y5478D01*
Y5453D01*
X522Y5427D01*
X536Y5403D01*
X555Y5383D01*
X579Y5369D01*
X606Y5362D01*
X634D01*
X660Y5369D01*
X684Y5383D01*
X704Y5403D01*
X718Y5427D01*
X725Y5453D01*
Y5481D01*
X718Y5508D01*
X704Y5532D01*
X684Y5551D01*
X660Y5565D01*
X634Y5572D01*
X606D01*
X579Y5565D01*
X555Y5551D01*
X548Y5544D01*
X538Y5552D01*
X565Y5606D01*
X655Y5765D01*
X666Y5783D01*
X753Y5919D01*
X858Y6069D01*
X971Y6213D01*
X1019Y6269D01*
X1030Y6262D01*
X1025Y6251D01*
X1022Y6225D01*
X1025Y6199D01*
X1036Y6175D01*
X1036Y6174D01*
X1105Y6243D01*
X1174Y6312D01*
X1173Y6313D01*
X1149Y6323D01*
X1123Y6326D01*
X1097Y6323D01*
X1085Y6318D01*
X1069Y6325D01*
X1068Y6326D01*
X1090Y6351D01*
X1159Y6424D01*
X1176Y6424D01*
X1185Y6414D01*
X1189Y6409D01*
X1192Y6405D01*
X1194Y6401D01*
X1196Y6398D01*
X1197Y6395D01*
X1198Y6392D01*
X1198Y6389D01*
X1199Y6387D01*
X1200Y6378D01*
X1211Y6352D01*
X1228Y6330D01*
X1250Y6313D01*
X1275Y6303D01*
X1302Y6299D01*
X1330Y6303D01*
X1355Y6313D01*
X1377Y6330D01*
X1394Y6352D01*
X1405Y6378D01*
X1408Y6405D01*
X1405Y6432D01*
X1394Y6458D01*
X1377Y6480D01*
X1355Y6497D01*
X1330Y6507D01*
X1320Y6509D01*
X1319Y6509D01*
X1315Y6510D01*
X1313Y6511D01*
X1310Y6512D01*
X1306Y6514D01*
X1302Y6516D01*
X1298Y6519D01*
X1294Y6522D01*
X1284Y6531D01*
X1281Y6533D01*
X1281Y6546D01*
X1349Y6610D01*
X1374Y6632D01*
X1385Y6625D01*
X1380Y6612D01*
X1376Y6585D01*
X1380Y6557D01*
X1390Y6532D01*
X1407Y6510D01*
X1429Y6493D01*
X1455Y6482D01*
X1482Y6479D01*
X1510Y6482D01*
X1535Y6493D01*
X1557Y6510D01*
X1574Y6532D01*
X1584Y6557D01*
X1588Y6585D01*
X1584Y6612D01*
X1574Y6638D01*
X1557Y6659D01*
X1535Y6676D01*
X1510Y6687D01*
X1482Y6691D01*
X1458Y6687D01*
X1452Y6697D01*
X1451Y6699D01*
X1487Y6729D01*
X1631Y6842D01*
X1781Y6947D01*
X1935Y7045D01*
X2094Y7135D01*
X2158Y7167D01*
X2165Y7157D01*
X2158Y7149D01*
X2145Y7126D01*
X2138Y7101D01*
X2138Y7075D01*
X2138Y7074D01*
X2228Y7111D01*
X2318Y7148D01*
X2318Y7149D01*
X2299Y7168D01*
X2276Y7181D01*
X2251Y7188D01*
X2227Y7188D01*
X2223Y7196D01*
X2223Y7200D01*
X2257Y7217D01*
X2381Y7272D01*
X2396Y7257D01*
X2388Y7249D01*
X2375Y7226D01*
X2367Y7199D01*
Y7171D01*
X2375Y7144D01*
X2388Y7121D01*
X2408Y7101D01*
X2432Y7087D01*
X2459Y7080D01*
X2486D01*
X2513Y7087D01*
X2537Y7101D01*
X2557Y7121D01*
X2570Y7144D01*
X2577Y7171D01*
Y7199D01*
X2570Y7226D01*
X2557Y7249D01*
X2548Y7258D01*
Y7288D01*
X2548Y7288D01*
X2546Y7308D01*
X2540Y7322D01*
X2543Y7337D01*
X2595Y7357D01*
X2626Y7367D01*
X2633Y7356D01*
X2623Y7347D01*
X2609Y7323D01*
X2602Y7296D01*
Y7268D01*
X2609Y7242D01*
X2623Y7218D01*
X2643Y7198D01*
X2667Y7184D01*
X2693Y7177D01*
X2721D01*
X2748Y7184D01*
X2772Y7198D01*
X2791Y7218D01*
X2805Y7242D01*
X2812Y7268D01*
Y7296D01*
X2805Y7323D01*
X2791Y7347D01*
X2772Y7366D01*
X2748Y7380D01*
X2724Y7386D01*
X2723Y7399D01*
X2769Y7414D01*
X2945Y7463D01*
X2999Y7475D01*
X3123Y7503D01*
X3303Y7535D01*
X3477Y7556D01*
X3485Y7557D01*
X3549Y7562D01*
X3552Y7549D01*
X3548Y7547D01*
X3527Y7531D01*
X3511Y7510D01*
X3501Y7486D01*
X3501Y7485D01*
X3599D01*
X3696D01*
X3696Y7486D01*
X3686Y7510D01*
X3670Y7531D01*
X3649Y7547D01*
X3631Y7555D01*
X3633Y7568D01*
X3667Y7570D01*
X3768Y7573D01*
X3773Y7568D01*
D02*
G37*
G36*
X5322Y7274D02*
X5319Y7266D01*
X5314Y7251D01*
X5312Y7245D01*
X5311Y7238D01*
X5310Y7232D01*
X5309Y7226D01*
X5309Y7221D01*
X5309Y7216D01*
X5310Y7211D01*
X5193Y7262D01*
X5197Y7265D01*
X5201Y7268D01*
X5205Y7272D01*
X5209Y7276D01*
X5213Y7281D01*
X5216Y7286D01*
X5220Y7292D01*
X5227Y7306D01*
X5231Y7314D01*
X5322Y7274D01*
D02*
G37*
G36*
X1266Y6513D02*
X1278Y6502D01*
X1283Y6498D01*
X1289Y6494D01*
X1294Y6491D01*
X1299Y6489D01*
X1304Y6487D01*
X1309Y6485D01*
X1314Y6484D01*
X1223Y6394D01*
X1222Y6398D01*
X1221Y6403D01*
X1219Y6408D01*
X1216Y6413D01*
X1213Y6419D01*
X1209Y6424D01*
X1205Y6430D01*
X1195Y6442D01*
X1189Y6448D01*
X1260Y6518D01*
X1266Y6513D01*
D02*
G37*
G36*
X6518Y6445D02*
X6512Y6439D01*
X6501Y6428D01*
X6496Y6423D01*
X6492Y6417D01*
X6489Y6412D01*
X6486Y6407D01*
X6484Y6402D01*
X6482Y6397D01*
X6481Y6393D01*
X6395Y6487D01*
X6400Y6488D01*
X6404Y6489D01*
X6410Y6491D01*
X6415Y6493D01*
X6420Y6496D01*
X6426Y6500D01*
X6432Y6504D01*
X6444Y6513D01*
X6450Y6519D01*
X6518Y6445D01*
D02*
G37*
G36*
X7308Y5248D02*
X7301Y5243D01*
X7288Y5234D01*
X7282Y5230D01*
X7277Y5226D01*
X7273Y5221D01*
X7269Y5217D01*
X7266Y5213D01*
X7263Y5208D01*
X7261Y5204D01*
X7197Y5314D01*
X7201Y5314D01*
X7207Y5314D01*
X7212Y5315D01*
X7218Y5316D01*
X7224Y5318D01*
X7230Y5320D01*
X7236Y5323D01*
X7250Y5330D01*
X7258Y5334D01*
X7308Y5248D01*
D02*
G37*
G36*
X474Y5169D02*
X470Y5171D01*
X466Y5174D01*
X461Y5176D01*
X456Y5177D01*
X450Y5179D01*
X443Y5180D01*
X436Y5181D01*
X421Y5182D01*
X412Y5183D01*
Y5283D01*
X421Y5283D01*
X436Y5284D01*
X443Y5285D01*
X450Y5286D01*
X456Y5288D01*
X461Y5289D01*
X466Y5291D01*
X470Y5294D01*
X474Y5296D01*
Y5169D01*
D02*
G37*
G36*
X7519Y3915D02*
X7523Y3912D01*
X7528Y3910D01*
X7534Y3908D01*
X7540Y3906D01*
X7546Y3905D01*
X7553Y3903D01*
X7569Y3902D01*
X7577Y3901D01*
X7574Y3801D01*
X7565Y3802D01*
X7550Y3801D01*
X7543Y3800D01*
X7536Y3799D01*
X7530Y3798D01*
X7525Y3796D01*
X7520Y3794D01*
X7515Y3792D01*
X7511Y3790D01*
X7515Y3917D01*
X7519Y3915D01*
D02*
G37*
G36*
X197Y3791D02*
X193Y3794D01*
X189Y3796D01*
X184Y3798D01*
X178Y3800D01*
X172Y3802D01*
X166Y3803D01*
X159Y3804D01*
X143Y3805D01*
X135Y3805D01*
Y3905D01*
X143Y3905D01*
X159Y3906D01*
X166Y3907D01*
X172Y3908D01*
X178Y3910D01*
X184Y3912D01*
X189Y3914D01*
X193Y3916D01*
X197Y3919D01*
Y3791D01*
D02*
G37*
G36*
X1820Y2845D02*
X1820Y2843D01*
X1821Y2842D01*
X1823Y2840D01*
X1828Y2834D01*
X1843Y2818D01*
X1787Y2762D01*
X1782Y2766D01*
X1762Y2783D01*
X1761Y2784D01*
X1761Y2784D01*
X1820Y2845D01*
X1820Y2845D01*
D02*
G37*
G36*
X1572Y2882D02*
X1574Y2873D01*
X1577Y2864D01*
X1580Y2855D01*
X1584Y2847D01*
X1588Y2838D01*
X1593Y2831D01*
X1598Y2823D01*
X1604Y2816D01*
X1610Y2809D01*
X1540Y2739D01*
X1533Y2745D01*
X1526Y2751D01*
X1518Y2756D01*
X1511Y2761D01*
X1502Y2765D01*
X1494Y2769D01*
X1485Y2772D01*
X1476Y2775D01*
X1467Y2777D01*
X1457Y2778D01*
X1570Y2892D01*
X1572Y2882D01*
D02*
G37*
G36*
X2041Y2799D02*
X2030Y2790D01*
X2010Y2771D01*
X2002Y2763D01*
X1995Y2754D01*
X1990Y2746D01*
X1986Y2739D01*
X1982Y2731D01*
X1981Y2724D01*
X1980Y2718D01*
X1900Y2756D01*
X1900Y2766D01*
X1898Y2794D01*
X1897Y2802D01*
X1893Y2818D01*
X1891Y2826D01*
X1887Y2839D01*
X2041Y2799D01*
D02*
G37*
G36*
X469Y2409D02*
X465Y2411D01*
X461Y2414D01*
X456Y2416D01*
X451Y2417D01*
X445Y2419D01*
X438Y2420D01*
X431Y2421D01*
X416Y2422D01*
X407Y2423D01*
Y2523D01*
X416Y2523D01*
X431Y2524D01*
X438Y2525D01*
X445Y2526D01*
X451Y2528D01*
X456Y2529D01*
X461Y2531D01*
X465Y2534D01*
X469Y2536D01*
Y2409D01*
D02*
G37*
G36*
X7259Y2498D02*
X7262Y2494D01*
X7265Y2489D01*
X7269Y2485D01*
X7273Y2480D01*
X7278Y2476D01*
X7283Y2471D01*
X7295Y2462D01*
X7302Y2457D01*
X7248Y2373D01*
X7241Y2378D01*
X7227Y2385D01*
X7221Y2388D01*
X7215Y2391D01*
X7209Y2392D01*
X7203Y2394D01*
X7198Y2395D01*
X7193Y2395D01*
X7188Y2395D01*
X7258Y2503D01*
X7259Y2498D01*
D02*
G37*
G36*
X2034Y2394D02*
X1950Y2308D01*
X1947Y2303D01*
X1944Y2295D01*
X1943Y2287D01*
X1944Y2279D01*
X1946Y2270D01*
X1950Y2261D01*
X1956Y2252D01*
X1963Y2242D01*
X1972Y2233D01*
X1880Y2275D01*
X1827Y2399D01*
X1841Y2386D01*
X1854Y2375D01*
X1866Y2366D01*
X1878Y2359D01*
X1889Y2355D01*
X1899Y2352D01*
X1909Y2352D01*
X1918Y2354D01*
X1926Y2357D01*
X1928Y2359D01*
X1979Y2409D01*
X1999Y2429D01*
X2034Y2394D01*
D02*
G37*
G36*
X3916Y2247D02*
X3916Y2245D01*
X3916Y2238D01*
X3915Y2194D01*
X3865D01*
X3864Y2248D01*
X3916D01*
X3916Y2247D01*
D02*
G37*
G36*
X3836D02*
X3836Y2245D01*
X3836Y2238D01*
X3835Y2194D01*
X3785D01*
X3784Y2248D01*
X3836D01*
X3836Y2247D01*
D02*
G37*
G36*
X3756D02*
X3756Y2245D01*
X3756Y2238D01*
X3755Y2194D01*
X3705D01*
X3704Y2248D01*
X3756D01*
X3756Y2247D01*
D02*
G37*
G36*
X4208Y2144D02*
X4207Y2144D01*
X4205Y2144D01*
X4198Y2144D01*
X4154Y2145D01*
Y2195D01*
X4208Y2196D01*
Y2144D01*
D02*
G37*
G36*
X3493Y2116D02*
X3495Y2116D01*
X3502Y2116D01*
X3546Y2115D01*
Y2065D01*
X3492Y2064D01*
Y2116D01*
X3493Y2116D01*
D02*
G37*
G36*
X4885Y2153D02*
X4889Y2151D01*
X4894Y2149D01*
X4901Y2147D01*
X4908Y2145D01*
X4917Y2144D01*
X4936Y2143D01*
X4948Y2142D01*
X4960Y2142D01*
X4890Y2045D01*
X4887Y2054D01*
X4878Y2078D01*
X4874Y2085D01*
X4867Y2097D01*
X4863Y2102D01*
X4860Y2107D01*
X4856Y2111D01*
X4881Y2156D01*
X4885Y2153D01*
D02*
G37*
G36*
X5782Y2020D02*
X5780Y2016D01*
X5779Y2012D01*
X5777Y2008D01*
X5776Y2002D01*
X5775Y1990D01*
X5774Y1983D01*
X5774Y1967D01*
X5674Y1966D01*
X5674Y1974D01*
X5672Y1996D01*
X5671Y2001D01*
X5670Y2007D01*
X5669Y2011D01*
X5667Y2016D01*
X5666Y2019D01*
X5664Y2022D01*
X5784Y2023D01*
X5782Y2020D01*
D02*
G37*
G36*
X4201Y1906D02*
X4200Y1907D01*
X4198Y1908D01*
X4195Y1908D01*
X4192Y1909D01*
X4183Y1909D01*
X4164Y1910D01*
X4156Y1910D01*
Y1950D01*
X4164Y1950D01*
X4195Y1952D01*
X4198Y1952D01*
X4200Y1953D01*
X4201Y1954D01*
Y1906D01*
D02*
G37*
G36*
X4333Y1956D02*
X4335Y1956D01*
X4342Y1956D01*
X4386Y1955D01*
Y1955D01*
X4392Y1955D01*
X4408Y1954D01*
X4414Y1953D01*
X4420Y1951D01*
X4424Y1950D01*
X4428Y1948D01*
X4430Y1946D01*
X4432Y1943D01*
X4432Y1941D01*
Y1880D01*
X4432Y1885D01*
X4430Y1889D01*
X4428Y1893D01*
X4424Y1896D01*
X4420Y1899D01*
X4414Y1901D01*
X4408Y1903D01*
X4400Y1904D01*
X4392Y1905D01*
X4384Y1905D01*
X4332Y1904D01*
Y1956D01*
X4333Y1956D01*
D02*
G37*
G36*
X3286Y1895D02*
X3288Y1891D01*
X3290Y1887D01*
X3294Y1884D01*
X3299Y1881D01*
X3304Y1879D01*
X3311Y1877D01*
X3318Y1876D01*
X3326Y1875D01*
X3368Y1876D01*
Y1824D01*
X3367Y1824D01*
X3365Y1824D01*
X3358Y1824D01*
X3326Y1825D01*
X3299Y1823D01*
X3294Y1822D01*
X3291Y1821D01*
X3288Y1820D01*
X3287Y1819D01*
X3286Y1817D01*
X3286Y1900D01*
X3286Y1895D01*
D02*
G37*
G36*
X4187Y1793D02*
X4190Y1793D01*
X4195Y1792D01*
X4196Y1792D01*
X4198Y1792D01*
X4200Y1793D01*
X4201Y1794D01*
Y1792D01*
X4208Y1791D01*
X4270Y1790D01*
Y1750D01*
X4201Y1747D01*
Y1746D01*
X4201Y1747D01*
X4185Y1746D01*
Y1749D01*
X4184Y1749D01*
X4167Y1750D01*
X4160Y1750D01*
Y1790D01*
X4167Y1790D01*
X4185Y1791D01*
Y1794D01*
X4187Y1793D01*
D02*
G37*
G36*
X3345Y1713D02*
X3348Y1712D01*
X3352Y1712D01*
X3354Y1712D01*
X3355Y1712D01*
X3358Y1712D01*
X3360Y1713D01*
X3361Y1714D01*
Y1711D01*
X3367Y1711D01*
X3430Y1710D01*
X3499Y1712D01*
Y1714D01*
X3500Y1713D01*
X3502Y1712D01*
X3502Y1712D01*
X3521Y1713D01*
Y1710D01*
X3536Y1710D01*
X3544Y1710D01*
Y1670D01*
X3536Y1670D01*
X3521Y1669D01*
Y1667D01*
X3520Y1668D01*
X3517Y1668D01*
X3512Y1669D01*
X3511Y1669D01*
X3505Y1668D01*
X3502Y1668D01*
X3500Y1667D01*
X3499Y1666D01*
Y1669D01*
X3487Y1670D01*
X3430Y1670D01*
X3361Y1667D01*
Y1666D01*
X3360Y1667D01*
X3360Y1667D01*
X3343Y1666D01*
Y1669D01*
X3343Y1669D01*
X3325Y1670D01*
X3317Y1670D01*
Y1710D01*
X3325Y1710D01*
X3343Y1711D01*
Y1714D01*
X3345Y1713D01*
D02*
G37*
G36*
X4333Y1716D02*
X4335Y1716D01*
X4342Y1716D01*
X4386Y1715D01*
Y1665D01*
X4332Y1664D01*
Y1716D01*
X4333Y1716D01*
D02*
G37*
G36*
X4315Y1582D02*
X4311Y1581D01*
X4307Y1578D01*
X4304Y1575D01*
X4301Y1570D01*
X4299Y1565D01*
X4297Y1558D01*
X4296Y1551D01*
X4295Y1542D01*
X4295Y1533D01*
X4245D01*
X4245Y1542D01*
X4244Y1551D01*
X4243Y1558D01*
X4241Y1565D01*
X4239Y1570D01*
X4236Y1575D01*
X4233Y1578D01*
X4229Y1581D01*
X4225Y1582D01*
X4220Y1583D01*
X4320D01*
X4315Y1582D01*
D02*
G37*
G36*
X4648Y1506D02*
X4646Y1504D01*
X4644Y1502D01*
X4643Y1498D01*
X4642Y1494D01*
X4640Y1488D01*
X4640Y1483D01*
X4641Y1477D01*
X4642Y1470D01*
X4645Y1464D01*
X4647Y1460D01*
X4651Y1456D01*
X4654Y1454D01*
X4659Y1452D01*
X4663Y1452D01*
X4563D01*
X4568Y1452D01*
X4572Y1454D01*
X4576Y1456D01*
X4579Y1460D01*
X4582Y1464D01*
X4585Y1470D01*
X4586Y1477D01*
X4587Y1482D01*
X4587Y1488D01*
X4585Y1494D01*
X4584Y1498D01*
X4583Y1502D01*
X4581Y1504D01*
X4579Y1506D01*
X4576Y1506D01*
X4651D01*
X4648Y1506D01*
D02*
G37*
G36*
X6480Y1314D02*
X6482Y1309D01*
X6484Y1304D01*
X6486Y1299D01*
X6489Y1294D01*
X6493Y1288D01*
X6497Y1283D01*
X6508Y1271D01*
X6513Y1265D01*
X6443Y1194D01*
X6437Y1200D01*
X6425Y1210D01*
X6419Y1214D01*
X6414Y1218D01*
X6408Y1221D01*
X6403Y1224D01*
X6398Y1226D01*
X6393Y1227D01*
X6389Y1228D01*
X6479Y1319D01*
X6480Y1314D01*
D02*
G37*
G36*
X1309Y1221D02*
X1304Y1220D01*
X1299Y1218D01*
X1294Y1216D01*
X1289Y1214D01*
X1284Y1211D01*
X1278Y1207D01*
X1273Y1203D01*
X1261Y1192D01*
X1255Y1187D01*
X1184Y1257D01*
X1190Y1263D01*
X1200Y1275D01*
X1204Y1281D01*
X1208Y1286D01*
X1211Y1292D01*
X1214Y1297D01*
X1216Y1302D01*
X1217Y1307D01*
X1218Y1311D01*
X1309Y1221D01*
D02*
G37*
G36*
X4478Y1093D02*
X4474Y1091D01*
X4470Y1089D01*
X4467Y1085D01*
X4464Y1081D01*
X4462Y1075D01*
X4460Y1068D01*
X4458Y1061D01*
X4458Y1060D01*
X4458Y1058D01*
X4460Y1051D01*
X4462Y1044D01*
X4464Y1039D01*
X4467Y1034D01*
X4470Y1030D01*
X4474Y1028D01*
X4478Y1026D01*
X4483Y1026D01*
X4386Y1026D01*
X4390Y1027D01*
X4393Y1028D01*
X4397Y1031D01*
X4400Y1034D01*
X4402Y1039D01*
X4404Y1044D01*
X4406Y1051D01*
X4407Y1058D01*
X4407Y1059D01*
X4406Y1061D01*
X4405Y1068D01*
X4403Y1075D01*
X4401Y1081D01*
X4399Y1085D01*
X4395Y1089D01*
X4392Y1091D01*
X4387Y1093D01*
X4383Y1093D01*
X4483D01*
X4478Y1093D01*
D02*
G37*
G36*
X3403Y941D02*
X3403Y940D01*
X3403Y935D01*
X3403Y903D01*
X3303D01*
X3302Y942D01*
X3403D01*
X3403Y941D01*
D02*
G37*
G36*
X2471Y440D02*
X2469Y440D01*
X2467Y439D01*
X2464Y437D01*
X2461Y435D01*
X2452Y428D01*
X2442Y419D01*
X2430Y407D01*
X2359Y477D01*
X2365Y484D01*
X2390Y511D01*
X2391Y514D01*
X2392Y516D01*
X2393Y518D01*
X2471Y440D01*
D02*
G37*
G36*
X5312Y511D02*
X5312Y507D01*
X5313Y501D01*
X5314Y496D01*
X5316Y490D01*
X5318Y484D01*
X5324Y471D01*
X5327Y463D01*
X5331Y456D01*
X5246Y404D01*
X5242Y411D01*
X5233Y424D01*
X5228Y430D01*
X5224Y435D01*
X5220Y439D01*
X5215Y443D01*
X5211Y446D01*
X5206Y449D01*
X5202Y451D01*
X5312Y516D01*
X5312Y511D01*
D02*
G37*
G36*
X3917Y205D02*
X3916Y201D01*
X3914Y197D01*
X3913Y192D01*
X3912Y187D01*
X3911Y173D01*
X3910Y158D01*
X3910Y149D01*
X3810Y137D01*
X3810Y145D01*
X3808Y160D01*
X3807Y167D01*
X3805Y174D01*
X3803Y180D01*
X3801Y186D01*
X3798Y191D01*
X3795Y196D01*
X3791Y201D01*
X3919Y208D01*
X3917Y205D01*
D02*
G37*
%LPC*%
G36*
X3696Y7435D02*
X3624D01*
Y7362D01*
X3625Y7363D01*
X3649Y7373D01*
X3670Y7389D01*
X3686Y7410D01*
X3696Y7434D01*
X3696Y7435D01*
D02*
G37*
G36*
X3574D02*
X3501D01*
X3501Y7434D01*
X3511Y7410D01*
X3527Y7389D01*
X3548Y7373D01*
X3572Y7363D01*
X3574Y7362D01*
Y7435D01*
D02*
G37*
G36*
X4898Y7304D02*
X4898Y7303D01*
X4898Y7277D01*
X4905Y7251D01*
X4918Y7228D01*
X4936Y7210D01*
X4937Y7209D01*
X4965Y7276D01*
X4898Y7304D01*
D02*
G37*
G36*
X5011Y7257D02*
X4984Y7190D01*
X4985Y7190D01*
X5011Y7190D01*
X5036Y7197D01*
X5059Y7210D01*
X5078Y7228D01*
X5078Y7229D01*
X5011Y7257D01*
D02*
G37*
G36*
X2338Y7102D02*
X2270Y7074D01*
X2298Y7007D01*
X2299Y7008D01*
X2318Y7026D01*
X2331Y7049D01*
X2338Y7075D01*
X2338Y7101D01*
X2338Y7102D01*
D02*
G37*
G36*
X2224Y7055D02*
X2157Y7027D01*
X2158Y7026D01*
X2176Y7008D01*
X2199Y6995D01*
X2225Y6988D01*
X2251Y6988D01*
X2252Y6988D01*
X2224Y7055D01*
D02*
G37*
G36*
X6136Y6638D02*
X6136Y6638D01*
X6125Y6613D01*
X6122Y6587D01*
X6125Y6561D01*
X6136Y6537D01*
X6136Y6536D01*
X6188Y6587D01*
X6136Y6638D01*
D02*
G37*
G36*
X6223Y6552D02*
X6172Y6500D01*
X6172Y6500D01*
X6197Y6490D01*
X6223Y6486D01*
X6249Y6490D01*
X6273Y6500D01*
X6274Y6500D01*
X6223Y6552D01*
D02*
G37*
G36*
X3850Y6826D02*
X3816Y6822D01*
X3783Y6812D01*
X3752Y6796D01*
X3726Y6774D01*
X3704Y6748D01*
X3688Y6717D01*
X3678Y6684D01*
X3674Y6650D01*
X3678Y6616D01*
X3688Y6583D01*
X3704Y6552D01*
X3726Y6526D01*
X3752Y6504D01*
X3783Y6488D01*
X3816Y6478D01*
X3850Y6474D01*
X3884Y6478D01*
X3917Y6488D01*
X3948Y6504D01*
X3974Y6526D01*
X3996Y6552D01*
X4012Y6583D01*
X4022Y6616D01*
X4026Y6650D01*
X4022Y6684D01*
X4012Y6717D01*
X3996Y6748D01*
X3974Y6774D01*
X3948Y6796D01*
X3917Y6812D01*
X3884Y6822D01*
X3850Y6826D01*
D02*
G37*
G36*
X1210Y6277D02*
X1158Y6225D01*
X1210Y6174D01*
X1210Y6175D01*
X1220Y6199D01*
X1224Y6225D01*
X1220Y6251D01*
X1210Y6276D01*
X1210Y6277D01*
D02*
G37*
G36*
X1123Y6190D02*
X1072Y6139D01*
X1072Y6138D01*
X1097Y6128D01*
X1123Y6125D01*
X1149Y6128D01*
X1173Y6138D01*
X1174Y6139D01*
X1123Y6190D01*
D02*
G37*
G36*
X7030Y5550D02*
X7029Y5550D01*
X7010Y5531D01*
X6997Y5508D01*
X6990Y5483D01*
X6990Y5456D01*
X6991Y5455D01*
X7058Y5483D01*
X7030Y5550D01*
D02*
G37*
G36*
X7077Y5437D02*
X7010Y5409D01*
X7010Y5408D01*
X7029Y5390D01*
X7052Y5376D01*
X7077Y5370D01*
X7103Y5370D01*
X7105Y5370D01*
X7077Y5437D01*
D02*
G37*
G36*
X5200Y5376D02*
X5166Y5372D01*
X5133Y5362D01*
X5102Y5346D01*
X5076Y5324D01*
X5054Y5298D01*
X5038Y5267D01*
X5028Y5234D01*
X5024Y5200D01*
X5028Y5166D01*
X5038Y5133D01*
X5054Y5102D01*
X5076Y5076D01*
X5102Y5054D01*
X5133Y5038D01*
X5166Y5028D01*
X5200Y5024D01*
X5234Y5028D01*
X5267Y5038D01*
X5298Y5054D01*
X5324Y5076D01*
X5346Y5102D01*
X5362Y5133D01*
X5372Y5166D01*
X5376Y5200D01*
X5372Y5234D01*
X5362Y5267D01*
X5346Y5298D01*
X5324Y5324D01*
X5298Y5346D01*
X5267Y5362D01*
X5234Y5372D01*
X5200Y5376D01*
D02*
G37*
G36*
X486Y5078D02*
X458Y5011D01*
X525Y4984D01*
X525Y4985D01*
X525Y5011D01*
X518Y5036D01*
X505Y5059D01*
X487Y5078D01*
X486Y5078D01*
D02*
G37*
G36*
X439Y4965D02*
X411Y4898D01*
X412Y4898D01*
X438Y4898D01*
X464Y4905D01*
X487Y4918D01*
X505Y4936D01*
X506Y4937D01*
X439Y4965D01*
D02*
G37*
G36*
X7440Y4207D02*
X7439Y4206D01*
X7415Y4196D01*
X7394Y4180D01*
X7378Y4159D01*
X7368Y4135D01*
X7367Y4134D01*
X7440D01*
Y4207D01*
D02*
G37*
G36*
Y4084D02*
X7367D01*
X7368Y4083D01*
X7378Y4059D01*
X7394Y4038D01*
X7415Y4022D01*
X7439Y4012D01*
X7440Y4011D01*
Y4084D01*
D02*
G37*
G36*
X7150Y4026D02*
X7116Y4022D01*
X7083Y4012D01*
X7052Y3996D01*
X7026Y3974D01*
X7004Y3948D01*
X6988Y3917D01*
X6978Y3884D01*
X6974Y3850D01*
X6978Y3816D01*
X6988Y3783D01*
X7004Y3752D01*
X7026Y3726D01*
X7052Y3704D01*
X7083Y3688D01*
X7116Y3678D01*
X7150Y3674D01*
X7184Y3678D01*
X7217Y3688D01*
X7248Y3704D01*
X7274Y3726D01*
X7296Y3752D01*
X7312Y3783D01*
X7322Y3816D01*
X7326Y3850D01*
X7322Y3884D01*
X7312Y3917D01*
X7296Y3948D01*
X7274Y3974D01*
X7248Y3996D01*
X7217Y4012D01*
X7184Y4022D01*
X7150Y4026D01*
D02*
G37*
G36*
X550D02*
X516Y4022D01*
X483Y4012D01*
X452Y3996D01*
X426Y3974D01*
X404Y3948D01*
X388Y3917D01*
X378Y3884D01*
X374Y3850D01*
X378Y3816D01*
X388Y3783D01*
X404Y3752D01*
X426Y3726D01*
X452Y3704D01*
X483Y3688D01*
X516Y3678D01*
X550Y3674D01*
X584Y3678D01*
X617Y3688D01*
X648Y3704D01*
X674Y3726D01*
X696Y3752D01*
X712Y3783D01*
X722Y3816D01*
X726Y3850D01*
X722Y3884D01*
X712Y3917D01*
X696Y3948D01*
X674Y3974D01*
X648Y3996D01*
X617Y4012D01*
X584Y4022D01*
X550Y4026D01*
D02*
G37*
G36*
X270Y3699D02*
Y3626D01*
X343D01*
X342Y3627D01*
X332Y3651D01*
X316Y3672D01*
X295Y3688D01*
X271Y3698D01*
X270Y3699D01*
D02*
G37*
G36*
X343Y3576D02*
X270D01*
Y3503D01*
X271Y3504D01*
X295Y3514D01*
X316Y3530D01*
X332Y3551D01*
X342Y3575D01*
X343Y3576D01*
D02*
G37*
G36*
X2353Y2998D02*
X2258D01*
Y2902D01*
X2353D01*
Y2998D01*
D02*
G37*
G36*
Y2852D02*
X2258D01*
Y2758D01*
X2353D01*
Y2852D01*
D02*
G37*
G36*
X7267Y2810D02*
X7241Y2803D01*
X7218Y2790D01*
X7200Y2771D01*
X7199Y2770D01*
X7266Y2742D01*
X7294Y2809D01*
X7293Y2810D01*
X7267Y2810D01*
D02*
G37*
G36*
X2090Y2675D02*
Y2640D01*
X2125D01*
X2122Y2648D01*
X2111Y2661D01*
X2098Y2672D01*
X2090Y2675D01*
D02*
G37*
G36*
X7180Y2724D02*
X7180Y2723D01*
X7180Y2697D01*
X7187Y2671D01*
X7200Y2648D01*
X7218Y2630D01*
X7219Y2629D01*
X7247Y2696D01*
X7180Y2724D01*
D02*
G37*
G36*
X4910Y2438D02*
X4893Y2436D01*
X4878Y2429D01*
X4874Y2427D01*
X4873Y2426D01*
X4872Y2426D01*
X4871Y2426D01*
X4869Y2425D01*
X4867Y2425D01*
X4862Y2424D01*
X4862Y2424D01*
X4840Y2429D01*
X4819Y2424D01*
X4801Y2412D01*
X4788Y2394D01*
X4784Y2373D01*
X4788Y2351D01*
X4801Y2333D01*
X4819Y2321D01*
X4840Y2317D01*
X4862Y2321D01*
X4862Y2321D01*
X4867Y2321D01*
X4869Y2320D01*
X4870Y2320D01*
X5094Y2096D01*
X5097Y2094D01*
X5100Y2089D01*
X5103Y2085D01*
X5106Y2081D01*
X5109Y2076D01*
X5111Y2072D01*
X5113Y2067D01*
X5114Y2063D01*
X5115Y2058D01*
X5116Y2053D01*
X5117Y2051D01*
X5118Y2041D01*
X5128Y2017D01*
X5144Y1996D01*
X5165Y1980D01*
X5189Y1970D01*
X5215Y1967D01*
X5242Y1970D01*
X5266Y1980D01*
X5287Y1996D01*
X5303Y2017D01*
X5313Y2041D01*
X5316Y2067D01*
X5313Y2094D01*
X5303Y2118D01*
X5287Y2139D01*
X5266Y2155D01*
X5242Y2165D01*
X5232Y2166D01*
X5230Y2167D01*
X5225Y2168D01*
X5220Y2169D01*
X5216Y2170D01*
X5211Y2172D01*
X5207Y2174D01*
X5202Y2177D01*
X5198Y2180D01*
X5194Y2183D01*
X5189Y2186D01*
X5187Y2189D01*
X4957Y2419D01*
X4943Y2429D01*
X4927Y2436D01*
X4910Y2438D01*
D02*
G37*
G36*
X5200Y2676D02*
X5166Y2672D01*
X5133Y2662D01*
X5102Y2646D01*
X5076Y2624D01*
X5054Y2598D01*
X5038Y2567D01*
X5028Y2534D01*
X5024Y2500D01*
X5028Y2466D01*
X5038Y2433D01*
X5054Y2402D01*
X5076Y2376D01*
X5102Y2354D01*
X5133Y2338D01*
X5166Y2328D01*
X5200Y2324D01*
X5234Y2328D01*
X5267Y2338D01*
X5298Y2354D01*
X5324Y2376D01*
X5346Y2402D01*
X5362Y2433D01*
X5372Y2466D01*
X5376Y2500D01*
X5372Y2534D01*
X5362Y2567D01*
X5346Y2598D01*
X5324Y2624D01*
X5298Y2646D01*
X5267Y2662D01*
X5234Y2672D01*
X5200Y2676D01*
D02*
G37*
G36*
X2500D02*
X2466Y2672D01*
X2433Y2662D01*
X2402Y2646D01*
X2376Y2624D01*
X2354Y2598D01*
X2338Y2567D01*
X2328Y2534D01*
X2324Y2500D01*
X2328Y2466D01*
X2338Y2433D01*
X2354Y2402D01*
X2376Y2376D01*
X2402Y2354D01*
X2433Y2338D01*
X2466Y2328D01*
X2500Y2324D01*
X2534Y2328D01*
X2567Y2338D01*
X2598Y2354D01*
X2624Y2376D01*
X2646Y2402D01*
X2662Y2433D01*
X2672Y2466D01*
X2676Y2500D01*
X2672Y2534D01*
X2662Y2567D01*
X2646Y2598D01*
X2624Y2624D01*
X2598Y2646D01*
X2567Y2662D01*
X2534Y2672D01*
X2500Y2676D01*
D02*
G37*
G36*
X628Y2338D02*
X602Y2338D01*
X600Y2338D01*
X628Y2270D01*
X695Y2298D01*
X695Y2299D01*
X676Y2318D01*
X653Y2331D01*
X628Y2338D01*
D02*
G37*
G36*
X714Y2252D02*
X647Y2224D01*
X675Y2157D01*
X676Y2158D01*
X695Y2176D01*
X708Y2199D01*
X715Y2225D01*
X715Y2251D01*
X714Y2252D01*
D02*
G37*
G36*
X4733Y2160D02*
Y2092D01*
X4800D01*
X4790Y2115D01*
X4775Y2135D01*
X4755Y2150D01*
X4733Y2160D01*
D02*
G37*
G36*
X4683D02*
X4660Y2150D01*
X4640Y2135D01*
X4625Y2115D01*
X4615Y2092D01*
X4683D01*
Y2160D01*
D02*
G37*
G36*
X4800Y2042D02*
X4733D01*
Y1975D01*
X4755Y1985D01*
X4775Y2000D01*
X4790Y2020D01*
X4800Y2042D01*
D02*
G37*
G36*
X4683D02*
X4615D01*
X4625Y2020D01*
X4640Y2000D01*
X4660Y1985D01*
X4683Y1975D01*
Y2042D01*
D02*
G37*
G36*
X5469Y2168D02*
X5443Y2165D01*
X5419Y2155D01*
X5398Y2139D01*
X5382Y2118D01*
X5372Y2094D01*
X5369Y2067D01*
X5372Y2041D01*
X5382Y2017D01*
X5398Y1996D01*
X5419Y1980D01*
X5443Y1970D01*
X5469Y1967D01*
X5496Y1970D01*
X5520Y1980D01*
X5541Y1996D01*
X5557Y2017D01*
X5567Y2041D01*
X5570Y2067D01*
X5567Y2094D01*
X5557Y2118D01*
X5541Y2139D01*
X5520Y2155D01*
X5496Y2165D01*
X5469Y2168D01*
D02*
G37*
G36*
X5467Y1933D02*
X5447Y1931D01*
X5429Y1923D01*
X5413Y1911D01*
X5409Y1906D01*
X5397D01*
X5393Y1911D01*
X5377Y1923D01*
X5359Y1931D01*
X5340Y1933D01*
X5320Y1931D01*
X5302Y1923D01*
X5286Y1911D01*
X5282Y1906D01*
X5270D01*
X5266Y1911D01*
X5250Y1923D01*
X5232Y1931D01*
X5212Y1933D01*
X5193Y1931D01*
X5175Y1923D01*
X5159Y1911D01*
X5155Y1906D01*
X5143D01*
X5139Y1911D01*
X5123Y1923D01*
X5105Y1931D01*
X5085Y1933D01*
X5066Y1931D01*
X5048Y1923D01*
X5032Y1911D01*
X5027Y1904D01*
X5011D01*
X5008Y1907D01*
X4994Y1919D01*
X4983Y1923D01*
Y1858D01*
Y1792D01*
X4994Y1796D01*
X5008Y1808D01*
X5011Y1811D01*
X5027D01*
X5032Y1804D01*
X5048Y1792D01*
X5066Y1784D01*
X5085Y1782D01*
X5105Y1784D01*
X5123Y1792D01*
X5139Y1804D01*
X5143Y1809D01*
X5155D01*
X5159Y1804D01*
X5175Y1792D01*
X5193Y1784D01*
X5212Y1782D01*
X5232Y1784D01*
X5250Y1792D01*
X5266Y1804D01*
X5270Y1809D01*
X5282D01*
X5286Y1804D01*
X5302Y1792D01*
X5320Y1784D01*
X5340Y1782D01*
X5359Y1784D01*
X5377Y1792D01*
X5393Y1804D01*
X5397Y1809D01*
X5409D01*
X5413Y1804D01*
X5429Y1792D01*
X5447Y1784D01*
X5467Y1782D01*
X5486Y1784D01*
X5504Y1792D01*
X5520Y1804D01*
X5532Y1820D01*
X5540Y1838D01*
X5542Y1858D01*
X5540Y1877D01*
X5532Y1895D01*
X5520Y1911D01*
X5504Y1923D01*
X5486Y1931D01*
X5467Y1933D01*
D02*
G37*
G36*
X3158Y1938D02*
X3126D01*
Y1892D01*
X3158D01*
Y1938D01*
D02*
G37*
G36*
X3076D02*
X3043D01*
Y1892D01*
X3076D01*
Y1938D01*
D02*
G37*
G36*
X4933Y1923D02*
X4923Y1919D01*
X4909Y1907D01*
X4897Y1893D01*
X4893Y1883D01*
X4933D01*
Y1923D01*
D02*
G37*
G36*
X3158Y1842D02*
X3126D01*
Y1797D01*
X3158D01*
Y1842D01*
D02*
G37*
G36*
X3076D02*
X3043D01*
Y1797D01*
X3076D01*
Y1842D01*
D02*
G37*
G36*
X4933Y1833D02*
X4893D01*
X4897Y1822D01*
X4909Y1808D01*
X4923Y1796D01*
X4933Y1792D01*
Y1833D01*
D02*
G37*
G36*
X4819Y1627D02*
X4787D01*
Y1582D01*
X4819D01*
Y1627D01*
D02*
G37*
G36*
X4737D02*
X4704D01*
Y1582D01*
X4737D01*
Y1627D01*
D02*
G37*
G36*
X4130Y1579D02*
X4110Y1574D01*
X4092Y1563D01*
X4088D01*
X4070Y1574D01*
X4050Y1579D01*
X4030Y1574D01*
X4020Y1568D01*
X4010Y1564D01*
X4000Y1568D01*
X3990Y1574D01*
X3970Y1579D01*
X3950Y1574D01*
X3932Y1563D01*
X3928D01*
X3910Y1574D01*
X3890Y1579D01*
X3870Y1574D01*
X3852Y1563D01*
X3848D01*
X3830Y1574D01*
X3810Y1579D01*
X3790Y1574D01*
X3780Y1568D01*
X3770Y1564D01*
X3760Y1568D01*
X3750Y1574D01*
X3730Y1579D01*
X3710Y1574D01*
X3692Y1563D01*
X3688D01*
X3670Y1574D01*
X3650Y1579D01*
X3630Y1574D01*
X3612Y1563D01*
X3608D01*
X3590Y1574D01*
X3570Y1579D01*
X3550Y1574D01*
X3532Y1563D01*
X3521Y1545D01*
X3516Y1525D01*
Y1415D01*
X3521Y1395D01*
X3532Y1377D01*
X3550Y1366D01*
X3570Y1361D01*
X3586Y1365D01*
X3599Y1357D01*
Y1327D01*
X3598Y1325D01*
X3594Y1304D01*
X3598Y1282D01*
X3610Y1264D01*
X3629Y1252D01*
X3650Y1248D01*
X3671Y1252D01*
X3690Y1264D01*
X3702Y1282D01*
X3702Y1283D01*
X3716Y1291D01*
X3730Y1288D01*
X3751Y1292D01*
X3770Y1304D01*
X3782Y1323D01*
X3786Y1344D01*
X3784Y1355D01*
X3785Y1356D01*
X3795Y1364D01*
X3810Y1361D01*
X3830Y1366D01*
X3848Y1377D01*
X3852D01*
X3870Y1366D01*
X3890Y1361D01*
X3910Y1366D01*
X3928Y1377D01*
X3932D01*
X3950Y1366D01*
X3970Y1361D01*
X3990Y1366D01*
X4000Y1372D01*
X4010Y1376D01*
X4020Y1372D01*
X4030Y1366D01*
X4050Y1361D01*
X4070Y1366D01*
X4088Y1377D01*
X4092D01*
X4110Y1366D01*
X4130Y1361D01*
X4150Y1366D01*
X4168Y1377D01*
X4179Y1395D01*
X4184Y1415D01*
Y1525D01*
X4179Y1545D01*
X4168Y1563D01*
X4150Y1574D01*
X4130Y1579D01*
D02*
G37*
G36*
X6580Y1588D02*
X6554Y1585D01*
X6529Y1574D01*
X6528Y1574D01*
X6580Y1522D01*
X6631Y1574D01*
X6630Y1574D01*
X6606Y1585D01*
X6580Y1588D01*
D02*
G37*
G36*
X4819Y1532D02*
X4787D01*
Y1486D01*
X4819D01*
Y1532D01*
D02*
G37*
G36*
X4737D02*
X4704D01*
Y1486D01*
X4737D01*
Y1532D01*
D02*
G37*
G36*
X6493Y1538D02*
X6492Y1538D01*
X6482Y1513D01*
X6479Y1487D01*
X6482Y1461D01*
X6492Y1437D01*
X6493Y1436D01*
X6544Y1487D01*
X6493Y1538D01*
D02*
G37*
G36*
X6666D02*
X6615Y1487D01*
X6666Y1436D01*
X6667Y1437D01*
X6677Y1461D01*
X6680Y1487D01*
X6677Y1513D01*
X6667Y1538D01*
X6666Y1538D01*
D02*
G37*
G36*
X6580Y1452D02*
X6528Y1400D01*
X6529Y1400D01*
X6554Y1390D01*
X6580Y1386D01*
X6606Y1390D01*
X6630Y1400D01*
X6631Y1400D01*
X6580Y1452D01*
D02*
G37*
G36*
X4512Y1477D02*
X4353D01*
Y1298D01*
X4512D01*
Y1477D01*
D02*
G37*
G36*
X1477Y1221D02*
X1451Y1218D01*
X1427Y1208D01*
X1426Y1207D01*
X1477Y1156D01*
X1528Y1207D01*
X1528Y1208D01*
X1503Y1218D01*
X1477Y1221D01*
D02*
G37*
G36*
X1564Y1172D02*
X1512Y1120D01*
X1564Y1069D01*
X1564Y1070D01*
X1575Y1094D01*
X1578Y1120D01*
X1575Y1147D01*
X1564Y1171D01*
X1564Y1172D01*
D02*
G37*
G36*
X4692Y1248D02*
X4533D01*
Y1068D01*
X4692D01*
Y1248D01*
D02*
G37*
G36*
X4507Y898D02*
X4461D01*
Y866D01*
X4507D01*
Y898D01*
D02*
G37*
G36*
X4411D02*
X4365D01*
Y866D01*
X4411D01*
Y898D01*
D02*
G37*
G36*
X4507Y816D02*
X4461D01*
Y784D01*
X4507D01*
Y816D01*
D02*
G37*
G36*
X4411D02*
X4365D01*
Y784D01*
X4411D01*
Y816D01*
D02*
G37*
G36*
X3850Y1126D02*
X3816Y1122D01*
X3783Y1112D01*
X3752Y1096D01*
X3726Y1074D01*
X3704Y1048D01*
X3688Y1017D01*
X3678Y984D01*
X3674Y950D01*
X3678Y916D01*
X3688Y883D01*
X3704Y852D01*
X3726Y826D01*
X3752Y804D01*
X3783Y788D01*
X3816Y778D01*
X3850Y774D01*
X3884Y778D01*
X3917Y788D01*
X3948Y804D01*
X3974Y826D01*
X3996Y852D01*
X4012Y883D01*
X4022Y916D01*
X4026Y950D01*
X4022Y984D01*
X4012Y1017D01*
X3996Y1048D01*
X3974Y1074D01*
X3948Y1096D01*
X3917Y1112D01*
X3884Y1122D01*
X3850Y1126D01*
D02*
G37*
G36*
X5480Y722D02*
X5454Y722D01*
X5453Y722D01*
X5481Y655D01*
X5548Y683D01*
X5547Y684D01*
X5529Y702D01*
X5506Y715D01*
X5480Y722D01*
D02*
G37*
G36*
X5407Y703D02*
X5406Y702D01*
X5387Y684D01*
X5374Y661D01*
X5367Y635D01*
X5367Y609D01*
X5367Y608D01*
X5435Y636D01*
X5407Y703D01*
D02*
G37*
G36*
X5567Y636D02*
X5500Y609D01*
X5528Y542D01*
X5529Y542D01*
X5547Y561D01*
X5560Y584D01*
X5567Y609D01*
X5567Y635D01*
X5567Y636D01*
D02*
G37*
G36*
X5454Y590D02*
X5387Y562D01*
X5387Y561D01*
X5406Y542D01*
X5429Y529D01*
X5454Y522D01*
X5480Y522D01*
X5481Y522D01*
X5454Y590D01*
D02*
G37*
G36*
X2694Y523D02*
X2669Y516D01*
X2646Y503D01*
X2627Y484D01*
X2627Y483D01*
X2694Y455D01*
X2721Y523D01*
X2720Y523D01*
X2694Y523D01*
D02*
G37*
G36*
X2768Y503D02*
X2740Y436D01*
X2807Y409D01*
X2807Y410D01*
X2807Y436D01*
X2800Y461D01*
X2787Y484D01*
X2769Y503D01*
X2768Y503D01*
D02*
G37*
G36*
X4131Y350D02*
Y278D01*
X4204D01*
X4204Y279D01*
X4194Y303D01*
X4178Y324D01*
X4157Y340D01*
X4133Y350D01*
X4131Y350D01*
D02*
G37*
G36*
X4081D02*
X4080Y350D01*
X4056Y340D01*
X4035Y324D01*
X4019Y303D01*
X4009Y279D01*
X4009Y278D01*
X4081D01*
Y350D01*
D02*
G37*
G36*
X4204Y228D02*
X4131D01*
Y155D01*
X4133Y155D01*
X4157Y165D01*
X4178Y181D01*
X4194Y202D01*
X4204Y226D01*
X4204Y228D01*
D02*
G37*
G36*
X4081D02*
X4009D01*
X4009Y226D01*
X4019Y202D01*
X4035Y181D01*
X4056Y165D01*
X4080Y155D01*
X4081Y155D01*
Y228D01*
D02*
G37*
%LPD*%
G36*
X4886Y2341D02*
X4884Y2342D01*
X4882Y2343D01*
X4878Y2344D01*
X4875Y2345D01*
X4870Y2346D01*
X4860Y2347D01*
X4847Y2348D01*
X4840Y2348D01*
Y2398D01*
X4847Y2398D01*
X4870Y2399D01*
X4875Y2400D01*
X4878Y2401D01*
X4882Y2402D01*
X4884Y2403D01*
X4886Y2405D01*
Y2341D01*
D02*
G37*
G36*
X5172Y2167D02*
X5178Y2163D01*
X5183Y2159D01*
X5189Y2155D01*
X5195Y2152D01*
X5201Y2149D01*
X5207Y2146D01*
X5213Y2144D01*
X5220Y2143D01*
X5226Y2142D01*
X5141Y2057D01*
X5140Y2063D01*
X5139Y2070D01*
X5137Y2076D01*
X5134Y2082D01*
X5131Y2088D01*
X5128Y2094D01*
X5124Y2100D01*
X5120Y2105D01*
X5116Y2111D01*
X5111Y2116D01*
X5167Y2172D01*
X5172Y2167D01*
D02*
G37*
G36*
X3676Y1407D02*
X3676Y1405D01*
X3676Y1398D01*
X3675Y1354D01*
X3625D01*
X3624Y1408D01*
X3676D01*
X3676Y1407D01*
D02*
G37*
D21*
X4483Y2051D02*
D03*
Y1903D02*
D03*
X4436Y989D02*
D03*
Y841D02*
D03*
D22*
X3101Y1867D02*
D03*
X3249D02*
D03*
X4613Y1557D02*
D03*
X4762D02*
D03*
D25*
X1298Y1300D02*
D03*
X1477Y1120D02*
D03*
X1118Y1480D02*
D03*
X518Y2473D02*
D03*
X615Y2238D02*
D03*
X420Y2707D02*
D03*
X245Y3855D02*
D03*
Y3601D02*
D03*
Y4109D02*
D03*
X522Y5233D02*
D03*
X425Y4998D02*
D03*
X620Y5467D02*
D03*
X1302Y6405D02*
D03*
X1123Y6225D02*
D03*
X1482Y6585D02*
D03*
X2473Y7185D02*
D03*
X2238Y7088D02*
D03*
X2707Y7282D02*
D03*
X3853Y7460D02*
D03*
X3599D02*
D03*
X4106D02*
D03*
X5233Y7193D02*
D03*
X4998Y7290D02*
D03*
X5467Y7095D02*
D03*
X6403Y6407D02*
D03*
X6223Y6587D02*
D03*
X6582Y6228D02*
D03*
X7188Y5235D02*
D03*
X7090Y5470D02*
D03*
X7285Y5000D02*
D03*
X7465Y3855D02*
D03*
Y4109D02*
D03*
Y3601D02*
D03*
X7182Y2475D02*
D03*
X7280Y2710D02*
D03*
X7085Y2240D02*
D03*
X6400Y1307D02*
D03*
X6580Y1487D02*
D03*
X6220Y1128D02*
D03*
X5233Y525D02*
D03*
X5467Y622D02*
D03*
X4998Y428D02*
D03*
X3853Y253D02*
D03*
X4106D02*
D03*
X3599D02*
D03*
X2473Y520D02*
D03*
X2707Y423D02*
D03*
X2238Y617D02*
D03*
D26*
X5724Y2067D02*
D03*
X5469D02*
D03*
X4708D02*
D03*
X4962D02*
D03*
X5215D02*
D03*
D27*
X1725Y2877D02*
D03*
X1979D02*
D03*
X1471D02*
D03*
D28*
X2233D02*
D03*
D29*
X7150Y3850D02*
D03*
X550D02*
D03*
X3850Y6650D02*
D03*
X5200Y5200D02*
D03*
X2500Y2500D02*
D03*
X5200D02*
D03*
X3850Y950D02*
D03*
D30*
X1690Y2615D02*
D03*
X1815D02*
D03*
X2065D02*
D03*
X1940D02*
D03*
D31*
X5212Y1858D02*
D03*
X5085D02*
D03*
X4958D02*
D03*
X5340D02*
D03*
X5467D02*
D03*
D33*
X4270Y1930D02*
X4483D01*
X4050Y2395D02*
X4100Y2445D01*
X4050Y2320D02*
Y2395D01*
X4100Y2445D02*
X4557D01*
X4962Y2040D01*
X3968Y2323D02*
Y2430D01*
Y2323D02*
X3970Y2320D01*
X5202Y2054D02*
X5216Y2040D01*
X4840Y2373D02*
X4910D01*
X1880Y2275D02*
X2105Y2500D01*
Y2515D01*
X4483Y2051D02*
X4510D01*
X4124Y2170D02*
X4270D01*
X4053Y2099D02*
X4124Y2170D01*
X4053Y2098D02*
Y2099D01*
X4040Y2085D02*
X4053Y2098D01*
X4128Y2058D02*
Y2067D01*
X4150Y2090D01*
X3650Y1304D02*
Y1470D01*
X4362Y1162D02*
X4436D01*
X4433Y1009D02*
X4436Y1005D01*
X4433Y1009D02*
Y1157D01*
X4270Y1255D02*
X4362Y1162D01*
X4270Y1255D02*
Y1610D01*
X4613Y1395D02*
X4616Y1393D01*
X4613Y1395D02*
Y1515D01*
Y1607D01*
X4531Y1690D02*
X4613Y1607D01*
X4270Y1690D02*
X4531D01*
X4510Y2051D02*
X4547Y2090D01*
Y2233D01*
X1939Y2880D02*
X1940Y2879D01*
X3640Y2090D02*
X3750Y1980D01*
X3730Y1344D02*
Y1470D01*
X1690Y2460D02*
X1698Y2452D01*
X4033Y2085D02*
X4040D01*
X3430Y2090D02*
X3640D01*
X4150D02*
X4270D01*
X3273Y1850D02*
X3430D01*
X3890Y2180D02*
X3890Y2180D01*
X3890Y2180D02*
Y2310D01*
X3810Y2100D02*
Y2310D01*
X3810Y2320D02*
X3810Y2320D01*
X3970Y2320D02*
X3970Y2320D01*
X3730Y2180D02*
Y2310D01*
D34*
X3430Y1690D02*
X3547D01*
X4160Y1770D02*
X4270D01*
X3317Y1690D02*
X3430D01*
X3570Y2310D02*
X3575Y2315D01*
X4130Y1930D02*
X4270D01*
D35*
X2775Y1942D02*
X3027Y1690D01*
X3650D02*
X3890Y1930D01*
X3547Y1690D02*
X3650D01*
X2213Y1942D02*
X2775D01*
X1880Y2275D02*
X2213Y1942D01*
X4120Y1810D02*
X4160Y1770D01*
X4120Y1810D02*
Y1930D01*
X3890D02*
X4120D01*
X3027Y1690D02*
X3317D01*
D37*
X1116Y1211D02*
G03*
X2392Y341I2734J2639D01*
G01*
X161Y2938D02*
G03*
X788Y1600I3689J912D01*
G01*
D02*
G03*
X1116Y1211I3062J2250D01*
G01*
X64Y4178D02*
G03*
X61Y3560I3786J-328D01*
G01*
X5603Y7222D02*
G03*
X3470Y7631I-1753J-3372D01*
G01*
X68Y3483D02*
G03*
X161Y2938I3782J367D01*
G01*
X61Y3560D02*
G03*
X68Y3483I3789J290D01*
G01*
X170Y4797D02*
G03*
X64Y4178I3680J-948D01*
G01*
X194Y4885D02*
G03*
X170Y4797I3656J-1035D01*
G01*
X602Y5822D02*
G03*
X194Y4885I3248J-1972D01*
G01*
X999Y6363D02*
G03*
X602Y5822I2851J-2513D01*
G01*
X2184Y7266D02*
G03*
X999Y6363I1666J-3416D01*
G01*
X2982Y7550D02*
G03*
X2184Y7266I868J-3700D01*
G01*
X3470Y7631D02*
G03*
X2982Y7550I380J-3781D01*
G01*
X6666Y1298D02*
G03*
X7074Y1838I-2816J2552D01*
G01*
X5838Y7089D02*
G03*
X5603Y7222I-1988J-3239D01*
G01*
X6065Y762D02*
G03*
X6666Y1298I-2215J3088D01*
G01*
X6036Y742D02*
G03*
X6065Y762I-2186J3108D01*
G01*
X5192Y295D02*
G03*
X6036Y742I-1342J3555D01*
G01*
X5101Y262D02*
G03*
X5192Y295I-1251J3588D01*
G01*
X7074Y1838D02*
G03*
X7459Y2661I-3224J2012D01*
G01*
X3471Y69D02*
G03*
X4724Y152I379J3781D01*
G01*
X6899Y6118D02*
G03*
X5838Y7089I-3049J-2268D01*
G01*
X2417Y331D02*
G03*
X3471Y69I1433J3519D01*
G01*
X4724Y152D02*
G03*
X5101Y262I-874J3698D01*
G01*
X7459Y2661D02*
G03*
X7650Y3850I-3609J1189D01*
G01*
D02*
G03*
X7558Y4681I-3800J0D01*
G01*
D02*
G03*
X7433Y5115I-3708J-831D01*
G01*
D02*
G03*
X6899Y6118I-3583J-1265D01*
G01*
X1469Y2880D02*
X1690Y2659D01*
X2392Y341D02*
Y440D01*
X3353Y88D02*
Y980D01*
X2392Y440D02*
X2473Y520D01*
X5724Y1191D02*
X6095Y820D01*
X5724Y1191D02*
Y2040D01*
X1180Y1188D02*
X1185D01*
X1298Y1300D01*
X367Y2473D02*
X518D01*
X80Y3855D02*
X80Y3855D01*
X245D01*
X353Y5259D02*
X379Y5233D01*
X522D01*
X1175Y6507D02*
X1201D01*
X1302Y6405D01*
X2427Y7334D02*
X2473Y7288D01*
Y7185D02*
Y7288D01*
X3842Y7620D02*
X3853Y7610D01*
Y7460D02*
Y7610D01*
X5233Y7193D02*
X5290Y7325D01*
X6403Y6407D02*
X6518Y6513D01*
X7188Y5235D02*
X7324Y5315D01*
X7465Y3855D02*
X7620Y3850D01*
X7182Y2475D02*
X7323Y2384D01*
X6400Y1307D02*
X6530Y1177D01*
X6547D01*
X5235Y525D02*
X5318Y377D01*
X3855Y80D02*
X3860Y85D01*
Y240D01*
X949Y1719D02*
X1690Y2460D01*
Y2615D02*
Y2659D01*
X1431Y2880D02*
X1469D01*
X1703Y2452D02*
X1880Y2275D01*
X1698Y2452D02*
X1703D01*
X809Y1579D02*
X949Y1718D01*
Y1719D01*
X1687Y2613D02*
X1690Y2460D01*
D38*
X1940Y2615D02*
Y2879D01*
X4910Y2373D02*
X5215Y2067D01*
X1725Y2880D02*
X1815Y2790D01*
Y2615D02*
Y2790D01*
X1685Y2880D02*
X1725D01*
D39*
X7350Y4800D02*
D03*
X7200Y4500D02*
D03*
X7350Y4200D02*
D03*
X7200Y3300D02*
D03*
X7350Y3000D02*
D03*
X6900Y5700D02*
D03*
Y5100D02*
D03*
Y4500D02*
D03*
X7050Y4200D02*
D03*
X6900Y3900D02*
D03*
X7050Y3000D02*
D03*
X6900Y2700D02*
D03*
X7050Y2400D02*
D03*
X6900Y2100D02*
D03*
X6750Y6000D02*
D03*
Y5400D02*
D03*
Y4800D02*
D03*
Y3600D02*
D03*
X6600Y2700D02*
D03*
X6750Y2400D02*
D03*
X6600Y2100D02*
D03*
X6750Y1800D02*
D03*
X6300Y6300D02*
D03*
X6450Y6000D02*
D03*
X6300Y5700D02*
D03*
X6450Y5400D02*
D03*
Y1800D02*
D03*
X6300Y1500D02*
D03*
X6000Y6300D02*
D03*
X6150Y6000D02*
D03*
X6000Y5700D02*
D03*
X6150Y5400D02*
D03*
X6000Y5100D02*
D03*
X6150Y3000D02*
D03*
X6000Y1500D02*
D03*
X5700Y6900D02*
D03*
X5850Y6600D02*
D03*
X5700Y6300D02*
D03*
X5850Y6000D02*
D03*
X5700Y5700D02*
D03*
Y5100D02*
D03*
Y2700D02*
D03*
Y900D02*
D03*
X5550Y6000D02*
D03*
X5400Y5700D02*
D03*
X5550Y5400D02*
D03*
X5400Y5100D02*
D03*
Y2700D02*
D03*
X5550Y2400D02*
D03*
Y1200D02*
D03*
X5400Y900D02*
D03*
X5100Y6900D02*
D03*
X5250Y6600D02*
D03*
X5100Y6300D02*
D03*
X5250Y6000D02*
D03*
X5100Y5700D02*
D03*
X5250Y5400D02*
D03*
X5100Y2700D02*
D03*
X5250Y1200D02*
D03*
X5100Y900D02*
D03*
X4800Y6900D02*
D03*
X4950Y6600D02*
D03*
X4800Y6300D02*
D03*
Y900D02*
D03*
Y300D02*
D03*
X4650Y7200D02*
D03*
X4500Y6900D02*
D03*
X4650Y6600D02*
D03*
Y1800D02*
D03*
Y600D02*
D03*
X4500Y300D02*
D03*
X4350Y7200D02*
D03*
X4200Y6900D02*
D03*
X4350Y6600D02*
D03*
X4200Y900D02*
D03*
X4350Y600D02*
D03*
X4050Y7200D02*
D03*
X3900Y6900D02*
D03*
X4050Y6600D02*
D03*
X3600Y6900D02*
D03*
X3750Y1200D02*
D03*
X3600Y900D02*
D03*
X3750Y600D02*
D03*
X3450Y7200D02*
D03*
Y6600D02*
D03*
Y2400D02*
D03*
X3150Y7200D02*
D03*
X3000Y6900D02*
D03*
X3150Y2400D02*
D03*
X3000Y900D02*
D03*
X3150Y600D02*
D03*
X3000Y300D02*
D03*
X2850Y7200D02*
D03*
Y2400D02*
D03*
X2700Y900D02*
D03*
X2850Y600D02*
D03*
X2400Y6900D02*
D03*
X2550Y6600D02*
D03*
X2400Y6300D02*
D03*
Y2700D02*
D03*
X2550Y1800D02*
D03*
X2100Y6900D02*
D03*
X2250Y6600D02*
D03*
X2100Y6300D02*
D03*
X2250Y1200D02*
D03*
X2100Y900D02*
D03*
X1800Y6900D02*
D03*
X1950Y6600D02*
D03*
X1800Y6300D02*
D03*
X1950Y6000D02*
D03*
X1800Y5700D02*
D03*
X1950Y1200D02*
D03*
X1800Y900D02*
D03*
X1650Y6600D02*
D03*
X1500Y6300D02*
D03*
Y1500D02*
D03*
X1650Y1200D02*
D03*
X1350Y6000D02*
D03*
X1200Y5700D02*
D03*
X1350Y5400D02*
D03*
X1050Y6000D02*
D03*
X900Y5700D02*
D03*
Y5100D02*
D03*
Y4500D02*
D03*
Y3900D02*
D03*
Y3300D02*
D03*
Y2100D02*
D03*
X600Y5100D02*
D03*
X750Y4800D02*
D03*
X600Y4500D02*
D03*
X750Y3600D02*
D03*
X600Y3300D02*
D03*
X750Y3000D02*
D03*
Y2400D02*
D03*
X600Y2100D02*
D03*
X450Y4800D02*
D03*
X300Y4500D02*
D03*
X450Y3600D02*
D03*
X300Y3300D02*
D03*
X450Y3000D02*
D03*
X4364Y2277D02*
D03*
X3953Y1662D02*
D03*
X2858Y1855D02*
D03*
X3968Y2430D02*
D03*
X4840Y2373D02*
D03*
X2105Y2515D02*
D03*
X4128Y2058D02*
D03*
X3650Y1304D02*
D03*
X4547Y2233D02*
D03*
X3750Y1980D02*
D03*
X3730Y1344D02*
D03*
X4033Y2085D02*
D03*
X3890Y2180D02*
D03*
X3810Y2100D02*
D03*
X3730Y2180D02*
D03*
D40*
X3353Y980D02*
D03*
D41*
X4612Y1157D02*
D03*
X4433D02*
D03*
Y1388D02*
D03*
X4612D02*
D03*
D42*
X4270Y2170D02*
D03*
Y2090D02*
D03*
Y2010D02*
D03*
Y1930D02*
D03*
Y1850D02*
D03*
Y1770D02*
D03*
Y1690D02*
D03*
Y1610D02*
D03*
X3430D02*
D03*
Y1690D02*
D03*
Y1770D02*
D03*
Y1850D02*
D03*
Y1930D02*
D03*
Y2010D02*
D03*
Y2090D02*
D03*
Y2170D02*
D03*
D43*
X4130Y1470D02*
D03*
X4050D02*
D03*
X3970D02*
D03*
X3890D02*
D03*
X3810D02*
D03*
X3730D02*
D03*
X3650D02*
D03*
X3570D02*
D03*
Y2310D02*
D03*
X3650D02*
D03*
X3730D02*
D03*
X3810D02*
D03*
X3890D02*
D03*
X3970D02*
D03*
X4050D02*
D03*
X4130D02*
D03*
M02*
