M48
;Layer_Color=9474304
;FILE_FORMAT=4:2
METRIC,LZ
;TYPE=PLATED
T1F00S00C0.30
T2F00S00C0.60
T3F00S00C0.71
T4F00S00C0.90
T5F00S00C2.50
T6F00S00C3.00
T7F00S00C5.00
%
T01
X0094Y0002
X0096
X0098
X01
X0101Y0004
X0099
X0097
X0095
X0093
X0094Y0006
X0126Y0042
X0128
X013
X0132
X0134
X0136
X0138
X014
X0142
X0144
X0145Y0044
X0144Y0046
X0137Y0044
X0135
X0133
X0131
X0129
X0131Y0048
X0133
X0135
X0134Y005
X0132
X013
Y0054
X0131Y0056
X0133
X0135
X0136Y0054
X0135Y0052
X0134Y0058
X0125Y0052
X0124Y005
X0125Y0048
X0121
Y0052
Y0056
X0119
X0118Y0054
X0119Y0052
X0099
X0097
X0098Y0054
X0096
X0099Y0048
X0098Y0046
X009418Y004553
X00929
X0092Y0046
X009
X0088
X0086
X0084
X0082
Y005
X008
Y0042
X0078
X0076
X0074
X0072
X007
X0068
X0069Y0044
X0071
X0073
X0075
X0077
X0076Y005
X0074
X0075Y0052
X0076Y0054
X0074
X0075Y0056
X0073
X0071
X007Y0058
X0069Y006
X0067
X0065
X0063
X0058Y0058
X0054
X0055Y006
Y0048
X0052Y005
X005
X0048
X0046
X0067Y0044
X0079Y0052
X0076Y0058
X0074
X0075Y006
X0073
X0076Y0062
Y0066
Y007
X0045Y0076
X0043
X0041
X0042Y0078
X0044
X0046
X004
Y0074
X0042
X0038
X0036
X0034
X0035Y0072
X0037
X0039
X0038Y007
X0036
X0034
X0032
X003
X0031Y0068
X0033
X0035
X0032Y0066
X003
X0031Y0064
X0032Y0062
X003
X0031Y006
X0033
X0035
X0037
Y0056
X0036Y0054
X0034
X0032
X003
X0031Y0056
X0033
X0032Y0058
X003
X0031Y0052
X0033
X0035
X0036Y005
X0034
X0032
X003
X0031Y0048
X0033
X0035
X0034Y0046
X0032
X003
X0031Y0044
X0033
X0035
X0034Y0042
X0032
X003
X0033Y0072
X0037Y0076
X0039
X0041Y008
X0043
X0045
X0047
X0048Y0082
X0046
X0044
X0045Y0084
X0047
X0049
X0048Y0086
X0059Y0088
X006Y009
X0058
X0061Y0092
X0067Y0096
X00693Y010188
X0071Y0104
X0073
X0074Y0106
X0072
X0075Y0108
X0077
X0079
X0078Y0106
X0079Y0104
X0078Y0102
X007826Y010086
X0076Y0102
X008025Y010035
X0081Y0104
X008Y0106
X0083Y0108
X0091
X0099
X0102Y0106
X0087Y01
X0085
X0086Y0098
X0084
X0083Y0096
T02
X009311Y000895
X009438
X009565Y000898
X009692
X012519Y005929
X012646
X012773
X014084Y004572
X014211
X009782Y005033
X009654
X009528
X0094
X009274
X009146
X009019
X008893
X008765
X008639
X008511
X008385
X006582Y009656
X006485Y009575
X006389Y009492
X006292Y00941
X005403Y00865
X005307Y008568
X00521Y008485
X005114Y008403
X005017Y00832
X00835Y010916
X008477
X008604Y010918
X008731
X009494Y010912
X009621
X009749Y010914
X009875
T03
X012282Y004505
X004631Y0044
X007745Y009878
T04
X009284Y00069
X009538
X009792
X010046
X012392Y005687
X012646
X0129
X014021Y004369
X014275
X006839Y009639
X006645Y009476
X00645Y009313
X006256Y009149
X005701Y008679
X005507Y008514
X005314Y008349
X005121Y008184
X004928Y008019
X008161Y01069
X008415
X008669
X008923
X009309Y010685
X009563
X009817
X010071
T05
X012765Y00531
X013265
X004017Y00577
X003517
T06
X010447Y0005
X010007Y0046
X000936Y004635
X007547Y010443
X0131Y010368
X015506Y008413
T07
X015427Y0049
M30
