M48
;Layer_Color=9474304
;FILE_FORMAT=4:2
METRIC,LZ
;TYPE=PLATED
T1F00S00C0.30
T2F00S00C0.50
T3F00S00C0.60
T4F00S00C0.90
T5F00S00C1.00
T6F00S00C1.00
T7F00S00C1.10
T8F00S00C3.00
;TYPE=NON_PLATED
T9F00S00C1.00
%
T01
X0018Y0009
X0021
X00225Y0012
X00195
X00165
X0015Y0015
X0009Y0021
X0006
X00075Y0024
Y003
X00045
X0006Y0033
X0009
X00075Y0036
X00045
X0003Y0033
X0009Y0039
X002105Y002515
X0024Y0027
X00285Y0024
X00315
X00345
X00373Y00218
X00381Y0021
X00389Y00218
X003968Y00243
X00375Y00198
X003953Y001662
X00373Y001344
X00365Y001304
X00375Y0012
X0036Y0009
X003353Y00098
X003Y0009
X0027
X00285Y0006
X00315
X003Y0003
X00375Y0006
X002858Y001855
X00255Y0018
X004033Y002085
X004128Y002058
X004364Y002277
X004547Y002233
X00484Y002373
X0051Y0027
X0054
X0057
X00555Y0024
X00675
X00705
X0069Y0027
X0066
Y0021
X0069
X00675Y0018
X00645
X0063Y0015
X006
X00555Y0012
X00525
X0054Y0009
X0057
X0051
X0048
X00465Y0006
X00435
X0045Y0003
X0048
X0042Y0009
X00465Y0018
X00615Y003
X00705
X00735
X0072Y0033
X00675Y0036
X0069Y0039
X00705Y0042
X00735
X0072Y0045
X0069
X00675Y0048
X0069Y0051
X00675Y0054
X00645
X00615
X0063Y0057
X006
X0057
X0054
X0051
X00525Y006
X00555
X00585
X00615
X00645
X00675
X0069Y0057
X0063Y0063
X006
X0057
X00585Y0066
X0057Y0069
X0051
X0048
X0045
X0042
X00435Y0072
X00465
Y0066
X00495
X00525
X0051Y0063
X0048
X00435Y0066
X00405
Y0072
X00525Y0054
X00555
X0057Y0051
X006
X0054
X00735Y0048
X0039Y0069
X0036
X00345Y0072
X00315
X00285
X003Y0069
X0024
X0021
X0018
X00195Y0066
X00225
X00255
X0024Y0063
X0021
X0018
X0015
X00165Y0066
X00195Y006
X0018Y0057
X0012
X0009
X00105Y006
X00135
Y0054
X0009Y0051
X0006
X00075Y0048
X00045
X0006Y0045
X0009
X0003
X00345Y0066
T02
X00169Y002615
X001815
X00194
X002065
T03
X004958Y001858
X005085
X005212
X00534
X005467
T04
X004708Y002067
X004962
X005215
X005469
X005724
T05
X000518Y002473
T06
X001298Y0013
X001477Y00112
X001118Y00148
X00042Y002707
X000245Y003601
Y003855
X002238Y000617
X002473Y00052
X002707Y000423
X003599Y000253
X003853
X004106
X004998Y000428
X005233Y000525
X005467Y000622
X00622Y001128
X0064Y001307
X00658Y001487
X007085Y00224
X007182Y002475
X00728Y00271
X007465Y003601
Y003855
Y004109
X007285Y005
X007188Y005235
X00709Y00547
X006582Y006228
X006403Y006407
X006223Y006587
X005467Y007095
X005233Y007193
X004998Y00729
X004106Y00746
X003853
X003599
X002707Y007282
X002473Y007185
X002238Y007088
X001482Y006585
X001302Y006405
X001123Y006225
X00062Y005467
X000522Y005233
X000425Y004998
X000245Y004109
T07
X001471Y002877
X001725
X001979
X002233
T08
X00055Y00385
X0025Y0025
X00385Y00095
X0052Y0025
X00715Y00385
X0052Y0052
X00385Y00665
T09
X000615Y002238
M30
