M48
;Layer_Color=9474304
;FILE_FORMAT=4:2
METRIC,LZ
;TYPE=PLATED
T1F00S00C0.20
T2F00S00C0.30
T3F00S00C0.50
T4F00S00C0.90
T5F00S00C1.10
T6F00S00C3.00
T7F00S00C5.00
%
T01
X008308Y009337
T02
X0081Y0042
X0084
X0087
X009
X0093
X009Y0048
X0081
X0084Y0054
Y006
Y0066
Y0072
Y0078
X0114
X007622Y008866
X00735Y0087
X00705
X0072Y009
X007339Y009138
X00705Y0093
Y0099
X00723Y010193
X00735Y0105
X007485Y01041
X0075Y0108
X0078
X007925Y010525
X007793Y009943
X007568
X007662Y00944
X007815Y009268
X007935Y009268
X007915Y009575
X006752Y010556
X00797Y010732
X0084Y0108
X0087
X00915Y0105
X0093Y0102
X0096
X00975Y0099
X01005
X0102Y0096
X0105
X01065Y0093
X01035
X010757Y008615
X01085Y008613
X0108Y0084
X0111
X0114
X0117
X01155Y0081
X01125
X0084Y0084
X00857Y008895
X008557Y00908
X00873Y008845
X008637Y009762
X008297Y009637
X008245Y00948
X00798Y009368
X008129Y009843
X008195Y01006
X00915Y0099
X00945
T03
X00848Y0048
X008605
X00873
X008855
X007243Y0106
X007118
X006993
T04
X006864Y010848
X007118
X007371
T05
X008272Y00447
X008526
X00878
X009034
T06
X00642Y0005
X015491Y004635
X00598Y0046
X003327Y010368
X000921Y008413
X00888Y010443
T07
X001Y0049
M30
