G04*
G04 #@! TF.GenerationSoftware,Altium Limited,Altium Designer,18.1.7 (191)*
G04*
G04 Layer_Color=8388736*
%FSLAX42Y42*%
%MOMM*%
G71*
G01*
G75*
%ADD19C,0.80*%
%ADD20R,1.17X0.90*%
%ADD21R,1.75X2.15*%
%ADD22R,1.75X1.45*%
%ADD23R,0.95X2.15*%
%ADD24R,2.15X3.45*%
%ADD25R,3.05X5.55*%
%ADD26R,1.25X2.90*%
%ADD27R,10.65X7.15*%
%ADD28R,0.90X1.17*%
%ADD29R,0.55X1.50*%
%ADD30R,2.25X1.75*%
%ADD31R,1.95X2.05*%
%ADD32R,2.05X2.05*%
G04:AMPARAMS|DCode=33|XSize=0.9mm|YSize=1.17mm|CornerRadius=0mm|HoleSize=0mm|Usage=FLASHONLY|Rotation=20.000|XOffset=0mm|YOffset=0mm|HoleType=Round|Shape=Rectangle|*
%AMROTATEDRECTD33*
4,1,4,-0.22,-0.70,-0.62,0.39,0.22,0.70,0.62,-0.39,-0.22,-0.70,0.0*
%
%ADD33ROTATEDRECTD33*%

%ADD34P,1.41X4X155.0*%
G04:AMPARAMS|DCode=35|XSize=0.9mm|YSize=1.17mm|CornerRadius=0mm|HoleSize=0mm|Usage=FLASHONLY|Rotation=160.000|XOffset=0mm|YOffset=0mm|HoleType=Round|Shape=Rectangle|*
%AMROTATEDRECTD35*
4,1,4,0.62,0.39,0.22,-0.70,-0.62,-0.39,-0.22,0.70,0.62,0.39,0.0*
%
%ADD35ROTATEDRECTD35*%

%ADD36P,1.41X4X115.0*%
G04:AMPARAMS|DCode=37|XSize=0.65mm|YSize=0.8mm|CornerRadius=0mm|HoleSize=0mm|Usage=FLASHONLY|Rotation=110.000|XOffset=0mm|YOffset=0mm|HoleType=Round|Shape=Rectangle|*
%AMROTATEDRECTD37*
4,1,4,0.49,-0.17,-0.26,-0.44,-0.49,0.17,0.26,0.44,0.49,-0.17,0.0*
%
%ADD37ROTATEDRECTD37*%

G04:AMPARAMS|DCode=38|XSize=1.15mm|YSize=2.35mm|CornerRadius=0mm|HoleSize=0mm|Usage=FLASHONLY|Rotation=250.000|XOffset=0mm|YOffset=0mm|HoleType=Round|Shape=Rectangle|*
%AMROTATEDRECTD38*
4,1,4,-0.91,0.94,1.30,0.14,0.91,-0.94,-1.30,-0.14,-0.91,0.94,0.0*
%
%ADD38ROTATEDRECTD38*%

G04:AMPARAMS|DCode=39|XSize=1.15mm|YSize=2.35mm|CornerRadius=0mm|HoleSize=0mm|Usage=FLASHONLY|Rotation=160.000|XOffset=0mm|YOffset=0mm|HoleType=Round|Shape=Rectangle|*
%AMROTATEDRECTD39*
4,1,4,0.94,0.91,0.14,-1.30,-0.94,-0.91,-0.14,1.30,0.94,0.91,0.0*
%
%ADD39ROTATEDRECTD39*%

%ADD40R,1.55X1.75*%
%ADD41R,0.95X0.95*%
%ADD42R,0.95X1.05*%
%ADD43R,1.45X1.67*%
%ADD44R,1.65X0.75*%
%ADD45R,1.00X1.00*%
G04:AMPARAMS|DCode=46|XSize=1.15mm|YSize=2.35mm|CornerRadius=0mm|HoleSize=0mm|Usage=FLASHONLY|Rotation=20.000|XOffset=0mm|YOffset=0mm|HoleType=Round|Shape=Rectangle|*
%AMROTATEDRECTD46*
4,1,4,-0.14,-1.30,-0.94,0.91,0.14,1.30,0.94,-0.91,-0.14,-1.30,0.0*
%
%ADD46ROTATEDRECTD46*%

G04:AMPARAMS|DCode=47|XSize=1.15mm|YSize=2.35mm|CornerRadius=0mm|HoleSize=0mm|Usage=FLASHONLY|Rotation=290.000|XOffset=0mm|YOffset=0mm|HoleType=Round|Shape=Rectangle|*
%AMROTATEDRECTD47*
4,1,4,-1.30,0.14,0.91,0.94,1.30,-0.14,-0.91,-0.94,-1.30,0.14,0.0*
%
%ADD47ROTATEDRECTD47*%

G04:AMPARAMS|DCode=48|XSize=1.55mm|YSize=0.5mm|CornerRadius=0.25mm|HoleSize=0mm|Usage=FLASHONLY|Rotation=180.000|XOffset=0mm|YOffset=0mm|HoleType=Round|Shape=RoundedRectangle|*
%AMROUNDEDRECTD48*
21,1,1.55,0.00,0,0,180.0*
21,1,1.05,0.50,0,0,180.0*
1,1,0.50,-0.53,0.00*
1,1,0.50,0.53,0.00*
1,1,0.50,0.53,0.00*
1,1,0.50,-0.53,0.00*
%
%ADD48ROUNDEDRECTD48*%
%ADD49R,1.06X1.37*%
%ADD50O,1.95X0.45*%
%ADD51O,0.45X1.95*%
%ADD52C,1.05*%
%ADD53C,1.65*%
%ADD54C,2.15*%
%ADD55P,2.33X8X202.5*%
%ADD56C,3.75*%
%ADD57C,2.65*%
%ADD58C,3.15*%
%ADD59C,0.50*%
%ADD60C,1.42*%
%ADD61C,0.80*%
D19*
X14049Y9800D02*
Y11900D01*
X13749D02*
X14049D01*
X13749Y9800D02*
Y11900D01*
Y9800D02*
X14049D01*
X4367Y15480D02*
X4446Y15549D01*
X4280Y15422D02*
X4367Y15480D01*
X4186Y15375D02*
X4280Y15422D01*
X4087Y15342D02*
X4186Y15375D01*
X3984Y15321D02*
X4087Y15342D01*
X3880Y15314D02*
X3984Y15321D01*
X2574Y15314D02*
X3880D01*
X2481Y15309D02*
X2574Y15314D01*
X2391Y15293D02*
X2481Y15309D01*
X2302Y15267D02*
X2391Y15293D01*
X2217Y15231D02*
X2302Y15267D01*
X2137Y15185D02*
X2217Y15231D01*
X2063Y15130D02*
X2137Y15185D01*
X1995Y15067D02*
X2063Y15130D01*
X1936Y14997D02*
X1995Y15067D01*
X1884Y14920D02*
X1936Y14997D01*
X1842Y14838D02*
X1884Y14920D01*
X1703Y14508D02*
X1842Y14838D01*
X1576Y14173D02*
X1703Y14508D01*
X1555Y14097D02*
X1576Y14173D01*
X1547Y14019D02*
X1555Y14097D01*
X1547Y14019D02*
X1550Y13941D01*
X1566Y13865D01*
X1594Y13792D01*
X1633Y13724D01*
X1681Y13662D01*
X1739Y13610D01*
X1804Y13567D01*
X1876Y13534D01*
X4002Y12760D01*
X4113Y12727D01*
X4228Y12707D01*
X4344Y12700D01*
X20027D01*
X20092Y12705D01*
X20156Y12721D01*
X20216Y12748D01*
X20272Y12784D01*
X20320Y12828D01*
X20361Y12880D01*
X20392Y12938D01*
X20414Y13000D01*
X20425Y13064D01*
X20426Y13130D01*
X20415Y13195D02*
X20426Y13130D01*
X20327Y13531D02*
X20415Y13195D01*
X20226Y13864D02*
X20327Y13531D01*
X20114Y14193D02*
X20226Y13864D01*
X19990Y14518D02*
X20114Y14193D01*
X19855Y14838D02*
X19990Y14518D01*
X19813Y14920D02*
X19855Y14838D01*
X19761Y14997D02*
X19813Y14920D01*
X19702Y15067D02*
X19761Y14997D01*
X19634Y15130D02*
X19702Y15067D01*
X19560Y15185D02*
X19634Y15130D01*
X19480Y15231D02*
X19560Y15185D01*
X19395Y15267D02*
X19480Y15231D01*
X19306Y15293D02*
X19395Y15267D01*
X19216Y15309D02*
X19306Y15293D01*
X19123Y15314D02*
X19216Y15309D01*
X17817Y15314D02*
X19123D01*
X17713Y15321D02*
X17817Y15314D01*
X17610Y15342D02*
X17713Y15321D01*
X17511Y15375D02*
X17610Y15342D01*
X17417Y15422D02*
X17511Y15375D01*
X17330Y15480D02*
X17417Y15422D01*
X17251Y15549D02*
X17330Y15480D01*
X16734Y16066D02*
X17251Y15549D01*
X16656Y16135D02*
X16734Y16066D01*
X16569Y16193D02*
X16656Y16135D01*
X16475Y16239D02*
X16569Y16193D01*
X16376Y16273D02*
X16475Y16239D01*
X16273Y16293D02*
X16376Y16273D01*
X16169Y16300D02*
X16273Y16293D01*
X15199Y16300D02*
X16169D01*
X15154Y16295D02*
X15199Y16300D01*
X15112Y16280D02*
X15154Y16295D01*
X15074Y16256D02*
X15112Y16280D01*
X15042Y16225D02*
X15074Y16256D01*
X15018Y16187D02*
X15042Y16225D01*
X15004Y16145D02*
X15018Y16187D01*
X14999Y16100D02*
X15004Y16145D01*
X14999Y16050D02*
Y16100D01*
X14992Y15981D02*
X14999Y16050D01*
X14974Y15913D02*
X14992Y15981D01*
X14945Y15850D02*
X14974Y15913D01*
X14905Y15793D02*
X14945Y15850D01*
X14856Y15744D02*
X14905Y15793D01*
X14799Y15704D02*
X14856Y15744D01*
X14735Y15674D02*
X14799Y15704D01*
X14668Y15656D02*
X14735Y15674D01*
X14599Y15650D02*
X14668Y15656D01*
X14099Y15650D02*
X14599D01*
X14029Y15656D02*
X14099Y15650D01*
X13962Y15674D02*
X14029Y15656D01*
X13899Y15704D02*
X13962Y15674D01*
X13841Y15744D02*
X13899Y15704D01*
X13792Y15793D02*
X13841Y15744D01*
X13752Y15850D02*
X13792Y15793D01*
X13723Y15913D02*
X13752Y15850D01*
X13705Y15981D02*
X13723Y15913D01*
X13699Y16050D02*
X13705Y15981D01*
X13699Y16050D02*
Y16600D01*
X13692Y16669D02*
X13699Y16600D01*
X13674Y16737D02*
X13692Y16669D01*
X13645Y16800D02*
X13674Y16737D01*
X13605Y16857D02*
X13645Y16800D01*
X13556Y16906D02*
X13605Y16857D01*
X13499Y16946D02*
X13556Y16906D01*
X13435Y16976D02*
X13499Y16946D01*
X13368Y16994D02*
X13435Y16976D01*
X13299Y17000D02*
X13368Y16994D01*
X8399Y17000D02*
X13299D01*
X8329Y16994D02*
X8399Y17000D01*
X8262Y16976D02*
X8329Y16994D01*
X8199Y16946D02*
X8262Y16976D01*
X8141Y16906D02*
X8199Y16946D01*
X8092Y16857D02*
X8141Y16906D01*
X8052Y16800D02*
X8092Y16857D01*
X8023Y16737D02*
X8052Y16800D01*
X8005Y16669D02*
X8023Y16737D01*
X7999Y16600D02*
X8005Y16669D01*
X7999Y16050D02*
Y16600D01*
X7992Y15981D02*
X7999Y16050D01*
X7974Y15913D02*
X7992Y15981D01*
X7945Y15850D02*
X7974Y15913D01*
X7905Y15793D02*
X7945Y15850D01*
X7856Y15744D02*
X7905Y15793D01*
X7799Y15704D02*
X7856Y15744D01*
X7735Y15674D02*
X7799Y15704D01*
X7668Y15656D02*
X7735Y15674D01*
X7599Y15650D02*
X7668Y15656D01*
X7099Y15650D02*
X7599D01*
X7029Y15656D02*
X7099Y15650D01*
X6962Y15674D02*
X7029Y15656D01*
X6899Y15704D02*
X6962Y15674D01*
X6841Y15744D02*
X6899Y15704D01*
X6792Y15793D02*
X6841Y15744D01*
X6752Y15850D02*
X6792Y15793D01*
X6723Y15913D02*
X6752Y15850D01*
X6705Y15981D02*
X6723Y15913D01*
X6699Y16050D02*
X6705Y15981D01*
X6699Y16050D02*
Y16100D01*
X6693Y16145D02*
X6699Y16100D01*
X6679Y16187D02*
X6693Y16145D01*
X6655Y16225D02*
X6679Y16187D01*
X6623Y16256D02*
X6655Y16225D01*
X6585Y16280D02*
X6623Y16256D01*
X6543Y16295D02*
X6585Y16280D01*
X6499Y16300D02*
X6543Y16295D01*
X5528Y16300D02*
X6499D01*
X5424Y16293D02*
X5528Y16300D01*
X5321Y16273D02*
X5424Y16293D01*
X5222Y16239D02*
X5321Y16273D01*
X5128Y16193D02*
X5222Y16239D01*
X5041Y16135D02*
X5128Y16193D01*
X4963Y16066D02*
X5041Y16135D01*
X4446Y15549D02*
X4963Y16066D01*
X1883Y7940D02*
X1948Y7970D01*
X1822Y7901D02*
X1883Y7940D01*
X1767Y7854D02*
X1822Y7901D01*
X1720Y7800D02*
X1767Y7854D01*
X1681Y7739D02*
X1720Y7800D01*
X1651Y7674D02*
X1681Y7739D01*
X1630Y7604D02*
X1651Y7674D01*
X1620Y7533D02*
X1630Y7604D01*
X1620Y7533D02*
X1621Y7461D01*
X1632Y7390D01*
X1653Y7321D01*
X1842Y6862D01*
X1884Y6780D01*
X1936Y6703D01*
X1995Y6633D01*
X2063Y6570D01*
X2137Y6515D01*
X2217Y6469D01*
X2302Y6433D01*
X2391Y6407D01*
X2481Y6391D01*
X2574Y6386D01*
X3880D01*
X3984Y6379D01*
X4087Y6358D01*
X4186Y6325D01*
X4280Y6278D01*
X4367Y6220D01*
X4446Y6151D01*
X6150Y4447D01*
X6219Y4368D01*
X6277Y4281D01*
X6323Y4188D01*
X6357Y4088D01*
X6377Y3986D01*
X6384Y3881D01*
Y2575D02*
Y3881D01*
Y2575D02*
X6389Y2483D01*
X6405Y2392D01*
X6432Y2304D01*
X6468Y2219D01*
X6514Y2139D01*
X6568Y2064D01*
X6631Y1997D01*
X6701Y1937D01*
X6778Y1886D01*
X6860Y1844D01*
X7175Y1710D01*
X7495Y1588D01*
X7819Y1478D01*
X8146Y1378D01*
X8477Y1290D01*
X8810Y1213D01*
X9146Y1148D01*
X9484Y1095D01*
X9824Y1053D01*
X10165Y1024D01*
X10506Y1006D01*
X10849Y1000D01*
X11191Y1006D01*
X11532Y1024D01*
X11873Y1053D01*
X12213Y1095D01*
X12551Y1148D01*
X12887Y1213D01*
X13220Y1290D01*
X13551Y1378D01*
X13878Y1478D01*
X14202Y1588D01*
X14522Y1710D01*
X14837Y1844D01*
X14919Y1886D01*
X14996Y1937D01*
X15066Y1997D01*
X15129Y2064D01*
X15183Y2139D01*
X15229Y2219D01*
X15265Y2304D01*
X15292Y2392D01*
X15308Y2483D01*
X15313Y2575D01*
Y3881D01*
X15320Y3986D01*
X15340Y4088D01*
X15374Y4188D01*
X15420Y4281D01*
X15478Y4368D01*
X15547Y4447D01*
X17251Y6151D01*
X17330Y6220D01*
X17417Y6278D01*
X17511Y6325D01*
X17610Y6358D01*
X17713Y6379D01*
X17817Y6386D01*
X19123D01*
X19216Y6391D01*
X19306Y6407D01*
X19395Y6433D01*
X19480Y6469D01*
X19560Y6515D01*
X19634Y6570D01*
X19702Y6633D01*
X19761Y6703D01*
X19813Y6780D01*
X19855Y6862D01*
X20002Y7213D01*
X20136Y7569D01*
X20256Y7931D01*
X20362Y8296D01*
X20374Y8362D01*
X20374Y8428D01*
X20364Y8494D02*
X20374Y8428D01*
X20343Y8557D02*
X20364Y8494D01*
X20312Y8616D02*
X20343Y8557D01*
X20271Y8669D02*
X20312Y8616D01*
X20223Y8714D02*
X20271Y8669D01*
X20167Y8751D02*
X20223Y8714D01*
X20106Y8778D02*
X20167Y8751D01*
X20042Y8794D02*
X20106Y8778D01*
X19975Y8800D02*
X20042Y8794D01*
X4406Y8800D02*
X19975D01*
X4290Y8793D02*
X4406Y8800D01*
X4176Y8773D02*
X4290Y8793D01*
X4064Y8740D02*
X4176Y8773D01*
X1948Y7970D02*
X4064Y8740D01*
X7649Y11900D02*
X7949D01*
X7649Y9800D02*
Y11900D01*
Y9800D02*
X7949D01*
Y11900D01*
X5607Y20350D02*
X5674Y20381D01*
X5745Y20401D01*
X5819Y20411D01*
X5893Y20410D01*
X5966Y20398D01*
X6036Y20376D01*
X6103Y20343D01*
X6163Y20300D01*
X6217Y20250D01*
X6263Y20192D01*
X6300Y20127D01*
X6327Y20058D01*
X6343Y19986D01*
X6349Y19912D01*
Y19545D02*
Y19912D01*
Y19545D02*
X6355Y19476D01*
X6372Y19409D01*
X6402Y19346D01*
X6441Y19289D01*
X7229Y18344D01*
X7278Y18294D01*
X7335Y18254D01*
X7399Y18224D01*
X7466Y18206D01*
X7536Y18200D01*
X14183D01*
X14261Y18208D01*
X14336Y18230D01*
X14405Y18267D01*
X14466Y18317D01*
X15231Y19083D01*
X15281Y19143D01*
X15318Y19213D01*
X15341Y19288D01*
X15349Y19366D01*
Y19912D01*
X15354Y19986D01*
X15370Y20058D01*
X15397Y20127D01*
X15434Y20192D01*
X15480Y20250D01*
X15534Y20300D01*
X15594Y20343D01*
X15661Y20376D01*
X15731Y20398D01*
X15804Y20410D01*
X15878Y20411D01*
X15952Y20401D01*
X16023Y20381D01*
X16090Y20350D01*
X16379Y20185D01*
X16663Y20011D01*
X16941Y19828D01*
X17213Y19637D01*
X17480Y19438D01*
X17740Y19231D01*
X17993Y19015D01*
X18240Y18792D01*
X18481Y18562D01*
X18713Y18324D01*
X18939Y18080D01*
X19157Y17828D01*
X19367Y17570D01*
X19569Y17306D01*
X19763Y17035D01*
X19948Y16759D01*
X20125Y16477D01*
X20293Y16190D01*
X20453Y15898D01*
X20603Y15601D01*
X20744Y15300D01*
X20876Y14994D01*
X20998Y14685D01*
X21111Y14372D01*
X21214Y14056D01*
X21308Y13736D01*
X21391Y13414D01*
X21465Y13090D01*
X21528Y12763D01*
X21582Y12435D01*
X21626Y12105D01*
X21659Y11774D01*
X21682Y11442D01*
X21695Y11109D01*
X21698Y10777D01*
X21691Y10444D02*
X21698Y10777D01*
X21673Y10112D02*
X21691Y10444D01*
X21646Y9780D02*
X21673Y10112D01*
X21608Y9450D02*
X21646Y9780D01*
X21560Y9120D02*
X21608Y9450D01*
X21502Y8793D02*
X21560Y9120D01*
X21434Y8467D02*
X21502Y8793D01*
X21356Y8144D02*
X21434Y8467D01*
X21268Y7823D02*
X21356Y8144D01*
X21170Y7505D02*
X21268Y7823D01*
X21062Y7190D02*
X21170Y7505D01*
X20945Y6878D02*
X21062Y7190D01*
X20819Y6571D02*
X20945Y6878D01*
X20683Y6267D02*
X20819Y6571D01*
X20538Y5968D02*
X20683Y6267D01*
X20384Y5673D02*
X20538Y5968D01*
X20220Y5383D02*
X20384Y5673D01*
X20048Y5098D02*
X20220Y5383D01*
X19868Y4819D02*
X20048Y5098D01*
X19678Y4545D02*
X19868Y4819D01*
X19481Y4277D02*
X19678Y4545D01*
X19275Y4015D02*
X19481Y4277D01*
X19062Y3760D02*
X19275Y4015D01*
X18841Y3512D02*
X19062Y3760D01*
X18612Y3270D02*
X18841Y3512D01*
X18376Y3036D02*
X18612Y3270D01*
X18133Y2809D02*
X18376Y3036D01*
X17883Y2589D02*
X18133Y2809D01*
X17626Y2377D02*
X17883Y2589D01*
X17363Y2173D02*
X17626Y2377D01*
X17094Y1978D02*
X17363Y2173D01*
X16819Y1790D02*
X17094Y1978D01*
X16538Y1612D02*
X16819Y1790D01*
X16252Y1441D02*
X16538Y1612D01*
X15961Y1280D02*
X16252Y1441D01*
X15665Y1128D02*
X15961Y1280D01*
X15365Y985D02*
X15665Y1128D01*
X15060Y851D02*
X15365Y985D01*
X14752Y726D02*
X15060Y851D01*
X14440Y612D02*
X14752Y726D01*
X14124Y506D02*
X14440Y612D01*
X13805Y411D02*
X14124Y506D01*
X13484Y325D02*
X13805Y411D01*
X13160Y249D02*
X13484Y325D01*
X12834Y183D02*
X13160Y249D01*
X12506Y127D02*
X12834Y183D01*
X12176Y82D02*
X12506Y127D01*
X11845Y46D02*
X12176Y82D01*
X11514Y20D02*
X11845Y46D01*
X11181Y5D02*
X11514Y20D01*
X10849Y-0D02*
X11181Y5D01*
X10516D02*
X10849Y-0D01*
X10183Y20D02*
X10516Y5D01*
X9852Y46D02*
X10183Y20D01*
X9521Y82D02*
X9852Y46D01*
X9191Y127D02*
X9521Y82D01*
X8863Y183D02*
X9191Y127D01*
X8537Y249D02*
X8863Y183D01*
X8213Y325D02*
X8537Y249D01*
X7892Y411D02*
X8213Y325D01*
X7573Y506D02*
X7892Y411D01*
X7257Y612D02*
X7573Y506D01*
X6945Y726D02*
X7257Y612D01*
X6637Y851D02*
X6945Y726D01*
X6332Y985D02*
X6637Y851D01*
X6032Y1128D02*
X6332Y985D01*
X5736Y1280D02*
X6032Y1128D01*
X5445Y1441D02*
X5736Y1280D01*
X5159Y1612D02*
X5445Y1441D01*
X4878Y1790D02*
X5159Y1612D01*
X4603Y1978D02*
X4878Y1790D01*
X4334Y2173D02*
X4603Y1978D01*
X4071Y2377D02*
X4334Y2173D01*
X3814Y2589D02*
X4071Y2377D01*
X3564Y2809D02*
X3814Y2589D01*
X3321Y3036D02*
X3564Y2809D01*
X3085Y3270D02*
X3321Y3036D01*
X2856Y3512D02*
X3085Y3270D01*
X2635Y3760D02*
X2856Y3512D01*
X2422Y4015D02*
X2635Y3760D01*
X2216Y4277D02*
X2422Y4015D01*
X2019Y4545D02*
X2216Y4277D01*
X1829Y4819D02*
X2019Y4545D01*
X1649Y5098D02*
X1829Y4819D01*
X1477Y5383D02*
X1649Y5098D01*
X1313Y5673D02*
X1477Y5383D01*
X1159Y5968D02*
X1313Y5673D01*
X1014Y6267D02*
X1159Y5968D01*
X878Y6571D02*
X1014Y6267D01*
X752Y6878D02*
X878Y6571D01*
X635Y7190D02*
X752Y6878D01*
X527Y7505D02*
X635Y7190D01*
X429Y7823D02*
X527Y7505D01*
X341Y8144D02*
X429Y7823D01*
X263Y8467D02*
X341Y8144D01*
X195Y8793D02*
X263Y8467D01*
X137Y9120D02*
X195Y8793D01*
X89Y9450D02*
X137Y9120D01*
X51Y9780D02*
X89Y9450D01*
X24Y10112D02*
X51Y9780D01*
X6Y10444D02*
X24Y10112D01*
X-1Y10777D02*
X6Y10444D01*
X-1Y10777D02*
X2Y11109D01*
X15Y11442D01*
X38Y11774D01*
X71Y12105D01*
X115Y12435D01*
X169Y12763D01*
X232Y13090D01*
X306Y13414D01*
X389Y13736D01*
X483Y14056D01*
X586Y14372D01*
X699Y14685D01*
X821Y14994D01*
X953Y15300D01*
X1094Y15601D01*
X1244Y15898D01*
X1404Y16190D01*
X1572Y16477D01*
X1749Y16759D01*
X1934Y17035D01*
X2128Y17306D01*
X2330Y17570D01*
X2540Y17828D01*
X2758Y18080D01*
X2984Y18324D01*
X3216Y18562D01*
X3457Y18792D01*
X3704Y19015D01*
X3957Y19231D01*
X4217Y19438D01*
X4484Y19637D01*
X4756Y19828D01*
X5034Y20011D01*
X5318Y20185D01*
X5607Y20350D01*
X14049Y9800D02*
Y11900D01*
X13749D02*
X14049D01*
X13749Y9800D02*
Y11900D01*
Y9800D02*
X14049D01*
X7649Y11900D02*
X7949D01*
X7649Y9800D02*
Y11900D01*
Y9800D02*
X7949D01*
Y11900D01*
D20*
X19475Y11479D02*
D03*
Y11332D02*
D03*
X19185Y11477D02*
D03*
Y11329D02*
D03*
X18352Y10624D02*
D03*
Y10476D02*
D03*
X11975Y9566D02*
D03*
Y9714D02*
D03*
X9555Y11365D02*
D03*
Y11217D02*
D03*
X12800Y11846D02*
D03*
Y11698D02*
D03*
X12622Y11846D02*
D03*
Y11698D02*
D03*
X12450Y11846D02*
D03*
Y11698D02*
D03*
D21*
X19475Y11038D02*
D03*
D22*
X19185Y11162D02*
D03*
Y10912D02*
D03*
D23*
X18610Y10280D02*
D03*
Y9680D02*
D03*
D24*
X17080Y9530D02*
D03*
X17720D02*
D03*
D25*
X18055Y10497D02*
D03*
X17085D02*
D03*
D26*
X17520Y11278D02*
D03*
X17862D02*
D03*
X17691D02*
D03*
X17349D02*
D03*
X17178D02*
D03*
D27*
X17520Y12290D02*
D03*
D28*
X12396Y12066D02*
D03*
X12544D02*
D03*
X12096Y12065D02*
D03*
X12244D02*
D03*
X9183Y11062D02*
D03*
X9035D02*
D03*
X9183Y10802D02*
D03*
X9035D02*
D03*
X10752Y10890D02*
D03*
X10900D02*
D03*
X10678Y10630D02*
D03*
X10826D02*
D03*
X4063Y10752D02*
D03*
X3915D02*
D03*
X11651Y9710D02*
D03*
X11799D02*
D03*
X10676Y10450D02*
D03*
X10824D02*
D03*
X9739Y9875D02*
D03*
X9591D02*
D03*
Y9740D02*
D03*
X9739D02*
D03*
X11626Y11725D02*
D03*
X11774D02*
D03*
X11799Y9510D02*
D03*
X11651D02*
D03*
D29*
X6880Y12207D02*
D03*
X6815D02*
D03*
X6750D02*
D03*
X6685Y12207D02*
D03*
X6620Y12207D02*
D03*
D30*
X6440Y12220D02*
D03*
X7060D02*
D03*
D31*
X6350Y12475D02*
D03*
X7150D02*
D03*
D32*
X6870D02*
D03*
X6630D02*
D03*
D33*
X2025Y10122D02*
D03*
X2165Y10173D02*
D03*
X2775Y10429D02*
D03*
X2636Y10379D02*
D03*
X2843Y10247D02*
D03*
X2704Y10196D02*
D03*
X2189Y10462D02*
D03*
X2050Y10412D02*
D03*
X1583Y9965D02*
D03*
X1722Y10015D02*
D03*
D34*
X2481Y10321D02*
D03*
X2349Y10274D02*
D03*
X2548Y10139D02*
D03*
X2416Y10091D02*
D03*
X1789Y10315D02*
D03*
X1921Y10363D02*
D03*
D35*
X2210Y11057D02*
D03*
X2070Y11108D02*
D03*
X2780Y11038D02*
D03*
X2640Y11089D02*
D03*
X2842Y11222D02*
D03*
X2703Y11272D02*
D03*
D36*
X2481Y11147D02*
D03*
X2349Y11195D02*
D03*
X1938Y11156D02*
D03*
X1806Y11204D02*
D03*
X2546Y11331D02*
D03*
X2414Y11378D02*
D03*
D37*
X1914Y9957D02*
D03*
X1881Y10048D02*
D03*
D38*
X4005Y12334D02*
D03*
X3800Y11770D02*
D03*
X3646Y11347D02*
D03*
X3851Y11911D02*
D03*
X3902Y12052D02*
D03*
X3954Y12193D02*
D03*
X3697Y11488D02*
D03*
X3748Y11629D02*
D03*
D39*
X3416Y11271D02*
D03*
X2993Y11425D02*
D03*
X2852Y11476D02*
D03*
X2429Y11630D02*
D03*
X2288Y11681D02*
D03*
X1865Y11835D02*
D03*
X1724Y11887D02*
D03*
X2711Y11528D02*
D03*
X3134Y11374D02*
D03*
X3275Y11322D02*
D03*
X2006Y11784D02*
D03*
X2147Y11733D02*
D03*
X2570Y11579D02*
D03*
X3878Y12540D02*
D03*
X3455Y12693D02*
D03*
X3314Y12745D02*
D03*
X2891Y12899D02*
D03*
X2750Y12950D02*
D03*
X2327Y13104D02*
D03*
X2186Y13155D02*
D03*
X3173Y12796D02*
D03*
X3596Y12642D02*
D03*
X3737Y12591D02*
D03*
X2468Y13053D02*
D03*
X2609Y13001D02*
D03*
X3032Y12847D02*
D03*
D40*
X12430Y9445D02*
D03*
X12220D02*
D03*
Y9705D02*
D03*
X12430D02*
D03*
D41*
X18650Y11170D02*
D03*
D42*
X18555Y11370D02*
D03*
X18745Y11370D02*
D03*
D43*
X9293Y10505D02*
D03*
X9047D02*
D03*
X9865Y10125D02*
D03*
X9619D02*
D03*
D44*
X9305Y10030D02*
D03*
Y10220D02*
D03*
X9075Y10125D02*
D03*
D45*
X9515Y11062D02*
D03*
X9375D02*
D03*
X9520Y10800D02*
D03*
X9380D02*
D03*
X4397Y10752D02*
D03*
X4257Y10752D02*
D03*
D46*
X2570Y9900D02*
D03*
X2147Y9746D02*
D03*
X2006Y9695D02*
D03*
X3275Y10157D02*
D03*
X3134Y10105D02*
D03*
X2711Y9951D02*
D03*
X1724Y9592D02*
D03*
X1865Y9643D02*
D03*
X2288Y9797D02*
D03*
X2429Y9849D02*
D03*
X2852Y10003D02*
D03*
X2993Y10054D02*
D03*
X3416Y10208D02*
D03*
X3032Y8631D02*
D03*
X2609Y8478D02*
D03*
X2468Y8426D02*
D03*
X3737Y8888D02*
D03*
X3596Y8837D02*
D03*
X3173Y8683D02*
D03*
X2186Y8324D02*
D03*
X2327Y8375D02*
D03*
X2750Y8529D02*
D03*
X2891Y8580D02*
D03*
X3314Y8734D02*
D03*
X3455Y8785D02*
D03*
X3878Y8939D02*
D03*
D47*
X3902Y9427D02*
D03*
X3954Y9286D02*
D03*
X3697Y9991D02*
D03*
X3748Y9850D02*
D03*
X3800Y9709D02*
D03*
X4005Y9145D02*
D03*
X3851Y9568D02*
D03*
X3646Y10132D02*
D03*
D48*
X10490Y10630D02*
D03*
Y10695D02*
D03*
Y10760D02*
D03*
Y10825D02*
D03*
Y10890D02*
D03*
Y10955D02*
D03*
Y11020D02*
D03*
Y11085D02*
D03*
Y11150D02*
D03*
Y11215D02*
D03*
Y11280D02*
D03*
Y11345D02*
D03*
Y11410D02*
D03*
Y11475D02*
D03*
X9770Y10630D02*
D03*
Y10695D02*
D03*
X9770Y10760D02*
D03*
X9770Y10825D02*
D03*
Y10890D02*
D03*
X9770Y10955D02*
D03*
X9770Y11020D02*
D03*
Y11085D02*
D03*
Y11150D02*
D03*
Y11215D02*
D03*
Y11280D02*
D03*
Y11345D02*
D03*
Y11410D02*
D03*
Y11475D02*
D03*
D49*
X9073Y9790D02*
D03*
X9400D02*
D03*
D50*
X11470Y11370D02*
D03*
Y11320D02*
D03*
Y11270D02*
D03*
Y11220D02*
D03*
Y11170D02*
D03*
Y11120D02*
D03*
Y11070D02*
D03*
Y11020D02*
D03*
Y10970D02*
D03*
Y10920D02*
D03*
Y10870D02*
D03*
Y10820D02*
D03*
Y10770D02*
D03*
Y10720D02*
D03*
Y10670D02*
D03*
Y10620D02*
D03*
Y10570D02*
D03*
Y10520D02*
D03*
Y10470D02*
D03*
Y10420D02*
D03*
Y10370D02*
D03*
Y10320D02*
D03*
Y10270D02*
D03*
Y10220D02*
D03*
Y10170D02*
D03*
X12980D02*
D03*
Y10220D02*
D03*
Y10270D02*
D03*
Y10320D02*
D03*
Y10370D02*
D03*
Y10420D02*
D03*
Y10470D02*
D03*
Y10520D02*
D03*
Y10570D02*
D03*
Y10620D02*
D03*
Y10670D02*
D03*
Y10720D02*
D03*
Y10770D02*
D03*
Y10820D02*
D03*
Y10870D02*
D03*
Y10920D02*
D03*
Y10970D02*
D03*
Y11020D02*
D03*
Y11070D02*
D03*
Y11120D02*
D03*
Y11170D02*
D03*
Y11220D02*
D03*
Y11270D02*
D03*
Y11320D02*
D03*
Y11370D02*
D03*
D51*
X11625Y10015D02*
D03*
X11675D02*
D03*
X11725D02*
D03*
X11775D02*
D03*
X11825D02*
D03*
X11875D02*
D03*
X11925D02*
D03*
X11975D02*
D03*
X12025D02*
D03*
X12075D02*
D03*
X12125D02*
D03*
X12175D02*
D03*
X12225D02*
D03*
X12275D02*
D03*
X12325D02*
D03*
X12375D02*
D03*
X12425D02*
D03*
X12475D02*
D03*
X12525D02*
D03*
X12575D02*
D03*
X12625D02*
D03*
X12675D02*
D03*
X12725D02*
D03*
X12775D02*
D03*
X12825D02*
D03*
Y11525D02*
D03*
X12775D02*
D03*
X12725D02*
D03*
X12675D02*
D03*
X12625D02*
D03*
X12575D02*
D03*
X12525D02*
D03*
X12475D02*
D03*
X12425D02*
D03*
X12375D02*
D03*
X12325D02*
D03*
X12275D02*
D03*
X12225D02*
D03*
X12175D02*
D03*
X12125D02*
D03*
X12075D02*
D03*
X12025D02*
D03*
X11975D02*
D03*
X11925D02*
D03*
X11875D02*
D03*
X11825D02*
D03*
X11775D02*
D03*
X11725D02*
D03*
X11675D02*
D03*
X11625D02*
D03*
D52*
X11475Y12065D02*
D03*
X11600D02*
D03*
X11850D02*
D03*
X11725D02*
D03*
X14880Y10380D02*
D03*
X14792Y10292D02*
D03*
X14968Y10468D02*
D03*
X15057Y10557D02*
D03*
X14703Y10203D02*
D03*
X14615Y10115D02*
D03*
X14438Y9938D02*
D03*
X14526Y10026D02*
D03*
X7168Y11685D02*
D03*
Y11560D02*
D03*
D53*
X13096Y12072D02*
D03*
X13350D02*
D03*
X15312Y9425D02*
D03*
X15058D02*
D03*
X15310Y12097D02*
D03*
Y11843D02*
D03*
X6382Y9825D02*
D03*
X6128D02*
D03*
X6815Y11652D02*
D03*
Y11398D02*
D03*
D54*
X18850Y9480D02*
D03*
D55*
X19350D02*
D03*
D56*
X16055Y9040D02*
D03*
X16555D02*
D03*
X14643Y12405D02*
D03*
Y11905D02*
D03*
D57*
X5486Y1881D02*
D03*
X19818Y5487D02*
D03*
X1879D02*
D03*
Y16213D02*
D03*
X19818D02*
D03*
X16211Y1881D02*
D03*
D58*
X547Y9850D02*
D03*
X7249Y1146D02*
D03*
X8924Y681D02*
D03*
X5849Y19912D02*
D03*
X3954Y15764D02*
D03*
Y5936D02*
D03*
X17743Y15764D02*
D03*
X15763Y17744D02*
D03*
X14349Y16050D02*
D03*
X5934Y3956D02*
D03*
X7349Y16050D02*
D03*
X5934Y17744D02*
D03*
X7249Y10630D02*
D03*
X14449Y11070D02*
D03*
X17743Y5936D02*
D03*
X15763Y3956D02*
D03*
X21150Y9850D02*
D03*
X15849Y19912D02*
D03*
X12774Y681D02*
D03*
X14449Y1146D02*
D03*
D59*
X18800Y11300D02*
D03*
X1921Y9450D02*
D03*
X2550Y9079D02*
D03*
X5275Y11475D02*
D03*
X20009Y9200D02*
D03*
X4404Y9141D02*
D03*
X12545Y12370D02*
D03*
X13360Y9040D02*
D03*
X13302Y8962D02*
D03*
X12557Y10350D02*
D03*
X12475D02*
D03*
X13240Y10347D02*
D03*
X13423Y9115D02*
D03*
X13250Y8888D02*
D03*
X15575Y10707D02*
D03*
X6930Y11997D02*
D03*
X16712Y9653D02*
D03*
X11225Y10640D02*
D03*
X11285Y10703D02*
D03*
X11165Y10582D02*
D03*
X11110Y10520D02*
D03*
X11230Y10270D02*
D03*
X11000Y10890D02*
D03*
X12825Y10267D02*
D03*
X1700Y10280D02*
D03*
X2070Y9920D02*
D03*
X1760Y11090D02*
D03*
X2520Y12810D02*
D03*
X7150Y9497D02*
D03*
X12650Y9860D02*
D03*
X12575Y9760D02*
D03*
X11475Y9650D02*
D03*
X2475Y9325D02*
D03*
X11620Y11070D02*
D03*
X11250Y11400D02*
D03*
X11310Y11040D02*
D03*
X11330Y11170D02*
D03*
X12625Y10835D02*
D03*
X4964Y10971D02*
D03*
X3060Y10530D02*
D03*
X3600Y9510D02*
D03*
X3190Y11080D02*
D03*
X4837Y11043D02*
D03*
X7115Y9410D02*
D03*
X6970Y9230D02*
D03*
X7025Y9325D02*
D03*
X4350Y9043D02*
D03*
X3400Y9570D02*
D03*
X4406Y9510D02*
D03*
X2161Y10279D02*
D03*
X3580Y9080D02*
D03*
X1874Y10197D02*
D03*
X2325Y11411D02*
D03*
X4575Y10750D02*
D03*
X2236Y9325D02*
D03*
X2275Y8525D02*
D03*
X2131Y8474D02*
D03*
X11000Y11125D02*
D03*
X5721Y9575D02*
D03*
X5594Y9650D02*
D03*
X4964Y9575D02*
D03*
X4837Y9650D02*
D03*
X2326Y10058D02*
D03*
X2319Y10356D02*
D03*
X15963Y10981D02*
D03*
X9899Y11220D02*
D03*
Y10880D02*
D03*
X5713Y10970D02*
D03*
X5586Y11043D02*
D03*
X16713Y10980D02*
D03*
X15837Y11062D02*
D03*
X16587Y11060D02*
D03*
X15710Y11070D02*
D03*
X16587Y9650D02*
D03*
X15964Y9575D02*
D03*
X15837Y9650D02*
D03*
D60*
X10150Y12595D02*
D03*
X13400D02*
D03*
X16761Y12600D02*
D03*
X15710Y8997D02*
D03*
X17466Y9257D02*
D03*
X18175D02*
D03*
X20256Y10338D02*
D03*
X20216Y12161D02*
D03*
X19250Y10347D02*
D03*
X18650Y12161D02*
D03*
X17600Y10591D02*
D03*
X16269Y10076D02*
D03*
X16272Y11475D02*
D03*
X15084Y11050D02*
D03*
X13240Y11784D02*
D03*
X11047Y10350D02*
D03*
X12277Y11170D02*
D03*
X12250Y10510D02*
D03*
X11250Y8997D02*
D03*
X10150Y11702D02*
D03*
X8500Y10031D02*
D03*
Y11702D02*
D03*
X1947Y10770D02*
D03*
X5450Y12508D02*
D03*
X5273Y10085D02*
D03*
X6565Y11091D02*
D03*
X2850Y9519D02*
D03*
X2860Y12220D02*
D03*
X4151Y11770D02*
D03*
X17349Y11629D02*
D03*
D61*
X18890Y10682D02*
D03*
X5090Y10656D02*
D03*
X16000Y10645D02*
D03*
X16091Y10507D02*
D03*
X16587Y11955D02*
D03*
X16090Y12100D02*
D03*
X5838Y10655D02*
D03*
X15843Y11955D02*
D03*
X16843Y12100D02*
D03*
X6460Y9475D02*
D03*
X4837Y10508D02*
D03*
X5594Y10510D02*
D03*
X5586Y11908D02*
D03*
X5840Y12048D02*
D03*
X5091Y12050D02*
D03*
X4837Y11908D02*
D03*
X16588Y10647D02*
D03*
X16840Y10507D02*
D03*
M02*
