G04*
G04 #@! TF.GenerationSoftware,Altium Limited,Altium Designer,18.1.7 (191)*
G04*
G04 Layer_Color=153*
%FSLAX42Y42*%
%MOMM*%
G71*
G01*
G75*
%ADD19C,0.80*%
D19*
X14049Y9800D02*
Y11900D01*
X13749D02*
X14049D01*
X13749Y9800D02*
Y11900D01*
Y9800D02*
X14049D01*
X4367Y15480D02*
X4446Y15549D01*
X4280Y15422D02*
X4367Y15480D01*
X4186Y15375D02*
X4280Y15422D01*
X4087Y15342D02*
X4186Y15375D01*
X3984Y15321D02*
X4087Y15342D01*
X3880Y15314D02*
X3984Y15321D01*
X2574Y15314D02*
X3880D01*
X2481Y15309D02*
X2574Y15314D01*
X2391Y15293D02*
X2481Y15309D01*
X2302Y15267D02*
X2391Y15293D01*
X2217Y15231D02*
X2302Y15267D01*
X2137Y15185D02*
X2217Y15231D01*
X2063Y15130D02*
X2137Y15185D01*
X1995Y15067D02*
X2063Y15130D01*
X1936Y14997D02*
X1995Y15067D01*
X1884Y14920D02*
X1936Y14997D01*
X1842Y14838D02*
X1884Y14920D01*
X1703Y14508D02*
X1842Y14838D01*
X1576Y14173D02*
X1703Y14508D01*
X1555Y14097D02*
X1576Y14173D01*
X1547Y14019D02*
X1555Y14097D01*
X1547Y14019D02*
X1550Y13941D01*
X1566Y13865D01*
X1594Y13792D01*
X1633Y13724D01*
X1681Y13662D01*
X1739Y13610D01*
X1804Y13567D01*
X1876Y13534D01*
X4002Y12760D01*
X4113Y12727D01*
X4228Y12707D01*
X4344Y12700D01*
X20027D01*
X20092Y12705D01*
X20156Y12721D01*
X20216Y12748D01*
X20272Y12784D01*
X20320Y12828D01*
X20361Y12880D01*
X20392Y12938D01*
X20414Y13000D01*
X20425Y13064D01*
X20426Y13130D01*
X20415Y13195D02*
X20426Y13130D01*
X20327Y13531D02*
X20415Y13195D01*
X20226Y13864D02*
X20327Y13531D01*
X20114Y14193D02*
X20226Y13864D01*
X19990Y14518D02*
X20114Y14193D01*
X19855Y14838D02*
X19990Y14518D01*
X19813Y14920D02*
X19855Y14838D01*
X19761Y14997D02*
X19813Y14920D01*
X19702Y15067D02*
X19761Y14997D01*
X19634Y15130D02*
X19702Y15067D01*
X19560Y15185D02*
X19634Y15130D01*
X19480Y15231D02*
X19560Y15185D01*
X19395Y15267D02*
X19480Y15231D01*
X19306Y15293D02*
X19395Y15267D01*
X19216Y15309D02*
X19306Y15293D01*
X19123Y15314D02*
X19216Y15309D01*
X17817Y15314D02*
X19123D01*
X17713Y15321D02*
X17817Y15314D01*
X17610Y15342D02*
X17713Y15321D01*
X17511Y15375D02*
X17610Y15342D01*
X17417Y15422D02*
X17511Y15375D01*
X17330Y15480D02*
X17417Y15422D01*
X17251Y15549D02*
X17330Y15480D01*
X16734Y16066D02*
X17251Y15549D01*
X16656Y16135D02*
X16734Y16066D01*
X16569Y16193D02*
X16656Y16135D01*
X16475Y16239D02*
X16569Y16193D01*
X16376Y16273D02*
X16475Y16239D01*
X16273Y16293D02*
X16376Y16273D01*
X16169Y16300D02*
X16273Y16293D01*
X15199Y16300D02*
X16169D01*
X15154Y16295D02*
X15199Y16300D01*
X15112Y16280D02*
X15154Y16295D01*
X15074Y16256D02*
X15112Y16280D01*
X15042Y16225D02*
X15074Y16256D01*
X15018Y16187D02*
X15042Y16225D01*
X15004Y16145D02*
X15018Y16187D01*
X14999Y16100D02*
X15004Y16145D01*
X14999Y16050D02*
Y16100D01*
X14992Y15981D02*
X14999Y16050D01*
X14974Y15913D02*
X14992Y15981D01*
X14945Y15850D02*
X14974Y15913D01*
X14905Y15793D02*
X14945Y15850D01*
X14856Y15744D02*
X14905Y15793D01*
X14799Y15704D02*
X14856Y15744D01*
X14735Y15674D02*
X14799Y15704D01*
X14668Y15656D02*
X14735Y15674D01*
X14599Y15650D02*
X14668Y15656D01*
X14099Y15650D02*
X14599D01*
X14029Y15656D02*
X14099Y15650D01*
X13962Y15674D02*
X14029Y15656D01*
X13899Y15704D02*
X13962Y15674D01*
X13841Y15744D02*
X13899Y15704D01*
X13792Y15793D02*
X13841Y15744D01*
X13752Y15850D02*
X13792Y15793D01*
X13723Y15913D02*
X13752Y15850D01*
X13705Y15981D02*
X13723Y15913D01*
X13699Y16050D02*
X13705Y15981D01*
X13699Y16050D02*
Y16600D01*
X13692Y16669D02*
X13699Y16600D01*
X13674Y16737D02*
X13692Y16669D01*
X13645Y16800D02*
X13674Y16737D01*
X13605Y16857D02*
X13645Y16800D01*
X13556Y16906D02*
X13605Y16857D01*
X13499Y16946D02*
X13556Y16906D01*
X13435Y16976D02*
X13499Y16946D01*
X13368Y16994D02*
X13435Y16976D01*
X13299Y17000D02*
X13368Y16994D01*
X8399Y17000D02*
X13299D01*
X8329Y16994D02*
X8399Y17000D01*
X8262Y16976D02*
X8329Y16994D01*
X8199Y16946D02*
X8262Y16976D01*
X8141Y16906D02*
X8199Y16946D01*
X8092Y16857D02*
X8141Y16906D01*
X8052Y16800D02*
X8092Y16857D01*
X8023Y16737D02*
X8052Y16800D01*
X8005Y16669D02*
X8023Y16737D01*
X7999Y16600D02*
X8005Y16669D01*
X7999Y16050D02*
Y16600D01*
X7992Y15981D02*
X7999Y16050D01*
X7974Y15913D02*
X7992Y15981D01*
X7945Y15850D02*
X7974Y15913D01*
X7905Y15793D02*
X7945Y15850D01*
X7856Y15744D02*
X7905Y15793D01*
X7799Y15704D02*
X7856Y15744D01*
X7735Y15674D02*
X7799Y15704D01*
X7668Y15656D02*
X7735Y15674D01*
X7599Y15650D02*
X7668Y15656D01*
X7099Y15650D02*
X7599D01*
X7029Y15656D02*
X7099Y15650D01*
X6962Y15674D02*
X7029Y15656D01*
X6899Y15704D02*
X6962Y15674D01*
X6841Y15744D02*
X6899Y15704D01*
X6792Y15793D02*
X6841Y15744D01*
X6752Y15850D02*
X6792Y15793D01*
X6723Y15913D02*
X6752Y15850D01*
X6705Y15981D02*
X6723Y15913D01*
X6699Y16050D02*
X6705Y15981D01*
X6699Y16050D02*
Y16100D01*
X6693Y16145D02*
X6699Y16100D01*
X6679Y16187D02*
X6693Y16145D01*
X6655Y16225D02*
X6679Y16187D01*
X6623Y16256D02*
X6655Y16225D01*
X6585Y16280D02*
X6623Y16256D01*
X6543Y16295D02*
X6585Y16280D01*
X6499Y16300D02*
X6543Y16295D01*
X5528Y16300D02*
X6499D01*
X5424Y16293D02*
X5528Y16300D01*
X5321Y16273D02*
X5424Y16293D01*
X5222Y16239D02*
X5321Y16273D01*
X5128Y16193D02*
X5222Y16239D01*
X5041Y16135D02*
X5128Y16193D01*
X4963Y16066D02*
X5041Y16135D01*
X4446Y15549D02*
X4963Y16066D01*
X1883Y7940D02*
X1948Y7970D01*
X1822Y7901D02*
X1883Y7940D01*
X1767Y7854D02*
X1822Y7901D01*
X1720Y7800D02*
X1767Y7854D01*
X1681Y7739D02*
X1720Y7800D01*
X1651Y7674D02*
X1681Y7739D01*
X1630Y7604D02*
X1651Y7674D01*
X1620Y7533D02*
X1630Y7604D01*
X1620Y7533D02*
X1621Y7461D01*
X1632Y7390D01*
X1653Y7321D01*
X1842Y6862D01*
X1884Y6780D01*
X1936Y6703D01*
X1995Y6633D01*
X2063Y6570D01*
X2137Y6515D01*
X2217Y6469D01*
X2302Y6433D01*
X2391Y6407D01*
X2481Y6391D01*
X2574Y6386D01*
X3880D01*
X3984Y6379D01*
X4087Y6358D01*
X4186Y6325D01*
X4280Y6278D01*
X4367Y6220D01*
X4446Y6151D01*
X6150Y4447D01*
X6219Y4368D01*
X6277Y4281D01*
X6323Y4188D01*
X6357Y4088D01*
X6377Y3986D01*
X6384Y3881D01*
Y2575D02*
Y3881D01*
Y2575D02*
X6389Y2483D01*
X6405Y2392D01*
X6432Y2304D01*
X6468Y2219D01*
X6514Y2139D01*
X6568Y2064D01*
X6631Y1997D01*
X6701Y1937D01*
X6778Y1886D01*
X6860Y1844D01*
X7175Y1710D01*
X7495Y1588D01*
X7819Y1478D01*
X8146Y1378D01*
X8477Y1290D01*
X8810Y1213D01*
X9146Y1148D01*
X9484Y1095D01*
X9824Y1053D01*
X10165Y1024D01*
X10506Y1006D01*
X10849Y1000D01*
X11191Y1006D01*
X11532Y1024D01*
X11873Y1053D01*
X12213Y1095D01*
X12551Y1148D01*
X12887Y1213D01*
X13220Y1290D01*
X13551Y1378D01*
X13878Y1478D01*
X14202Y1588D01*
X14522Y1710D01*
X14837Y1844D01*
X14919Y1886D01*
X14996Y1937D01*
X15066Y1997D01*
X15129Y2064D01*
X15183Y2139D01*
X15229Y2219D01*
X15265Y2304D01*
X15292Y2392D01*
X15308Y2483D01*
X15313Y2575D01*
Y3881D01*
X15320Y3986D01*
X15340Y4088D01*
X15374Y4188D01*
X15420Y4281D01*
X15478Y4368D01*
X15547Y4447D01*
X17251Y6151D01*
X17330Y6220D01*
X17417Y6278D01*
X17511Y6325D01*
X17610Y6358D01*
X17713Y6379D01*
X17817Y6386D01*
X19123D01*
X19216Y6391D01*
X19306Y6407D01*
X19395Y6433D01*
X19480Y6469D01*
X19560Y6515D01*
X19634Y6570D01*
X19702Y6633D01*
X19761Y6703D01*
X19813Y6780D01*
X19855Y6862D01*
X20002Y7213D01*
X20136Y7569D01*
X20256Y7931D01*
X20362Y8296D01*
X20374Y8362D01*
X20374Y8428D01*
X20364Y8494D02*
X20374Y8428D01*
X20343Y8557D02*
X20364Y8494D01*
X20312Y8616D02*
X20343Y8557D01*
X20271Y8669D02*
X20312Y8616D01*
X20223Y8714D02*
X20271Y8669D01*
X20167Y8751D02*
X20223Y8714D01*
X20106Y8778D02*
X20167Y8751D01*
X20042Y8794D02*
X20106Y8778D01*
X19975Y8800D02*
X20042Y8794D01*
X4406Y8800D02*
X19975D01*
X4290Y8793D02*
X4406Y8800D01*
X4176Y8773D02*
X4290Y8793D01*
X4064Y8740D02*
X4176Y8773D01*
X1948Y7970D02*
X4064Y8740D01*
X7649Y11900D02*
X7949D01*
X7649Y9800D02*
Y11900D01*
Y9800D02*
X7949D01*
Y11900D01*
X5607Y20350D02*
X5674Y20381D01*
X5745Y20401D01*
X5819Y20411D01*
X5893Y20410D01*
X5966Y20398D01*
X6036Y20376D01*
X6103Y20343D01*
X6163Y20300D01*
X6217Y20250D01*
X6263Y20192D01*
X6300Y20127D01*
X6327Y20058D01*
X6343Y19986D01*
X6349Y19912D01*
Y19545D02*
Y19912D01*
Y19545D02*
X6355Y19476D01*
X6372Y19409D01*
X6402Y19346D01*
X6441Y19289D01*
X7229Y18344D01*
X7278Y18294D01*
X7335Y18254D01*
X7399Y18224D01*
X7466Y18206D01*
X7536Y18200D01*
X14183D01*
X14261Y18208D01*
X14336Y18230D01*
X14405Y18267D01*
X14466Y18317D01*
X15231Y19083D01*
X15281Y19143D01*
X15318Y19213D01*
X15341Y19288D01*
X15349Y19366D01*
Y19912D01*
X15354Y19986D01*
X15370Y20058D01*
X15397Y20127D01*
X15434Y20192D01*
X15480Y20250D01*
X15534Y20300D01*
X15594Y20343D01*
X15661Y20376D01*
X15731Y20398D01*
X15804Y20410D01*
X15878Y20411D01*
X15952Y20401D01*
X16023Y20381D01*
X16090Y20350D01*
X16379Y20185D01*
X16663Y20011D01*
X16941Y19828D01*
X17213Y19637D01*
X17480Y19438D01*
X17740Y19231D01*
X17993Y19015D01*
X18240Y18792D01*
X18481Y18562D01*
X18713Y18324D01*
X18939Y18080D01*
X19157Y17828D01*
X19367Y17570D01*
X19569Y17306D01*
X19763Y17035D01*
X19948Y16759D01*
X20125Y16477D01*
X20293Y16190D01*
X20453Y15898D01*
X20603Y15601D01*
X20744Y15300D01*
X20876Y14994D01*
X20998Y14685D01*
X21111Y14372D01*
X21214Y14056D01*
X21308Y13736D01*
X21391Y13414D01*
X21465Y13090D01*
X21528Y12763D01*
X21582Y12435D01*
X21626Y12105D01*
X21659Y11774D01*
X21682Y11442D01*
X21695Y11109D01*
X21698Y10777D01*
X21691Y10444D02*
X21698Y10777D01*
X21673Y10112D02*
X21691Y10444D01*
X21646Y9780D02*
X21673Y10112D01*
X21608Y9450D02*
X21646Y9780D01*
X21560Y9120D02*
X21608Y9450D01*
X21502Y8793D02*
X21560Y9120D01*
X21434Y8467D02*
X21502Y8793D01*
X21356Y8144D02*
X21434Y8467D01*
X21268Y7823D02*
X21356Y8144D01*
X21170Y7505D02*
X21268Y7823D01*
X21062Y7190D02*
X21170Y7505D01*
X20945Y6878D02*
X21062Y7190D01*
X20819Y6571D02*
X20945Y6878D01*
X20683Y6267D02*
X20819Y6571D01*
X20538Y5968D02*
X20683Y6267D01*
X20384Y5673D02*
X20538Y5968D01*
X20220Y5383D02*
X20384Y5673D01*
X20048Y5098D02*
X20220Y5383D01*
X19868Y4819D02*
X20048Y5098D01*
X19678Y4545D02*
X19868Y4819D01*
X19481Y4277D02*
X19678Y4545D01*
X19275Y4015D02*
X19481Y4277D01*
X19062Y3760D02*
X19275Y4015D01*
X18841Y3512D02*
X19062Y3760D01*
X18612Y3270D02*
X18841Y3512D01*
X18376Y3036D02*
X18612Y3270D01*
X18133Y2809D02*
X18376Y3036D01*
X17883Y2589D02*
X18133Y2809D01*
X17626Y2377D02*
X17883Y2589D01*
X17363Y2173D02*
X17626Y2377D01*
X17094Y1978D02*
X17363Y2173D01*
X16819Y1790D02*
X17094Y1978D01*
X16538Y1612D02*
X16819Y1790D01*
X16252Y1441D02*
X16538Y1612D01*
X15961Y1280D02*
X16252Y1441D01*
X15665Y1128D02*
X15961Y1280D01*
X15365Y985D02*
X15665Y1128D01*
X15060Y851D02*
X15365Y985D01*
X14752Y726D02*
X15060Y851D01*
X14440Y612D02*
X14752Y726D01*
X14124Y506D02*
X14440Y612D01*
X13805Y411D02*
X14124Y506D01*
X13484Y325D02*
X13805Y411D01*
X13160Y249D02*
X13484Y325D01*
X12834Y183D02*
X13160Y249D01*
X12506Y127D02*
X12834Y183D01*
X12176Y82D02*
X12506Y127D01*
X11845Y46D02*
X12176Y82D01*
X11514Y20D02*
X11845Y46D01*
X11181Y5D02*
X11514Y20D01*
X10849Y-0D02*
X11181Y5D01*
X10516D02*
X10849Y-0D01*
X10183Y20D02*
X10516Y5D01*
X9852Y46D02*
X10183Y20D01*
X9521Y82D02*
X9852Y46D01*
X9191Y127D02*
X9521Y82D01*
X8863Y183D02*
X9191Y127D01*
X8537Y249D02*
X8863Y183D01*
X8213Y325D02*
X8537Y249D01*
X7892Y411D02*
X8213Y325D01*
X7573Y506D02*
X7892Y411D01*
X7257Y612D02*
X7573Y506D01*
X6945Y726D02*
X7257Y612D01*
X6637Y851D02*
X6945Y726D01*
X6332Y985D02*
X6637Y851D01*
X6032Y1128D02*
X6332Y985D01*
X5736Y1280D02*
X6032Y1128D01*
X5445Y1441D02*
X5736Y1280D01*
X5159Y1612D02*
X5445Y1441D01*
X4878Y1790D02*
X5159Y1612D01*
X4603Y1978D02*
X4878Y1790D01*
X4334Y2173D02*
X4603Y1978D01*
X4071Y2377D02*
X4334Y2173D01*
X3814Y2589D02*
X4071Y2377D01*
X3564Y2809D02*
X3814Y2589D01*
X3321Y3036D02*
X3564Y2809D01*
X3085Y3270D02*
X3321Y3036D01*
X2856Y3512D02*
X3085Y3270D01*
X2635Y3760D02*
X2856Y3512D01*
X2422Y4015D02*
X2635Y3760D01*
X2216Y4277D02*
X2422Y4015D01*
X2019Y4545D02*
X2216Y4277D01*
X1829Y4819D02*
X2019Y4545D01*
X1649Y5098D02*
X1829Y4819D01*
X1477Y5383D02*
X1649Y5098D01*
X1313Y5673D02*
X1477Y5383D01*
X1159Y5968D02*
X1313Y5673D01*
X1014Y6267D02*
X1159Y5968D01*
X878Y6571D02*
X1014Y6267D01*
X752Y6878D02*
X878Y6571D01*
X635Y7190D02*
X752Y6878D01*
X527Y7505D02*
X635Y7190D01*
X429Y7823D02*
X527Y7505D01*
X341Y8144D02*
X429Y7823D01*
X263Y8467D02*
X341Y8144D01*
X195Y8793D02*
X263Y8467D01*
X137Y9120D02*
X195Y8793D01*
X89Y9450D02*
X137Y9120D01*
X51Y9780D02*
X89Y9450D01*
X24Y10112D02*
X51Y9780D01*
X6Y10444D02*
X24Y10112D01*
X-1Y10777D02*
X6Y10444D01*
X-1Y10777D02*
X2Y11109D01*
X15Y11442D01*
X38Y11774D01*
X71Y12105D01*
X115Y12435D01*
X169Y12763D01*
X232Y13090D01*
X306Y13414D01*
X389Y13736D01*
X483Y14056D01*
X586Y14372D01*
X699Y14685D01*
X821Y14994D01*
X953Y15300D01*
X1094Y15601D01*
X1244Y15898D01*
X1404Y16190D01*
X1572Y16477D01*
X1749Y16759D01*
X1934Y17035D01*
X2128Y17306D01*
X2330Y17570D01*
X2540Y17828D01*
X2758Y18080D01*
X2984Y18324D01*
X3216Y18562D01*
X3457Y18792D01*
X3704Y19015D01*
X3957Y19231D01*
X4217Y19438D01*
X4484Y19637D01*
X4756Y19828D01*
X5034Y20011D01*
X5318Y20185D01*
X5607Y20350D01*
X14049Y9800D02*
Y11900D01*
X13749D02*
X14049D01*
X13749Y9800D02*
Y11900D01*
Y9800D02*
X14049D01*
X7649Y11900D02*
X7949D01*
X7649Y9800D02*
Y11900D01*
Y9800D02*
X7949D01*
Y11900D01*
X14049Y9800D02*
Y11900D01*
X13749D02*
X14049D01*
X13749Y9800D02*
Y11900D01*
Y9800D02*
X14049D01*
X4367Y15480D02*
X4446Y15549D01*
X4280Y15422D02*
X4367Y15480D01*
X4186Y15375D02*
X4280Y15422D01*
X4087Y15342D02*
X4186Y15375D01*
X3984Y15321D02*
X4087Y15342D01*
X3880Y15314D02*
X3984Y15321D01*
X2574Y15314D02*
X3880D01*
X2481Y15309D02*
X2574Y15314D01*
X2391Y15293D02*
X2481Y15309D01*
X2302Y15267D02*
X2391Y15293D01*
X2217Y15231D02*
X2302Y15267D01*
X2137Y15185D02*
X2217Y15231D01*
X2063Y15130D02*
X2137Y15185D01*
X1995Y15067D02*
X2063Y15130D01*
X1936Y14997D02*
X1995Y15067D01*
X1884Y14920D02*
X1936Y14997D01*
X1842Y14838D02*
X1884Y14920D01*
X1703Y14508D02*
X1842Y14838D01*
X1576Y14173D02*
X1703Y14508D01*
X1555Y14097D02*
X1576Y14173D01*
X1547Y14019D02*
X1555Y14097D01*
X1547Y14019D02*
X1550Y13941D01*
X1566Y13865D01*
X1594Y13792D01*
X1633Y13724D01*
X1681Y13662D01*
X1739Y13610D01*
X1804Y13567D01*
X1876Y13534D01*
X4002Y12760D01*
X4113Y12727D01*
X4228Y12707D01*
X4344Y12700D01*
X20027D01*
X20092Y12705D01*
X20156Y12721D01*
X20216Y12748D01*
X20272Y12784D01*
X20320Y12828D01*
X20361Y12880D01*
X20392Y12938D01*
X20414Y13000D01*
X20425Y13064D01*
X20426Y13130D01*
X20415Y13195D02*
X20426Y13130D01*
X20327Y13531D02*
X20415Y13195D01*
X20226Y13864D02*
X20327Y13531D01*
X20114Y14193D02*
X20226Y13864D01*
X19990Y14518D02*
X20114Y14193D01*
X19855Y14838D02*
X19990Y14518D01*
X19813Y14920D02*
X19855Y14838D01*
X19761Y14997D02*
X19813Y14920D01*
X19702Y15067D02*
X19761Y14997D01*
X19634Y15130D02*
X19702Y15067D01*
X19560Y15185D02*
X19634Y15130D01*
X19480Y15231D02*
X19560Y15185D01*
X19395Y15267D02*
X19480Y15231D01*
X19306Y15293D02*
X19395Y15267D01*
X19216Y15309D02*
X19306Y15293D01*
X19123Y15314D02*
X19216Y15309D01*
X17817Y15314D02*
X19123D01*
X17713Y15321D02*
X17817Y15314D01*
X17610Y15342D02*
X17713Y15321D01*
X17511Y15375D02*
X17610Y15342D01*
X17417Y15422D02*
X17511Y15375D01*
X17330Y15480D02*
X17417Y15422D01*
X17251Y15549D02*
X17330Y15480D01*
X16734Y16066D02*
X17251Y15549D01*
X16656Y16135D02*
X16734Y16066D01*
X16569Y16193D02*
X16656Y16135D01*
X16475Y16239D02*
X16569Y16193D01*
X16376Y16273D02*
X16475Y16239D01*
X16273Y16293D02*
X16376Y16273D01*
X16169Y16300D02*
X16273Y16293D01*
X15199Y16300D02*
X16169D01*
X15154Y16295D02*
X15199Y16300D01*
X15112Y16280D02*
X15154Y16295D01*
X15074Y16256D02*
X15112Y16280D01*
X15042Y16225D02*
X15074Y16256D01*
X15018Y16187D02*
X15042Y16225D01*
X15004Y16145D02*
X15018Y16187D01*
X14999Y16100D02*
X15004Y16145D01*
X14999Y16050D02*
Y16100D01*
X14992Y15981D02*
X14999Y16050D01*
X14974Y15913D02*
X14992Y15981D01*
X14945Y15850D02*
X14974Y15913D01*
X14905Y15793D02*
X14945Y15850D01*
X14856Y15744D02*
X14905Y15793D01*
X14799Y15704D02*
X14856Y15744D01*
X14735Y15674D02*
X14799Y15704D01*
X14668Y15656D02*
X14735Y15674D01*
X14599Y15650D02*
X14668Y15656D01*
X14099Y15650D02*
X14599D01*
X14029Y15656D02*
X14099Y15650D01*
X13962Y15674D02*
X14029Y15656D01*
X13899Y15704D02*
X13962Y15674D01*
X13841Y15744D02*
X13899Y15704D01*
X13792Y15793D02*
X13841Y15744D01*
X13752Y15850D02*
X13792Y15793D01*
X13723Y15913D02*
X13752Y15850D01*
X13705Y15981D02*
X13723Y15913D01*
X13699Y16050D02*
X13705Y15981D01*
X13699Y16050D02*
Y16600D01*
X13692Y16669D02*
X13699Y16600D01*
X13674Y16737D02*
X13692Y16669D01*
X13645Y16800D02*
X13674Y16737D01*
X13605Y16857D02*
X13645Y16800D01*
X13556Y16906D02*
X13605Y16857D01*
X13499Y16946D02*
X13556Y16906D01*
X13435Y16976D02*
X13499Y16946D01*
X13368Y16994D02*
X13435Y16976D01*
X13299Y17000D02*
X13368Y16994D01*
X8399Y17000D02*
X13299D01*
X8329Y16994D02*
X8399Y17000D01*
X8262Y16976D02*
X8329Y16994D01*
X8199Y16946D02*
X8262Y16976D01*
X8141Y16906D02*
X8199Y16946D01*
X8092Y16857D02*
X8141Y16906D01*
X8052Y16800D02*
X8092Y16857D01*
X8023Y16737D02*
X8052Y16800D01*
X8005Y16669D02*
X8023Y16737D01*
X7999Y16600D02*
X8005Y16669D01*
X7999Y16050D02*
Y16600D01*
X7992Y15981D02*
X7999Y16050D01*
X7974Y15913D02*
X7992Y15981D01*
X7945Y15850D02*
X7974Y15913D01*
X7905Y15793D02*
X7945Y15850D01*
X7856Y15744D02*
X7905Y15793D01*
X7799Y15704D02*
X7856Y15744D01*
X7735Y15674D02*
X7799Y15704D01*
X7668Y15656D02*
X7735Y15674D01*
X7599Y15650D02*
X7668Y15656D01*
X7099Y15650D02*
X7599D01*
X7029Y15656D02*
X7099Y15650D01*
X6962Y15674D02*
X7029Y15656D01*
X6899Y15704D02*
X6962Y15674D01*
X6841Y15744D02*
X6899Y15704D01*
X6792Y15793D02*
X6841Y15744D01*
X6752Y15850D02*
X6792Y15793D01*
X6723Y15913D02*
X6752Y15850D01*
X6705Y15981D02*
X6723Y15913D01*
X6699Y16050D02*
X6705Y15981D01*
X6699Y16050D02*
Y16100D01*
X6693Y16145D02*
X6699Y16100D01*
X6679Y16187D02*
X6693Y16145D01*
X6655Y16225D02*
X6679Y16187D01*
X6623Y16256D02*
X6655Y16225D01*
X6585Y16280D02*
X6623Y16256D01*
X6543Y16295D02*
X6585Y16280D01*
X6499Y16300D02*
X6543Y16295D01*
X5528Y16300D02*
X6499D01*
X5424Y16293D02*
X5528Y16300D01*
X5321Y16273D02*
X5424Y16293D01*
X5222Y16239D02*
X5321Y16273D01*
X5128Y16193D02*
X5222Y16239D01*
X5041Y16135D02*
X5128Y16193D01*
X4963Y16066D02*
X5041Y16135D01*
X4446Y15549D02*
X4963Y16066D01*
X1883Y7940D02*
X1948Y7970D01*
X1822Y7901D02*
X1883Y7940D01*
X1767Y7854D02*
X1822Y7901D01*
X1720Y7800D02*
X1767Y7854D01*
X1681Y7739D02*
X1720Y7800D01*
X1651Y7674D02*
X1681Y7739D01*
X1630Y7604D02*
X1651Y7674D01*
X1620Y7533D02*
X1630Y7604D01*
X1620Y7533D02*
X1621Y7461D01*
X1632Y7390D01*
X1653Y7321D01*
X1842Y6862D01*
X1884Y6780D01*
X1936Y6703D01*
X1995Y6633D01*
X2063Y6570D01*
X2137Y6515D01*
X2217Y6469D01*
X2302Y6433D01*
X2391Y6407D01*
X2481Y6391D01*
X2574Y6386D01*
X3880D01*
X3984Y6379D01*
X4087Y6358D01*
X4186Y6325D01*
X4280Y6278D01*
X4367Y6220D01*
X4446Y6151D01*
X6150Y4447D01*
X6219Y4368D01*
X6277Y4281D01*
X6323Y4188D01*
X6357Y4088D01*
X6377Y3986D01*
X6384Y3881D01*
Y2575D02*
Y3881D01*
Y2575D02*
X6389Y2483D01*
X6405Y2392D01*
X6432Y2304D01*
X6468Y2219D01*
X6514Y2139D01*
X6568Y2064D01*
X6631Y1997D01*
X6701Y1937D01*
X6778Y1886D01*
X6860Y1844D01*
X7175Y1710D01*
X7495Y1588D01*
X7819Y1478D01*
X8146Y1378D01*
X8477Y1290D01*
X8810Y1213D01*
X9146Y1148D01*
X9484Y1095D01*
X9824Y1053D01*
X10165Y1024D01*
X10506Y1006D01*
X10849Y1000D01*
X11191Y1006D01*
X11532Y1024D01*
X11873Y1053D01*
X12213Y1095D01*
X12551Y1148D01*
X12887Y1213D01*
X13220Y1290D01*
X13551Y1378D01*
X13878Y1478D01*
X14202Y1588D01*
X14522Y1710D01*
X14837Y1844D01*
X14919Y1886D01*
X14996Y1937D01*
X15066Y1997D01*
X15129Y2064D01*
X15183Y2139D01*
X15229Y2219D01*
X15265Y2304D01*
X15292Y2392D01*
X15308Y2483D01*
X15313Y2575D01*
Y3881D01*
X15320Y3986D01*
X15340Y4088D01*
X15374Y4188D01*
X15420Y4281D01*
X15478Y4368D01*
X15547Y4447D01*
X17251Y6151D01*
X17330Y6220D01*
X17417Y6278D01*
X17511Y6325D01*
X17610Y6358D01*
X17713Y6379D01*
X17817Y6386D01*
X19123D01*
X19216Y6391D01*
X19306Y6407D01*
X19395Y6433D01*
X19480Y6469D01*
X19560Y6515D01*
X19634Y6570D01*
X19702Y6633D01*
X19761Y6703D01*
X19813Y6780D01*
X19855Y6862D01*
X20002Y7213D01*
X20136Y7569D01*
X20256Y7931D01*
X20362Y8296D01*
X20374Y8362D01*
X20374Y8428D01*
X20364Y8494D02*
X20374Y8428D01*
X20343Y8557D02*
X20364Y8494D01*
X20312Y8616D02*
X20343Y8557D01*
X20271Y8669D02*
X20312Y8616D01*
X20223Y8714D02*
X20271Y8669D01*
X20167Y8751D02*
X20223Y8714D01*
X20106Y8778D02*
X20167Y8751D01*
X20042Y8794D02*
X20106Y8778D01*
X19975Y8800D02*
X20042Y8794D01*
X4406Y8800D02*
X19975D01*
X4290Y8793D02*
X4406Y8800D01*
X4176Y8773D02*
X4290Y8793D01*
X4064Y8740D02*
X4176Y8773D01*
X1948Y7970D02*
X4064Y8740D01*
X7649Y11900D02*
X7949D01*
X7649Y9800D02*
Y11900D01*
Y9800D02*
X7949D01*
Y11900D01*
X5607Y20350D02*
X5674Y20381D01*
X5745Y20401D01*
X5819Y20411D01*
X5893Y20410D01*
X5966Y20398D01*
X6036Y20376D01*
X6103Y20343D01*
X6163Y20300D01*
X6217Y20250D01*
X6263Y20192D01*
X6300Y20127D01*
X6327Y20058D01*
X6343Y19986D01*
X6349Y19912D01*
Y19545D02*
Y19912D01*
Y19545D02*
X6355Y19476D01*
X6372Y19409D01*
X6402Y19346D01*
X6441Y19289D01*
X7229Y18344D01*
X7278Y18294D01*
X7335Y18254D01*
X7399Y18224D01*
X7466Y18206D01*
X7536Y18200D01*
X14183D01*
X14261Y18208D01*
X14336Y18230D01*
X14405Y18267D01*
X14466Y18317D01*
X15231Y19083D01*
X15281Y19143D01*
X15318Y19213D01*
X15341Y19288D01*
X15349Y19366D01*
Y19912D01*
X15354Y19986D01*
X15370Y20058D01*
X15397Y20127D01*
X15434Y20192D01*
X15480Y20250D01*
X15534Y20300D01*
X15594Y20343D01*
X15661Y20376D01*
X15731Y20398D01*
X15804Y20410D01*
X15878Y20411D01*
X15952Y20401D01*
X16023Y20381D01*
X16090Y20350D01*
X16379Y20185D01*
X16663Y20011D01*
X16941Y19828D01*
X17213Y19637D01*
X17480Y19438D01*
X17740Y19231D01*
X17993Y19015D01*
X18240Y18792D01*
X18481Y18562D01*
X18713Y18324D01*
X18939Y18080D01*
X19157Y17828D01*
X19367Y17570D01*
X19569Y17306D01*
X19763Y17035D01*
X19948Y16759D01*
X20125Y16477D01*
X20293Y16190D01*
X20453Y15898D01*
X20603Y15601D01*
X20744Y15300D01*
X20876Y14994D01*
X20998Y14685D01*
X21111Y14372D01*
X21214Y14056D01*
X21308Y13736D01*
X21391Y13414D01*
X21465Y13090D01*
X21528Y12763D01*
X21582Y12435D01*
X21626Y12105D01*
X21659Y11774D01*
X21682Y11442D01*
X21695Y11109D01*
X21698Y10777D01*
X21691Y10444D02*
X21698Y10777D01*
X21673Y10112D02*
X21691Y10444D01*
X21646Y9780D02*
X21673Y10112D01*
X21608Y9450D02*
X21646Y9780D01*
X21560Y9120D02*
X21608Y9450D01*
X21502Y8793D02*
X21560Y9120D01*
X21434Y8467D02*
X21502Y8793D01*
X21356Y8144D02*
X21434Y8467D01*
X21268Y7823D02*
X21356Y8144D01*
X21170Y7505D02*
X21268Y7823D01*
X21062Y7190D02*
X21170Y7505D01*
X20945Y6878D02*
X21062Y7190D01*
X20819Y6571D02*
X20945Y6878D01*
X20683Y6267D02*
X20819Y6571D01*
X20538Y5968D02*
X20683Y6267D01*
X20384Y5673D02*
X20538Y5968D01*
X20220Y5383D02*
X20384Y5673D01*
X20048Y5098D02*
X20220Y5383D01*
X19868Y4819D02*
X20048Y5098D01*
X19678Y4545D02*
X19868Y4819D01*
X19481Y4277D02*
X19678Y4545D01*
X19275Y4015D02*
X19481Y4277D01*
X19062Y3760D02*
X19275Y4015D01*
X18841Y3512D02*
X19062Y3760D01*
X18612Y3270D02*
X18841Y3512D01*
X18376Y3036D02*
X18612Y3270D01*
X18133Y2809D02*
X18376Y3036D01*
X17883Y2589D02*
X18133Y2809D01*
X17626Y2377D02*
X17883Y2589D01*
X17363Y2173D02*
X17626Y2377D01*
X17094Y1978D02*
X17363Y2173D01*
X16819Y1790D02*
X17094Y1978D01*
X16538Y1612D02*
X16819Y1790D01*
X16252Y1441D02*
X16538Y1612D01*
X15961Y1280D02*
X16252Y1441D01*
X15665Y1128D02*
X15961Y1280D01*
X15365Y985D02*
X15665Y1128D01*
X15060Y851D02*
X15365Y985D01*
X14752Y726D02*
X15060Y851D01*
X14440Y612D02*
X14752Y726D01*
X14124Y506D02*
X14440Y612D01*
X13805Y411D02*
X14124Y506D01*
X13484Y325D02*
X13805Y411D01*
X13160Y249D02*
X13484Y325D01*
X12834Y183D02*
X13160Y249D01*
X12506Y127D02*
X12834Y183D01*
X12176Y82D02*
X12506Y127D01*
X11845Y46D02*
X12176Y82D01*
X11514Y20D02*
X11845Y46D01*
X11181Y5D02*
X11514Y20D01*
X10849Y-0D02*
X11181Y5D01*
X10516D02*
X10849Y-0D01*
X10183Y20D02*
X10516Y5D01*
X9852Y46D02*
X10183Y20D01*
X9521Y82D02*
X9852Y46D01*
X9191Y127D02*
X9521Y82D01*
X8863Y183D02*
X9191Y127D01*
X8537Y249D02*
X8863Y183D01*
X8213Y325D02*
X8537Y249D01*
X7892Y411D02*
X8213Y325D01*
X7573Y506D02*
X7892Y411D01*
X7257Y612D02*
X7573Y506D01*
X6945Y726D02*
X7257Y612D01*
X6637Y851D02*
X6945Y726D01*
X6332Y985D02*
X6637Y851D01*
X6032Y1128D02*
X6332Y985D01*
X5736Y1280D02*
X6032Y1128D01*
X5445Y1441D02*
X5736Y1280D01*
X5159Y1612D02*
X5445Y1441D01*
X4878Y1790D02*
X5159Y1612D01*
X4603Y1978D02*
X4878Y1790D01*
X4334Y2173D02*
X4603Y1978D01*
X4071Y2377D02*
X4334Y2173D01*
X3814Y2589D02*
X4071Y2377D01*
X3564Y2809D02*
X3814Y2589D01*
X3321Y3036D02*
X3564Y2809D01*
X3085Y3270D02*
X3321Y3036D01*
X2856Y3512D02*
X3085Y3270D01*
X2635Y3760D02*
X2856Y3512D01*
X2422Y4015D02*
X2635Y3760D01*
X2216Y4277D02*
X2422Y4015D01*
X2019Y4545D02*
X2216Y4277D01*
X1829Y4819D02*
X2019Y4545D01*
X1649Y5098D02*
X1829Y4819D01*
X1477Y5383D02*
X1649Y5098D01*
X1313Y5673D02*
X1477Y5383D01*
X1159Y5968D02*
X1313Y5673D01*
X1014Y6267D02*
X1159Y5968D01*
X878Y6571D02*
X1014Y6267D01*
X752Y6878D02*
X878Y6571D01*
X635Y7190D02*
X752Y6878D01*
X527Y7505D02*
X635Y7190D01*
X429Y7823D02*
X527Y7505D01*
X341Y8144D02*
X429Y7823D01*
X263Y8467D02*
X341Y8144D01*
X195Y8793D02*
X263Y8467D01*
X137Y9120D02*
X195Y8793D01*
X89Y9450D02*
X137Y9120D01*
X51Y9780D02*
X89Y9450D01*
X24Y10112D02*
X51Y9780D01*
X6Y10444D02*
X24Y10112D01*
X-1Y10777D02*
X6Y10444D01*
X-1Y10777D02*
X2Y11109D01*
X15Y11442D01*
X38Y11774D01*
X71Y12105D01*
X115Y12435D01*
X169Y12763D01*
X232Y13090D01*
X306Y13414D01*
X389Y13736D01*
X483Y14056D01*
X586Y14372D01*
X699Y14685D01*
X821Y14994D01*
X953Y15300D01*
X1094Y15601D01*
X1244Y15898D01*
X1404Y16190D01*
X1572Y16477D01*
X1749Y16759D01*
X1934Y17035D01*
X2128Y17306D01*
X2330Y17570D01*
X2540Y17828D01*
X2758Y18080D01*
X2984Y18324D01*
X3216Y18562D01*
X3457Y18792D01*
X3704Y19015D01*
X3957Y19231D01*
X4217Y19438D01*
X4484Y19637D01*
X4756Y19828D01*
X5034Y20011D01*
X5318Y20185D01*
X5607Y20350D01*
X14049Y9800D02*
Y11900D01*
X13749D02*
X14049D01*
X13749Y9800D02*
Y11900D01*
Y9800D02*
X14049D01*
X7649Y11900D02*
X7949D01*
X7649Y9800D02*
Y11900D01*
Y9800D02*
X7949D01*
Y11900D01*
M02*
