G04*
G04 #@! TF.GenerationSoftware,Altium Limited,Altium Designer,18.1.7 (191)*
G04*
G04 Layer_Color=65535*
%FSLAX42Y42*%
%MOMM*%
G71*
G01*
G75*
%ADD10C,0.25*%
%ADD11C,0.60*%
%ADD12C,0.50*%
%ADD13C,0.20*%
%ADD14C,0.15*%
%ADD15C,0.25*%
%ADD16C,0.19*%
%ADD17C,0.18*%
%ADD18C,0.16*%
%ADD19C,0.80*%
G36*
X21369Y10932D02*
X21308D01*
Y10993D01*
X21369D01*
Y10932D01*
D02*
G37*
G36*
X21267Y11198D02*
X21172D01*
Y10932D01*
X21107D01*
Y11198D01*
X21013D01*
Y11252D01*
X21267D01*
Y11198D01*
D02*
G37*
G36*
X20496Y11251D02*
X20504Y11251D01*
X20514Y11251D01*
X20524Y11249D01*
X20534Y11248D01*
X20543Y11245D01*
X20543D01*
X20544Y11245D01*
X20546Y11245D01*
X20547Y11244D01*
X20553Y11242D01*
X20559Y11239D01*
X20567Y11234D01*
X20575Y11229D01*
X20583Y11223D01*
X20591Y11216D01*
X20591D01*
X20592Y11215D01*
X20594Y11212D01*
X20598Y11208D01*
X20602Y11201D01*
X20607Y11194D01*
X20612Y11185D01*
X20617Y11175D01*
X20621Y11164D01*
Y11164D01*
X20622Y11163D01*
X20622Y11161D01*
X20623Y11158D01*
X20624Y11156D01*
X20625Y11152D01*
X20626Y11148D01*
X20627Y11143D01*
X20628Y11138D01*
X20629Y11132D01*
X20630Y11126D01*
X20630Y11119D01*
X20632Y11105D01*
X20632Y11089D01*
Y11088D01*
Y11087D01*
Y11085D01*
Y11082D01*
X20632Y11078D01*
Y11075D01*
X20631Y11070D01*
X20631Y11065D01*
X20630Y11054D01*
X20628Y11043D01*
X20625Y11032D01*
X20622Y11021D01*
Y11020D01*
X20621Y11019D01*
X20621Y11017D01*
X20620Y11015D01*
X20619Y11012D01*
X20617Y11009D01*
X20613Y11000D01*
X20608Y10991D01*
X20602Y10982D01*
X20596Y10972D01*
X20588Y10964D01*
X20587Y10963D01*
X20584Y10961D01*
X20581Y10958D01*
X20576Y10954D01*
X20569Y10950D01*
X20562Y10946D01*
X20552Y10942D01*
X20542Y10938D01*
X20542D01*
X20541Y10938D01*
X20540D01*
X20539Y10937D01*
X20534Y10936D01*
X20527Y10935D01*
X20519Y10934D01*
X20509Y10933D01*
X20498Y10932D01*
X20485Y10932D01*
X20364D01*
Y11252D01*
X20492D01*
X20496Y11251D01*
D02*
G37*
G36*
X20835Y11257D02*
X20840D01*
X20846Y11257D01*
X20853Y11256D01*
X20861Y11254D01*
X20869Y11252D01*
X20878Y11250D01*
X20887Y11247D01*
X20896Y11244D01*
X20906Y11239D01*
X20915Y11234D01*
X20925Y11228D01*
X20933Y11221D01*
X20942Y11214D01*
X20942Y11213D01*
X20944Y11212D01*
X20946Y11209D01*
X20948Y11206D01*
X20951Y11201D01*
X20955Y11195D01*
X20959Y11189D01*
X20963Y11182D01*
X20967Y11174D01*
X20971Y11164D01*
X20975Y11154D01*
X20978Y11144D01*
X20981Y11132D01*
X20982Y11119D01*
X20984Y11106D01*
X20984Y11091D01*
Y11090D01*
Y11088D01*
X20984Y11084D01*
Y11078D01*
X20983Y11072D01*
X20982Y11065D01*
X20981Y11056D01*
X20979Y11047D01*
X20977Y11037D01*
X20974Y11027D01*
X20970Y11017D01*
X20966Y11007D01*
X20962Y10997D01*
X20956Y10987D01*
X20949Y10978D01*
X20942Y10969D01*
X20941Y10969D01*
X20940Y10967D01*
X20938Y10965D01*
X20934Y10962D01*
X20930Y10959D01*
X20925Y10955D01*
X20919Y10952D01*
X20912Y10947D01*
X20904Y10943D01*
X20896Y10940D01*
X20887Y10936D01*
X20876Y10933D01*
X20866Y10930D01*
X20854Y10928D01*
X20842Y10926D01*
X20829Y10926D01*
X20826D01*
X20822Y10926D01*
X20818Y10927D01*
X20812Y10927D01*
X20805Y10928D01*
X20797Y10929D01*
X20789Y10931D01*
X20779Y10934D01*
X20770Y10936D01*
X20761Y10940D01*
X20751Y10944D01*
X20742Y10949D01*
X20733Y10955D01*
X20724Y10961D01*
X20716Y10969D01*
X20715Y10970D01*
X20714Y10971D01*
X20712Y10974D01*
X20709Y10977D01*
X20706Y10982D01*
X20702Y10987D01*
X20699Y10993D01*
X20695Y11001D01*
X20691Y11009D01*
X20687Y11018D01*
X20683Y11027D01*
X20680Y11038D01*
X20677Y11050D01*
X20676Y11062D01*
X20674Y11076D01*
X20674Y11089D01*
Y11090D01*
Y11092D01*
Y11094D01*
X20674Y11098D01*
Y11102D01*
X20675Y11107D01*
X20675Y11112D01*
X20676Y11118D01*
X20677Y11131D01*
X20680Y11145D01*
X20683Y11159D01*
X20688Y11172D01*
Y11172D01*
X20689Y11173D01*
X20689Y11174D01*
X20690Y11176D01*
X20693Y11181D01*
X20696Y11187D01*
X20700Y11194D01*
X20705Y11201D01*
X20711Y11208D01*
X20718Y11216D01*
X20718Y11216D01*
X20719Y11217D01*
X20721Y11219D01*
X20725Y11223D01*
X20730Y11227D01*
X20736Y11232D01*
X20743Y11237D01*
X20751Y11241D01*
X20759Y11245D01*
X20760D01*
X20761Y11245D01*
X20763Y11246D01*
X20765Y11247D01*
X20768Y11248D01*
X20771Y11249D01*
X20775Y11250D01*
X20779Y11251D01*
X20789Y11254D01*
X20801Y11256D01*
X20814Y11257D01*
X20828Y11258D01*
X20832D01*
X20835Y11257D01*
D02*
G37*
G36*
X21007Y10776D02*
X21012Y10776D01*
X21019Y10774D01*
X21025Y10772D01*
X21032Y10769D01*
X21040Y10765D01*
X21020Y10712D01*
X21020Y10712D01*
X21018Y10713D01*
X21015Y10715D01*
X21011Y10717D01*
X21006Y10719D01*
X21002Y10720D01*
X20997Y10721D01*
X20992Y10722D01*
X20990D01*
X20987Y10721D01*
X20984Y10721D01*
X20981Y10720D01*
X20977Y10719D01*
X20974Y10717D01*
X20970Y10714D01*
X20969Y10714D01*
X20969Y10713D01*
X20967Y10711D01*
X20965Y10708D01*
X20963Y10705D01*
X20960Y10701D01*
X20958Y10695D01*
X20956Y10689D01*
Y10688D01*
X20956Y10686D01*
X20955Y10685D01*
Y10683D01*
X20955Y10680D01*
X20954Y10676D01*
X20954Y10672D01*
X20953Y10667D01*
X20953Y10661D01*
X20952Y10655D01*
Y10648D01*
X20952Y10640D01*
X20951Y10631D01*
Y10621D01*
Y10611D01*
Y10540D01*
X20890D01*
Y10772D01*
X20947D01*
Y10739D01*
X20947Y10739D01*
X20949Y10742D01*
X20952Y10746D01*
X20956Y10751D01*
X20959Y10757D01*
X20964Y10762D01*
X20968Y10766D01*
X20973Y10770D01*
X20973Y10770D01*
X20975Y10771D01*
X20977Y10772D01*
X20981Y10773D01*
X20984Y10775D01*
X20989Y10776D01*
X20994Y10776D01*
X20999Y10777D01*
X21003D01*
X21007Y10776D01*
D02*
G37*
G36*
X20513Y10540D02*
X20458D01*
X20364Y10772D01*
X20428D01*
X20472Y10653D01*
X20485Y10614D01*
X20485Y10614D01*
X20486Y10616D01*
X20487Y10619D01*
X20488Y10621D01*
X20490Y10628D01*
X20491Y10631D01*
X20491Y10633D01*
Y10634D01*
X20492Y10635D01*
X20492Y10637D01*
X20493Y10639D01*
X20495Y10646D01*
X20498Y10653D01*
X20542Y10772D01*
X20605D01*
X20513Y10540D01*
D02*
G37*
G36*
X20740Y10776D02*
X20745Y10776D01*
X20750Y10775D01*
X20755Y10774D01*
X20761Y10773D01*
X20768Y10771D01*
X20774Y10769D01*
X20781Y10766D01*
X20788Y10762D01*
X20795Y10758D01*
X20801Y10754D01*
X20807Y10748D01*
X20813Y10742D01*
X20814Y10742D01*
X20814Y10741D01*
X20816Y10739D01*
X20818Y10736D01*
X20820Y10732D01*
X20822Y10728D01*
X20825Y10722D01*
X20828Y10716D01*
X20831Y10709D01*
X20833Y10701D01*
X20836Y10693D01*
X20838Y10683D01*
X20840Y10673D01*
X20841Y10662D01*
X20842Y10651D01*
Y10638D01*
X20689D01*
Y10637D01*
Y10636D01*
Y10635D01*
X20689Y10633D01*
X20689Y10628D01*
X20690Y10622D01*
X20692Y10615D01*
X20695Y10608D01*
X20698Y10601D01*
X20703Y10595D01*
X20703Y10595D01*
X20706Y10593D01*
X20708Y10590D01*
X20713Y10588D01*
X20718Y10585D01*
X20724Y10583D01*
X20731Y10581D01*
X20739Y10580D01*
X20741D01*
X20744Y10581D01*
X20747Y10581D01*
X20751Y10582D01*
X20755Y10583D01*
X20759Y10585D01*
X20763Y10588D01*
X20763Y10589D01*
X20764Y10589D01*
X20766Y10591D01*
X20768Y10594D01*
X20771Y10598D01*
X20773Y10602D01*
X20776Y10608D01*
X20778Y10614D01*
X20839Y10603D01*
Y10603D01*
X20839Y10602D01*
X20838Y10600D01*
X20837Y10598D01*
X20835Y10595D01*
X20834Y10592D01*
X20830Y10584D01*
X20825Y10576D01*
X20818Y10567D01*
X20810Y10559D01*
X20801Y10552D01*
X20801D01*
X20801Y10551D01*
X20799Y10551D01*
X20797Y10549D01*
X20795Y10548D01*
X20791Y10546D01*
X20788Y10545D01*
X20784Y10543D01*
X20775Y10540D01*
X20764Y10537D01*
X20751Y10535D01*
X20738Y10534D01*
X20735D01*
X20733Y10535D01*
X20728D01*
X20723Y10536D01*
X20717Y10537D01*
X20711Y10538D01*
X20704Y10540D01*
X20697Y10541D01*
X20689Y10544D01*
X20682Y10547D01*
X20675Y10551D01*
X20667Y10556D01*
X20660Y10561D01*
X20654Y10567D01*
X20648Y10574D01*
X20648Y10574D01*
X20647Y10575D01*
X20646Y10577D01*
X20645Y10579D01*
X20643Y10583D01*
X20641Y10586D01*
X20639Y10590D01*
X20637Y10596D01*
X20635Y10601D01*
X20633Y10607D01*
X20631Y10614D01*
X20629Y10621D01*
X20628Y10628D01*
X20627Y10636D01*
X20626Y10645D01*
X20626Y10654D01*
Y10654D01*
Y10656D01*
Y10659D01*
X20626Y10664D01*
X20627Y10668D01*
X20627Y10674D01*
X20628Y10680D01*
X20629Y10687D01*
X20633Y10701D01*
X20635Y10708D01*
X20638Y10716D01*
X20642Y10724D01*
X20646Y10731D01*
X20651Y10738D01*
X20656Y10744D01*
X20656Y10745D01*
X20657Y10745D01*
X20659Y10747D01*
X20661Y10749D01*
X20664Y10751D01*
X20668Y10754D01*
X20672Y10757D01*
X20677Y10761D01*
X20682Y10764D01*
X20688Y10767D01*
X20694Y10770D01*
X20701Y10772D01*
X20708Y10774D01*
X20715Y10776D01*
X20723Y10776D01*
X20732Y10777D01*
X20737D01*
X20740Y10776D01*
D02*
G37*
G36*
X21289Y10861D02*
X21293Y10861D01*
X21298Y10860D01*
X21302Y10859D01*
X21308Y10857D01*
X21314Y10856D01*
X21319Y10853D01*
X21325Y10851D01*
X21331Y10848D01*
X21337Y10844D01*
X21343Y10839D01*
X21349Y10834D01*
X21354Y10828D01*
X21355Y10828D01*
X21355Y10826D01*
X21357Y10824D01*
X21359Y10821D01*
X21361Y10816D01*
X21364Y10811D01*
X21367Y10805D01*
X21370Y10797D01*
X21373Y10788D01*
X21376Y10779D01*
X21378Y10768D01*
X21380Y10756D01*
X21383Y10743D01*
X21384Y10729D01*
X21385Y10714D01*
X21386Y10697D01*
Y10697D01*
Y10696D01*
Y10695D01*
Y10693D01*
Y10689D01*
X21385Y10683D01*
X21385Y10675D01*
X21384Y10666D01*
X21383Y10657D01*
X21382Y10647D01*
X21380Y10636D01*
X21378Y10625D01*
X21375Y10614D01*
X21372Y10604D01*
X21369Y10593D01*
X21364Y10583D01*
X21360Y10574D01*
X21354Y10566D01*
X21354Y10566D01*
X21353Y10565D01*
X21351Y10563D01*
X21349Y10561D01*
X21347Y10559D01*
X21343Y10556D01*
X21339Y10553D01*
X21335Y10550D01*
X21330Y10547D01*
X21325Y10544D01*
X21319Y10541D01*
X21312Y10539D01*
X21305Y10537D01*
X21298Y10535D01*
X21290Y10534D01*
X21281Y10533D01*
X21280D01*
X21277Y10534D01*
X21274D01*
X21270Y10534D01*
X21265Y10535D01*
X21260Y10536D01*
X21255Y10538D01*
X21249Y10540D01*
X21243Y10542D01*
X21236Y10545D01*
X21230Y10549D01*
X21224Y10552D01*
X21218Y10558D01*
X21212Y10563D01*
X21206Y10569D01*
X21205Y10570D01*
X21205Y10571D01*
X21203Y10573D01*
X21202Y10576D01*
X21199Y10580D01*
X21197Y10585D01*
X21194Y10592D01*
X21192Y10599D01*
X21189Y10607D01*
X21187Y10616D01*
X21184Y10627D01*
X21182Y10639D01*
X21181Y10652D01*
X21179Y10666D01*
X21178Y10681D01*
X21178Y10698D01*
Y10698D01*
Y10699D01*
Y10700D01*
Y10702D01*
Y10707D01*
X21178Y10713D01*
X21179Y10720D01*
X21180Y10729D01*
X21181Y10738D01*
X21181Y10748D01*
X21183Y10759D01*
X21185Y10770D01*
X21188Y10781D01*
X21191Y10791D01*
X21194Y10801D01*
X21199Y10811D01*
X21203Y10820D01*
X21209Y10828D01*
X21209Y10829D01*
X21210Y10830D01*
X21212Y10832D01*
X21214Y10833D01*
X21216Y10836D01*
X21219Y10839D01*
X21224Y10842D01*
X21228Y10845D01*
X21233Y10848D01*
X21238Y10851D01*
X21244Y10854D01*
X21250Y10857D01*
X21257Y10858D01*
X21265Y10860D01*
X21273Y10861D01*
X21281Y10862D01*
X21286D01*
X21289Y10861D01*
D02*
G37*
%LPC*%
G36*
X20471Y11198D02*
X20429D01*
Y10986D01*
X20486D01*
X20492Y10986D01*
X20498D01*
X20505Y10987D01*
X20511Y10988D01*
X20516Y10989D01*
X20517D01*
X20519Y10990D01*
X20521Y10990D01*
X20525Y10992D01*
X20529Y10994D01*
X20534Y10996D01*
X20538Y10999D01*
X20542Y11002D01*
X20542Y11002D01*
X20544Y11004D01*
X20546Y11006D01*
X20548Y11009D01*
X20550Y11014D01*
X20553Y11019D01*
X20556Y11025D01*
X20559Y11033D01*
Y11033D01*
X20559Y11033D01*
Y11035D01*
X20559Y11037D01*
X20560Y11039D01*
X20561Y11041D01*
X20562Y11048D01*
X20563Y11057D01*
X20565Y11066D01*
X20565Y11078D01*
X20565Y11091D01*
Y11092D01*
Y11093D01*
Y11095D01*
Y11097D01*
Y11101D01*
X20565Y11104D01*
X20565Y11112D01*
X20564Y11121D01*
X20563Y11131D01*
X20561Y11140D01*
X20559Y11148D01*
Y11149D01*
X20558Y11149D01*
X20557Y11152D01*
X20556Y11155D01*
X20554Y11160D01*
X20551Y11164D01*
X20548Y11170D01*
X20544Y11175D01*
X20540Y11179D01*
X20540Y11180D01*
X20538Y11181D01*
X20535Y11183D01*
X20532Y11185D01*
X20528Y11188D01*
X20522Y11190D01*
X20517Y11193D01*
X20510Y11195D01*
X20510D01*
X20508Y11195D01*
X20504Y11195D01*
X20499Y11196D01*
X20496D01*
X20491Y11197D01*
X20487D01*
X20483Y11197D01*
X20477D01*
X20471Y11198D01*
D02*
G37*
G36*
X20829Y11203D02*
X20826D01*
X20823Y11202D01*
X20819Y11202D01*
X20815Y11201D01*
X20806Y11200D01*
X20796Y11196D01*
X20790Y11194D01*
X20785Y11191D01*
X20780Y11188D01*
X20774Y11184D01*
X20769Y11180D01*
X20764Y11175D01*
X20764Y11175D01*
X20764Y11174D01*
X20762Y11172D01*
X20761Y11170D01*
X20759Y11167D01*
X20757Y11164D01*
X20755Y11159D01*
X20752Y11154D01*
X20750Y11149D01*
X20748Y11143D01*
X20746Y11136D01*
X20744Y11128D01*
X20743Y11120D01*
X20741Y11111D01*
X20741Y11102D01*
X20740Y11092D01*
Y11091D01*
Y11089D01*
Y11087D01*
X20741Y11083D01*
X20741Y11078D01*
X20742Y11073D01*
X20743Y11067D01*
X20744Y11061D01*
X20746Y11047D01*
X20751Y11034D01*
X20754Y11027D01*
X20757Y11021D01*
X20761Y11015D01*
X20765Y11009D01*
X20766Y11009D01*
X20767Y11008D01*
X20768Y11006D01*
X20770Y11005D01*
X20772Y11002D01*
X20776Y11000D01*
X20779Y10997D01*
X20783Y10995D01*
X20792Y10990D01*
X20803Y10985D01*
X20809Y10984D01*
X20815Y10982D01*
X20822Y10981D01*
X20829Y10981D01*
X20833D01*
X20836Y10981D01*
X20839Y10982D01*
X20843Y10982D01*
X20851Y10984D01*
X20862Y10988D01*
X20867Y10990D01*
X20872Y10992D01*
X20877Y10996D01*
X20883Y10999D01*
X20888Y11003D01*
X20893Y11009D01*
X20893Y11009D01*
X20894Y11010D01*
X20895Y11011D01*
X20896Y11014D01*
X20899Y11017D01*
X20901Y11021D01*
X20903Y11025D01*
X20905Y11030D01*
X20907Y11035D01*
X20910Y11041D01*
X20912Y11048D01*
X20914Y11056D01*
X20915Y11064D01*
X20917Y11073D01*
X20917Y11083D01*
X20918Y11093D01*
Y11093D01*
Y11095D01*
Y11098D01*
X20917Y11102D01*
X20917Y11107D01*
X20916Y11112D01*
X20916Y11118D01*
X20914Y11124D01*
X20912Y11137D01*
X20907Y11151D01*
X20905Y11158D01*
X20901Y11164D01*
X20897Y11170D01*
X20893Y11176D01*
X20893Y11176D01*
X20892Y11177D01*
X20891Y11178D01*
X20889Y11180D01*
X20886Y11182D01*
X20883Y11184D01*
X20880Y11187D01*
X20876Y11189D01*
X20872Y11192D01*
X20867Y11194D01*
X20856Y11199D01*
X20850Y11201D01*
X20844Y11201D01*
X20837Y11202D01*
X20829Y11203D01*
D02*
G37*
G36*
X20735Y10730D02*
X20732D01*
X20728Y10729D01*
X20724Y10728D01*
X20719Y10726D01*
X20713Y10724D01*
X20708Y10720D01*
X20702Y10715D01*
X20702Y10714D01*
X20701Y10712D01*
X20698Y10709D01*
X20696Y10704D01*
X20693Y10699D01*
X20691Y10692D01*
X20690Y10684D01*
X20689Y10675D01*
X20781D01*
Y10676D01*
Y10677D01*
Y10677D01*
X20781Y10679D01*
X20780Y10684D01*
X20779Y10690D01*
X20777Y10696D01*
X20775Y10703D01*
X20771Y10710D01*
X20767Y10715D01*
X20767Y10716D01*
X20765Y10718D01*
X20762Y10720D01*
X20758Y10723D01*
X20754Y10725D01*
X20748Y10727D01*
X20742Y10729D01*
X20735Y10730D01*
D02*
G37*
G36*
X21281Y10811D02*
X21280D01*
X21277Y10810D01*
X21275Y10810D01*
X21272Y10809D01*
X21268Y10807D01*
X21265Y10806D01*
X21261Y10803D01*
X21261Y10803D01*
X21260Y10802D01*
X21259Y10800D01*
X21257Y10798D01*
X21255Y10794D01*
X21253Y10790D01*
X21250Y10784D01*
X21249Y10778D01*
Y10777D01*
X21248Y10777D01*
Y10775D01*
X21248Y10773D01*
X21247Y10770D01*
X21247Y10767D01*
X21246Y10764D01*
X21246Y10759D01*
X21245Y10753D01*
X21244Y10748D01*
X21244Y10741D01*
X21243Y10734D01*
X21243Y10726D01*
Y10717D01*
X21243Y10708D01*
Y10697D01*
Y10697D01*
Y10695D01*
Y10692D01*
Y10688D01*
Y10683D01*
X21243Y10678D01*
Y10672D01*
X21243Y10666D01*
X21244Y10653D01*
X21245Y10640D01*
X21245Y10634D01*
X21246Y10629D01*
X21247Y10624D01*
X21248Y10619D01*
X21249Y10618D01*
X21249Y10616D01*
X21250Y10612D01*
X21252Y10608D01*
X21254Y10603D01*
X21256Y10599D01*
X21259Y10595D01*
X21262Y10591D01*
X21262Y10591D01*
X21263Y10590D01*
X21265Y10589D01*
X21268Y10588D01*
X21270Y10587D01*
X21274Y10585D01*
X21277Y10585D01*
X21281Y10584D01*
X21283D01*
X21286Y10585D01*
X21288Y10585D01*
X21291Y10586D01*
X21294Y10587D01*
X21298Y10589D01*
X21301Y10591D01*
X21301Y10592D01*
X21302Y10593D01*
X21304Y10595D01*
X21306Y10597D01*
X21308Y10601D01*
X21310Y10605D01*
X21312Y10610D01*
X21314Y10617D01*
Y10617D01*
X21315Y10618D01*
Y10620D01*
X21315Y10621D01*
X21316Y10624D01*
X21316Y10627D01*
X21317Y10631D01*
X21317Y10636D01*
X21318Y10641D01*
X21319Y10647D01*
X21319Y10653D01*
X21320Y10661D01*
X21320Y10669D01*
Y10677D01*
X21321Y10687D01*
Y10697D01*
Y10698D01*
Y10700D01*
Y10703D01*
Y10707D01*
Y10711D01*
X21320Y10716D01*
Y10722D01*
X21320Y10728D01*
X21319Y10741D01*
X21318Y10754D01*
X21317Y10760D01*
X21317Y10766D01*
X21316Y10771D01*
X21315Y10775D01*
Y10776D01*
X21314Y10776D01*
X21314Y10778D01*
X21312Y10782D01*
X21311Y10787D01*
X21309Y10791D01*
X21306Y10796D01*
X21304Y10800D01*
X21301Y10803D01*
X21300Y10804D01*
X21299Y10805D01*
X21298Y10806D01*
X21295Y10807D01*
X21292Y10808D01*
X21289Y10810D01*
X21286Y10810D01*
X21281Y10811D01*
D02*
G37*
%LPD*%
D10*
X17080Y11278D02*
G03*
X17080Y11278I-12J0D01*
G01*
X9317Y9945D02*
G03*
X9317Y9945I-12J0D01*
G01*
X11482Y11440D02*
G03*
X11482Y11440I-12J0D01*
G01*
D11*
X11730Y11295D02*
G03*
X11730Y11295I-30J0D01*
G01*
D12*
X1603Y11846D02*
D03*
X2120Y8214D02*
D03*
D13*
X18270Y10320D02*
X18510D01*
X18270Y9805D02*
Y10320D01*
Y9805D02*
X18435Y9640D01*
X18535D01*
X18685D02*
X18785D01*
X18950Y9805D01*
Y10320D01*
X18710D02*
X18950D01*
X18040Y11623D02*
Y11793D01*
X17000Y11623D02*
X18040D01*
X17000D02*
Y11793D01*
X2307Y10184D02*
X2570Y10280D01*
X2260Y10315D02*
X2523Y10411D01*
X2570Y10280D01*
X2260Y10315D02*
X2307Y10184D01*
X2260Y11153D02*
X2523Y11057D01*
X2307Y11285D02*
X2570Y11189D01*
X2523Y11057D02*
X2570Y11189D01*
X2260Y11153D02*
X2307Y11285D01*
X1717Y11162D02*
X1980Y11066D01*
X1765Y11294D02*
X2028Y11198D01*
X1980Y11066D02*
X2028Y11198D01*
X1717Y11162D02*
X1765Y11294D01*
X2324Y11337D02*
X2587Y11241D01*
X2372Y11468D02*
X2635Y11372D01*
X2587Y11241D02*
X2635Y11372D01*
X2324Y11337D02*
X2372Y11468D01*
X2374Y10001D02*
X2637Y10097D01*
X2326Y10133D02*
X2589Y10228D01*
X2637Y10097D01*
X2326Y10133D02*
X2374Y10001D01*
X930Y12144D02*
X1639Y11886D01*
X930Y12144D02*
X1415Y13478D01*
X2125Y13220D01*
X3488Y11213D02*
X3579Y11180D01*
X3611Y11266D01*
X4030Y12418D02*
X4065Y12514D01*
X3974Y12547D02*
X4065Y12514D01*
X9105Y9970D02*
X9195D01*
X9105D02*
Y10055D01*
Y10280D02*
X9195D01*
X9105Y10195D02*
Y10280D01*
X9585Y10993D02*
Y11132D01*
X9305Y10993D02*
Y11132D01*
Y10993D02*
X9585D01*
X9305Y11132D02*
X9585D01*
X9590Y10730D02*
Y10870D01*
X9310Y10730D02*
Y10870D01*
Y10730D02*
X9590D01*
X9310Y10870D02*
X9590D01*
X1700Y10357D02*
X1747Y10226D01*
X1963Y10453D02*
X2010Y10321D01*
X1700Y10357D02*
X1963Y10453D01*
X1747Y10226D02*
X2010Y10321D01*
X3484Y10275D02*
X3576Y10309D01*
X3611Y10212D01*
X4030Y9061D02*
X4062Y8974D01*
X3970Y8941D02*
X4062Y8974D01*
X926Y9344D02*
X1636Y9602D01*
X926Y9344D02*
X1412Y8010D01*
X2121Y8268D01*
X9899Y10563D02*
X10362D01*
X9899D02*
Y11543D01*
X10362D01*
Y10563D02*
Y11543D01*
X4467Y10822D02*
X4467Y10682D01*
X4187Y10682D02*
Y10822D01*
Y10682D02*
X4467Y10682D01*
X4187Y10822D02*
X4467D01*
X9160Y9700D02*
Y9880D01*
X9000D02*
X9470D01*
X9000D02*
X9000Y9700D01*
X9470D01*
Y9880D01*
X11600Y10145D02*
Y11395D01*
X12850Y10145D02*
Y11395D01*
X11600D02*
X12850D01*
X11600Y10145D02*
X12850D01*
X12032Y9232D02*
X11913D01*
Y9292D01*
X11933Y9312D01*
X11973D01*
X11993Y9292D01*
Y9232D01*
Y9272D02*
X12032Y9312D01*
Y9352D02*
Y9392D01*
Y9372D01*
X11913D01*
X11933Y9352D01*
X12032Y9452D02*
Y9492D01*
Y9472D01*
X11913D01*
X11933Y9452D01*
X11410Y9640D02*
Y9750D01*
X11465D01*
X11483Y9732D01*
Y9695D01*
X11465Y9677D01*
X11410D01*
X11447D02*
X11483Y9640D01*
X11520D02*
X11557D01*
X11538D01*
Y9750D01*
X11520Y9732D01*
X11474Y9542D02*
X11455Y9560D01*
X11419D01*
X11400Y9542D01*
Y9469D01*
X11419Y9450D01*
X11455D01*
X11474Y9469D01*
X11510Y9450D02*
X11547D01*
X11529D01*
Y9560D01*
X11510Y9542D01*
D14*
X12313Y9745D02*
X12338D01*
X12190Y9547D02*
Y9603D01*
X12460Y9547D02*
Y9603D01*
X12313Y9405D02*
X12338D01*
X18498Y11200D02*
X18584D01*
X18716D02*
X18802D01*
X18498D02*
Y11300D01*
X18802Y11200D02*
Y11300D01*
D15*
X11449Y12345D02*
Y12218D01*
X11474Y12192D01*
X11525D01*
X11550Y12218D01*
Y12345D01*
X11601D02*
X11703D01*
Y12319D01*
X11601Y12218D01*
Y12192D01*
X13039Y12383D02*
Y12256D01*
X13065Y12231D01*
X13116D01*
X13141Y12256D01*
Y12383D01*
X13192Y12256D02*
X13217Y12231D01*
X13268D01*
X13293Y12256D01*
Y12358D01*
X13268Y12383D01*
X13217D01*
X13192Y12358D01*
Y12332D01*
X13217Y12307D01*
X13293D01*
X4253Y10578D02*
X4405D01*
Y10501D01*
X4379Y10476D01*
X4329D01*
X4303Y10501D01*
Y10578D01*
X4405Y10425D02*
X4253D01*
X4303Y10374D01*
X4253Y10324D01*
X4405D01*
X4253Y10273D02*
X4405D01*
Y10197D01*
X4379Y10171D01*
X4329D01*
X4303Y10197D01*
Y10273D01*
Y10222D02*
X4253Y10171D01*
X9405Y11543D02*
Y11409D01*
Y11476D01*
X9205D01*
X9338Y11343D02*
X9205Y11209D01*
X9271Y11276D01*
X9338Y11209D01*
X9205Y11343D01*
X9460Y10635D02*
X9660D01*
Y10535D01*
X9627Y10502D01*
X9560D01*
X9527Y10535D01*
Y10635D01*
Y10568D02*
X9460Y10502D01*
X9593Y10435D02*
X9460Y10302D01*
X9527Y10368D01*
X9593Y10302D01*
X9460Y10435D01*
X15170Y10780D02*
X15260Y10690D01*
X15295D01*
X15331Y10726D01*
Y10762D01*
X15242Y10852D01*
X15295Y10870D02*
Y10906D01*
X15331Y10942D01*
X15367D01*
X15385Y10924D01*
Y10888D01*
X15367Y10870D01*
X15385Y10888D01*
X15421D01*
X15439Y10870D01*
Y10834D01*
X15403Y10798D01*
X15367D01*
X7400Y11510D02*
X7527D01*
X7553Y11535D01*
Y11586D01*
X7527Y11612D01*
X7400D01*
Y11764D02*
Y11662D01*
X7476D01*
X7451Y11713D01*
Y11739D01*
X7476Y11764D01*
X7527D01*
X7553Y11739D01*
Y11688D01*
X7527Y11662D01*
X5830Y12607D02*
Y12480D01*
X5855Y12455D01*
X5906D01*
X5932Y12480D01*
Y12607D01*
X5982Y12455D02*
X6033D01*
X6008D01*
Y12607D01*
X5982Y12582D01*
X6109Y12455D02*
X6160D01*
X6135D01*
Y12607D01*
X6109Y12582D01*
X12025Y12210D02*
Y12362D01*
X12101D01*
X12127Y12337D01*
Y12286D01*
X12101Y12261D01*
X12025D01*
X12076D02*
X12127Y12210D01*
X12279Y12362D02*
X12177D01*
Y12286D01*
X12228Y12312D01*
X12254D01*
X12279Y12286D01*
Y12235D01*
X12254Y12210D01*
X12203D01*
X12177Y12235D01*
X12390Y12215D02*
Y12367D01*
X12466D01*
X12492Y12342D01*
Y12291D01*
X12466Y12266D01*
X12390D01*
X12441D02*
X12492Y12215D01*
X12644D02*
X12542D01*
X12644Y12317D01*
Y12342D01*
X12619Y12367D01*
X12568D01*
X12542Y12342D01*
X15678Y11803D02*
X15805D01*
X15830Y11828D01*
Y11879D01*
X15805Y11904D01*
X15678D01*
X15830Y11955D02*
Y12006D01*
Y11980D01*
X15678D01*
X15703Y11955D01*
X15830Y12183D02*
Y12082D01*
X15728Y12183D01*
X15703D01*
X15678Y12158D01*
Y12107D01*
X15703Y12082D01*
X15080Y9907D02*
Y9780D01*
X15105Y9755D01*
X15156D01*
X15182Y9780D01*
Y9907D01*
X15232Y9755D02*
X15283D01*
X15258D01*
Y9907D01*
X15232Y9882D01*
X15359D02*
X15385Y9907D01*
X15435D01*
X15461Y9882D01*
Y9780D01*
X15435Y9755D01*
X15385D01*
X15359Y9780D01*
Y9882D01*
X6275Y11412D02*
X6402D01*
X6428Y11438D01*
Y11489D01*
X6402Y11514D01*
X6275D01*
X6301Y11565D02*
X6275Y11590D01*
Y11641D01*
X6301Y11666D01*
X6326D01*
X6351Y11641D01*
X6377Y11666D01*
X6402D01*
X6428Y11641D01*
Y11590D01*
X6402Y11565D01*
X6377D01*
X6351Y11590D01*
X6326Y11565D01*
X6301D01*
X6351Y11590D02*
Y11641D01*
X6150Y10390D02*
Y10263D01*
X6175Y10238D01*
X6226D01*
X6252Y10263D01*
Y10390D01*
X6404D02*
X6353Y10364D01*
X6302Y10314D01*
Y10263D01*
X6328Y10238D01*
X6379D01*
X6404Y10263D01*
Y10288D01*
X6379Y10314D01*
X6302D01*
X16240Y9557D02*
Y9430D01*
X16265Y9405D01*
X16316D01*
X16342Y9430D01*
Y9557D01*
X16469Y9405D02*
Y9557D01*
X16392Y9481D01*
X16494D01*
X18820Y10878D02*
Y10979D01*
X18769Y11030D01*
X18718Y10979D01*
Y10878D01*
X18668D02*
X18566D01*
X18617D01*
Y11030D01*
X18414D02*
X18515D01*
X18414Y10928D01*
Y10903D01*
X18439Y10878D01*
X18490D01*
X18515Y10903D01*
X18157Y12250D02*
Y12123D01*
X18183Y12097D01*
X18234D01*
X18259Y12123D01*
Y12250D01*
X18310Y12097D02*
X18361D01*
X18335D01*
Y12250D01*
X18310Y12224D01*
X18437Y12123D02*
X18462Y12097D01*
X18513D01*
X18538Y12123D01*
Y12224D01*
X18513Y12250D01*
X18462D01*
X18437Y12224D01*
Y12199D01*
X18462Y12174D01*
X18538D01*
X19265Y11582D02*
X19113D01*
Y11659D01*
X19138Y11684D01*
X19189D01*
X19214Y11659D01*
Y11582D01*
Y11633D02*
X19265Y11684D01*
Y11836D02*
Y11735D01*
X19163Y11836D01*
X19138D01*
X19113Y11811D01*
Y11760D01*
X19138Y11735D01*
X19265Y11887D02*
Y11938D01*
Y11913D01*
X19113D01*
X19138Y11887D01*
X19775Y10820D02*
X19623D01*
Y10896D01*
X19648Y10922D01*
X19699D01*
X19724Y10896D01*
Y10820D01*
Y10871D02*
X19775Y10922D01*
Y11074D02*
Y10972D01*
X19673Y11074D01*
X19648D01*
X19623Y11049D01*
Y10998D01*
X19648Y10972D01*
Y11125D02*
X19623Y11150D01*
Y11201D01*
X19648Y11226D01*
X19750D01*
X19775Y11201D01*
Y11150D01*
X19750Y11125D01*
X19648D01*
X16695Y10447D02*
X16848D01*
Y10549D01*
Y10600D02*
Y10651D01*
Y10625D01*
X16695D01*
X16721Y10600D01*
X16748Y9407D02*
X16900D01*
Y9484D01*
X16875Y9509D01*
X16773D01*
X16748Y9484D01*
Y9407D01*
X16900Y9636D02*
X16748D01*
X16824Y9560D01*
Y9661D01*
X19426Y11659D02*
X19400Y11634D01*
Y11583D01*
X19426Y11557D01*
X19527D01*
X19552Y11583D01*
Y11634D01*
X19527Y11659D01*
X19552Y11811D02*
Y11710D01*
X19451Y11811D01*
X19426D01*
X19400Y11786D01*
Y11735D01*
X19426Y11710D01*
Y11862D02*
X19400Y11888D01*
Y11938D01*
X19426Y11964D01*
X19527D01*
X19552Y11938D01*
Y11888D01*
X19527Y11862D01*
X19426D01*
X18506Y10587D02*
X18480Y10561D01*
Y10510D01*
X18506Y10485D01*
X18607D01*
X18632Y10510D01*
Y10561D01*
X18607Y10587D01*
X18632Y10637D02*
Y10688D01*
Y10663D01*
X18480D01*
X18506Y10637D01*
X18607Y10764D02*
X18632Y10790D01*
Y10840D01*
X18607Y10866D01*
X18506D01*
X18480Y10840D01*
Y10790D01*
X18506Y10764D01*
X18531D01*
X18556Y10790D01*
Y10866D01*
X19086Y9964D02*
X19060Y9939D01*
Y9888D01*
X19086Y9862D01*
X19187D01*
X19212Y9888D01*
Y9939D01*
X19187Y9964D01*
X19212Y10015D02*
Y10066D01*
Y10040D01*
X19060D01*
X19086Y10015D01*
X19060Y10142D02*
Y10243D01*
X19086D01*
X19187Y10142D01*
X19212D01*
X3920Y10590D02*
X4072D01*
Y10514D01*
X4047Y10488D01*
X3996D01*
X3971Y10514D01*
Y10590D01*
Y10539D02*
X3920Y10488D01*
X4047Y10438D02*
X4072Y10412D01*
Y10361D01*
X4047Y10336D01*
X4022D01*
X3996Y10361D01*
Y10387D01*
Y10361D01*
X3971Y10336D01*
X3945D01*
X3920Y10361D01*
Y10412D01*
X3945Y10438D01*
X10020Y11777D02*
Y11650D01*
X10045Y11625D01*
X10096D01*
X10122Y11650D01*
Y11777D01*
X10172Y11625D02*
X10223D01*
X10198D01*
Y11777D01*
X10172Y11752D01*
X10401Y11777D02*
X10350Y11752D01*
X10299Y11701D01*
Y11650D01*
X10325Y11625D01*
X10376D01*
X10401Y11650D01*
Y11676D01*
X10376Y11701D01*
X10299D01*
X12243Y9115D02*
X12268D01*
X12319Y9166D01*
X12268Y9217D01*
X12243D01*
X12319Y9166D02*
X12395D01*
Y9267D02*
Y9318D01*
Y9293D01*
X12243D01*
X12268Y9267D01*
X8599Y10202D02*
Y10075D01*
X8625Y10050D01*
X8676D01*
X8701Y10075D01*
Y10202D01*
X8752Y10050D02*
X8803D01*
X8777D01*
Y10202D01*
X8752Y10177D01*
X8879Y10202D02*
X8980D01*
Y10177D01*
X8879Y10075D01*
Y10050D01*
X11300Y11652D02*
Y11525D01*
X11325Y11500D01*
X11376D01*
X11402Y11525D01*
Y11652D01*
X11452Y11500D02*
X11503D01*
X11478D01*
Y11652D01*
X11452Y11627D01*
X13985Y12278D02*
X14112D01*
X14138Y12303D01*
Y12354D01*
X14112Y12379D01*
X13985D01*
X14138Y12531D02*
Y12430D01*
X14036Y12531D01*
X14011D01*
X13985Y12506D01*
Y12455D01*
X14011Y12430D01*
X8550Y11003D02*
Y11155D01*
X8626D01*
X8652Y11129D01*
Y11079D01*
X8626Y11053D01*
X8550D01*
X8601D02*
X8652Y11003D01*
X8702D02*
X8753D01*
X8728D01*
Y11155D01*
X8702Y11129D01*
X8931Y11155D02*
X8829D01*
Y11079D01*
X8880Y11104D01*
X8906D01*
X8931Y11079D01*
Y11028D01*
X8906Y11003D01*
X8855D01*
X8829Y11028D01*
X8550Y10740D02*
Y10892D01*
X8626D01*
X8652Y10867D01*
Y10816D01*
X8626Y10791D01*
X8550D01*
X8601D02*
X8652Y10740D01*
X8702D02*
X8753D01*
X8728D01*
Y10892D01*
X8702Y10867D01*
X8906Y10740D02*
Y10892D01*
X8829Y10816D01*
X8931D01*
X11000Y10825D02*
Y10945D01*
X11060D01*
X11080Y10925D01*
Y10885D01*
X11060Y10865D01*
X11000D01*
X11040D02*
X11080Y10825D01*
X11120D02*
X11160D01*
X11140D01*
Y10945D01*
X11120Y10925D01*
X11220D02*
X11240Y10945D01*
X11280D01*
X11300Y10925D01*
Y10905D01*
X11280Y10885D01*
X11260D01*
X11280D01*
X11300Y10865D01*
Y10845D01*
X11280Y10825D01*
X11240D01*
X11220Y10845D01*
X11001Y10592D02*
Y10712D01*
X11061D01*
X11081Y10692D01*
Y10652D01*
X11061Y10632D01*
X11001D01*
X11041D02*
X11081Y10592D01*
X11121D02*
X11161D01*
X11141D01*
Y10712D01*
X11121Y10692D01*
X11301Y10592D02*
X11221D01*
X11301Y10672D01*
Y10692D01*
X11281Y10712D01*
X11241D01*
X11221Y10692D01*
X8605Y9862D02*
Y9710D01*
X8681D01*
X8707Y9735D01*
Y9837D01*
X8681Y9862D01*
X8605D01*
X8757Y9837D02*
X8783Y9862D01*
X8834D01*
X8859Y9837D01*
Y9812D01*
X8834Y9786D01*
X8808D01*
X8834D01*
X8859Y9761D01*
Y9735D01*
X8834Y9710D01*
X8783D01*
X8757Y9735D01*
X8577Y10552D02*
X8551Y10577D01*
X8500D01*
X8475Y10552D01*
Y10450D01*
X8500Y10425D01*
X8551D01*
X8577Y10450D01*
X8627Y10425D02*
X8678D01*
X8653D01*
Y10577D01*
X8627Y10552D01*
X8856Y10577D02*
X8754D01*
Y10501D01*
X8805Y10527D01*
X8830D01*
X8856Y10501D01*
Y10450D01*
X8830Y10425D01*
X8780D01*
X8754Y10450D01*
X10109Y10174D02*
X10084Y10200D01*
X10033D01*
X10007Y10174D01*
Y10073D01*
X10033Y10047D01*
X10084D01*
X10109Y10073D01*
X10160Y10047D02*
X10211D01*
X10185D01*
Y10200D01*
X10160Y10174D01*
X10363Y10047D02*
Y10200D01*
X10287Y10124D01*
X10388D01*
X11081Y10495D02*
X11061Y10515D01*
X11021D01*
X11001Y10495D01*
Y10415D01*
X11021Y10395D01*
X11061D01*
X11081Y10415D01*
X11121Y10395D02*
X11161D01*
X11141D01*
Y10515D01*
X11121Y10495D01*
X11301Y10395D02*
X11221D01*
X11301Y10475D01*
Y10495D01*
X11281Y10515D01*
X11241D01*
X11221Y10495D01*
X11714Y11954D02*
X11689Y11980D01*
X11638D01*
X11612Y11954D01*
Y11853D01*
X11638Y11828D01*
X11689D01*
X11714Y11853D01*
X11765Y11980D02*
X11866D01*
Y11954D01*
X11765Y11853D01*
Y11828D01*
X13499Y11808D02*
X13525Y11833D01*
Y11884D01*
X13499Y11909D01*
X13398D01*
X13373Y11884D01*
Y11833D01*
X13398Y11808D01*
X13525Y11655D02*
X13499Y11706D01*
X13449Y11757D01*
X13398D01*
X13373Y11732D01*
Y11681D01*
X13398Y11655D01*
X13423D01*
X13449Y11681D01*
Y11757D01*
X13279Y11808D02*
X13305Y11833D01*
Y11884D01*
X13279Y11909D01*
X13178D01*
X13153Y11884D01*
Y11833D01*
X13178Y11808D01*
X13305Y11655D02*
Y11757D01*
X13229D01*
X13254Y11706D01*
Y11681D01*
X13229Y11655D01*
X13178D01*
X13153Y11681D01*
Y11732D01*
X13178Y11757D01*
X13069Y11806D02*
X13095Y11831D01*
Y11882D01*
X13069Y11907D01*
X12968D01*
X12943Y11882D01*
Y11831D01*
X12968Y11806D01*
X12943Y11679D02*
X13095D01*
X13019Y11755D01*
Y11654D01*
D16*
X1086Y10131D02*
X1109Y10069D01*
X1151Y10049D01*
X1171Y10092D01*
X1148Y10154D01*
X1180Y10166D02*
X1214Y10072D01*
X1261Y10089D01*
X1271Y10110D01*
X1248Y10173D01*
X1227Y10183D01*
X1180Y10166D01*
X1355Y10123D02*
X1321Y10217D01*
X1291Y10153D01*
X1353Y10176D01*
X1408Y10124D02*
X1470Y10147D01*
X1507Y10143D02*
X1473Y10237D01*
X1520Y10254D01*
X1541Y10244D01*
X1553Y10213D01*
X1543Y10191D01*
X1496Y10174D01*
X1556Y10302D02*
X1590Y10208D01*
X1637Y10226D01*
X1647Y10247D01*
X1641Y10263D01*
X1635Y10278D01*
X1614Y10288D01*
X1567Y10271D01*
X1119Y11506D02*
X1096Y11444D01*
X1116Y11401D01*
X1159Y11421D01*
X1182Y11484D01*
X1213Y11472D02*
X1179Y11378D01*
X1226Y11361D01*
X1247Y11371D01*
X1270Y11434D01*
X1260Y11455D01*
X1213Y11472D01*
X1320Y11327D02*
X1354Y11421D01*
X1290Y11391D01*
X1353Y11368D01*
X1361Y11294D02*
X1424Y11271D01*
X1558Y11347D02*
X1523Y11253D01*
X1476Y11270D01*
X1466Y11291D01*
X1478Y11323D01*
X1499Y11333D01*
X1546Y11316D01*
X1589Y11335D02*
X1555Y11242D01*
X1602Y11224D01*
X1623Y11234D01*
X1629Y11250D01*
X1634Y11266D01*
X1624Y11287D01*
X1577Y11304D01*
X1835Y10472D02*
X1801Y10566D01*
X1848Y10584D01*
X1869Y10574D01*
X1881Y10542D01*
X1871Y10521D01*
X1824Y10504D01*
X1855Y10515D02*
X1898Y10495D01*
X1929Y10507D02*
X1960Y10518D01*
X1945Y10512D01*
X1910Y10606D01*
X1900Y10585D01*
X2036Y10652D02*
X2010Y10625D01*
X1990Y10582D01*
X2002Y10551D01*
X2023Y10541D01*
X2054Y10552D01*
X2064Y10574D01*
X2058Y10589D01*
X2037Y10599D01*
X1990Y10582D01*
X2107Y10554D02*
X2169Y10577D01*
X2206Y10572D02*
X2172Y10666D01*
X2219Y10683D01*
X2241Y10673D01*
X2252Y10642D01*
X2242Y10621D01*
X2195Y10604D01*
X2255Y10732D02*
X2289Y10638D01*
X2336Y10655D01*
X2346Y10676D01*
X2340Y10692D01*
X2335Y10708D01*
X2313Y10717D01*
X2266Y10700D01*
X1808Y10975D02*
X1842Y11069D01*
X1889Y11052D01*
X1899Y11030D01*
X1887Y10999D01*
X1866Y10989D01*
X1819Y11006D01*
X1850Y10995D02*
X1870Y10952D01*
X1901Y10941D02*
X1933Y10929D01*
X1917Y10935D01*
X1951Y11029D01*
X1930Y11019D01*
X2077Y10983D02*
X2040Y10979D01*
X1997Y10959D01*
X1985Y10928D01*
X1995Y10907D01*
X2027Y10895D01*
X2048Y10905D01*
X2054Y10921D01*
X2044Y10942D01*
X1997Y10959D01*
X2068Y10862D02*
X2131Y10840D01*
X2264Y10915D02*
X2230Y10821D01*
X2183Y10838D01*
X2173Y10860D01*
X2185Y10891D01*
X2206Y10901D01*
X2253Y10884D01*
X2296Y10904D02*
X2262Y10810D01*
X2309Y10793D01*
X2330Y10803D01*
X2336Y10818D01*
X2341Y10834D01*
X2331Y10855D01*
X2284Y10872D01*
X850Y12574D02*
X944Y12539D01*
X969Y12551D01*
X983Y12589D01*
X971Y12614D01*
X877Y12649D01*
X1004Y12645D02*
X1017Y12683D01*
X1010Y12664D01*
X898Y12705D01*
X910Y12679D01*
X944Y12773D02*
X932Y12799D01*
X946Y12837D01*
X971Y12849D01*
X990Y12842D01*
X1002Y12816D01*
X1027Y12828D01*
X1046Y12821D01*
X1058Y12796D01*
X1045Y12758D01*
X1019Y12746D01*
X1000Y12753D01*
X988Y12778D01*
X963Y12767D01*
X944Y12773D01*
X988Y12778D02*
X1002Y12816D01*
X1098Y12845D02*
X1125Y12920D01*
X1034Y13081D02*
X1147Y13040D01*
X1127Y12983D01*
X1101Y12971D01*
X1063Y12985D01*
X1051Y13011D01*
X1072Y13067D01*
X1048Y13118D02*
X1161Y13077D01*
X1181Y13134D01*
X1169Y13159D01*
X1151Y13166D01*
X1132Y13173D01*
X1106Y13161D01*
X1086Y13105D01*
X2248Y10539D02*
X2271Y10476D01*
X2314Y10456D01*
X2334Y10499D01*
X2311Y10562D01*
X2342Y10573D02*
X2376Y10479D01*
X2423Y10496D01*
X2433Y10518D01*
X2411Y10580D01*
X2389Y10590D01*
X2342Y10573D01*
X2533Y10536D02*
X2470Y10513D01*
X2510Y10599D01*
X2505Y10614D01*
X2483Y10624D01*
X2452Y10613D01*
X2442Y10592D01*
X2570Y10532D02*
X2633Y10555D01*
X2670Y10550D02*
X2635Y10644D01*
X2682Y10661D01*
X2704Y10652D01*
X2715Y10620D01*
X2705Y10599D01*
X2658Y10582D01*
X2718Y10710D02*
X2752Y10616D01*
X2799Y10633D01*
X2809Y10654D01*
X2803Y10670D01*
X2798Y10686D01*
X2776Y10696D01*
X2729Y10679D01*
X1799Y11671D02*
X1776Y11609D01*
X1796Y11566D01*
X1839Y11586D01*
X1862Y11649D01*
X1893Y11637D02*
X1859Y11543D01*
X1906Y11526D01*
X1927Y11536D01*
X1950Y11599D01*
X1940Y11620D01*
X1893Y11637D01*
X2016Y11486D02*
X1953Y11509D01*
X2038Y11549D01*
X2044Y11565D01*
X2034Y11586D01*
X2003Y11597D01*
X1981Y11587D01*
X2041Y11459D02*
X2104Y11436D01*
X2238Y11512D02*
X2203Y11418D01*
X2156Y11435D01*
X2146Y11456D01*
X2158Y11488D01*
X2179Y11498D01*
X2226Y11481D01*
X2269Y11500D02*
X2235Y11407D01*
X2282Y11389D01*
X2303Y11399D01*
X2309Y11415D01*
X2314Y11431D01*
X2304Y11452D01*
X2257Y11469D01*
X2353Y9634D02*
X2376Y9571D01*
X2419Y9551D01*
X2439Y9594D01*
X2416Y9657D01*
X2447Y9668D02*
X2481Y9574D01*
X2528Y9591D01*
X2538Y9613D01*
X2516Y9675D01*
X2494Y9685D01*
X2447Y9668D01*
X2547Y9687D02*
X2557Y9708D01*
X2588Y9719D01*
X2610Y9709D01*
X2615Y9694D01*
X2605Y9672D01*
X2590Y9667D01*
X2605Y9672D01*
X2627Y9662D01*
X2632Y9647D01*
X2622Y9625D01*
X2591Y9614D01*
X2570Y9624D01*
X2675Y9627D02*
X2738Y9650D01*
X2775Y9645D02*
X2740Y9739D01*
X2787Y9756D01*
X2809Y9747D01*
X2820Y9715D01*
X2810Y9694D01*
X2763Y9677D01*
X2823Y9805D02*
X2857Y9711D01*
X2904Y9728D01*
X2914Y9749D01*
X2908Y9765D01*
X2903Y9781D01*
X2881Y9791D01*
X2834Y9774D01*
X1719Y11496D02*
X1696Y11434D01*
X1716Y11391D01*
X1759Y11411D01*
X1782Y11474D01*
X1813Y11462D02*
X1779Y11368D01*
X1826Y11351D01*
X1847Y11361D01*
X1870Y11424D01*
X1860Y11445D01*
X1813Y11462D01*
X1901Y11412D02*
X1923Y11422D01*
X1954Y11411D01*
X1964Y11390D01*
X1958Y11374D01*
X1937Y11364D01*
X1921Y11370D01*
X1937Y11364D01*
X1947Y11343D01*
X1941Y11327D01*
X1920Y11317D01*
X1889Y11328D01*
X1879Y11350D01*
X1961Y11284D02*
X2024Y11261D01*
X2158Y11337D02*
X2123Y11243D01*
X2076Y11260D01*
X2066Y11281D01*
X2078Y11313D01*
X2099Y11323D01*
X2146Y11306D01*
X2189Y11325D02*
X2155Y11232D01*
X2202Y11214D01*
X2223Y11224D01*
X2229Y11240D01*
X2234Y11256D01*
X2224Y11277D01*
X2177Y11294D01*
X1227Y9760D02*
X1193Y9854D01*
X1240Y9871D01*
X1262Y9861D01*
X1273Y9830D01*
X1263Y9808D01*
X1216Y9791D01*
X1247Y9803D02*
X1290Y9783D01*
X1321Y9794D02*
X1353Y9806D01*
X1337Y9800D01*
X1303Y9894D01*
X1293Y9872D01*
X1371Y9901D02*
X1381Y9922D01*
X1412Y9934D01*
X1434Y9924D01*
X1457Y9861D01*
X1447Y9840D01*
X1415Y9828D01*
X1394Y9838D01*
X1371Y9901D01*
X2070Y9897D02*
X2036Y9991D01*
X2083Y10009D01*
X2104Y9999D01*
X2116Y9967D01*
X2106Y9946D01*
X2059Y9929D01*
X2090Y9940D02*
X2133Y9920D01*
X2158Y9947D02*
X2180Y9937D01*
X2211Y9949D01*
X2221Y9970D01*
X2198Y10033D01*
X2177Y10043D01*
X2145Y10031D01*
X2135Y10010D01*
X2141Y9994D01*
X2162Y9984D01*
X2209Y10001D01*
X2898Y10418D02*
X2863Y10511D01*
X2910Y10529D01*
X2932Y10519D01*
X2943Y10487D01*
X2933Y10466D01*
X2886Y10449D01*
X2917Y10460D02*
X2960Y10440D01*
X2991Y10452D02*
X3023Y10463D01*
X3007Y10457D01*
X2973Y10551D01*
X2963Y10530D01*
X3036Y10574D02*
X3098Y10597D01*
X3104Y10581D01*
X3064Y10496D01*
X3070Y10480D01*
X3169Y10499D02*
X3232Y10522D01*
X3269Y10517D02*
X3235Y10611D01*
X3282Y10628D01*
X3303Y10618D01*
X3315Y10587D01*
X3305Y10566D01*
X3258Y10549D01*
X3317Y10677D02*
X3352Y10583D01*
X3399Y10600D01*
X3408Y10621D01*
X3403Y10637D01*
X3397Y10653D01*
X3376Y10662D01*
X3329Y10645D01*
X2910Y11135D02*
X2944Y11229D01*
X2991Y11212D01*
X3001Y11190D01*
X2990Y11159D01*
X2968Y11149D01*
X2921Y11166D01*
X2953Y11155D02*
X2973Y11112D01*
X3004Y11101D02*
X3035Y11089D01*
X3020Y11095D01*
X3054Y11189D01*
X3032Y11179D01*
X3116Y11166D02*
X3179Y11143D01*
X3173Y11128D01*
X3088Y11088D01*
X3082Y11072D01*
X3170Y11022D02*
X3233Y11000D01*
X3367Y11075D02*
X3333Y10981D01*
X3286Y10998D01*
X3276Y11020D01*
X3287Y11051D01*
X3309Y11061D01*
X3356Y11044D01*
X3398Y11064D02*
X3364Y10970D01*
X3411Y10953D01*
X3432Y10963D01*
X3438Y10978D01*
X3444Y10994D01*
X3434Y11015D01*
X3387Y11032D01*
X2955Y10245D02*
X2921Y10339D01*
X2968Y10356D01*
X2989Y10346D01*
X3001Y10315D01*
X2991Y10293D01*
X2944Y10276D01*
X2975Y10288D02*
X3018Y10268D01*
X3049Y10279D02*
X3080Y10291D01*
X3065Y10285D01*
X3030Y10379D01*
X3020Y10357D01*
X3099Y10386D02*
X3109Y10407D01*
X3140Y10419D01*
X3161Y10409D01*
X3167Y10393D01*
X3157Y10372D01*
X3178Y10362D01*
X3184Y10346D01*
X3174Y10325D01*
X3143Y10313D01*
X3122Y10323D01*
X3116Y10339D01*
X3126Y10360D01*
X3104Y10370D01*
X3099Y10386D01*
X3126Y10360D02*
X3157Y10372D01*
X3227Y10326D02*
X3289Y10349D01*
X3326Y10345D02*
X3292Y10439D01*
X3339Y10456D01*
X3361Y10446D01*
X3372Y10415D01*
X3362Y10393D01*
X3315Y10376D01*
X3375Y10504D02*
X3409Y10410D01*
X3456Y10427D01*
X3466Y10449D01*
X3460Y10464D01*
X3455Y10480D01*
X3433Y10490D01*
X3386Y10473D01*
X2848Y10955D02*
X2882Y11049D01*
X2929Y11032D01*
X2939Y11010D01*
X2927Y10979D01*
X2906Y10969D01*
X2859Y10986D01*
X2890Y10975D02*
X2910Y10932D01*
X2941Y10921D02*
X2973Y10909D01*
X2957Y10915D01*
X2991Y11009D01*
X2970Y10999D01*
X3048Y10971D02*
X3070Y10981D01*
X3101Y10969D01*
X3111Y10948D01*
X3105Y10932D01*
X3084Y10922D01*
X3094Y10901D01*
X3088Y10885D01*
X3067Y10875D01*
X3035Y10887D01*
X3025Y10908D01*
X3031Y10924D01*
X3052Y10934D01*
X3043Y10955D01*
X3048Y10971D01*
X3052Y10934D02*
X3084Y10922D01*
X3108Y10842D02*
X3171Y10820D01*
X3304Y10895D02*
X3270Y10801D01*
X3223Y10818D01*
X3213Y10840D01*
X3225Y10871D01*
X3246Y10881D01*
X3293Y10864D01*
X3336Y10884D02*
X3302Y10790D01*
X3349Y10773D01*
X3370Y10783D01*
X3376Y10798D01*
X3381Y10814D01*
X3371Y10835D01*
X3324Y10852D01*
X1047Y8274D02*
X1141Y8308D01*
X1153Y8334D01*
X1139Y8371D01*
X1114Y8383D01*
X1020Y8349D01*
X1119Y8428D02*
X1105Y8465D01*
X1112Y8447D01*
X999Y8405D01*
X1025Y8394D01*
X991Y8487D02*
X965Y8499D01*
X952Y8537D01*
X963Y8563D01*
X982Y8569D01*
X1008Y8558D01*
X1020Y8583D01*
X1039Y8590D01*
X1064Y8578D01*
X1078Y8540D01*
X1066Y8515D01*
X1047Y8508D01*
X1022Y8520D01*
X1010Y8494D01*
X991Y8487D01*
X1022Y8520D02*
X1008Y8558D01*
X1063Y8641D02*
X1035Y8716D01*
X1040Y8761D02*
X928Y8720D01*
X907Y8776D01*
X919Y8802D01*
X957Y8815D01*
X982Y8803D01*
X1003Y8747D01*
X849Y8819D02*
X962Y8860D01*
X941Y8916D01*
X916Y8928D01*
X897Y8921D01*
X878Y8914D01*
X866Y8889D01*
X887Y8832D01*
X1699Y9846D02*
X1678Y9856D01*
X1646Y9845D01*
X1637Y9823D01*
X1659Y9761D01*
X1681Y9751D01*
X1712Y9762D01*
X1722Y9783D01*
X1730Y9857D02*
X1740Y9879D01*
X1772Y9890D01*
X1793Y9880D01*
X1799Y9865D01*
X1789Y9843D01*
X1773Y9838D01*
X1789Y9843D01*
X1810Y9833D01*
X1816Y9818D01*
X1806Y9796D01*
X1775Y9785D01*
X1753Y9795D01*
D17*
X4797Y10893D02*
X4731D01*
X4697Y10859D01*
X4731Y10826D01*
X4797D01*
Y10793D02*
X4697D01*
Y10743D01*
X4714Y10726D01*
X4781D01*
X4797Y10743D01*
Y10793D01*
X4697Y10693D02*
Y10659D01*
Y10676D01*
X4797D01*
X4781Y10693D01*
X9150Y11475D02*
X9050D01*
Y11425D01*
X9067Y11408D01*
X9133D01*
X9150Y11425D01*
Y11475D01*
X9050Y11308D02*
Y11375D01*
X9117Y11308D01*
X9133D01*
X9150Y11325D01*
Y11358D01*
X9133Y11375D01*
X9815Y10485D02*
X9715D01*
Y10435D01*
X9732Y10418D01*
X9798D01*
X9815Y10435D01*
Y10485D01*
X9715Y10385D02*
Y10352D01*
Y10368D01*
X9815D01*
X9798Y10385D01*
X9912Y9921D02*
X9895Y9937D01*
X9862D01*
X9845Y9921D01*
Y9854D01*
X9862Y9838D01*
X9895D01*
X9912Y9854D01*
X9945Y9838D02*
X9978D01*
X9962D01*
Y9937D01*
X9945Y9921D01*
X10028Y9838D02*
X10062D01*
X10045D01*
Y9937D01*
X10028Y9921D01*
X9914Y9768D02*
X9897Y9785D01*
X9864D01*
X9847Y9768D01*
Y9702D01*
X9864Y9685D01*
X9897D01*
X9914Y9702D01*
X9947Y9685D02*
X9981D01*
X9964D01*
Y9785D01*
X9947Y9768D01*
X10031D02*
X10047Y9785D01*
X10081D01*
X10097Y9768D01*
Y9702D01*
X10081Y9685D01*
X10047D01*
X10031Y9702D01*
Y9768D01*
D18*
X9582Y11647D02*
X9595Y11660D01*
Y11687D01*
X9582Y11700D01*
X9528D01*
X9515Y11687D01*
Y11660D01*
X9528Y11647D01*
X9515Y11620D02*
Y11593D01*
Y11607D01*
X9595D01*
X9582Y11620D01*
Y11553D02*
X9595Y11540D01*
Y11513D01*
X9582Y11500D01*
X9568D01*
X9555Y11513D01*
Y11527D01*
Y11513D01*
X9542Y11500D01*
X9528D01*
X9515Y11513D01*
Y11540D01*
X9528Y11553D01*
D19*
X14049Y9800D02*
Y11900D01*
X13749D02*
X14049D01*
X13749Y9800D02*
Y11900D01*
Y9800D02*
X14049D01*
X4367Y15480D02*
X4446Y15549D01*
X4280Y15422D02*
X4367Y15480D01*
X4186Y15375D02*
X4280Y15422D01*
X4087Y15342D02*
X4186Y15375D01*
X3984Y15321D02*
X4087Y15342D01*
X3880Y15314D02*
X3984Y15321D01*
X2574Y15314D02*
X3880D01*
X2481Y15309D02*
X2574Y15314D01*
X2391Y15293D02*
X2481Y15309D01*
X2302Y15267D02*
X2391Y15293D01*
X2217Y15231D02*
X2302Y15267D01*
X2137Y15185D02*
X2217Y15231D01*
X2063Y15130D02*
X2137Y15185D01*
X1995Y15067D02*
X2063Y15130D01*
X1936Y14997D02*
X1995Y15067D01*
X1884Y14920D02*
X1936Y14997D01*
X1842Y14838D02*
X1884Y14920D01*
X1703Y14508D02*
X1842Y14838D01*
X1576Y14173D02*
X1703Y14508D01*
X1555Y14097D02*
X1576Y14173D01*
X1547Y14019D02*
X1555Y14097D01*
X1547Y14019D02*
X1550Y13941D01*
X1566Y13865D01*
X1594Y13792D01*
X1633Y13724D01*
X1681Y13662D01*
X1739Y13610D01*
X1804Y13567D01*
X1876Y13534D01*
X4002Y12760D01*
X4113Y12727D01*
X4228Y12707D01*
X4344Y12700D01*
X20027D01*
X20092Y12705D01*
X20156Y12721D01*
X20216Y12748D01*
X20272Y12784D01*
X20320Y12828D01*
X20361Y12880D01*
X20392Y12938D01*
X20414Y13000D01*
X20425Y13064D01*
X20426Y13130D01*
X20415Y13195D02*
X20426Y13130D01*
X20327Y13531D02*
X20415Y13195D01*
X20226Y13864D02*
X20327Y13531D01*
X20114Y14193D02*
X20226Y13864D01*
X19990Y14518D02*
X20114Y14193D01*
X19855Y14838D02*
X19990Y14518D01*
X19813Y14920D02*
X19855Y14838D01*
X19761Y14997D02*
X19813Y14920D01*
X19702Y15067D02*
X19761Y14997D01*
X19634Y15130D02*
X19702Y15067D01*
X19560Y15185D02*
X19634Y15130D01*
X19480Y15231D02*
X19560Y15185D01*
X19395Y15267D02*
X19480Y15231D01*
X19306Y15293D02*
X19395Y15267D01*
X19216Y15309D02*
X19306Y15293D01*
X19123Y15314D02*
X19216Y15309D01*
X17817Y15314D02*
X19123D01*
X17713Y15321D02*
X17817Y15314D01*
X17610Y15342D02*
X17713Y15321D01*
X17511Y15375D02*
X17610Y15342D01*
X17417Y15422D02*
X17511Y15375D01*
X17330Y15480D02*
X17417Y15422D01*
X17251Y15549D02*
X17330Y15480D01*
X16734Y16066D02*
X17251Y15549D01*
X16656Y16135D02*
X16734Y16066D01*
X16569Y16193D02*
X16656Y16135D01*
X16475Y16239D02*
X16569Y16193D01*
X16376Y16273D02*
X16475Y16239D01*
X16273Y16293D02*
X16376Y16273D01*
X16169Y16300D02*
X16273Y16293D01*
X15199Y16300D02*
X16169D01*
X15154Y16295D02*
X15199Y16300D01*
X15112Y16280D02*
X15154Y16295D01*
X15074Y16256D02*
X15112Y16280D01*
X15042Y16225D02*
X15074Y16256D01*
X15018Y16187D02*
X15042Y16225D01*
X15004Y16145D02*
X15018Y16187D01*
X14999Y16100D02*
X15004Y16145D01*
X14999Y16050D02*
Y16100D01*
X14992Y15981D02*
X14999Y16050D01*
X14974Y15913D02*
X14992Y15981D01*
X14945Y15850D02*
X14974Y15913D01*
X14905Y15793D02*
X14945Y15850D01*
X14856Y15744D02*
X14905Y15793D01*
X14799Y15704D02*
X14856Y15744D01*
X14735Y15674D02*
X14799Y15704D01*
X14668Y15656D02*
X14735Y15674D01*
X14599Y15650D02*
X14668Y15656D01*
X14099Y15650D02*
X14599D01*
X14029Y15656D02*
X14099Y15650D01*
X13962Y15674D02*
X14029Y15656D01*
X13899Y15704D02*
X13962Y15674D01*
X13841Y15744D02*
X13899Y15704D01*
X13792Y15793D02*
X13841Y15744D01*
X13752Y15850D02*
X13792Y15793D01*
X13723Y15913D02*
X13752Y15850D01*
X13705Y15981D02*
X13723Y15913D01*
X13699Y16050D02*
X13705Y15981D01*
X13699Y16050D02*
Y16600D01*
X13692Y16669D02*
X13699Y16600D01*
X13674Y16737D02*
X13692Y16669D01*
X13645Y16800D02*
X13674Y16737D01*
X13605Y16857D02*
X13645Y16800D01*
X13556Y16906D02*
X13605Y16857D01*
X13499Y16946D02*
X13556Y16906D01*
X13435Y16976D02*
X13499Y16946D01*
X13368Y16994D02*
X13435Y16976D01*
X13299Y17000D02*
X13368Y16994D01*
X8399Y17000D02*
X13299D01*
X8329Y16994D02*
X8399Y17000D01*
X8262Y16976D02*
X8329Y16994D01*
X8199Y16946D02*
X8262Y16976D01*
X8141Y16906D02*
X8199Y16946D01*
X8092Y16857D02*
X8141Y16906D01*
X8052Y16800D02*
X8092Y16857D01*
X8023Y16737D02*
X8052Y16800D01*
X8005Y16669D02*
X8023Y16737D01*
X7999Y16600D02*
X8005Y16669D01*
X7999Y16050D02*
Y16600D01*
X7992Y15981D02*
X7999Y16050D01*
X7974Y15913D02*
X7992Y15981D01*
X7945Y15850D02*
X7974Y15913D01*
X7905Y15793D02*
X7945Y15850D01*
X7856Y15744D02*
X7905Y15793D01*
X7799Y15704D02*
X7856Y15744D01*
X7735Y15674D02*
X7799Y15704D01*
X7668Y15656D02*
X7735Y15674D01*
X7599Y15650D02*
X7668Y15656D01*
X7099Y15650D02*
X7599D01*
X7029Y15656D02*
X7099Y15650D01*
X6962Y15674D02*
X7029Y15656D01*
X6899Y15704D02*
X6962Y15674D01*
X6841Y15744D02*
X6899Y15704D01*
X6792Y15793D02*
X6841Y15744D01*
X6752Y15850D02*
X6792Y15793D01*
X6723Y15913D02*
X6752Y15850D01*
X6705Y15981D02*
X6723Y15913D01*
X6699Y16050D02*
X6705Y15981D01*
X6699Y16050D02*
Y16100D01*
X6693Y16145D02*
X6699Y16100D01*
X6679Y16187D02*
X6693Y16145D01*
X6655Y16225D02*
X6679Y16187D01*
X6623Y16256D02*
X6655Y16225D01*
X6585Y16280D02*
X6623Y16256D01*
X6543Y16295D02*
X6585Y16280D01*
X6499Y16300D02*
X6543Y16295D01*
X5528Y16300D02*
X6499D01*
X5424Y16293D02*
X5528Y16300D01*
X5321Y16273D02*
X5424Y16293D01*
X5222Y16239D02*
X5321Y16273D01*
X5128Y16193D02*
X5222Y16239D01*
X5041Y16135D02*
X5128Y16193D01*
X4963Y16066D02*
X5041Y16135D01*
X4446Y15549D02*
X4963Y16066D01*
X1883Y7940D02*
X1948Y7970D01*
X1822Y7901D02*
X1883Y7940D01*
X1767Y7854D02*
X1822Y7901D01*
X1720Y7800D02*
X1767Y7854D01*
X1681Y7739D02*
X1720Y7800D01*
X1651Y7674D02*
X1681Y7739D01*
X1630Y7604D02*
X1651Y7674D01*
X1620Y7533D02*
X1630Y7604D01*
X1620Y7533D02*
X1621Y7461D01*
X1632Y7390D01*
X1653Y7321D01*
X1842Y6862D01*
X1884Y6780D01*
X1936Y6703D01*
X1995Y6633D01*
X2063Y6570D01*
X2137Y6515D01*
X2217Y6469D01*
X2302Y6433D01*
X2391Y6407D01*
X2481Y6391D01*
X2574Y6386D01*
X3880D01*
X3984Y6379D01*
X4087Y6358D01*
X4186Y6325D01*
X4280Y6278D01*
X4367Y6220D01*
X4446Y6151D01*
X6150Y4447D01*
X6219Y4368D01*
X6277Y4281D01*
X6323Y4188D01*
X6357Y4088D01*
X6377Y3986D01*
X6384Y3881D01*
Y2575D02*
Y3881D01*
Y2575D02*
X6389Y2483D01*
X6405Y2392D01*
X6432Y2304D01*
X6468Y2219D01*
X6514Y2139D01*
X6568Y2064D01*
X6631Y1997D01*
X6701Y1937D01*
X6778Y1886D01*
X6860Y1844D01*
X7175Y1710D01*
X7495Y1588D01*
X7819Y1478D01*
X8146Y1378D01*
X8477Y1290D01*
X8810Y1213D01*
X9146Y1148D01*
X9484Y1095D01*
X9824Y1053D01*
X10165Y1024D01*
X10506Y1006D01*
X10849Y1000D01*
X11191Y1006D01*
X11532Y1024D01*
X11873Y1053D01*
X12213Y1095D01*
X12551Y1148D01*
X12887Y1213D01*
X13220Y1290D01*
X13551Y1378D01*
X13878Y1478D01*
X14202Y1588D01*
X14522Y1710D01*
X14837Y1844D01*
X14919Y1886D01*
X14996Y1937D01*
X15066Y1997D01*
X15129Y2064D01*
X15183Y2139D01*
X15229Y2219D01*
X15265Y2304D01*
X15292Y2392D01*
X15308Y2483D01*
X15313Y2575D01*
Y3881D01*
X15320Y3986D01*
X15340Y4088D01*
X15374Y4188D01*
X15420Y4281D01*
X15478Y4368D01*
X15547Y4447D01*
X17251Y6151D01*
X17330Y6220D01*
X17417Y6278D01*
X17511Y6325D01*
X17610Y6358D01*
X17713Y6379D01*
X17817Y6386D01*
X19123D01*
X19216Y6391D01*
X19306Y6407D01*
X19395Y6433D01*
X19480Y6469D01*
X19560Y6515D01*
X19634Y6570D01*
X19702Y6633D01*
X19761Y6703D01*
X19813Y6780D01*
X19855Y6862D01*
X20002Y7213D01*
X20136Y7569D01*
X20256Y7931D01*
X20362Y8296D01*
X20374Y8362D01*
X20374Y8428D01*
X20364Y8494D02*
X20374Y8428D01*
X20343Y8557D02*
X20364Y8494D01*
X20312Y8616D02*
X20343Y8557D01*
X20271Y8669D02*
X20312Y8616D01*
X20223Y8714D02*
X20271Y8669D01*
X20167Y8751D02*
X20223Y8714D01*
X20106Y8778D02*
X20167Y8751D01*
X20042Y8794D02*
X20106Y8778D01*
X19975Y8800D02*
X20042Y8794D01*
X4406Y8800D02*
X19975D01*
X4290Y8793D02*
X4406Y8800D01*
X4176Y8773D02*
X4290Y8793D01*
X4064Y8740D02*
X4176Y8773D01*
X1948Y7970D02*
X4064Y8740D01*
X7649Y11900D02*
X7949D01*
X7649Y9800D02*
Y11900D01*
Y9800D02*
X7949D01*
Y11900D01*
X5607Y20350D02*
X5674Y20381D01*
X5745Y20401D01*
X5819Y20411D01*
X5893Y20410D01*
X5966Y20398D01*
X6036Y20376D01*
X6103Y20343D01*
X6163Y20300D01*
X6217Y20250D01*
X6263Y20192D01*
X6300Y20127D01*
X6327Y20058D01*
X6343Y19986D01*
X6349Y19912D01*
Y19545D02*
Y19912D01*
Y19545D02*
X6355Y19476D01*
X6372Y19409D01*
X6402Y19346D01*
X6441Y19289D01*
X7229Y18344D01*
X7278Y18294D01*
X7335Y18254D01*
X7399Y18224D01*
X7466Y18206D01*
X7536Y18200D01*
X14183D01*
X14261Y18208D01*
X14336Y18230D01*
X14405Y18267D01*
X14466Y18317D01*
X15231Y19083D01*
X15281Y19143D01*
X15318Y19213D01*
X15341Y19288D01*
X15349Y19366D01*
Y19912D01*
X15354Y19986D01*
X15370Y20058D01*
X15397Y20127D01*
X15434Y20192D01*
X15480Y20250D01*
X15534Y20300D01*
X15594Y20343D01*
X15661Y20376D01*
X15731Y20398D01*
X15804Y20410D01*
X15878Y20411D01*
X15952Y20401D01*
X16023Y20381D01*
X16090Y20350D01*
X16379Y20185D01*
X16663Y20011D01*
X16941Y19828D01*
X17213Y19637D01*
X17480Y19438D01*
X17740Y19231D01*
X17993Y19015D01*
X18240Y18792D01*
X18481Y18562D01*
X18713Y18324D01*
X18939Y18080D01*
X19157Y17828D01*
X19367Y17570D01*
X19569Y17306D01*
X19763Y17035D01*
X19948Y16759D01*
X20125Y16477D01*
X20293Y16190D01*
X20453Y15898D01*
X20603Y15601D01*
X20744Y15300D01*
X20876Y14994D01*
X20998Y14685D01*
X21111Y14372D01*
X21214Y14056D01*
X21308Y13736D01*
X21391Y13414D01*
X21465Y13090D01*
X21528Y12763D01*
X21582Y12435D01*
X21626Y12105D01*
X21659Y11774D01*
X21682Y11442D01*
X21695Y11109D01*
X21698Y10777D01*
X21691Y10444D02*
X21698Y10777D01*
X21673Y10112D02*
X21691Y10444D01*
X21646Y9780D02*
X21673Y10112D01*
X21608Y9450D02*
X21646Y9780D01*
X21560Y9120D02*
X21608Y9450D01*
X21502Y8793D02*
X21560Y9120D01*
X21434Y8467D02*
X21502Y8793D01*
X21356Y8144D02*
X21434Y8467D01*
X21268Y7823D02*
X21356Y8144D01*
X21170Y7505D02*
X21268Y7823D01*
X21062Y7190D02*
X21170Y7505D01*
X20945Y6878D02*
X21062Y7190D01*
X20819Y6571D02*
X20945Y6878D01*
X20683Y6267D02*
X20819Y6571D01*
X20538Y5968D02*
X20683Y6267D01*
X20384Y5673D02*
X20538Y5968D01*
X20220Y5383D02*
X20384Y5673D01*
X20048Y5098D02*
X20220Y5383D01*
X19868Y4819D02*
X20048Y5098D01*
X19678Y4545D02*
X19868Y4819D01*
X19481Y4277D02*
X19678Y4545D01*
X19275Y4015D02*
X19481Y4277D01*
X19062Y3760D02*
X19275Y4015D01*
X18841Y3512D02*
X19062Y3760D01*
X18612Y3270D02*
X18841Y3512D01*
X18376Y3036D02*
X18612Y3270D01*
X18133Y2809D02*
X18376Y3036D01*
X17883Y2589D02*
X18133Y2809D01*
X17626Y2377D02*
X17883Y2589D01*
X17363Y2173D02*
X17626Y2377D01*
X17094Y1978D02*
X17363Y2173D01*
X16819Y1790D02*
X17094Y1978D01*
X16538Y1612D02*
X16819Y1790D01*
X16252Y1441D02*
X16538Y1612D01*
X15961Y1280D02*
X16252Y1441D01*
X15665Y1128D02*
X15961Y1280D01*
X15365Y985D02*
X15665Y1128D01*
X15060Y851D02*
X15365Y985D01*
X14752Y726D02*
X15060Y851D01*
X14440Y612D02*
X14752Y726D01*
X14124Y506D02*
X14440Y612D01*
X13805Y411D02*
X14124Y506D01*
X13484Y325D02*
X13805Y411D01*
X13160Y249D02*
X13484Y325D01*
X12834Y183D02*
X13160Y249D01*
X12506Y127D02*
X12834Y183D01*
X12176Y82D02*
X12506Y127D01*
X11845Y46D02*
X12176Y82D01*
X11514Y20D02*
X11845Y46D01*
X11181Y5D02*
X11514Y20D01*
X10849Y-0D02*
X11181Y5D01*
X10516D02*
X10849Y-0D01*
X10183Y20D02*
X10516Y5D01*
X9852Y46D02*
X10183Y20D01*
X9521Y82D02*
X9852Y46D01*
X9191Y127D02*
X9521Y82D01*
X8863Y183D02*
X9191Y127D01*
X8537Y249D02*
X8863Y183D01*
X8213Y325D02*
X8537Y249D01*
X7892Y411D02*
X8213Y325D01*
X7573Y506D02*
X7892Y411D01*
X7257Y612D02*
X7573Y506D01*
X6945Y726D02*
X7257Y612D01*
X6637Y851D02*
X6945Y726D01*
X6332Y985D02*
X6637Y851D01*
X6032Y1128D02*
X6332Y985D01*
X5736Y1280D02*
X6032Y1128D01*
X5445Y1441D02*
X5736Y1280D01*
X5159Y1612D02*
X5445Y1441D01*
X4878Y1790D02*
X5159Y1612D01*
X4603Y1978D02*
X4878Y1790D01*
X4334Y2173D02*
X4603Y1978D01*
X4071Y2377D02*
X4334Y2173D01*
X3814Y2589D02*
X4071Y2377D01*
X3564Y2809D02*
X3814Y2589D01*
X3321Y3036D02*
X3564Y2809D01*
X3085Y3270D02*
X3321Y3036D01*
X2856Y3512D02*
X3085Y3270D01*
X2635Y3760D02*
X2856Y3512D01*
X2422Y4015D02*
X2635Y3760D01*
X2216Y4277D02*
X2422Y4015D01*
X2019Y4545D02*
X2216Y4277D01*
X1829Y4819D02*
X2019Y4545D01*
X1649Y5098D02*
X1829Y4819D01*
X1477Y5383D02*
X1649Y5098D01*
X1313Y5673D02*
X1477Y5383D01*
X1159Y5968D02*
X1313Y5673D01*
X1014Y6267D02*
X1159Y5968D01*
X878Y6571D02*
X1014Y6267D01*
X752Y6878D02*
X878Y6571D01*
X635Y7190D02*
X752Y6878D01*
X527Y7505D02*
X635Y7190D01*
X429Y7823D02*
X527Y7505D01*
X341Y8144D02*
X429Y7823D01*
X263Y8467D02*
X341Y8144D01*
X195Y8793D02*
X263Y8467D01*
X137Y9120D02*
X195Y8793D01*
X89Y9450D02*
X137Y9120D01*
X51Y9780D02*
X89Y9450D01*
X24Y10112D02*
X51Y9780D01*
X6Y10444D02*
X24Y10112D01*
X-1Y10777D02*
X6Y10444D01*
X-1Y10777D02*
X2Y11109D01*
X15Y11442D01*
X38Y11774D01*
X71Y12105D01*
X115Y12435D01*
X169Y12763D01*
X232Y13090D01*
X306Y13414D01*
X389Y13736D01*
X483Y14056D01*
X586Y14372D01*
X699Y14685D01*
X821Y14994D01*
X953Y15300D01*
X1094Y15601D01*
X1244Y15898D01*
X1404Y16190D01*
X1572Y16477D01*
X1749Y16759D01*
X1934Y17035D01*
X2128Y17306D01*
X2330Y17570D01*
X2540Y17828D01*
X2758Y18080D01*
X2984Y18324D01*
X3216Y18562D01*
X3457Y18792D01*
X3704Y19015D01*
X3957Y19231D01*
X4217Y19438D01*
X4484Y19637D01*
X4756Y19828D01*
X5034Y20011D01*
X5318Y20185D01*
X5607Y20350D01*
X14049Y9800D02*
Y11900D01*
X13749D02*
X14049D01*
X13749Y9800D02*
Y11900D01*
Y9800D02*
X14049D01*
X7649Y11900D02*
X7949D01*
X7649Y9800D02*
Y11900D01*
Y9800D02*
X7949D01*
Y11900D01*
M02*
