G04*
G04 #@! TF.GenerationSoftware,Altium Limited,Altium Designer,18.1.7 (191)*
G04*
G04 Layer_Physical_Order=2*
G04 Layer_Color=16711680*
%FSLAX42Y42*%
%MOMM*%
G71*
G01*
G75*
%ADD11C,0.60*%
%ADD19C,0.80*%
%ADD62R,1.02X0.75*%
%ADD70R,0.75X1.02*%
%ADD86R,1.50X0.60*%
%ADD94C,0.30*%
%ADD95C,0.45*%
%ADD96C,1.00*%
%ADD97C,2.00*%
%ADD98C,0.50*%
%ADD99C,0.40*%
%ADD100C,0.70*%
%ADD102C,0.90*%
%ADD103C,1.50*%
%ADD104C,2.00*%
%ADD105P,2.16X8X202.5*%
%ADD106C,3.60*%
%ADD107C,2.50*%
%ADD108C,3.00*%
%ADD109C,0.60*%
%ADD110C,1.27*%
%ADD111C,1.00*%
%ADD112R,0.50X0.65*%
%ADD113R,2.00X0.80*%
%ADD114R,6.25X6.50*%
%ADD115R,2.50X1.20*%
%ADD116R,1.52X3.38*%
%ADD117R,1.70X2.54*%
%ADD118R,0.45X1.90*%
%ADD119R,3.10X2.40*%
G36*
X3991Y12732D02*
X3992Y12731D01*
X3993Y12731D01*
X4104Y12698D01*
X4106Y12697D01*
X4108Y12697D01*
X4222Y12677D01*
X4224Y12677D01*
X4226Y12676D01*
X4342Y12669D01*
X4343Y12670D01*
X4344Y12669D01*
X20027D01*
X20028Y12670D01*
X20029Y12670D01*
X20095Y12675D01*
X20097Y12676D01*
X20100Y12676D01*
X20164Y12692D01*
X20166Y12693D01*
X20168Y12693D01*
X20183Y12700D01*
X21508D01*
X21552Y12430D01*
X21595Y12101D01*
X21629Y11771D01*
X21652Y11440D01*
X21665Y11109D01*
X21668Y10777D01*
X21660Y10445D01*
X21643Y10114D01*
X21615Y9783D01*
X21577Y9454D01*
X21530Y9125D01*
X21472Y8800D01*
X20132D01*
X20119Y8806D01*
X20116Y8807D01*
X20114Y8808D01*
X20049Y8824D01*
X20047Y8824D01*
X20044Y8825D01*
X19978Y8830D01*
X19977Y8830D01*
X19975Y8831D01*
X16615D01*
X16613Y8843D01*
X16634Y8850D01*
X16669Y8869D01*
X16701Y8894D01*
X16723Y8921D01*
X18447D01*
X18448Y8921D01*
X18912D01*
X18944Y8926D01*
X18973Y8938D01*
X18998Y8957D01*
X19396Y9355D01*
X19412D01*
X19475Y9418D01*
Y9434D01*
X19634Y9593D01*
X19654Y9618D01*
X19666Y9647D01*
X19670Y9679D01*
Y10410D01*
Y10930D01*
X19666Y10961D01*
X19654Y10991D01*
X19645Y11002D01*
Y11124D01*
X19453D01*
Y11002D01*
X19444Y10991D01*
X19432Y10961D01*
X19428Y10930D01*
Y10410D01*
Y9729D01*
X19304Y9605D01*
X19288D01*
X19225Y9543D01*
Y9526D01*
X18862Y9164D01*
X18448D01*
X18448Y9164D01*
X16719D01*
X16701Y9186D01*
X16669Y9211D01*
X16634Y9230D01*
X16598Y9241D01*
X16600Y9254D01*
X16970D01*
X17001Y9258D01*
X17031Y9270D01*
X17056Y9289D01*
X17110Y9344D01*
X17123Y9347D01*
Y9347D01*
X17123Y9347D01*
X17788D01*
Y10038D01*
X17123D01*
Y9699D01*
X17101Y9677D01*
X17099Y9677D01*
X17089Y9683D01*
X17091Y9693D01*
X17091Y9693D01*
Y10033D01*
X17167Y10109D01*
X17937D01*
Y10097D01*
X18020D01*
X18027Y10097D01*
X18039Y10097D01*
X18048Y10089D01*
Y10001D01*
X17960D01*
Y9842D01*
X18250D01*
Y10001D01*
X18160D01*
Y10150D01*
Y10218D01*
X18175D01*
Y10333D01*
X18033D01*
Y10218D01*
X18037D01*
X18042Y10206D01*
X18039Y10203D01*
X18033D01*
X18020Y10203D01*
X17937D01*
Y10191D01*
X17150D01*
X17134Y10188D01*
X17121Y10179D01*
X17121Y10179D01*
X17021Y10079D01*
X17012Y10066D01*
X17009Y10050D01*
X17009Y10050D01*
Y9715D01*
X17003Y9710D01*
X16991Y9716D01*
Y10183D01*
X17688Y10890D01*
X17870D01*
Y10909D01*
X17913D01*
X17918Y10904D01*
Y10829D01*
X18034D01*
Y10971D01*
X17967D01*
X17959Y10979D01*
X17946Y10988D01*
X17930Y10991D01*
X17930Y10991D01*
X17870D01*
Y11010D01*
X17630D01*
Y10947D01*
X16921Y10229D01*
X16917Y10222D01*
X16912Y10216D01*
X16912Y10215D01*
X16912Y10215D01*
X16911Y10208D01*
X16909Y10200D01*
Y9714D01*
X16896Y9701D01*
X16883Y9706D01*
Y9780D01*
X16865D01*
Y9690D01*
X16867D01*
X16872Y9677D01*
X16816Y9621D01*
X16766D01*
X16759Y9631D01*
X16760Y9633D01*
X16763Y9653D01*
X16760Y9672D01*
X16756Y9678D01*
Y9690D01*
X16756D01*
Y9801D01*
X16757Y9805D01*
X16756Y9809D01*
Y9920D01*
X16671D01*
Y9813D01*
X16669Y9804D01*
Y9678D01*
X16665Y9672D01*
X16662Y9653D01*
X16665Y9633D01*
X16666Y9631D01*
X16659Y9621D01*
X16641D01*
X16634Y9633D01*
X16637Y9650D01*
X16634Y9670D01*
X16630Y9675D01*
Y9805D01*
X16629Y9809D01*
Y9920D01*
X16544D01*
Y9809D01*
X16543Y9805D01*
Y9675D01*
X16539Y9670D01*
X16536Y9650D01*
X16539Y9633D01*
X16532Y9621D01*
X16259D01*
X16254Y9633D01*
X16371Y9749D01*
X16417D01*
Y9690D01*
X16502D01*
Y9770D01*
X16511Y9784D01*
X16516Y9805D01*
X16511Y9826D01*
X16502Y9840D01*
Y9920D01*
X16417D01*
Y9861D01*
X16348D01*
X16326Y9857D01*
X16308Y9845D01*
X16025Y9562D01*
X16013Y9568D01*
X16014Y9575D01*
X16011Y9595D01*
X16007Y9600D01*
Y9805D01*
X16006Y9809D01*
Y9920D01*
X15921D01*
Y9809D01*
X15920Y9805D01*
Y9600D01*
X15916Y9595D01*
X15913Y9575D01*
X15916Y9555D01*
X15919Y9551D01*
X15912Y9539D01*
X15891D01*
X15842Y9587D01*
X15846Y9601D01*
X15856Y9603D01*
X15873Y9614D01*
X15884Y9630D01*
X15887Y9650D01*
X15884Y9670D01*
X15880Y9675D01*
Y9805D01*
X15879Y9809D01*
Y9920D01*
X15794D01*
Y9809D01*
X15793Y9805D01*
Y9675D01*
X15789Y9670D01*
X15787Y9660D01*
X15775Y9656D01*
X15766Y9664D01*
Y9805D01*
X15761Y9826D01*
X15752Y9840D01*
Y9920D01*
X15667D01*
Y9840D01*
X15658Y9826D01*
X15653Y9805D01*
Y9792D01*
X15642Y9788D01*
X15631Y9798D01*
Y10338D01*
X15644Y10341D01*
X15648Y10330D01*
X15660Y10315D01*
X15667Y10309D01*
Y10250D01*
X15752D01*
Y10309D01*
X15759Y10315D01*
X15765Y10323D01*
X15781D01*
X15787Y10315D01*
X15794Y10309D01*
Y10250D01*
X15879D01*
Y10309D01*
X15886Y10315D01*
X15898Y10330D01*
X15905Y10347D01*
X15907Y10365D01*
Y10442D01*
X15908Y10442D01*
X15921Y10436D01*
Y10390D01*
X15964D01*
X16006D01*
Y10480D01*
X15951D01*
X15947Y10492D01*
X16050Y10595D01*
X16061Y10610D01*
X16068Y10627D01*
X16071Y10645D01*
X16068Y10663D01*
X16061Y10680D01*
X16050Y10695D01*
X16048Y10697D01*
X16052Y10709D01*
X16222D01*
X16389Y10542D01*
Y10365D01*
X16391Y10347D01*
X16398Y10330D01*
X16410Y10315D01*
X16417Y10309D01*
Y10250D01*
X16502D01*
Y10309D01*
X16509Y10315D01*
X16516Y10324D01*
X16531Y10324D01*
X16532Y10324D01*
X16538Y10316D01*
X16544Y10311D01*
Y10250D01*
X16629D01*
Y10310D01*
X16637Y10316D01*
X16649Y10331D01*
X16656Y10348D01*
X16658Y10366D01*
Y10645D01*
X16658Y10646D01*
X16658Y10647D01*
X16656Y10666D01*
X16649Y10683D01*
X16637Y10697D01*
X16623Y10709D01*
X16606Y10716D01*
X16588Y10718D01*
X16569Y10716D01*
X16552Y10709D01*
X16538Y10697D01*
X16526Y10683D01*
X16519Y10666D01*
X16517Y10647D01*
X16517Y10646D01*
X16517Y10645D01*
Y10632D01*
X16504Y10627D01*
X16301Y10830D01*
X16286Y10841D01*
X16269Y10848D01*
X16251Y10851D01*
X16202D01*
X16197Y10863D01*
X16424Y11090D01*
X16502D01*
Y11170D01*
X16511Y11184D01*
X16516Y11205D01*
X16511Y11226D01*
X16502Y11240D01*
Y11320D01*
X16417D01*
Y11242D01*
X16124Y10949D01*
X16017D01*
X16010Y10959D01*
X16010Y10961D01*
X16014Y10981D01*
X16010Y11000D01*
X16007Y11005D01*
Y11205D01*
X16006Y11209D01*
Y11320D01*
X15921D01*
Y11209D01*
X15920Y11205D01*
Y11006D01*
X15916Y11000D01*
X15912Y10981D01*
X15916Y10961D01*
X15917Y10959D01*
X15909Y10949D01*
X15845D01*
X15766Y11028D01*
Y11070D01*
Y11205D01*
X15761Y11226D01*
X15752Y11240D01*
Y11320D01*
X15671D01*
Y11626D01*
X15694Y11650D01*
X15752D01*
Y11708D01*
X15759Y11715D01*
X15771Y11730D01*
X15771Y11730D01*
X15785Y11731D01*
X15793Y11721D01*
X15794Y11720D01*
Y11650D01*
X15879D01*
Y11711D01*
X15892Y11721D01*
X15904Y11736D01*
X15908Y11747D01*
X15921Y11744D01*
Y11650D01*
X15939D01*
Y11765D01*
Y11880D01*
X15926D01*
X15921Y11880D01*
X15913Y11889D01*
Y11950D01*
X15913Y11953D01*
X15913Y11955D01*
X15911Y11973D01*
X15904Y11990D01*
X15892Y12005D01*
X15878Y12016D01*
X15861Y12023D01*
X15843Y12026D01*
X15824Y12023D01*
X15807Y12016D01*
X15793Y12005D01*
X15792Y12005D01*
X15780Y12010D01*
Y12259D01*
X16389D01*
Y11765D01*
X16391Y11747D01*
X16398Y11730D01*
X16410Y11715D01*
X16417Y11709D01*
Y11650D01*
X16502D01*
Y11709D01*
X16509Y11715D01*
X16515Y11723D01*
X16531D01*
X16537Y11715D01*
X16544Y11709D01*
Y11650D01*
X16629D01*
Y11709D01*
X16636Y11715D01*
X16648Y11730D01*
X16655Y11747D01*
X16657Y11765D01*
Y11950D01*
X16657Y11953D01*
X16657Y11955D01*
X16655Y11973D01*
X16648Y11990D01*
X16636Y12005D01*
X16622Y12016D01*
X16605Y12023D01*
X16587Y12026D01*
X16568Y12023D01*
X16551Y12016D01*
X16543Y12010D01*
X16530Y12016D01*
Y12259D01*
X17040D01*
X17060Y12239D01*
Y12230D01*
X17069D01*
X17094Y12204D01*
X17228Y12071D01*
Y11629D01*
X17232Y11598D01*
X17244Y11568D01*
X17263Y11543D01*
X17288Y11524D01*
X17318Y11512D01*
X17349Y11508D01*
X17380Y11512D01*
X17410Y11524D01*
X17435Y11543D01*
X17454Y11568D01*
X17466Y11598D01*
X17470Y11629D01*
Y12121D01*
X17466Y12152D01*
X17454Y12182D01*
X17435Y12207D01*
X17300Y12341D01*
Y12350D01*
X17291D01*
X17266Y12376D01*
X17176Y12466D01*
X17151Y12485D01*
X17121Y12497D01*
X17090Y12501D01*
X14824D01*
X14814Y12519D01*
X14788Y12551D01*
X14757Y12576D01*
X14721Y12595D01*
X14683Y12607D01*
X14643Y12611D01*
X14602Y12607D01*
X14564Y12595D01*
X14528Y12576D01*
X14497Y12551D01*
X14471Y12519D01*
X14461Y12501D01*
X6580D01*
X6549Y12497D01*
X6519Y12485D01*
X6494Y12466D01*
X6475Y12441D01*
X6463Y12411D01*
X6459Y12380D01*
X6461Y12361D01*
X6396Y12296D01*
X5459D01*
X5459Y12296D01*
X4962D01*
X4943Y12293D01*
X4926Y12286D01*
X4912Y12275D01*
X4660Y12023D01*
X4648Y12008D01*
X4641Y11991D01*
X4639Y11973D01*
Y11755D01*
X4641Y11737D01*
X4648Y11720D01*
X4660Y11705D01*
X4667Y11699D01*
Y11640D01*
X4752D01*
Y11699D01*
X4759Y11705D01*
X4765Y11713D01*
X4781D01*
X4787Y11705D01*
X4794Y11699D01*
Y11640D01*
X4879D01*
Y11699D01*
X4886Y11705D01*
X4898Y11720D01*
X4905Y11737D01*
X4907Y11755D01*
Y11908D01*
X4905Y11926D01*
X4898Y11943D01*
X4886Y11958D01*
X4872Y11969D01*
X4855Y11976D01*
X4837Y11978D01*
X4832Y11978D01*
X4826Y11990D01*
X4991Y12154D01*
X5388D01*
Y11755D01*
X5390Y11737D01*
X5398Y11720D01*
X5409Y11705D01*
X5416Y11699D01*
Y11640D01*
X5501D01*
Y11699D01*
X5509Y11705D01*
X5514Y11713D01*
X5530D01*
X5536Y11705D01*
X5543Y11699D01*
Y11640D01*
X5628D01*
Y11699D01*
X5636Y11705D01*
X5647Y11720D01*
X5654Y11737D01*
X5656Y11755D01*
Y11908D01*
X5654Y11926D01*
X5647Y11943D01*
X5636Y11958D01*
X5621Y11969D01*
X5604Y11976D01*
X5586Y11978D01*
X5567Y11976D01*
X5550Y11969D01*
X5542Y11962D01*
X5529Y11969D01*
Y12154D01*
X6238D01*
X6243Y12143D01*
X5950Y11850D01*
X5939Y11835D01*
X5932Y11818D01*
X5929Y11800D01*
Y11070D01*
X5780Y10921D01*
X5752D01*
X5749Y10933D01*
X5750Y10934D01*
X5761Y10951D01*
X5764Y10970D01*
X5761Y10990D01*
X5757Y10995D01*
Y11195D01*
X5755Y11203D01*
Y11310D01*
X5670D01*
Y11195D01*
X5670Y11195D01*
Y10995D01*
X5666Y10990D01*
X5663Y10970D01*
X5666Y10951D01*
X5677Y10934D01*
X5678Y10933D01*
X5675Y10921D01*
X5310D01*
X5292Y10918D01*
X5280Y10913D01*
X5273Y10924D01*
X5429Y11080D01*
X5501D01*
Y11154D01*
X5511Y11168D01*
X5515Y11190D01*
X5511Y11211D01*
X5501Y11226D01*
Y11310D01*
X5416D01*
Y11226D01*
X5134Y10944D01*
X5020D01*
X5012Y10956D01*
X5014Y10971D01*
X5011Y10990D01*
X5007Y10996D01*
Y11195D01*
X5006Y11199D01*
Y11310D01*
X4921D01*
Y11199D01*
X4920Y11195D01*
Y10996D01*
X4916Y10990D01*
X4913Y10971D01*
X4915Y10956D01*
X4907Y10944D01*
X4768D01*
X4766Y10945D01*
Y11195D01*
X4761Y11216D01*
X4752Y11230D01*
Y11310D01*
X4667D01*
Y11230D01*
X4658Y11216D01*
X4653Y11195D01*
Y10915D01*
X4532Y10793D01*
X4518Y10773D01*
X4514Y10750D01*
Y10466D01*
X4485D01*
Y10557D01*
X4336D01*
Y10690D01*
X4390D01*
Y10790D01*
X4304D01*
X4301Y10792D01*
X4280Y10796D01*
X4259Y10792D01*
X4256Y10790D01*
X4200D01*
Y10690D01*
X4224D01*
Y10510D01*
X4228Y10489D01*
X4240Y10470D01*
X4275Y10436D01*
Y10263D01*
X4485D01*
Y10354D01*
X4514D01*
Y9700D01*
X4518Y9677D01*
X4532Y9657D01*
X4701Y9488D01*
X4696Y9476D01*
X4463D01*
X4457Y9487D01*
X4458Y9489D01*
X4462Y9510D01*
X4458Y9531D01*
X4446Y9550D01*
X4428Y9562D01*
X4406Y9566D01*
X4249D01*
X2365Y11451D01*
X2346Y11463D01*
X2325Y11467D01*
X2304Y11463D01*
X2285Y11451D01*
X2273Y11432D01*
X2269Y11411D01*
X2273Y11389D01*
X2285Y11371D01*
X3054Y10603D01*
X3050Y10589D01*
X3037Y10587D01*
X3017Y10573D01*
X3003Y10553D01*
X2999Y10530D01*
Y10170D01*
X3003Y10147D01*
X3017Y10127D01*
X3539Y9605D01*
Y9510D01*
X3543Y9489D01*
X3541Y9482D01*
X3538Y9476D01*
X3414D01*
X3380Y9510D01*
X3387Y9522D01*
X3400Y9519D01*
X3420Y9523D01*
X3436Y9534D01*
X3447Y9550D01*
X3451Y9570D01*
X3447Y9590D01*
X3446Y9591D01*
Y9600D01*
X3442Y9618D01*
X3432Y9632D01*
X2462Y10602D01*
X2448Y10612D01*
X2430Y10616D01*
X2170D01*
X2152Y10612D01*
X2138Y10602D01*
X1841Y10306D01*
X1831Y10291D01*
X1828Y10274D01*
Y10219D01*
X1826Y10217D01*
X1823Y10197D01*
X1826Y10178D01*
X1838Y10161D01*
X1854Y10150D01*
X1874Y10147D01*
X1893Y10150D01*
X1910Y10161D01*
X1921Y10178D01*
X1925Y10197D01*
X1921Y10217D01*
X1919Y10219D01*
Y10255D01*
X2189Y10524D01*
X2411D01*
X3352Y9583D01*
X3349Y9570D01*
X3352Y9557D01*
X3340Y9551D01*
X2420Y10489D01*
X2420Y10489D01*
X2420Y10490D01*
X2411Y10496D01*
X2402Y10502D01*
X2402Y10502D01*
X2401Y10502D01*
X2391Y10504D01*
X2381Y10506D01*
X2380Y10506D01*
X2380Y10506D01*
X2230D01*
X2209Y10502D01*
X2190Y10490D01*
X2121Y10420D01*
X2109Y10402D01*
X2105Y10381D01*
Y10279D01*
X2109Y10258D01*
X2121Y10240D01*
X2139Y10227D01*
X2161Y10223D01*
X2182Y10227D01*
X2200Y10240D01*
X2213Y10258D01*
X2217Y10279D01*
Y10358D01*
X2253Y10394D01*
X2269D01*
X2276Y10381D01*
X2272Y10376D01*
X2268Y10356D01*
X2272Y10337D01*
X2273Y10336D01*
X2273Y10328D01*
X2282Y10312D01*
X2421Y10136D01*
X2314Y9240D01*
X2314Y9238D01*
X2314Y9235D01*
X2314Y9234D01*
X2313Y9230D01*
X2231Y8550D01*
X2228Y8544D01*
X2224Y8525D01*
X2228Y8505D01*
X2239Y8489D01*
X2255Y8478D01*
X2275Y8474D01*
X2294Y8478D01*
X2311Y8489D01*
X2322Y8505D01*
X2326Y8525D01*
X2323Y8540D01*
X2400Y9189D01*
X4362D01*
X4366Y9182D01*
X4367Y9176D01*
X4357Y9161D01*
X4353Y9141D01*
X4357Y9122D01*
X4368Y9105D01*
X4374Y9101D01*
X4373Y9097D01*
X4370Y9090D01*
X4350Y9093D01*
X4330Y9090D01*
X4314Y9079D01*
X4303Y9062D01*
X4299Y9043D01*
X4303Y9023D01*
X4314Y9006D01*
X4318Y9004D01*
X4314Y8991D01*
X3734D01*
X3628Y9097D01*
X3627Y9100D01*
X3616Y9116D01*
X3600Y9127D01*
X3580Y9131D01*
X3560Y9127D01*
X3544Y9116D01*
X3533Y9100D01*
X3529Y9080D01*
X3533Y9060D01*
X3544Y9044D01*
X3560Y9033D01*
X3563Y9032D01*
X3683Y8913D01*
X3697Y8903D01*
X3715Y8899D01*
X10015D01*
X10033Y8903D01*
X10047Y8913D01*
X10739Y9604D01*
X11454D01*
X11455Y9603D01*
X11475Y9599D01*
X11495Y9603D01*
X11511Y9614D01*
X11522Y9630D01*
X11526Y9650D01*
X11522Y9670D01*
X11511Y9686D01*
X11495Y9697D01*
X11475Y9701D01*
X11455Y9697D01*
X11454Y9696D01*
X10720D01*
X10702Y9692D01*
X10688Y9682D01*
X10001Y8996D01*
X9998Y8997D01*
X9995Y9010D01*
X10699Y9714D01*
X12554D01*
X12555Y9713D01*
X12575Y9709D01*
X12595Y9713D01*
X12611Y9724D01*
X12622Y9740D01*
X12626Y9760D01*
X12622Y9780D01*
X12611Y9796D01*
X12603Y9801D01*
X12607Y9814D01*
X12629D01*
X12630Y9813D01*
X12650Y9809D01*
X12670Y9813D01*
X12686Y9824D01*
X12697Y9840D01*
X12701Y9860D01*
X12697Y9880D01*
X12686Y9896D01*
X12670Y9907D01*
X12650Y9911D01*
X12630Y9907D01*
X12629Y9906D01*
X10640D01*
X10622Y9902D01*
X10608Y9892D01*
X9902Y9187D01*
X9731D01*
X9727Y9200D01*
X9729Y9201D01*
X9738Y9214D01*
X9738Y9218D01*
X11047Y10527D01*
X11059Y10521D01*
X11059Y10520D01*
X11063Y10500D01*
X11074Y10484D01*
X11090Y10473D01*
X11110Y10469D01*
X11110Y10469D01*
X11249Y10330D01*
X11243Y10318D01*
X11230Y10321D01*
X11210Y10317D01*
X11194Y10306D01*
X11183Y10290D01*
X11179Y10270D01*
X11183Y10250D01*
X11194Y10234D01*
X11210Y10223D01*
X11230Y10219D01*
X11230Y10219D01*
X11515Y9935D01*
X11526Y9927D01*
X11540Y9924D01*
X12685D01*
X12759Y9850D01*
Y9338D01*
X12759Y9338D01*
X12762Y9322D01*
X12771Y9309D01*
X13201Y8879D01*
X13203Y8868D01*
X13214Y8851D01*
X13226Y8843D01*
X13222Y8831D01*
X4406D01*
X4406Y8830D01*
X4405Y8831D01*
X4289Y8824D01*
X4287Y8823D01*
X4285Y8823D01*
X4170Y8803D01*
X4169Y8803D01*
X4167Y8802D01*
X4056Y8769D01*
X4055Y8769D01*
X4054Y8768D01*
X2040Y8035D01*
X2029Y8043D01*
Y9050D01*
X1509Y9570D01*
X1500D01*
Y11900D01*
X2000Y12400D01*
Y13445D01*
X2010Y13452D01*
X3991Y12732D01*
D02*
G37*
G36*
X6580Y12259D02*
X14497D01*
X14528Y12234D01*
X14564Y12215D01*
X14602Y12203D01*
X14643Y12199D01*
X14683Y12203D01*
X14721Y12215D01*
X14757Y12234D01*
X14788Y12259D01*
X15639D01*
Y11794D01*
X15550Y11705D01*
X15539Y11691D01*
X15532Y11674D01*
X15529Y11655D01*
Y10895D01*
X15532Y10877D01*
X15539Y10860D01*
X15550Y10845D01*
X15639Y10756D01*
Y10737D01*
X15627Y10730D01*
X15626Y10730D01*
X15615Y10747D01*
X15596Y10759D01*
X15575Y10764D01*
X15554Y10759D01*
X15535Y10747D01*
X15523Y10729D01*
X15519Y10707D01*
Y9775D01*
X15523Y9754D01*
X15535Y9735D01*
X15670Y9601D01*
X15828Y9443D01*
X15842Y9433D01*
X15845Y9421D01*
X15845Y9418D01*
X15726Y9298D01*
X13485D01*
X13291Y9493D01*
Y9952D01*
X13303Y9957D01*
X13622Y9638D01*
X13622Y9634D01*
X13631Y9621D01*
X13644Y9612D01*
X13660Y9609D01*
X14412D01*
X14412Y9609D01*
X14428Y9612D01*
X14441Y9621D01*
X15024Y10204D01*
X15033Y10217D01*
X15036Y10232D01*
X15036Y10233D01*
Y10438D01*
X15034Y10445D01*
X15037Y10450D01*
X15039Y10468D01*
X15038Y10476D01*
X15049Y10487D01*
X15057Y10486D01*
X15075Y10489D01*
X15092Y10496D01*
X15107Y10507D01*
X15118Y10521D01*
X15125Y10539D01*
X15127Y10557D01*
X15125Y10575D01*
X15118Y10592D01*
X15107Y10607D01*
X15092Y10618D01*
X15075Y10625D01*
X15057Y10627D01*
X15039Y10625D01*
X15021Y10618D01*
X15007Y10607D01*
X14996Y10592D01*
X14989Y10575D01*
X14986Y10557D01*
X14987Y10549D01*
X14976Y10538D01*
X14968Y10539D01*
X14950Y10537D01*
X14933Y10530D01*
X14918Y10518D01*
X14907Y10504D01*
X14900Y10487D01*
X14898Y10468D01*
X14899Y10461D01*
X14887Y10450D01*
X14880Y10451D01*
X14862Y10448D01*
X14845Y10441D01*
X14830Y10430D01*
X14819Y10415D01*
X14812Y10398D01*
X14809Y10380D01*
X14810Y10373D01*
X14799Y10361D01*
X14792Y10362D01*
X14773Y10360D01*
X14756Y10353D01*
X14742Y10342D01*
X14730Y10327D01*
X14723Y10310D01*
X14721Y10292D01*
X14722Y10284D01*
X14711Y10273D01*
X14703Y10274D01*
X14685Y10271D01*
X14668Y10264D01*
X14653Y10253D01*
X14642Y10239D01*
X14635Y10221D01*
X14633Y10203D01*
X14634Y10196D01*
X14622Y10184D01*
X14615Y10185D01*
X14597Y10183D01*
X14580Y10176D01*
X14565Y10165D01*
X14554Y10150D01*
X14547Y10133D01*
X14544Y10115D01*
X14545Y10107D01*
X14534Y10096D01*
X14526Y10097D01*
X14508Y10095D01*
X14491Y10088D01*
X14477Y10076D01*
X14465Y10062D01*
X14458Y10045D01*
X14456Y10026D01*
X14457Y10019D01*
X14446Y10008D01*
X14438Y10009D01*
X14420Y10006D01*
X14403Y9999D01*
X14388Y9988D01*
X14377Y9973D01*
X14370Y9956D01*
X14367Y9938D01*
X14370Y9920D01*
X14377Y9903D01*
X14388Y9888D01*
X14403Y9877D01*
X14420Y9870D01*
X14438Y9867D01*
X14456Y9870D01*
X14466Y9874D01*
X14473Y9863D01*
X14366Y9756D01*
X13692D01*
X12968Y10480D01*
X12956Y10488D01*
X12943Y10491D01*
X12740D01*
X12726Y10488D01*
X12715Y10480D01*
X12688Y10453D01*
X12518D01*
X12504Y10450D01*
X12492Y10443D01*
X12450Y10400D01*
X12442Y10389D01*
X12442Y10388D01*
X12439Y10386D01*
X12428Y10370D01*
X12424Y10350D01*
X12428Y10330D01*
X12431Y10325D01*
X12425Y10314D01*
X11731Y10315D01*
X11731Y10315D01*
X11731Y10315D01*
X11723D01*
X11336Y10702D01*
X11336Y10703D01*
X11332Y10722D01*
X11321Y10739D01*
X11305Y10750D01*
X11291Y10752D01*
X11286Y10766D01*
X11555Y11034D01*
X11584D01*
X11584Y11034D01*
X11600Y11023D01*
X11620Y11019D01*
X11640Y11023D01*
X11656Y11034D01*
X11667Y11050D01*
X11671Y11070D01*
X11667Y11090D01*
X11656Y11106D01*
X11640Y11117D01*
X11620Y11121D01*
X11600Y11117D01*
X11584Y11106D01*
X11584Y11106D01*
X11540D01*
X11526Y11103D01*
X11515Y11095D01*
X11358Y10939D01*
X11346Y10944D01*
Y11004D01*
X11346Y11004D01*
X11357Y11020D01*
X11361Y11040D01*
X11357Y11060D01*
X11346Y11076D01*
X11330Y11087D01*
X11318Y11089D01*
X11314Y11103D01*
X11330Y11119D01*
X11330Y11119D01*
X11350Y11123D01*
X11366Y11134D01*
X11377Y11150D01*
X11381Y11170D01*
X11377Y11190D01*
X11366Y11206D01*
X11350Y11217D01*
X11330Y11221D01*
X11310Y11217D01*
X11294Y11206D01*
X11283Y11190D01*
X11279Y11170D01*
X11279Y11170D01*
X11195Y11085D01*
X11187Y11074D01*
X11184Y11060D01*
Y10935D01*
X11172Y10923D01*
X11161Y10928D01*
Y11260D01*
X11250Y11349D01*
X11250Y11349D01*
X11270Y11353D01*
X11286Y11364D01*
X11297Y11380D01*
X11301Y11400D01*
X11297Y11420D01*
X11286Y11436D01*
X11270Y11447D01*
X11250Y11451D01*
X11230Y11447D01*
X11214Y11436D01*
X11203Y11420D01*
X11199Y11400D01*
X11199Y11400D01*
X11100Y11300D01*
X11092Y11289D01*
X11089Y11275D01*
Y10926D01*
X11062Y10899D01*
X11048Y10903D01*
X11047Y10910D01*
X11036Y10926D01*
X11020Y10937D01*
X11000Y10941D01*
X10980Y10937D01*
X10964Y10926D01*
X10953Y10910D01*
X10951Y10899D01*
X9688Y9636D01*
X9593D01*
X9586Y9649D01*
X9592Y9657D01*
X9595Y9669D01*
X11000Y11074D01*
X11000Y11074D01*
X11020Y11078D01*
X11036Y11089D01*
X11047Y11105D01*
X11051Y11125D01*
X11047Y11145D01*
X11036Y11161D01*
X11020Y11172D01*
X11000Y11176D01*
X10980Y11172D01*
X10964Y11161D01*
X10953Y11145D01*
X10949Y11125D01*
X10949Y11125D01*
X9545Y9721D01*
X6925D01*
X6907Y9717D01*
X6893Y9707D01*
X6556Y9371D01*
X4802D01*
X4797Y9384D01*
X4807Y9399D01*
X4808Y9403D01*
X4809Y9404D01*
X6460D01*
X6478Y9407D01*
X6495Y9414D01*
X6510Y9425D01*
X7030Y9945D01*
X7041Y9960D01*
X7048Y9977D01*
X7051Y9995D01*
X7048Y10013D01*
X7041Y10030D01*
X7030Y10045D01*
X7026Y10048D01*
Y11947D01*
X7022Y11965D01*
X7012Y11980D01*
X6978Y12015D01*
X6977Y12017D01*
X6966Y12034D01*
X6950Y12045D01*
X6930Y12048D01*
X6910Y12045D01*
X6894Y12034D01*
X6883Y12017D01*
X6879Y11997D01*
X6883Y11978D01*
X6894Y11961D01*
X6910Y11950D01*
X6913Y11950D01*
X6934Y11928D01*
Y10048D01*
X6930Y10045D01*
X6431Y9546D01*
X5776D01*
X5769Y9558D01*
X5772Y9575D01*
X5768Y9595D01*
X5764Y9600D01*
Y9805D01*
X5763Y9813D01*
Y9920D01*
X5678D01*
Y9690D01*
X5678D01*
Y9600D01*
X5674Y9595D01*
X5670Y9575D01*
X5673Y9558D01*
X5666Y9546D01*
X5522D01*
Y9805D01*
X5518Y9826D01*
X5509Y9840D01*
Y9920D01*
X5424D01*
Y9840D01*
X5414Y9826D01*
X5410Y9805D01*
Y9546D01*
X5018D01*
X5011Y9558D01*
X5014Y9575D01*
X5011Y9595D01*
X5007Y9600D01*
Y9805D01*
X5006Y9809D01*
Y9920D01*
X4921D01*
Y9809D01*
X4920Y9805D01*
Y9600D01*
X4916Y9595D01*
X4913Y9575D01*
X4916Y9558D01*
X4909Y9546D01*
X4816D01*
X4766Y9596D01*
Y9805D01*
X4761Y9826D01*
X4752Y9840D01*
Y9920D01*
X4667D01*
Y9840D01*
X4658Y9826D01*
X4653Y9805D01*
Y9734D01*
X4641Y9727D01*
X4636Y9731D01*
Y10324D01*
X4648Y10329D01*
X4649Y10329D01*
X4660Y10315D01*
X4667Y10309D01*
Y10250D01*
X4752D01*
Y10309D01*
X4759Y10315D01*
X4765Y10323D01*
X4781D01*
X4787Y10315D01*
X4794Y10309D01*
Y10250D01*
X4879D01*
Y10309D01*
X4886Y10315D01*
X4898Y10330D01*
X4905Y10347D01*
X4907Y10365D01*
Y10508D01*
X4905Y10527D01*
X4898Y10544D01*
X4886Y10558D01*
X4872Y10570D01*
X4855Y10577D01*
X4837Y10579D01*
X4825Y10578D01*
X4820Y10590D01*
X4939Y10709D01*
X5027D01*
X5033Y10697D01*
X5029Y10691D01*
X5022Y10674D01*
X5019Y10656D01*
Y10366D01*
X5022Y10347D01*
X5029Y10330D01*
X5040Y10316D01*
X5048Y10310D01*
Y10250D01*
X5133D01*
Y10310D01*
X5140Y10316D01*
X5151Y10330D01*
X5158Y10347D01*
X5161Y10366D01*
Y10656D01*
X5158Y10674D01*
X5151Y10691D01*
X5147Y10697D01*
X5153Y10709D01*
X5240D01*
X5258Y10712D01*
X5275Y10719D01*
X5290Y10730D01*
X5339Y10779D01*
X5396D01*
Y10365D01*
X5398Y10347D01*
X5405Y10330D01*
X5416Y10315D01*
X5424Y10309D01*
Y10250D01*
X5509D01*
Y10309D01*
X5516Y10315D01*
X5523Y10324D01*
X5538Y10324D01*
X5538Y10324D01*
X5544Y10316D01*
X5551Y10311D01*
Y10250D01*
X5636D01*
Y10310D01*
X5644Y10316D01*
X5655Y10331D01*
X5662Y10348D01*
X5665Y10366D01*
Y10510D01*
X5662Y10528D01*
X5655Y10545D01*
X5644Y10560D01*
X5629Y10571D01*
X5612Y10578D01*
X5594Y10581D01*
X5576Y10578D01*
X5559Y10571D01*
X5549Y10564D01*
X5537Y10570D01*
Y10779D01*
X5810D01*
X5828Y10782D01*
X5845Y10789D01*
X5859Y10800D01*
X6052Y10993D01*
X6063Y11007D01*
X6070Y11024D01*
X6073Y11043D01*
X6071Y11058D01*
Y11771D01*
X6472Y12173D01*
X6474Y12174D01*
X6475Y12175D01*
X6561Y12261D01*
X6580Y12259D01*
D02*
G37*
G36*
X4849Y10819D02*
X4660Y10629D01*
X4649Y10615D01*
X4648Y10615D01*
X4636Y10621D01*
Y10725D01*
X4743Y10831D01*
X4844D01*
X4849Y10819D01*
D02*
G37*
G36*
X15952Y10697D02*
X15950Y10695D01*
X15793Y10538D01*
X15780Y10543D01*
Y10709D01*
X15948D01*
X15952Y10697D01*
D02*
G37*
G36*
X11687Y10172D02*
X11693Y10168D01*
X11689Y10156D01*
X11642D01*
X11221Y10577D01*
X11223Y10584D01*
X11226Y10589D01*
X11228Y10590D01*
X11245Y10593D01*
X11258Y10602D01*
X11687Y10172D01*
D02*
G37*
G36*
X4169Y9488D02*
X4164Y9476D01*
X3662D01*
X3659Y9482D01*
X3657Y9489D01*
X3661Y9510D01*
Y9630D01*
X3657Y9653D01*
X3643Y9673D01*
X3121Y10195D01*
Y10517D01*
X3134Y10523D01*
X4169Y9488D01*
D02*
G37*
G36*
X3347Y9384D02*
X3344Y9373D01*
X3342Y9371D01*
X2496D01*
X2495Y9372D01*
X2475Y9376D01*
X2455Y9372D01*
X2439Y9361D01*
X2432Y9351D01*
X2420Y9356D01*
X2514Y10145D01*
X2514Y10145D01*
X2514Y10145D01*
X2514Y10154D01*
X2513Y10162D01*
X2513Y10162D01*
X2513Y10163D01*
X2509Y10170D01*
X2505Y10178D01*
X2505Y10178D01*
X2505Y10179D01*
X2369Y10350D01*
X2370Y10356D01*
X2369Y10363D01*
X2380Y10369D01*
X3347Y9384D01*
D02*
G37*
G36*
X7113Y9531D02*
X7103Y9517D01*
X7099Y9497D01*
X7103Y9478D01*
X7107Y9472D01*
X7101Y9458D01*
X7095Y9457D01*
X7079Y9446D01*
X7068Y9430D01*
X7064Y9410D01*
X7068Y9390D01*
X7076Y9378D01*
X7070Y9366D01*
X7054D01*
X7045Y9372D01*
X7025Y9376D01*
X7005Y9372D01*
X6989Y9361D01*
X6978Y9345D01*
X6974Y9325D01*
X6978Y9305D01*
X6988Y9290D01*
X6986Y9285D01*
X6982Y9279D01*
X6970Y9281D01*
X6950Y9277D01*
X6934Y9266D01*
X6923Y9250D01*
X6919Y9230D01*
X6923Y9210D01*
X6930Y9200D01*
X6923Y9187D01*
X6645D01*
X6641Y9200D01*
X6644Y9202D01*
X6997Y9544D01*
X7109D01*
X7113Y9531D01*
D02*
G37*
G36*
X9679Y9272D02*
X9679Y9271D01*
X7072D01*
X7065Y9283D01*
X7066Y9284D01*
X9673D01*
X9679Y9272D01*
D02*
G37*
G36*
X16293Y9477D02*
X16272Y9461D01*
X16057Y9246D01*
X16055Y9246D01*
X16015Y9242D01*
X15976Y9230D01*
X15941Y9211D01*
X15909Y9186D01*
X15884Y9154D01*
X15865Y9119D01*
X15853Y9080D01*
X15849Y9040D01*
X15853Y9000D01*
X15865Y8961D01*
X15884Y8926D01*
X15909Y8894D01*
X15941Y8869D01*
X15976Y8850D01*
X15997Y8843D01*
X15995Y8831D01*
X13278D01*
X13274Y8843D01*
X13286Y8851D01*
X13297Y8868D01*
X13301Y8888D01*
X13299Y8899D01*
X13302Y8909D01*
X13308Y8913D01*
X13322Y8915D01*
X13339Y8926D01*
X13350Y8943D01*
X13353Y8962D01*
X13350Y8978D01*
X13359Y8989D01*
X13360Y8989D01*
X13380Y8993D01*
X13396Y9004D01*
X13407Y9020D01*
X13411Y9040D01*
X13408Y9054D01*
X13417Y9064D01*
X13418Y9065D01*
X13423Y9064D01*
X13442Y9068D01*
X13459Y9079D01*
X13470Y9095D01*
X13473Y9115D01*
X13470Y9135D01*
X13465Y9142D01*
X13472Y9154D01*
X15775D01*
X15791Y9157D01*
X15804Y9166D01*
X15813Y9179D01*
X15813Y9183D01*
X15940Y9309D01*
X16070D01*
X16084Y9312D01*
X16095Y9320D01*
X16265Y9489D01*
X16288D01*
X16293Y9477D01*
D02*
G37*
G36*
X12959Y9890D02*
Y9400D01*
X12959Y9400D01*
X12962Y9384D01*
X12971Y9371D01*
X13303Y9040D01*
X13303Y9038D01*
X13289Y9034D01*
X12931Y9392D01*
Y9890D01*
X12928Y9903D01*
X12934Y9909D01*
X12939Y9911D01*
X12959Y9890D01*
D02*
G37*
G36*
X16512Y9241D02*
X16476Y9230D01*
X16441Y9211D01*
X16409Y9186D01*
X16384Y9154D01*
X16365Y9119D01*
X16353Y9080D01*
X16349Y9040D01*
X16353Y9000D01*
X16365Y8961D01*
X16384Y8926D01*
X16409Y8894D01*
X16441Y8869D01*
X16476Y8850D01*
X16497Y8843D01*
X16495Y8831D01*
X16115D01*
X16113Y8843D01*
X16134Y8850D01*
X16169Y8869D01*
X16201Y8894D01*
X16226Y8926D01*
X16245Y8961D01*
X16257Y9000D01*
X16261Y9040D01*
X16257Y9080D01*
X16252Y9098D01*
X16408Y9254D01*
X16510D01*
X16512Y9241D01*
D02*
G37*
%LPC*%
G36*
X17900Y12350D02*
X17805D01*
Y12315D01*
X17900D01*
Y12350D01*
D02*
G37*
G36*
X17755D02*
X17660D01*
Y12315D01*
X17755D01*
Y12350D01*
D02*
G37*
G36*
X17900Y12265D02*
X17805D01*
Y12230D01*
X17900D01*
Y12265D01*
D02*
G37*
G36*
X17755D02*
X17660D01*
Y12230D01*
X17755D01*
Y12265D01*
D02*
G37*
G36*
X16756Y11880D02*
X16738D01*
Y11790D01*
X16756D01*
Y11880D01*
D02*
G37*
G36*
X16688D02*
X16671D01*
Y11790D01*
X16688D01*
Y11880D01*
D02*
G37*
G36*
X15989Y11880D02*
Y11790D01*
X16006D01*
Y11880D01*
X15989D01*
D02*
G37*
G36*
X5755Y11870D02*
X5738D01*
Y11780D01*
X5755D01*
Y11870D01*
D02*
G37*
G36*
X5688D02*
X5670D01*
Y11780D01*
X5688D01*
Y11870D01*
D02*
G37*
G36*
X5006Y11870D02*
X4989D01*
Y11780D01*
X5006D01*
Y11870D01*
D02*
G37*
G36*
X4939D02*
X4921D01*
Y11780D01*
X4939D01*
Y11870D01*
D02*
G37*
G36*
X16843Y12171D02*
X16824Y12168D01*
X16807Y12161D01*
X16793Y12150D01*
X16781Y12135D01*
X16774Y12118D01*
X16772Y12100D01*
Y11768D01*
X16774Y11750D01*
X16781Y11733D01*
X16793Y11718D01*
X16798Y11714D01*
Y11650D01*
X16883D01*
Y11711D01*
X16892Y11718D01*
X16904Y11733D01*
X16911Y11750D01*
X16913Y11768D01*
Y12100D01*
X16911Y12118D01*
X16904Y12135D01*
X16892Y12150D01*
X16878Y12161D01*
X16861Y12168D01*
X16843Y12171D01*
D02*
G37*
G36*
X16756Y11740D02*
X16738D01*
Y11650D01*
X16756D01*
Y11740D01*
D02*
G37*
G36*
X16688D02*
X16671D01*
Y11650D01*
X16688D01*
Y11740D01*
D02*
G37*
G36*
X16090Y12171D02*
X16072Y12168D01*
X16055Y12161D01*
X16040Y12150D01*
X16029Y12135D01*
X16022Y12118D01*
X16019Y12100D01*
Y11768D01*
X16022Y11750D01*
X16029Y11733D01*
X16040Y11718D01*
X16048Y11712D01*
Y11650D01*
X16133D01*
Y11713D01*
X16140Y11718D01*
X16151Y11733D01*
X16158Y11750D01*
X16161Y11768D01*
Y12100D01*
X16158Y12118D01*
X16151Y12135D01*
X16140Y12150D01*
X16125Y12161D01*
X16108Y12168D01*
X16090Y12171D01*
D02*
G37*
G36*
X16006Y11740D02*
X15989D01*
Y11650D01*
X16006D01*
Y11740D01*
D02*
G37*
G36*
X5840Y12118D02*
X5821Y12116D01*
X5804Y12109D01*
X5790Y12098D01*
X5779Y12083D01*
X5771Y12066D01*
X5769Y12048D01*
Y11755D01*
X5771Y11737D01*
X5779Y11720D01*
X5790Y11705D01*
X5797Y11699D01*
Y11640D01*
X5882D01*
Y11699D01*
X5890Y11705D01*
X5901Y11720D01*
X5908Y11737D01*
X5910Y11755D01*
Y12048D01*
X5908Y12066D01*
X5901Y12083D01*
X5890Y12098D01*
X5875Y12109D01*
X5858Y12116D01*
X5840Y12118D01*
D02*
G37*
G36*
X5755Y11730D02*
X5738D01*
Y11640D01*
X5755D01*
Y11730D01*
D02*
G37*
G36*
X5688D02*
X5670D01*
Y11640D01*
X5688D01*
Y11730D01*
D02*
G37*
G36*
X5091Y12121D02*
X5072Y12118D01*
X5055Y12111D01*
X5041Y12100D01*
X5029Y12085D01*
X5022Y12068D01*
X5020Y12050D01*
Y11755D01*
X5022Y11737D01*
X5029Y11720D01*
X5041Y11705D01*
X5048Y11699D01*
Y11640D01*
X5133D01*
Y11699D01*
X5140Y11705D01*
X5152Y11720D01*
X5159Y11737D01*
X5161Y11755D01*
Y12050D01*
X5159Y12068D01*
X5152Y12085D01*
X5140Y12100D01*
X5126Y12111D01*
X5109Y12118D01*
X5091Y12121D01*
D02*
G37*
G36*
X5006Y11730D02*
X4989D01*
Y11640D01*
X5006D01*
Y11730D01*
D02*
G37*
G36*
X4939D02*
X4921D01*
Y11640D01*
X4939D01*
Y11730D01*
D02*
G37*
G36*
X16825Y11625D02*
X16475D01*
Y11345D01*
X16825D01*
Y11625D01*
D02*
G37*
G36*
X16075Y11625D02*
X15725D01*
Y11345D01*
X16075D01*
Y11625D01*
D02*
G37*
G36*
X5824Y11615D02*
X5474D01*
Y11335D01*
X5824D01*
Y11615D01*
D02*
G37*
G36*
X5075Y11615D02*
X4725D01*
Y11335D01*
X5075D01*
Y11615D01*
D02*
G37*
G36*
X18800Y11351D02*
X18780Y11347D01*
X18764Y11336D01*
X18764Y11336D01*
X18526D01*
X18512Y11333D01*
X18500Y11325D01*
X18455Y11280D01*
X18450Y11276D01*
X18144Y10971D01*
X18066D01*
Y10829D01*
X18182D01*
Y10907D01*
X18496Y11221D01*
X18501Y11225D01*
X18540Y11264D01*
X18764D01*
X18764Y11264D01*
X18780Y11253D01*
X18800Y11249D01*
X18819Y11253D01*
X18836Y11264D01*
X18847Y11280D01*
X18851Y11300D01*
X18847Y11319D01*
X18836Y11336D01*
X18819Y11347D01*
X18800Y11351D01*
D02*
G37*
G36*
X16883Y11320D02*
X16865D01*
Y11230D01*
X16883D01*
Y11320D01*
D02*
G37*
G36*
X16815D02*
X16798D01*
Y11230D01*
X16815D01*
Y11320D01*
D02*
G37*
G36*
X16133Y11320D02*
X16116D01*
Y11230D01*
X16133D01*
Y11320D01*
D02*
G37*
G36*
X16066D02*
X16048D01*
Y11230D01*
X16066D01*
Y11320D01*
D02*
G37*
G36*
X5882Y11310D02*
X5865D01*
Y11220D01*
X5882D01*
Y11310D01*
D02*
G37*
G36*
X5815D02*
X5797D01*
Y11220D01*
X5815D01*
Y11310D01*
D02*
G37*
G36*
X5133Y11310D02*
X5116D01*
Y11220D01*
X5133D01*
Y11310D01*
D02*
G37*
G36*
X5066D02*
X5048D01*
Y11220D01*
X5066D01*
Y11310D01*
D02*
G37*
G36*
X4485Y11227D02*
X4405D01*
Y11105D01*
X4485D01*
Y11227D01*
D02*
G37*
G36*
X4355D02*
X4275D01*
Y11105D01*
X4355D01*
Y11227D01*
D02*
G37*
G36*
X16883Y11180D02*
X16865D01*
Y11090D01*
X16883D01*
Y11180D01*
D02*
G37*
G36*
X16815D02*
X16798D01*
Y11090D01*
X16815D01*
Y11180D01*
D02*
G37*
G36*
X16133Y11180D02*
X16116D01*
Y11090D01*
X16133D01*
Y11180D01*
D02*
G37*
G36*
X16066D02*
X16048D01*
Y11090D01*
X16066D01*
Y11180D01*
D02*
G37*
G36*
X5882Y11170D02*
X5865D01*
Y11080D01*
X5882D01*
Y11170D01*
D02*
G37*
G36*
X5815D02*
X5797D01*
Y11080D01*
X5815D01*
Y11170D01*
D02*
G37*
G36*
X5133Y11170D02*
X5116D01*
Y11080D01*
X5133D01*
Y11170D01*
D02*
G37*
G36*
X5066D02*
X5048D01*
Y11080D01*
X5066D01*
Y11170D01*
D02*
G37*
G36*
X2520Y12866D02*
X2499Y12862D01*
X2480Y12850D01*
X2468Y12831D01*
X2464Y12810D01*
Y11873D01*
X1720Y11130D01*
X1708Y11111D01*
X1704Y11090D01*
X1708Y11069D01*
X1720Y11050D01*
X1739Y11038D01*
X1760Y11034D01*
X1781Y11038D01*
X1800Y11050D01*
X2560Y11810D01*
X2572Y11829D01*
X2576Y11850D01*
Y12810D01*
X2572Y12831D01*
X2560Y12850D01*
X2541Y12862D01*
X2520Y12866D01*
D02*
G37*
G36*
X15879Y11320D02*
X15794D01*
Y11209D01*
X15793Y11205D01*
Y11088D01*
X15789Y11082D01*
X15786Y11062D01*
X15789Y11043D01*
X15800Y11026D01*
X15805Y11024D01*
X15806Y11022D01*
X15820Y11012D01*
X15837Y11009D01*
X15853Y11012D01*
X15867Y11022D01*
X15868Y11024D01*
X15873Y11026D01*
X15884Y11043D01*
X15887Y11062D01*
X15884Y11082D01*
X15880Y11088D01*
Y11205D01*
X15879Y11209D01*
Y11320D01*
D02*
G37*
G36*
X16629Y11320D02*
X16544D01*
Y11209D01*
X16543Y11205D01*
Y11085D01*
X16539Y11080D01*
X16536Y11060D01*
X16539Y11041D01*
X16550Y11024D01*
X16555Y11021D01*
X16556Y11019D01*
X16570Y11010D01*
X16587Y11007D01*
X16603Y11010D01*
X16617Y11019D01*
X16618Y11021D01*
X16623Y11024D01*
X16634Y11041D01*
X16637Y11060D01*
X16634Y11080D01*
X16630Y11085D01*
Y11205D01*
X16629Y11209D01*
Y11320D01*
D02*
G37*
G36*
X5628Y11310D02*
X5543D01*
Y11195D01*
X5543Y11195D01*
Y11068D01*
X5539Y11062D01*
X5536Y11043D01*
X5539Y11023D01*
X5550Y11006D01*
X5567Y10995D01*
X5586Y10992D01*
X5606Y10995D01*
X5623Y11006D01*
X5634Y11023D01*
X5637Y11043D01*
X5634Y11062D01*
X5630Y11068D01*
Y11195D01*
X5628Y11203D01*
Y11310D01*
D02*
G37*
G36*
X4879Y11310D02*
X4794D01*
Y11199D01*
X4793Y11195D01*
Y11068D01*
X4789Y11062D01*
X4786Y11043D01*
X4789Y11023D01*
X4800Y11006D01*
X4817Y10995D01*
X4837Y10992D01*
X4856Y10995D01*
X4873Y11006D01*
X4884Y11023D01*
X4887Y11043D01*
X4884Y11062D01*
X4880Y11068D01*
Y11195D01*
X4879Y11199D01*
Y11310D01*
D02*
G37*
G36*
X17270Y11010D02*
X17175D01*
Y10975D01*
X17270D01*
Y11010D01*
D02*
G37*
G36*
X17125D02*
X17030D01*
Y10975D01*
X17125D01*
Y11010D01*
D02*
G37*
G36*
X4485Y11055D02*
X4405D01*
Y10933D01*
X4485D01*
Y11055D01*
D02*
G37*
G36*
X4355D02*
X4275D01*
Y10933D01*
X4355D01*
Y11055D01*
D02*
G37*
G36*
X16756Y11320D02*
X16671D01*
Y11209D01*
X16670Y11205D01*
Y11005D01*
X16666Y11000D01*
X16663Y10980D01*
X16666Y10960D01*
X16677Y10944D01*
X16694Y10933D01*
X16713Y10929D01*
X16733Y10933D01*
X16750Y10944D01*
X16761Y10960D01*
X16764Y10980D01*
X16761Y11000D01*
X16757Y11005D01*
Y11205D01*
X16756Y11209D01*
Y11320D01*
D02*
G37*
G36*
X17270Y10925D02*
X17175D01*
Y10890D01*
X17270D01*
Y10925D01*
D02*
G37*
G36*
X17125D02*
X17030D01*
Y10890D01*
X17125D01*
Y10925D01*
D02*
G37*
G36*
X4185Y11227D02*
X3975D01*
Y11141D01*
X3190D01*
X3167Y11137D01*
X3147Y11123D01*
X3133Y11103D01*
X3129Y11080D01*
X3133Y11057D01*
X3147Y11037D01*
X3167Y11023D01*
X3190Y11019D01*
X3975D01*
Y10933D01*
X4029D01*
Y10885D01*
X3970D01*
Y10785D01*
X4075D01*
X4080Y10784D01*
X4085Y10785D01*
X4160D01*
Y10885D01*
X4131D01*
Y10933D01*
X4185D01*
Y11227D01*
D02*
G37*
G36*
X4160Y10695D02*
X4090D01*
Y10670D01*
X4160D01*
Y10695D01*
D02*
G37*
G36*
X4040D02*
X3970D01*
Y10670D01*
X4040D01*
Y10695D01*
D02*
G37*
G36*
X4160Y10620D02*
X4090D01*
Y10595D01*
X4160D01*
Y10620D01*
D02*
G37*
G36*
X4040D02*
X3970D01*
Y10595D01*
X4040D01*
Y10620D01*
D02*
G37*
G36*
X18175Y10482D02*
X18129D01*
Y10449D01*
X18175D01*
Y10482D01*
D02*
G37*
G36*
X18079D02*
X18033D01*
Y10449D01*
X18079D01*
Y10482D01*
D02*
G37*
G36*
X4185Y10557D02*
X4105D01*
Y10435D01*
X4185D01*
Y10557D01*
D02*
G37*
G36*
X4055D02*
X3975D01*
Y10435D01*
X4055D01*
Y10557D01*
D02*
G37*
G36*
X16756Y10480D02*
X16738D01*
Y10390D01*
X16756D01*
Y10480D01*
D02*
G37*
G36*
X16688D02*
X16671D01*
Y10390D01*
X16688D01*
Y10480D01*
D02*
G37*
G36*
X18175Y10399D02*
X18129D01*
Y10367D01*
X18175D01*
Y10399D01*
D02*
G37*
G36*
X18079D02*
X18033D01*
Y10367D01*
X18079D01*
Y10399D01*
D02*
G37*
G36*
X4185Y10385D02*
X4105D01*
Y10263D01*
X4185D01*
Y10385D01*
D02*
G37*
G36*
X4055D02*
X3975D01*
Y10263D01*
X4055D01*
Y10385D01*
D02*
G37*
G36*
X16840Y10578D02*
X16822Y10576D01*
X16805Y10569D01*
X16791Y10557D01*
X16779Y10543D01*
X16772Y10526D01*
X16770Y10507D01*
Y10365D01*
X16772Y10347D01*
X16779Y10330D01*
X16791Y10315D01*
X16798Y10309D01*
Y10250D01*
X16883D01*
Y10309D01*
X16890Y10315D01*
X16902Y10330D01*
X16909Y10347D01*
X16911Y10365D01*
Y10507D01*
X16909Y10526D01*
X16902Y10543D01*
X16890Y10557D01*
X16876Y10569D01*
X16859Y10576D01*
X16840Y10578D01*
D02*
G37*
G36*
X16756Y10340D02*
X16738D01*
Y10250D01*
X16756D01*
Y10340D01*
D02*
G37*
G36*
X16688D02*
X16671D01*
Y10250D01*
X16688D01*
Y10340D01*
D02*
G37*
G36*
X16091Y10578D02*
X16072Y10576D01*
X16055Y10569D01*
X16041Y10557D01*
X16029Y10543D01*
X16022Y10526D01*
X16020Y10507D01*
X16020Y10506D01*
X16020Y10505D01*
Y10365D01*
X16022Y10347D01*
X16029Y10330D01*
X16041Y10315D01*
X16048Y10309D01*
Y10250D01*
X16133D01*
Y10309D01*
X16140Y10315D01*
X16152Y10330D01*
X16159Y10347D01*
X16161Y10365D01*
Y10505D01*
X16161Y10506D01*
X16161Y10507D01*
X16159Y10526D01*
X16152Y10543D01*
X16140Y10557D01*
X16126Y10569D01*
X16109Y10576D01*
X16091Y10578D01*
D02*
G37*
G36*
X16006Y10340D02*
X15989D01*
Y10250D01*
X16006D01*
Y10340D01*
D02*
G37*
G36*
X15939D02*
X15921D01*
Y10250D01*
X15939D01*
Y10340D01*
D02*
G37*
G36*
X19007Y11124D02*
X18815D01*
Y11002D01*
X18806Y10991D01*
X18794Y10961D01*
X18790Y10930D01*
Y10410D01*
X18794Y10379D01*
X18806Y10349D01*
X18815Y10338D01*
Y10221D01*
X19007D01*
Y10338D01*
X19016Y10349D01*
X19028Y10379D01*
X19032Y10410D01*
Y10930D01*
X19028Y10961D01*
X19016Y10991D01*
X19007Y11002D01*
Y11124D01*
D02*
G37*
G36*
X16825Y10225D02*
X16475D01*
Y9945D01*
X16825D01*
Y10225D01*
D02*
G37*
G36*
X16075D02*
X15725D01*
Y9945D01*
X16075D01*
Y10225D01*
D02*
G37*
G36*
X1700Y10336D02*
X1679Y10332D01*
X1660Y10320D01*
X1648Y10301D01*
X1644Y10280D01*
Y10200D01*
X1648Y10179D01*
X1660Y10160D01*
X1940Y9880D01*
X1959Y9868D01*
X1980Y9864D01*
X2070D01*
X2092Y9868D01*
X2110Y9880D01*
X2122Y9899D01*
X2127Y9920D01*
X2122Y9941D01*
X2110Y9960D01*
X2092Y9972D01*
X2070Y9976D01*
X2003D01*
X1756Y10223D01*
Y10280D01*
X1752Y10301D01*
X1740Y10320D01*
X1721Y10332D01*
X1700Y10336D01*
D02*
G37*
G36*
X16133Y9920D02*
X16116D01*
Y9830D01*
X16133D01*
Y9920D01*
D02*
G37*
G36*
X16883D02*
X16865D01*
Y9830D01*
X16883D01*
Y9920D01*
D02*
G37*
G36*
X16815D02*
X16798D01*
Y9830D01*
X16815D01*
Y9920D01*
D02*
G37*
G36*
X16066D02*
X16048D01*
Y9830D01*
X16066D01*
Y9920D01*
D02*
G37*
G36*
X16815Y9780D02*
X16798D01*
Y9690D01*
X16815D01*
Y9780D01*
D02*
G37*
G36*
X16133D02*
X16116D01*
Y9690D01*
X16133D01*
Y9780D01*
D02*
G37*
G36*
X16066D02*
X16048D01*
Y9690D01*
X16066D01*
Y9780D01*
D02*
G37*
G36*
X21150Y10026D02*
X21116Y10022D01*
X21083Y10012D01*
X21052Y9996D01*
X21026Y9974D01*
X21004Y9948D01*
X20988Y9917D01*
X20978Y9884D01*
X20974Y9850D01*
X20978Y9816D01*
X20988Y9783D01*
X21004Y9752D01*
X21026Y9726D01*
X21052Y9704D01*
X21083Y9688D01*
X21116Y9678D01*
X21150Y9674D01*
X21184Y9678D01*
X21217Y9688D01*
X21248Y9704D01*
X21274Y9726D01*
X21296Y9752D01*
X21313Y9783D01*
X21323Y9816D01*
X21326Y9850D01*
X21323Y9884D01*
X21313Y9917D01*
X21296Y9948D01*
X21274Y9974D01*
X21248Y9996D01*
X21217Y10012D01*
X21184Y10022D01*
X21150Y10026D01*
D02*
G37*
G36*
X18875Y9598D02*
Y9505D01*
X18968D01*
X18967Y9511D01*
X18955Y9541D01*
X18936Y9566D01*
X18911Y9585D01*
X18881Y9597D01*
X18875Y9598D01*
D02*
G37*
G36*
X18825Y9598D02*
X18819Y9597D01*
X18789Y9585D01*
X18764Y9566D01*
X18745Y9541D01*
X18733Y9511D01*
X18732Y9505D01*
X18825D01*
Y9598D01*
D02*
G37*
G36*
X18250Y9543D02*
X18130D01*
Y9488D01*
X18250D01*
Y9543D01*
D02*
G37*
G36*
X18080D02*
X17960D01*
Y9488D01*
X18080D01*
Y9543D01*
D02*
G37*
G36*
X18250Y9438D02*
X18130D01*
Y9383D01*
X18250D01*
Y9438D01*
D02*
G37*
G36*
X18080D02*
X17960D01*
Y9383D01*
X18080D01*
Y9438D01*
D02*
G37*
G36*
X18968Y9455D02*
X18875D01*
Y9362D01*
X18881Y9363D01*
X18911Y9375D01*
X18936Y9394D01*
X18955Y9419D01*
X18967Y9449D01*
X18968Y9455D01*
D02*
G37*
G36*
X18825D02*
X18732D01*
X18733Y9449D01*
X18745Y9419D01*
X18764Y9394D01*
X18789Y9375D01*
X18819Y9363D01*
X18825Y9362D01*
Y9455D01*
D02*
G37*
G36*
X2326Y10109D02*
X2306Y10105D01*
X2290Y10094D01*
X2279Y10078D01*
X2275Y10058D01*
X2278Y10043D01*
X2193Y9351D01*
X2189Y9345D01*
X2185Y9325D01*
X2188Y9310D01*
X2088Y8499D01*
X2084Y8493D01*
X2080Y8474D01*
X2084Y8454D01*
X2095Y8438D01*
X2112Y8426D01*
X2131Y8423D01*
X2151Y8426D01*
X2167Y8438D01*
X2178Y8454D01*
X2182Y8474D01*
X2179Y8488D01*
X2279Y9299D01*
X2283Y9305D01*
X2287Y9325D01*
X2284Y9340D01*
X2369Y10033D01*
X2373Y10039D01*
X2377Y10058D01*
X2373Y10078D01*
X2362Y10094D01*
X2345Y10105D01*
X2326Y10109D01*
D02*
G37*
G36*
X11850Y12136D02*
X11832Y12133D01*
X11815Y12126D01*
X11801Y12115D01*
X11796Y12109D01*
X11780D01*
X11775Y12115D01*
X11761Y12126D01*
X11744Y12133D01*
X11725Y12136D01*
X11707Y12133D01*
X11690Y12126D01*
X11676Y12115D01*
X11671Y12109D01*
X11655D01*
X11650Y12115D01*
X11636Y12126D01*
X11619Y12133D01*
X11600Y12136D01*
X11582Y12133D01*
X11565Y12126D01*
X11551Y12115D01*
X11546Y12109D01*
X11530D01*
X11525Y12115D01*
X11511Y12126D01*
X11494Y12133D01*
X11475Y12136D01*
X11457Y12133D01*
X11440Y12126D01*
X11426Y12115D01*
X11414Y12100D01*
X11407Y12083D01*
X11405Y12065D01*
X11407Y12047D01*
X11414Y12030D01*
X11426Y12015D01*
X11440Y12004D01*
X11457Y11997D01*
X11475Y11994D01*
X11494Y11997D01*
X11511Y12004D01*
X11525Y12015D01*
X11530Y12021D01*
X11546D01*
X11551Y12015D01*
X11565Y12004D01*
X11582Y11997D01*
X11600Y11994D01*
X11619Y11997D01*
X11636Y12004D01*
X11650Y12015D01*
X11655Y12021D01*
X11671D01*
X11676Y12015D01*
X11690Y12004D01*
X11707Y11997D01*
X11725Y11994D01*
X11744Y11997D01*
X11761Y12004D01*
X11775Y12015D01*
X11780Y12021D01*
X11796D01*
X11801Y12015D01*
X11815Y12004D01*
X11832Y11997D01*
X11850Y11994D01*
X11869Y11997D01*
X11886Y12004D01*
X11900Y12015D01*
X11912Y12030D01*
X11919Y12047D01*
X11921Y12065D01*
X11919Y12083D01*
X11912Y12100D01*
X11900Y12115D01*
X11886Y12126D01*
X11869Y12133D01*
X11850Y12136D01*
D02*
G37*
G36*
X13121Y12165D02*
Y12097D01*
X13188D01*
X13179Y12120D01*
X13164Y12140D01*
X13144Y12155D01*
X13121Y12165D01*
D02*
G37*
G36*
X13071Y12165D02*
X13048Y12155D01*
X13028Y12140D01*
X13013Y12120D01*
X13004Y12097D01*
X13071D01*
Y12165D01*
D02*
G37*
G36*
X15310Y12198D02*
X15284Y12194D01*
X15260Y12184D01*
X15239Y12168D01*
X15223Y12147D01*
X15213Y12123D01*
X15209Y12097D01*
X15213Y12071D01*
X15223Y12047D01*
X15239Y12026D01*
X15260Y12010D01*
X15284Y12000D01*
X15310Y11996D01*
X15336Y12000D01*
X15360Y12010D01*
X15381Y12026D01*
X15397Y12047D01*
X15407Y12071D01*
X15411Y12097D01*
X15407Y12123D01*
X15397Y12147D01*
X15381Y12168D01*
X15360Y12184D01*
X15336Y12194D01*
X15310Y12198D01*
D02*
G37*
G36*
X13188Y12047D02*
X13121D01*
Y11980D01*
X13144Y11989D01*
X13164Y12004D01*
X13179Y12024D01*
X13188Y12047D01*
D02*
G37*
G36*
X13071D02*
X13004D01*
X13013Y12024D01*
X13028Y12004D01*
X13048Y11989D01*
X13071Y11980D01*
Y12047D01*
D02*
G37*
G36*
X13350Y12173D02*
X13324Y12170D01*
X13300Y12159D01*
X13279Y12143D01*
X13263Y12123D01*
X13253Y12098D01*
X13249Y12072D01*
X13253Y12046D01*
X13263Y12022D01*
X13279Y12001D01*
X13300Y11985D01*
X13324Y11975D01*
X13350Y11971D01*
X13376Y11975D01*
X13400Y11985D01*
X13421Y12001D01*
X13437Y12022D01*
X13447Y12046D01*
X13451Y12072D01*
X13447Y12098D01*
X13437Y12123D01*
X13421Y12143D01*
X13400Y12159D01*
X13376Y12170D01*
X13350Y12173D01*
D02*
G37*
G36*
X14668Y12104D02*
Y11930D01*
X14841D01*
X14840Y11944D01*
X14828Y11982D01*
X14810Y12017D01*
X14785Y12047D01*
X14754Y12072D01*
X14719Y12091D01*
X14682Y12102D01*
X14668Y12104D01*
D02*
G37*
G36*
X14618D02*
X14603Y12102D01*
X14566Y12091D01*
X14531Y12072D01*
X14500Y12047D01*
X14475Y12017D01*
X14457Y11982D01*
X14445Y11944D01*
X14444Y11930D01*
X14618D01*
Y12104D01*
D02*
G37*
G36*
X15310Y11944D02*
X15284Y11940D01*
X15260Y11930D01*
X15239Y11914D01*
X15223Y11893D01*
X15213Y11869D01*
X15209Y11843D01*
X15213Y11817D01*
X15223Y11793D01*
X15239Y11772D01*
X15260Y11756D01*
X15284Y11746D01*
X15310Y11742D01*
X15336Y11746D01*
X15360Y11756D01*
X15381Y11772D01*
X15397Y11793D01*
X15407Y11817D01*
X15411Y11843D01*
X15407Y11869D01*
X15397Y11893D01*
X15381Y11914D01*
X15360Y11930D01*
X15336Y11940D01*
X15310Y11944D01*
D02*
G37*
G36*
X14841Y11880D02*
X14668D01*
Y11706D01*
X14682Y11708D01*
X14719Y11719D01*
X14754Y11738D01*
X14785Y11763D01*
X14810Y11793D01*
X14828Y11828D01*
X14840Y11866D01*
X14841Y11880D01*
D02*
G37*
G36*
X14618D02*
X14444D01*
X14445Y11866D01*
X14457Y11828D01*
X14475Y11793D01*
X14500Y11763D01*
X14531Y11738D01*
X14566Y11719D01*
X14603Y11708D01*
X14618Y11706D01*
Y11880D01*
D02*
G37*
G36*
X6815Y11753D02*
X6789Y11749D01*
X6765Y11739D01*
X6744Y11723D01*
X6728Y11702D01*
X6718Y11678D01*
X6714Y11652D01*
X6718Y11626D01*
X6728Y11602D01*
X6744Y11581D01*
X6765Y11565D01*
X6789Y11555D01*
X6815Y11551D01*
X6841Y11555D01*
X6865Y11565D01*
X6886Y11581D01*
X6902Y11602D01*
X6912Y11626D01*
X6916Y11652D01*
X6912Y11678D01*
X6902Y11702D01*
X6886Y11723D01*
X6865Y11739D01*
X6841Y11749D01*
X6815Y11753D01*
D02*
G37*
G36*
X7168Y11756D02*
X7149Y11753D01*
X7132Y11746D01*
X7118Y11735D01*
X7106Y11720D01*
X7099Y11703D01*
X7097Y11685D01*
X7099Y11667D01*
X7106Y11650D01*
X7118Y11635D01*
X7124Y11631D01*
Y11614D01*
X7118Y11610D01*
X7106Y11595D01*
X7099Y11578D01*
X7097Y11560D01*
X7099Y11542D01*
X7106Y11525D01*
X7118Y11510D01*
X7132Y11499D01*
X7149Y11492D01*
X7168Y11489D01*
X7186Y11492D01*
X7203Y11499D01*
X7217Y11510D01*
X7229Y11525D01*
X7236Y11542D01*
X7238Y11560D01*
X7236Y11578D01*
X7229Y11595D01*
X7217Y11610D01*
X7211Y11614D01*
Y11631D01*
X7217Y11635D01*
X7229Y11650D01*
X7236Y11667D01*
X7238Y11685D01*
X7236Y11703D01*
X7229Y11720D01*
X7217Y11735D01*
X7203Y11746D01*
X7186Y11753D01*
X7168Y11756D01*
D02*
G37*
G36*
X6815Y11499D02*
X6789Y11495D01*
X6765Y11485D01*
X6744Y11469D01*
X6728Y11448D01*
X6718Y11424D01*
X6714Y11398D01*
X6718Y11372D01*
X6728Y11348D01*
X6744Y11327D01*
X6765Y11311D01*
X6789Y11301D01*
X6815Y11297D01*
X6841Y11301D01*
X6865Y11311D01*
X6886Y11327D01*
X6902Y11348D01*
X6912Y11372D01*
X6916Y11398D01*
X6912Y11424D01*
X6902Y11448D01*
X6886Y11469D01*
X6865Y11485D01*
X6841Y11495D01*
X6815Y11499D01*
D02*
G37*
G36*
X14449Y11246D02*
X14414Y11242D01*
X14381Y11232D01*
X14351Y11216D01*
X14324Y11194D01*
X14302Y11168D01*
X14286Y11137D01*
X14276Y11104D01*
X14273Y11070D01*
X14276Y11036D01*
X14286Y11003D01*
X14302Y10972D01*
X14324Y10946D01*
X14351Y10924D01*
X14381Y10908D01*
X14414Y10898D01*
X14449Y10894D01*
X14483Y10898D01*
X14516Y10908D01*
X14546Y10924D01*
X14573Y10946D01*
X14595Y10972D01*
X14611Y11003D01*
X14621Y11036D01*
X14624Y11070D01*
X14621Y11104D01*
X14611Y11137D01*
X14595Y11168D01*
X14573Y11194D01*
X14546Y11216D01*
X14516Y11232D01*
X14483Y11242D01*
X14449Y11246D01*
D02*
G37*
G36*
X9899Y11271D02*
X9879Y11267D01*
X9862Y11256D01*
X9851Y11240D01*
X9848Y11220D01*
X9851Y11200D01*
X9853Y11199D01*
Y10901D01*
X9851Y10900D01*
X9848Y10880D01*
X9851Y10860D01*
X9862Y10844D01*
X9879Y10833D01*
X9899Y10829D01*
X9918Y10833D01*
X9935Y10844D01*
X9946Y10860D01*
X9949Y10880D01*
X9946Y10900D01*
X9944Y10901D01*
Y11199D01*
X9946Y11200D01*
X9949Y11220D01*
X9946Y11240D01*
X9935Y11256D01*
X9918Y11267D01*
X9899Y11271D01*
D02*
G37*
G36*
X5847Y10726D02*
X5842Y10725D01*
X5838Y10726D01*
X5819Y10723D01*
X5802Y10716D01*
X5788Y10705D01*
X5776Y10690D01*
X5769Y10673D01*
X5767Y10655D01*
X5769Y10637D01*
X5776Y10620D01*
X5777Y10619D01*
Y10368D01*
X5779Y10350D01*
X5786Y10333D01*
X5798Y10318D01*
X5805Y10312D01*
Y10250D01*
X5890D01*
Y10312D01*
X5897Y10318D01*
X5909Y10333D01*
X5916Y10350D01*
X5918Y10368D01*
Y10655D01*
X5916Y10673D01*
X5909Y10690D01*
X5897Y10705D01*
X5883Y10716D01*
X5866Y10723D01*
X5847Y10726D01*
D02*
G37*
G36*
X7249Y10806D02*
X7214Y10802D01*
X7181Y10792D01*
X7151Y10776D01*
X7124Y10754D01*
X7102Y10728D01*
X7086Y10697D01*
X7076Y10664D01*
X7073Y10630D01*
X7076Y10596D01*
X7086Y10563D01*
X7102Y10532D01*
X7124Y10506D01*
X7151Y10484D01*
X7181Y10468D01*
X7214Y10458D01*
X7249Y10454D01*
X7283Y10458D01*
X7316Y10468D01*
X7346Y10484D01*
X7373Y10506D01*
X7395Y10532D01*
X7411Y10563D01*
X7421Y10596D01*
X7424Y10630D01*
X7421Y10664D01*
X7411Y10697D01*
X7395Y10728D01*
X7373Y10754D01*
X7346Y10776D01*
X7316Y10792D01*
X7283Y10802D01*
X7249Y10806D01*
D02*
G37*
G36*
X5763Y10480D02*
X5745D01*
Y10390D01*
X5763D01*
Y10480D01*
D02*
G37*
G36*
X5695D02*
X5678D01*
Y10390D01*
X5695D01*
Y10480D01*
D02*
G37*
G36*
X5006Y10480D02*
X4989D01*
Y10390D01*
X5006D01*
Y10480D01*
D02*
G37*
G36*
X4939D02*
X4921D01*
Y10390D01*
X4939D01*
Y10480D01*
D02*
G37*
G36*
X12752Y10906D02*
X12625D01*
X12607Y10903D01*
X12590Y10896D01*
X12575Y10885D01*
X12564Y10870D01*
X12557Y10853D01*
X12554Y10835D01*
X12557Y10817D01*
X12564Y10800D01*
X12575Y10785D01*
X12590Y10774D01*
X12607Y10767D01*
X12625Y10764D01*
X12723D01*
X13190Y10298D01*
X13205Y10286D01*
X13222Y10279D01*
X13240Y10277D01*
X13258Y10279D01*
X13275Y10286D01*
X13290Y10298D01*
X13301Y10312D01*
X13308Y10329D01*
X13311Y10347D01*
X13308Y10366D01*
X13301Y10383D01*
X13290Y10397D01*
X12802Y10885D01*
X12788Y10896D01*
X12771Y10903D01*
X12752Y10906D01*
D02*
G37*
G36*
X5763Y10340D02*
X5745D01*
Y10250D01*
X5763D01*
Y10340D01*
D02*
G37*
G36*
X5695D02*
X5678D01*
Y10250D01*
X5695D01*
Y10340D01*
D02*
G37*
G36*
X5006Y10340D02*
X4989D01*
Y10250D01*
X5006D01*
Y10340D01*
D02*
G37*
G36*
X4939D02*
X4921D01*
Y10250D01*
X4939D01*
Y10340D01*
D02*
G37*
G36*
X5832Y10225D02*
X5482D01*
Y9945D01*
X5832D01*
Y10225D01*
D02*
G37*
G36*
X5075Y10225D02*
X4725D01*
Y9945D01*
X5075D01*
Y10225D01*
D02*
G37*
G36*
X5890Y9920D02*
X5872D01*
Y9830D01*
X5890D01*
Y9920D01*
D02*
G37*
G36*
X5822D02*
X5805D01*
Y9830D01*
X5822D01*
Y9920D01*
D02*
G37*
G36*
X5133Y9920D02*
X5116D01*
Y9830D01*
X5133D01*
Y9920D01*
D02*
G37*
G36*
X5066D02*
X5048D01*
Y9830D01*
X5066D01*
Y9920D01*
D02*
G37*
G36*
X14049Y11931D02*
X13749D01*
X13737Y11928D01*
X13727Y11922D01*
X13720Y11912D01*
X13718Y11900D01*
Y9800D01*
X13720Y9788D01*
X13727Y9778D01*
X13737Y9772D01*
X13749Y9769D01*
X14049D01*
X14060Y9772D01*
X14070Y9778D01*
X14077Y9788D01*
X14079Y9800D01*
Y11900D01*
X14077Y11912D01*
X14070Y11922D01*
X14060Y11928D01*
X14049Y11931D01*
D02*
G37*
G36*
X7949D02*
X7649D01*
X7637Y11928D01*
X7627Y11922D01*
X7620Y11912D01*
X7618Y11900D01*
Y9800D01*
X7620Y9788D01*
X7627Y9778D01*
X7637Y9772D01*
X7649Y9769D01*
X7949D01*
X7960Y9772D01*
X7970Y9778D01*
X7977Y9788D01*
X7979Y9800D01*
Y11900D01*
X7977Y11912D01*
X7970Y11922D01*
X7960Y11928D01*
X7949Y11931D01*
D02*
G37*
G36*
X6382Y9926D02*
X6356Y9922D01*
X6332Y9912D01*
X6311Y9896D01*
X6295Y9875D01*
X6285Y9851D01*
X6281Y9825D01*
X6285Y9799D01*
X6295Y9775D01*
X6311Y9754D01*
X6332Y9738D01*
X6356Y9728D01*
X6382Y9724D01*
X6408Y9728D01*
X6432Y9738D01*
X6453Y9754D01*
X6469Y9775D01*
X6479Y9799D01*
X6483Y9825D01*
X6479Y9851D01*
X6469Y9875D01*
X6453Y9896D01*
X6432Y9912D01*
X6408Y9922D01*
X6382Y9926D01*
D02*
G37*
G36*
X6128D02*
X6102Y9922D01*
X6078Y9912D01*
X6057Y9896D01*
X6041Y9875D01*
X6031Y9851D01*
X6027Y9825D01*
X6031Y9799D01*
X6041Y9775D01*
X6057Y9754D01*
X6078Y9738D01*
X6102Y9728D01*
X6128Y9724D01*
X6154Y9728D01*
X6178Y9738D01*
X6199Y9754D01*
X6215Y9775D01*
X6225Y9799D01*
X6229Y9825D01*
X6225Y9851D01*
X6215Y9875D01*
X6199Y9896D01*
X6178Y9912D01*
X6154Y9922D01*
X6128Y9926D01*
D02*
G37*
G36*
X5890Y9780D02*
X5872D01*
Y9690D01*
X5890D01*
Y9780D01*
D02*
G37*
G36*
X5822D02*
X5805D01*
Y9690D01*
X5822D01*
Y9780D01*
D02*
G37*
G36*
X5133Y9780D02*
X5116D01*
Y9690D01*
X5133D01*
Y9780D01*
D02*
G37*
G36*
X5066D02*
X5048D01*
Y9690D01*
X5066D01*
Y9780D01*
D02*
G37*
G36*
X5636Y9920D02*
X5551D01*
Y9690D01*
X5551D01*
Y9675D01*
X5547Y9670D01*
X5543Y9650D01*
X5547Y9630D01*
X5558Y9614D01*
X5575Y9603D01*
X5594Y9599D01*
X5614Y9603D01*
X5630Y9614D01*
X5641Y9630D01*
X5645Y9650D01*
X5641Y9670D01*
X5637Y9675D01*
Y9805D01*
X5636Y9813D01*
Y9920D01*
D02*
G37*
G36*
X4879Y9920D02*
X4794D01*
Y9809D01*
X4793Y9805D01*
Y9675D01*
X4789Y9670D01*
X4786Y9650D01*
X4789Y9630D01*
X4800Y9614D01*
X4817Y9603D01*
X4837Y9599D01*
X4856Y9603D01*
X4873Y9614D01*
X4884Y9630D01*
X4887Y9650D01*
X4884Y9670D01*
X4880Y9675D01*
Y9805D01*
X4879Y9809D01*
Y9920D01*
D02*
G37*
G36*
X15312Y9526D02*
X15286Y9522D01*
X15262Y9512D01*
X15241Y9496D01*
X15225Y9475D01*
X15215Y9451D01*
X15211Y9425D01*
X15215Y9399D01*
X15225Y9375D01*
X15241Y9354D01*
X15262Y9338D01*
X15286Y9328D01*
X15312Y9324D01*
X15338Y9328D01*
X15362Y9338D01*
X15383Y9354D01*
X15399Y9375D01*
X15409Y9399D01*
X15413Y9425D01*
X15409Y9451D01*
X15399Y9475D01*
X15383Y9496D01*
X15362Y9512D01*
X15338Y9522D01*
X15312Y9526D01*
D02*
G37*
G36*
X15058D02*
X15032Y9522D01*
X15008Y9512D01*
X14987Y9496D01*
X14971Y9475D01*
X14961Y9451D01*
X14957Y9425D01*
X14961Y9399D01*
X14971Y9375D01*
X14987Y9354D01*
X15008Y9338D01*
X15032Y9328D01*
X15058Y9324D01*
X15084Y9328D01*
X15108Y9338D01*
X15129Y9354D01*
X15145Y9375D01*
X15155Y9399D01*
X15159Y9425D01*
X15155Y9451D01*
X15145Y9475D01*
X15129Y9496D01*
X15108Y9512D01*
X15084Y9522D01*
X15058Y9526D01*
D02*
G37*
%LPD*%
D11*
X4080Y11080D02*
X4080Y11080D01*
Y10835D02*
Y11080D01*
D19*
X4710Y10885D02*
X4725Y10900D01*
X4575Y10750D02*
X4710Y10885D01*
X4575Y10750D02*
Y10750D01*
X3060Y10170D02*
X3600Y9630D01*
X3060Y10170D02*
Y10530D01*
X3600Y9510D02*
Y9630D01*
X3190Y11080D02*
X4080D01*
X4575Y10410D02*
Y10750D01*
Y9700D02*
Y10410D01*
X4800Y9475D02*
X4800Y9475D01*
X4575Y9700D02*
X4800Y9475D01*
X14049Y9800D02*
Y11900D01*
X13749D02*
X14049D01*
X13749Y9800D02*
Y11900D01*
Y9800D02*
X14049D01*
X4367Y15480D02*
X4446Y15549D01*
X4280Y15422D02*
X4367Y15480D01*
X4186Y15375D02*
X4280Y15422D01*
X4087Y15342D02*
X4186Y15375D01*
X3984Y15321D02*
X4087Y15342D01*
X3880Y15314D02*
X3984Y15321D01*
X2574Y15314D02*
X3880D01*
X2481Y15309D02*
X2574Y15314D01*
X2391Y15293D02*
X2481Y15309D01*
X2302Y15267D02*
X2391Y15293D01*
X2217Y15231D02*
X2302Y15267D01*
X2137Y15185D02*
X2217Y15231D01*
X2063Y15130D02*
X2137Y15185D01*
X1995Y15067D02*
X2063Y15130D01*
X1936Y14997D02*
X1995Y15067D01*
X1884Y14920D02*
X1936Y14997D01*
X1842Y14838D02*
X1884Y14920D01*
X1703Y14508D02*
X1842Y14838D01*
X1576Y14173D02*
X1703Y14508D01*
X1555Y14097D02*
X1576Y14173D01*
X1547Y14019D02*
X1555Y14097D01*
X1547Y14019D02*
X1550Y13941D01*
X1566Y13865D01*
X1594Y13792D01*
X1633Y13724D01*
X1681Y13662D01*
X1739Y13610D01*
X1804Y13567D01*
X1876Y13534D01*
X4002Y12760D01*
X4113Y12727D01*
X4228Y12707D01*
X4344Y12700D01*
X20027D01*
X20092Y12705D01*
X20156Y12721D01*
X20216Y12748D01*
X20272Y12784D01*
X20320Y12828D01*
X20361Y12880D01*
X20392Y12938D01*
X20414Y13000D01*
X20425Y13064D01*
X20426Y13130D01*
X20415Y13195D02*
X20426Y13130D01*
X20327Y13531D02*
X20415Y13195D01*
X20226Y13864D02*
X20327Y13531D01*
X20114Y14193D02*
X20226Y13864D01*
X19990Y14518D02*
X20114Y14193D01*
X19855Y14838D02*
X19990Y14518D01*
X19813Y14920D02*
X19855Y14838D01*
X19761Y14997D02*
X19813Y14920D01*
X19702Y15067D02*
X19761Y14997D01*
X19634Y15130D02*
X19702Y15067D01*
X19560Y15185D02*
X19634Y15130D01*
X19480Y15231D02*
X19560Y15185D01*
X19395Y15267D02*
X19480Y15231D01*
X19306Y15293D02*
X19395Y15267D01*
X19216Y15309D02*
X19306Y15293D01*
X19123Y15314D02*
X19216Y15309D01*
X17817Y15314D02*
X19123D01*
X17713Y15321D02*
X17817Y15314D01*
X17610Y15342D02*
X17713Y15321D01*
X17511Y15375D02*
X17610Y15342D01*
X17417Y15422D02*
X17511Y15375D01*
X17330Y15480D02*
X17417Y15422D01*
X17251Y15549D02*
X17330Y15480D01*
X16734Y16066D02*
X17251Y15549D01*
X16656Y16135D02*
X16734Y16066D01*
X16569Y16193D02*
X16656Y16135D01*
X16475Y16239D02*
X16569Y16193D01*
X16376Y16273D02*
X16475Y16239D01*
X16273Y16293D02*
X16376Y16273D01*
X16169Y16300D02*
X16273Y16293D01*
X15199Y16300D02*
X16169D01*
X15154Y16295D02*
X15199Y16300D01*
X15112Y16280D02*
X15154Y16295D01*
X15074Y16256D02*
X15112Y16280D01*
X15042Y16225D02*
X15074Y16256D01*
X15018Y16187D02*
X15042Y16225D01*
X15004Y16145D02*
X15018Y16187D01*
X14999Y16100D02*
X15004Y16145D01*
X14999Y16050D02*
Y16100D01*
X14992Y15981D02*
X14999Y16050D01*
X14974Y15913D02*
X14992Y15981D01*
X14945Y15850D02*
X14974Y15913D01*
X14905Y15793D02*
X14945Y15850D01*
X14856Y15744D02*
X14905Y15793D01*
X14799Y15704D02*
X14856Y15744D01*
X14735Y15674D02*
X14799Y15704D01*
X14668Y15656D02*
X14735Y15674D01*
X14599Y15650D02*
X14668Y15656D01*
X14099Y15650D02*
X14599D01*
X14029Y15656D02*
X14099Y15650D01*
X13962Y15674D02*
X14029Y15656D01*
X13899Y15704D02*
X13962Y15674D01*
X13841Y15744D02*
X13899Y15704D01*
X13792Y15793D02*
X13841Y15744D01*
X13752Y15850D02*
X13792Y15793D01*
X13723Y15913D02*
X13752Y15850D01*
X13705Y15981D02*
X13723Y15913D01*
X13699Y16050D02*
X13705Y15981D01*
X13699Y16050D02*
Y16600D01*
X13692Y16669D02*
X13699Y16600D01*
X13674Y16737D02*
X13692Y16669D01*
X13645Y16800D02*
X13674Y16737D01*
X13605Y16857D02*
X13645Y16800D01*
X13556Y16906D02*
X13605Y16857D01*
X13499Y16946D02*
X13556Y16906D01*
X13435Y16976D02*
X13499Y16946D01*
X13368Y16994D02*
X13435Y16976D01*
X13299Y17000D02*
X13368Y16994D01*
X8399Y17000D02*
X13299D01*
X8329Y16994D02*
X8399Y17000D01*
X8262Y16976D02*
X8329Y16994D01*
X8199Y16946D02*
X8262Y16976D01*
X8141Y16906D02*
X8199Y16946D01*
X8092Y16857D02*
X8141Y16906D01*
X8052Y16800D02*
X8092Y16857D01*
X8023Y16737D02*
X8052Y16800D01*
X8005Y16669D02*
X8023Y16737D01*
X7999Y16600D02*
X8005Y16669D01*
X7999Y16050D02*
Y16600D01*
X7992Y15981D02*
X7999Y16050D01*
X7974Y15913D02*
X7992Y15981D01*
X7945Y15850D02*
X7974Y15913D01*
X7905Y15793D02*
X7945Y15850D01*
X7856Y15744D02*
X7905Y15793D01*
X7799Y15704D02*
X7856Y15744D01*
X7735Y15674D02*
X7799Y15704D01*
X7668Y15656D02*
X7735Y15674D01*
X7599Y15650D02*
X7668Y15656D01*
X7099Y15650D02*
X7599D01*
X7029Y15656D02*
X7099Y15650D01*
X6962Y15674D02*
X7029Y15656D01*
X6899Y15704D02*
X6962Y15674D01*
X6841Y15744D02*
X6899Y15704D01*
X6792Y15793D02*
X6841Y15744D01*
X6752Y15850D02*
X6792Y15793D01*
X6723Y15913D02*
X6752Y15850D01*
X6705Y15981D02*
X6723Y15913D01*
X6699Y16050D02*
X6705Y15981D01*
X6699Y16050D02*
Y16100D01*
X6693Y16145D02*
X6699Y16100D01*
X6679Y16187D02*
X6693Y16145D01*
X6655Y16225D02*
X6679Y16187D01*
X6623Y16256D02*
X6655Y16225D01*
X6585Y16280D02*
X6623Y16256D01*
X6543Y16295D02*
X6585Y16280D01*
X6499Y16300D02*
X6543Y16295D01*
X5528Y16300D02*
X6499D01*
X5424Y16293D02*
X5528Y16300D01*
X5321Y16273D02*
X5424Y16293D01*
X5222Y16239D02*
X5321Y16273D01*
X5128Y16193D02*
X5222Y16239D01*
X5041Y16135D02*
X5128Y16193D01*
X4963Y16066D02*
X5041Y16135D01*
X4446Y15549D02*
X4963Y16066D01*
X1883Y7940D02*
X1948Y7970D01*
X1822Y7901D02*
X1883Y7940D01*
X1767Y7854D02*
X1822Y7901D01*
X1720Y7800D02*
X1767Y7854D01*
X1681Y7739D02*
X1720Y7800D01*
X1651Y7674D02*
X1681Y7739D01*
X1630Y7604D02*
X1651Y7674D01*
X1620Y7533D02*
X1630Y7604D01*
X1620Y7533D02*
X1621Y7461D01*
X1632Y7390D01*
X1653Y7321D01*
X1842Y6862D01*
X1884Y6780D01*
X1936Y6703D01*
X1995Y6633D01*
X2063Y6570D01*
X2137Y6515D01*
X2217Y6469D01*
X2302Y6433D01*
X2391Y6407D01*
X2481Y6391D01*
X2574Y6386D01*
X3880D01*
X3984Y6379D01*
X4087Y6358D01*
X4186Y6325D01*
X4280Y6278D01*
X4367Y6220D01*
X4446Y6151D01*
X6150Y4447D01*
X6219Y4368D01*
X6277Y4281D01*
X6323Y4188D01*
X6357Y4088D01*
X6377Y3986D01*
X6384Y3881D01*
Y2575D02*
Y3881D01*
Y2575D02*
X6389Y2483D01*
X6405Y2392D01*
X6432Y2304D01*
X6468Y2219D01*
X6514Y2139D01*
X6568Y2064D01*
X6631Y1997D01*
X6701Y1937D01*
X6778Y1886D01*
X6860Y1844D01*
X7175Y1710D01*
X7495Y1588D01*
X7819Y1478D01*
X8146Y1378D01*
X8477Y1290D01*
X8810Y1213D01*
X9146Y1148D01*
X9484Y1095D01*
X9824Y1053D01*
X10165Y1024D01*
X10506Y1006D01*
X10849Y1000D01*
X11191Y1006D01*
X11532Y1024D01*
X11873Y1053D01*
X12213Y1095D01*
X12551Y1148D01*
X12887Y1213D01*
X13220Y1290D01*
X13551Y1378D01*
X13878Y1478D01*
X14202Y1588D01*
X14522Y1710D01*
X14837Y1844D01*
X14919Y1886D01*
X14996Y1937D01*
X15066Y1997D01*
X15129Y2064D01*
X15183Y2139D01*
X15229Y2219D01*
X15265Y2304D01*
X15292Y2392D01*
X15308Y2483D01*
X15313Y2575D01*
Y3881D01*
X15320Y3986D01*
X15340Y4088D01*
X15374Y4188D01*
X15420Y4281D01*
X15478Y4368D01*
X15547Y4447D01*
X17251Y6151D01*
X17330Y6220D01*
X17417Y6278D01*
X17511Y6325D01*
X17610Y6358D01*
X17713Y6379D01*
X17817Y6386D01*
X19123D01*
X19216Y6391D01*
X19306Y6407D01*
X19395Y6433D01*
X19480Y6469D01*
X19560Y6515D01*
X19634Y6570D01*
X19702Y6633D01*
X19761Y6703D01*
X19813Y6780D01*
X19855Y6862D01*
X20002Y7213D01*
X20136Y7569D01*
X20256Y7931D01*
X20362Y8296D01*
X20374Y8362D01*
X20374Y8428D01*
X20364Y8494D02*
X20374Y8428D01*
X20343Y8557D02*
X20364Y8494D01*
X20312Y8616D02*
X20343Y8557D01*
X20271Y8669D02*
X20312Y8616D01*
X20223Y8714D02*
X20271Y8669D01*
X20167Y8751D02*
X20223Y8714D01*
X20106Y8778D02*
X20167Y8751D01*
X20042Y8794D02*
X20106Y8778D01*
X19975Y8800D02*
X20042Y8794D01*
X4406Y8800D02*
X19975D01*
X4290Y8793D02*
X4406Y8800D01*
X4176Y8773D02*
X4290Y8793D01*
X4064Y8740D02*
X4176Y8773D01*
X1948Y7970D02*
X4064Y8740D01*
X7649Y11900D02*
X7949D01*
X7649Y9800D02*
Y11900D01*
Y9800D02*
X7949D01*
Y11900D01*
X5607Y20350D02*
X5674Y20381D01*
X5745Y20401D01*
X5819Y20411D01*
X5893Y20410D01*
X5966Y20398D01*
X6036Y20376D01*
X6103Y20343D01*
X6163Y20300D01*
X6217Y20250D01*
X6263Y20192D01*
X6300Y20127D01*
X6327Y20058D01*
X6343Y19986D01*
X6349Y19912D01*
Y19545D02*
Y19912D01*
Y19545D02*
X6355Y19476D01*
X6372Y19409D01*
X6402Y19346D01*
X6441Y19289D01*
X7229Y18344D01*
X7278Y18294D01*
X7335Y18254D01*
X7399Y18224D01*
X7466Y18206D01*
X7536Y18200D01*
X14183D01*
X14261Y18208D01*
X14336Y18230D01*
X14405Y18267D01*
X14466Y18317D01*
X15231Y19083D01*
X15281Y19143D01*
X15318Y19213D01*
X15341Y19288D01*
X15349Y19366D01*
Y19912D01*
X15354Y19986D01*
X15370Y20058D01*
X15397Y20127D01*
X15434Y20192D01*
X15480Y20250D01*
X15534Y20300D01*
X15594Y20343D01*
X15661Y20376D01*
X15731Y20398D01*
X15804Y20410D01*
X15878Y20411D01*
X15952Y20401D01*
X16023Y20381D01*
X16090Y20350D01*
X16379Y20185D01*
X16663Y20011D01*
X16941Y19828D01*
X17213Y19637D01*
X17480Y19438D01*
X17740Y19231D01*
X17993Y19015D01*
X18240Y18792D01*
X18481Y18562D01*
X18713Y18324D01*
X18939Y18080D01*
X19157Y17828D01*
X19367Y17570D01*
X19569Y17306D01*
X19763Y17035D01*
X19948Y16759D01*
X20125Y16477D01*
X20293Y16190D01*
X20453Y15898D01*
X20603Y15601D01*
X20744Y15300D01*
X20876Y14994D01*
X20998Y14685D01*
X21111Y14372D01*
X21214Y14056D01*
X21308Y13736D01*
X21391Y13414D01*
X21465Y13090D01*
X21528Y12763D01*
X21582Y12435D01*
X21626Y12105D01*
X21659Y11774D01*
X21682Y11442D01*
X21695Y11109D01*
X21698Y10777D01*
X21691Y10444D02*
X21698Y10777D01*
X21673Y10112D02*
X21691Y10444D01*
X21646Y9780D02*
X21673Y10112D01*
X21608Y9450D02*
X21646Y9780D01*
X21560Y9120D02*
X21608Y9450D01*
X21502Y8793D02*
X21560Y9120D01*
X21434Y8467D02*
X21502Y8793D01*
X21356Y8144D02*
X21434Y8467D01*
X21268Y7823D02*
X21356Y8144D01*
X21170Y7505D02*
X21268Y7823D01*
X21062Y7190D02*
X21170Y7505D01*
X20945Y6878D02*
X21062Y7190D01*
X20819Y6571D02*
X20945Y6878D01*
X20683Y6267D02*
X20819Y6571D01*
X20538Y5968D02*
X20683Y6267D01*
X20384Y5673D02*
X20538Y5968D01*
X20220Y5383D02*
X20384Y5673D01*
X20048Y5098D02*
X20220Y5383D01*
X19868Y4819D02*
X20048Y5098D01*
X19678Y4545D02*
X19868Y4819D01*
X19481Y4277D02*
X19678Y4545D01*
X19275Y4015D02*
X19481Y4277D01*
X19062Y3760D02*
X19275Y4015D01*
X18841Y3512D02*
X19062Y3760D01*
X18612Y3270D02*
X18841Y3512D01*
X18376Y3036D02*
X18612Y3270D01*
X18133Y2809D02*
X18376Y3036D01*
X17883Y2589D02*
X18133Y2809D01*
X17626Y2377D02*
X17883Y2589D01*
X17363Y2173D02*
X17626Y2377D01*
X17094Y1978D02*
X17363Y2173D01*
X16819Y1790D02*
X17094Y1978D01*
X16538Y1612D02*
X16819Y1790D01*
X16252Y1441D02*
X16538Y1612D01*
X15961Y1280D02*
X16252Y1441D01*
X15665Y1128D02*
X15961Y1280D01*
X15365Y985D02*
X15665Y1128D01*
X15060Y851D02*
X15365Y985D01*
X14752Y726D02*
X15060Y851D01*
X14440Y612D02*
X14752Y726D01*
X14124Y506D02*
X14440Y612D01*
X13805Y411D02*
X14124Y506D01*
X13484Y325D02*
X13805Y411D01*
X13160Y249D02*
X13484Y325D01*
X12834Y183D02*
X13160Y249D01*
X12506Y127D02*
X12834Y183D01*
X12176Y82D02*
X12506Y127D01*
X11845Y46D02*
X12176Y82D01*
X11514Y20D02*
X11845Y46D01*
X11181Y5D02*
X11514Y20D01*
X10849Y-0D02*
X11181Y5D01*
X10516D02*
X10849Y-0D01*
X10183Y20D02*
X10516Y5D01*
X9852Y46D02*
X10183Y20D01*
X9521Y82D02*
X9852Y46D01*
X9191Y127D02*
X9521Y82D01*
X8863Y183D02*
X9191Y127D01*
X8537Y249D02*
X8863Y183D01*
X8213Y325D02*
X8537Y249D01*
X7892Y411D02*
X8213Y325D01*
X7573Y506D02*
X7892Y411D01*
X7257Y612D02*
X7573Y506D01*
X6945Y726D02*
X7257Y612D01*
X6637Y851D02*
X6945Y726D01*
X6332Y985D02*
X6637Y851D01*
X6032Y1128D02*
X6332Y985D01*
X5736Y1280D02*
X6032Y1128D01*
X5445Y1441D02*
X5736Y1280D01*
X5159Y1612D02*
X5445Y1441D01*
X4878Y1790D02*
X5159Y1612D01*
X4603Y1978D02*
X4878Y1790D01*
X4334Y2173D02*
X4603Y1978D01*
X4071Y2377D02*
X4334Y2173D01*
X3814Y2589D02*
X4071Y2377D01*
X3564Y2809D02*
X3814Y2589D01*
X3321Y3036D02*
X3564Y2809D01*
X3085Y3270D02*
X3321Y3036D01*
X2856Y3512D02*
X3085Y3270D01*
X2635Y3760D02*
X2856Y3512D01*
X2422Y4015D02*
X2635Y3760D01*
X2216Y4277D02*
X2422Y4015D01*
X2019Y4545D02*
X2216Y4277D01*
X1829Y4819D02*
X2019Y4545D01*
X1649Y5098D02*
X1829Y4819D01*
X1477Y5383D02*
X1649Y5098D01*
X1313Y5673D02*
X1477Y5383D01*
X1159Y5968D02*
X1313Y5673D01*
X1014Y6267D02*
X1159Y5968D01*
X878Y6571D02*
X1014Y6267D01*
X752Y6878D02*
X878Y6571D01*
X635Y7190D02*
X752Y6878D01*
X527Y7505D02*
X635Y7190D01*
X429Y7823D02*
X527Y7505D01*
X341Y8144D02*
X429Y7823D01*
X263Y8467D02*
X341Y8144D01*
X195Y8793D02*
X263Y8467D01*
X137Y9120D02*
X195Y8793D01*
X89Y9450D02*
X137Y9120D01*
X51Y9780D02*
X89Y9450D01*
X24Y10112D02*
X51Y9780D01*
X6Y10444D02*
X24Y10112D01*
X-1Y10777D02*
X6Y10444D01*
X-1Y10777D02*
X2Y11109D01*
X15Y11442D01*
X38Y11774D01*
X71Y12105D01*
X115Y12435D01*
X169Y12763D01*
X232Y13090D01*
X306Y13414D01*
X389Y13736D01*
X483Y14056D01*
X586Y14372D01*
X699Y14685D01*
X821Y14994D01*
X953Y15300D01*
X1094Y15601D01*
X1244Y15898D01*
X1404Y16190D01*
X1572Y16477D01*
X1749Y16759D01*
X1934Y17035D01*
X2128Y17306D01*
X2330Y17570D01*
X2540Y17828D01*
X2758Y18080D01*
X2984Y18324D01*
X3216Y18562D01*
X3457Y18792D01*
X3704Y19015D01*
X3957Y19231D01*
X4217Y19438D01*
X4484Y19637D01*
X4756Y19828D01*
X5034Y20011D01*
X5318Y20185D01*
X5607Y20350D01*
X14049Y9800D02*
Y11900D01*
X13749D02*
X14049D01*
X13749Y9800D02*
Y11900D01*
Y9800D02*
X14049D01*
X7649Y11900D02*
X7949D01*
X7649Y9800D02*
Y11900D01*
Y9800D02*
X7949D01*
Y11900D01*
D62*
X18104Y10424D02*
D03*
Y10276D02*
D03*
D70*
X18124Y10900D02*
D03*
X17976D02*
D03*
D86*
X4295Y10740D02*
D03*
X4065Y10835D02*
D03*
Y10645D02*
D03*
D94*
X18476Y11250D02*
X18526Y11300D01*
X18800D01*
X18475Y11251D02*
X18476Y11250D01*
X18124Y10900D02*
X18475Y11251D01*
X9710Y9497D02*
X9712D01*
X11125Y10911D01*
X9700Y9230D02*
X11540Y11070D01*
X11620D01*
X12943Y10455D02*
X13682Y9715D01*
X12907Y10403D02*
X13660Y9650D01*
X12740Y10455D02*
X12943D01*
X12703Y10418D02*
X12740Y10455D01*
X12518Y10418D02*
X12703D01*
X12475Y10375D02*
X12518Y10418D01*
X12475Y10350D02*
Y10375D01*
X12770Y10403D02*
X12907D01*
X12718Y10350D02*
X12770Y10403D01*
X12557Y10350D02*
X12718D01*
X15882Y9397D02*
X16045D01*
X15925Y9345D02*
X16070D01*
X15775Y9195D02*
X15925Y9345D01*
X16045Y9397D02*
X16227Y9580D01*
X16250Y9525D02*
X16882D01*
X16070Y9345D02*
X16250Y9525D01*
X11708Y10279D02*
X11731D01*
X11285Y10703D02*
X11708Y10279D01*
X9705Y9325D02*
X11310Y10930D01*
X11731Y10279D02*
X12687Y10278D01*
X11225Y10640D02*
X11270D01*
X11712Y10197D01*
X12812D01*
X11165Y10582D02*
X11628Y10120D01*
X12780D01*
X11590Y10040D02*
X12740D01*
X11110Y10520D02*
X11590Y10040D01*
X11540Y9960D02*
X12700D01*
X11230Y10270D02*
X11540Y9960D01*
X11310Y10930D02*
Y11040D01*
X11220Y10920D02*
Y11060D01*
X9710Y9410D02*
X11220Y10920D01*
X11125Y10911D02*
Y11275D01*
X10993Y10890D02*
X11000D01*
X9693Y9590D02*
X10993Y10890D01*
X17690Y10950D02*
X17700D01*
X12687Y10278D02*
X12729D01*
X12801Y10350D01*
X12875D01*
X12812Y10197D02*
X13095Y9915D01*
X12825Y10267D02*
X12853D01*
X13175Y9945D01*
X12875Y10350D02*
X13250Y9975D01*
X12780Y10120D02*
X13000Y9900D01*
X12740Y10040D02*
X12890Y9890D01*
X12700Y9960D02*
X12800Y9860D01*
X11125Y11275D02*
X11250Y11400D01*
X11220Y11060D02*
X11330Y11170D01*
X9550Y9675D02*
X11000Y11125D01*
X2358Y9225D02*
X2359Y9235D01*
X2358D02*
X2359D01*
X2317Y10341D02*
X2319Y10356D01*
D95*
X16587Y11060D02*
Y11205D01*
Y11050D02*
Y11060D01*
X15837Y11062D02*
Y11205D01*
Y11053D02*
Y11062D01*
X15959Y10980D02*
X15964Y10985D01*
X16712Y9653D02*
Y9804D01*
X16714Y9805D01*
X15837Y11956D02*
X15843Y11950D01*
X16840Y11766D02*
X16843Y11768D01*
X4964Y10971D02*
Y11195D01*
X4837Y11043D02*
Y11195D01*
X15837Y11765D02*
X15843Y11771D01*
X5721Y9575D02*
Y9805D01*
X5594Y9650D02*
Y9805D01*
X4964Y9575D02*
Y9805D01*
X4837Y9650D02*
Y9805D01*
X16843Y12100D02*
Y12107D01*
X16840Y10507D02*
Y10510D01*
X16088Y11768D02*
X16091Y11765D01*
X16840Y11766D02*
X16840Y11765D01*
X4710Y10915D02*
Y11195D01*
X5090Y10366D02*
X5091Y10365D01*
X5593Y10365D02*
X5594Y10366D01*
X5713Y10970D02*
Y11195D01*
X5586Y11043D02*
Y11195D01*
X16587Y10365D02*
X16588Y10366D01*
X15964Y10985D02*
Y11205D01*
X16713Y10980D02*
Y11205D01*
X16587Y9650D02*
Y9805D01*
X15964Y9575D02*
Y9805D01*
X15837Y9650D02*
Y9805D01*
D96*
X12752Y10835D02*
X13240Y10347D01*
X12625Y10835D02*
X12752D01*
X6460Y9475D02*
X6980Y9995D01*
X5847Y10368D02*
Y10655D01*
X16460Y12379D02*
X16460Y12380D01*
X16460Y11765D02*
Y12379D01*
X15710Y11765D02*
Y12380D01*
X6425Y12225D02*
X6580Y12380D01*
X15710Y10780D02*
Y10785D01*
Y10365D02*
Y10780D01*
X15600Y10895D02*
X15710Y10785D01*
X15600Y10895D02*
Y11655D01*
X16251Y10780D02*
X16460Y10571D01*
X15710Y10780D02*
X16251D01*
X4910D02*
X5240D01*
X4710Y10580D02*
X4910Y10780D01*
X5240D02*
X5310Y10850D01*
X5090Y10366D02*
Y10656D01*
X5466Y9475D02*
X6460D01*
X4800D02*
X5466D01*
X5310Y10850D02*
X5810D01*
X15837Y10482D02*
X16000Y10645D01*
X15837Y10365D02*
Y10482D01*
X15843Y11771D02*
Y11950D01*
X16090Y11768D02*
Y12100D01*
X6000Y11043D02*
Y11800D01*
Y11043D02*
X6002D01*
X5810Y10850D02*
X6002Y11043D01*
X6000Y11800D02*
X6422Y12223D01*
X16460Y10365D02*
Y10571D01*
X16843Y11768D02*
Y12100D01*
X16840Y10365D02*
Y10507D01*
X5459Y12225D02*
Y12225D01*
Y11755D02*
Y12225D01*
Y12225D02*
X6425D01*
X5466Y10365D02*
Y10812D01*
X4962Y12225D02*
X5459D01*
X4710Y11973D02*
X4962Y12225D01*
X4710Y11755D02*
Y11973D01*
X4837Y10365D02*
Y10508D01*
X5594Y10366D02*
Y10510D01*
X5840Y11755D02*
Y12048D01*
X5586Y11755D02*
Y11908D01*
X5091Y11755D02*
Y12050D01*
X4837Y11755D02*
Y11908D01*
X4710Y10365D02*
Y10580D01*
X16587Y11765D02*
Y11950D01*
X16588Y10366D02*
Y10645D01*
X16091Y10365D02*
Y10505D01*
X15600Y11655D02*
X15710Y11765D01*
D97*
X18911Y10410D02*
Y10930D01*
X19549Y10410D02*
Y10930D01*
Y9679D02*
Y10410D01*
X19350Y9480D02*
X19549Y9679D01*
X14640Y12380D02*
X15710D01*
X6580D02*
X14640D01*
X16357Y9375D02*
X16970D01*
X16055Y9072D02*
X16357Y9375D01*
X16055Y9040D02*
Y9072D01*
X16970Y9375D02*
X17260Y9665D01*
X17415D01*
X16555Y9040D02*
X16557Y9043D01*
X16460Y12380D02*
X17090D01*
X15710D02*
X16460D01*
X17180Y12290D02*
X17349Y12121D01*
X17090Y12380D02*
X17180Y12290D01*
X17349Y11629D02*
Y12121D01*
X16557Y9043D02*
X18448D01*
X18912Y9043D02*
X19350Y9480D01*
X18448Y9043D02*
X18912D01*
X18448D02*
X18448Y9043D01*
D98*
X4404Y9141D02*
X9919D01*
X9920Y9140D01*
X10640Y9860D01*
X6930Y11997D02*
X6980Y11947D01*
Y9995D02*
Y11947D01*
X10640Y9860D02*
X12650D01*
X10680Y9760D02*
X12575D01*
X10720Y9650D02*
X11475D01*
X10015Y8945D02*
X10720Y9650D01*
X3715Y8945D02*
X10015D01*
X9962Y9043D02*
X10680Y9760D01*
X4350Y9043D02*
X9962D01*
X2475Y9325D02*
X6575Y9325D01*
X6978Y9590D02*
X9693D01*
X6612Y9235D02*
X6974Y9586D01*
X6925Y9675D02*
X9550D01*
X2359Y9235D02*
X6612Y9235D01*
X6575Y9325D02*
X6925Y9675D01*
X3580Y9080D02*
X3715Y8945D01*
X3400Y9570D02*
Y9600D01*
X2430Y10570D02*
X3400Y9600D01*
X2170Y10570D02*
X2430D01*
X1874Y10274D02*
X2170Y10570D01*
X1874Y10197D02*
Y10274D01*
X2359Y9235D02*
X2469Y10150D01*
X2317Y10341D02*
X2469Y10150D01*
X2236Y9325D02*
X2326Y10058D01*
X2131Y8474D02*
X2236Y9325D01*
X2275Y8525D02*
X2358Y9225D01*
X9899Y10880D02*
Y11220D01*
D99*
X14966Y10466D02*
X14995Y10438D01*
Y10232D02*
Y10438D01*
X14412Y9650D02*
X14995Y10232D01*
X14880Y10380D02*
X14900Y10360D01*
Y10232D02*
Y10360D01*
X14382Y9715D02*
X14900Y10232D01*
X13000Y9400D02*
X13360Y9040D01*
X13000Y9400D02*
Y9900D01*
X12890Y9375D02*
X13302Y8962D01*
X12890Y9375D02*
Y9890D01*
X7150Y9497D02*
X9710D01*
X6970Y9230D02*
X9700D01*
X7025Y9325D02*
X9705D01*
X13682Y9715D02*
X14382D01*
X13660Y9650D02*
X14412D01*
X17930Y10950D02*
X17978Y10902D01*
X15743Y9257D02*
X15882Y9397D01*
X13469Y9257D02*
X15743D01*
X13438Y9195D02*
X15775D01*
X13250Y9476D02*
X13469Y9257D01*
X13175Y9457D02*
X13438Y9195D01*
X13250Y9476D02*
Y9975D01*
X13095Y9443D02*
X13423Y9115D01*
X13095Y9443D02*
Y9915D01*
X13175Y9457D02*
Y9945D01*
X12800Y9338D02*
X13250Y8888D01*
X12800Y9338D02*
Y9860D01*
X16227Y9580D02*
X16832D01*
X16882Y9525D02*
X17050Y9693D01*
X16950Y9697D02*
Y10200D01*
X16832Y9580D02*
X16950Y9697D01*
X17050Y9693D02*
Y10050D01*
X17700Y10950D02*
X17930D01*
X16950Y10200D02*
X17690Y10950D01*
X17050Y10050D02*
X17150Y10150D01*
X17956D01*
X7115Y9410D02*
X9710Y9410D01*
D100*
X15575Y9775D02*
X15710Y9640D01*
X4280Y10510D02*
Y10740D01*
X15575Y9775D02*
Y10707D01*
X16348Y9805D02*
X16460D01*
X16025Y9482D02*
X16348Y9805D01*
X15868Y9482D02*
X16025D01*
X18104Y9945D02*
X18110Y9939D01*
X18104Y9945D02*
Y10150D01*
Y10276D01*
X1980Y9920D02*
X2070D01*
X1700Y10200D02*
X1980Y9920D01*
X1700Y10200D02*
Y10280D01*
X1760Y11090D02*
X2520Y11850D01*
Y12810D01*
X16147Y10893D02*
X16460Y11205D01*
X15822Y10893D02*
X16147D01*
X15710Y11005D02*
X15822Y10893D01*
X15710Y9640D02*
X15868Y9482D01*
X5157Y10888D02*
X5459Y11190D01*
X5155Y10888D02*
X5157D01*
X5155Y10887D02*
X5155Y10888D01*
X4725Y10887D02*
X5155D01*
X4710Y10885D02*
Y11195D01*
Y10885D02*
Y10885D01*
X5466Y9475D02*
Y9805D01*
X4380Y10410D02*
X4575D01*
X4280Y10510D02*
X4380Y10410D01*
X3390Y9420D02*
X4755D01*
X2161Y10381D02*
X2230Y10450D01*
X2161Y10279D02*
Y10381D01*
X2380Y10450D02*
X3390Y9420D01*
X2230Y10450D02*
X2380D01*
X4755Y9430D02*
X4800Y9475D01*
X4226Y9510D02*
X4406D01*
X2325Y11411D02*
X4226Y9510D01*
X4710Y9570D02*
Y9805D01*
X15710Y11005D02*
Y11070D01*
Y11205D01*
Y9640D02*
Y9805D01*
D102*
X11475Y12065D02*
D03*
X11600D02*
D03*
X11850D02*
D03*
X11725D02*
D03*
X14880Y10380D02*
D03*
X14792Y10292D02*
D03*
X14968Y10468D02*
D03*
X15057Y10557D02*
D03*
X14703Y10203D02*
D03*
X14615Y10115D02*
D03*
X14438Y9938D02*
D03*
X14526Y10026D02*
D03*
X7168Y11685D02*
D03*
Y11560D02*
D03*
D103*
X13096Y12072D02*
D03*
X13350D02*
D03*
X15312Y9425D02*
D03*
X15058D02*
D03*
X15310Y12097D02*
D03*
Y11843D02*
D03*
X6382Y9825D02*
D03*
X6128D02*
D03*
X6815Y11652D02*
D03*
Y11398D02*
D03*
D104*
X18850Y9480D02*
D03*
D105*
X19350D02*
D03*
D106*
X16055Y9040D02*
D03*
X16555D02*
D03*
X14643Y12405D02*
D03*
Y11905D02*
D03*
D107*
X5486Y1881D02*
D03*
X19818Y5487D02*
D03*
X1879D02*
D03*
Y16213D02*
D03*
X19818D02*
D03*
X16211Y1881D02*
D03*
D108*
X547Y9850D02*
D03*
X7249Y1146D02*
D03*
X8924Y681D02*
D03*
X5849Y19912D02*
D03*
X3954Y15764D02*
D03*
Y5936D02*
D03*
X17743Y15764D02*
D03*
X15763Y17744D02*
D03*
X14349Y16050D02*
D03*
X5934Y3956D02*
D03*
X7349Y16050D02*
D03*
X5934Y17744D02*
D03*
X7249Y10630D02*
D03*
X14449Y11070D02*
D03*
X17743Y5936D02*
D03*
X15763Y3956D02*
D03*
X21150Y9850D02*
D03*
X15849Y19912D02*
D03*
X12774Y681D02*
D03*
X14449Y1146D02*
D03*
D109*
X18800Y11300D02*
D03*
X1921Y9450D02*
D03*
X2550Y9079D02*
D03*
X5275Y11475D02*
D03*
X20009Y9200D02*
D03*
X4404Y9141D02*
D03*
X12545Y12370D02*
D03*
X13360Y9040D02*
D03*
X13302Y8962D02*
D03*
X12557Y10350D02*
D03*
X12475D02*
D03*
X13240Y10347D02*
D03*
X13423Y9115D02*
D03*
X13250Y8888D02*
D03*
X15575Y10707D02*
D03*
X6930Y11997D02*
D03*
X16712Y9653D02*
D03*
X11225Y10640D02*
D03*
X11285Y10703D02*
D03*
X11165Y10582D02*
D03*
X11110Y10520D02*
D03*
X11230Y10270D02*
D03*
X11000Y10890D02*
D03*
X12825Y10267D02*
D03*
X1700Y10280D02*
D03*
X2070Y9920D02*
D03*
X1760Y11090D02*
D03*
X2520Y12810D02*
D03*
X7150Y9497D02*
D03*
X12650Y9860D02*
D03*
X12575Y9760D02*
D03*
X11475Y9650D02*
D03*
X2475Y9325D02*
D03*
X11620Y11070D02*
D03*
X11250Y11400D02*
D03*
X11310Y11040D02*
D03*
X11330Y11170D02*
D03*
X12625Y10835D02*
D03*
X4964Y10971D02*
D03*
X3060Y10530D02*
D03*
X3600Y9510D02*
D03*
X3190Y11080D02*
D03*
X4837Y11043D02*
D03*
X7115Y9410D02*
D03*
X6970Y9230D02*
D03*
X7025Y9325D02*
D03*
X4350Y9043D02*
D03*
X3400Y9570D02*
D03*
X4406Y9510D02*
D03*
X2161Y10279D02*
D03*
X3580Y9080D02*
D03*
X1874Y10197D02*
D03*
X2325Y11411D02*
D03*
X4575Y10750D02*
D03*
X2236Y9325D02*
D03*
X2275Y8525D02*
D03*
X2131Y8474D02*
D03*
X11000Y11125D02*
D03*
X5721Y9575D02*
D03*
X5594Y9650D02*
D03*
X4964Y9575D02*
D03*
X4837Y9650D02*
D03*
X2326Y10058D02*
D03*
X2319Y10356D02*
D03*
X15963Y10981D02*
D03*
X9899Y11220D02*
D03*
Y10880D02*
D03*
X5713Y10970D02*
D03*
X5586Y11043D02*
D03*
X16713Y10980D02*
D03*
X15837Y11062D02*
D03*
X16587Y11060D02*
D03*
X15710Y11070D02*
D03*
X16587Y9650D02*
D03*
X15964Y9575D02*
D03*
X15837Y9650D02*
D03*
D110*
X10150Y12595D02*
D03*
X13400D02*
D03*
X16761Y12600D02*
D03*
X15710Y8997D02*
D03*
X17466Y9257D02*
D03*
X18175D02*
D03*
X20256Y10338D02*
D03*
X20216Y12161D02*
D03*
X19250Y10347D02*
D03*
X18650Y12161D02*
D03*
X17600Y10591D02*
D03*
X16269Y10076D02*
D03*
X16272Y11475D02*
D03*
X15084Y11050D02*
D03*
X13240Y11784D02*
D03*
X11047Y10350D02*
D03*
X12277Y11170D02*
D03*
X12250Y10510D02*
D03*
X11250Y8997D02*
D03*
X10150Y11702D02*
D03*
X8500Y10031D02*
D03*
Y11702D02*
D03*
X1947Y10770D02*
D03*
X5450Y12508D02*
D03*
X5273Y10085D02*
D03*
X6565Y11091D02*
D03*
X2850Y9519D02*
D03*
X2860Y12220D02*
D03*
X4151Y11770D02*
D03*
X17349Y11629D02*
D03*
D111*
X18890Y10682D02*
D03*
X5090Y10656D02*
D03*
X16000Y10645D02*
D03*
X16091Y10507D02*
D03*
X16587Y11955D02*
D03*
X16090Y12100D02*
D03*
X5838Y10655D02*
D03*
X15843Y11955D02*
D03*
X16843Y12100D02*
D03*
X6460Y9475D02*
D03*
X4837Y10508D02*
D03*
X5594Y10510D02*
D03*
X5586Y11908D02*
D03*
X5840Y12048D02*
D03*
X5091Y12050D02*
D03*
X4837Y11908D02*
D03*
X16588Y10647D02*
D03*
X16840Y10507D02*
D03*
D112*
X18078Y10150D02*
D03*
X17982D02*
D03*
D113*
X17150Y10950D02*
D03*
X17750D02*
D03*
X17180Y12290D02*
D03*
X17780D02*
D03*
D114*
X17455Y9693D02*
D03*
D115*
X18105Y9464D02*
D03*
Y9921D02*
D03*
D116*
X19549Y10410D02*
D03*
X18911D02*
D03*
X19549Y10935D02*
D03*
X18911D02*
D03*
D117*
X4380Y11080D02*
D03*
X4080D02*
D03*
X4080Y10410D02*
D03*
X4380D02*
D03*
D118*
X5847Y10365D02*
D03*
X5720D02*
D03*
X5593D02*
D03*
X5466D02*
D03*
X5847Y9805D02*
D03*
X5720D02*
D03*
X5593D02*
D03*
X5466D02*
D03*
X5091Y10365D02*
D03*
X4964D02*
D03*
X4837D02*
D03*
X4710D02*
D03*
X5091Y9805D02*
D03*
X4964D02*
D03*
X4837D02*
D03*
X4710D02*
D03*
X5840Y11755D02*
D03*
X5713D02*
D03*
X5586D02*
D03*
X5459D02*
D03*
X5840Y11195D02*
D03*
X5713D02*
D03*
X5586D02*
D03*
X5459D02*
D03*
X5091Y11755D02*
D03*
X4964D02*
D03*
X4837D02*
D03*
X4710D02*
D03*
X5091Y11195D02*
D03*
X4964D02*
D03*
X4837D02*
D03*
X4710D02*
D03*
X16091Y11765D02*
D03*
X15964D02*
D03*
X15837D02*
D03*
X15710D02*
D03*
X16091Y11205D02*
D03*
X15964D02*
D03*
X15837D02*
D03*
X15710D02*
D03*
X16840Y11765D02*
D03*
X16713D02*
D03*
X16587D02*
D03*
X16460D02*
D03*
X16840Y11205D02*
D03*
X16713D02*
D03*
X16587D02*
D03*
X16460D02*
D03*
X16840Y10365D02*
D03*
X16713D02*
D03*
X16587D02*
D03*
X16460D02*
D03*
X16840Y9805D02*
D03*
X16713D02*
D03*
X16587D02*
D03*
X16460D02*
D03*
X16091Y10365D02*
D03*
X15964D02*
D03*
X15837D02*
D03*
X15710D02*
D03*
X16091Y9805D02*
D03*
X15964D02*
D03*
X15837D02*
D03*
X15710D02*
D03*
D119*
X5657Y10085D02*
D03*
X4900Y10085D02*
D03*
X5649Y11475D02*
D03*
X4900Y11475D02*
D03*
X15900Y11485D02*
D03*
X16650Y11485D02*
D03*
Y10085D02*
D03*
X15900D02*
D03*
M02*
