G04*
G04 #@! TF.GenerationSoftware,Altium Limited,Altium Designer,18.1.7 (191)*
G04*
G04 Layer_Physical_Order=2*
G04 Layer_Color=16711680*
%FSLAX42Y42*%
%MOMM*%
G71*
G01*
G75*
%ADD27C,0.60*%
%ADD31C,1.27*%
%ADD41C,0.60*%
%ADD42C,1.00*%
%ADD43C,0.80*%
%ADD46C,1.50*%
%ADD47C,1.00*%
%ADD48C,3.60*%
%ADD49C,3.00*%
%ADD50C,5.00*%
%ADD51C,0.70*%
%ADD52R,2.00X3.30*%
%ADD53C,2.80*%
G36*
X10300Y10441D02*
X8937D01*
X8935Y10440D01*
X8933Y10441D01*
X8893Y10437D01*
X8889Y10435D01*
X8885Y10435D01*
X8846Y10423D01*
X8843Y10421D01*
X8839Y10420D01*
X8804Y10400D01*
X8801Y10398D01*
X8797Y10396D01*
X8766Y10370D01*
X8764Y10367D01*
X8761Y10364D01*
X8736Y10332D01*
X8734Y10329D01*
X8732Y10325D01*
X8714Y10290D01*
X8712Y10286D01*
X8711Y10282D01*
X8700Y10243D01*
X8700Y10239D01*
X8699Y10235D01*
X8696Y10195D01*
X8697Y10191D01*
X8697Y10187D01*
X8702Y10147D01*
X8704Y10143D01*
X8704Y10139D01*
X8717Y10101D01*
X8720Y10098D01*
X8721Y10094D01*
X8742Y10059D01*
X8743Y10058D01*
X8744Y10056D01*
X8835Y9933D01*
X8429Y9527D01*
X8391Y9534D01*
X8387Y9534D01*
X8383Y9535D01*
X8341Y9535D01*
X8337Y9534D01*
X8333Y9534D01*
X8292Y9525D01*
X8288Y9523D01*
X8284Y9522D01*
X8246Y9505D01*
X8243Y9503D01*
X8239Y9501D01*
X8205Y9476D01*
X8203Y9473D01*
X8199Y9471D01*
X8171Y9440D01*
X8169Y9436D01*
X8166Y9433D01*
X8146Y9397D01*
X8144Y9393D01*
X8142Y9389D01*
X8130Y9349D01*
X8129Y9345D01*
X8128Y9341D01*
X8123Y9300D01*
X8124Y9297D01*
X8123Y9295D01*
Y7073D01*
X8112Y7068D01*
X7806Y7374D01*
Y9632D01*
X7803Y9651D01*
X7796Y9668D01*
X7785Y9682D01*
X7695Y9772D01*
X7702Y9783D01*
X7718Y9777D01*
X7745Y9773D01*
X7772Y9777D01*
X7796Y9787D01*
X8111D01*
X8134Y9790D01*
X8156Y9799D01*
X8175Y9813D01*
X8957Y10596D01*
X8973Y10602D01*
X8994Y10618D01*
X9010Y10639D01*
X9020Y10663D01*
X9024Y10690D01*
X9020Y10716D01*
X9010Y10740D01*
X8994Y10761D01*
X8973Y10777D01*
X8949Y10787D01*
X8923Y10790D01*
X8897Y10787D01*
X8872Y10777D01*
X8851Y10761D01*
X8835Y10740D01*
X8829Y10724D01*
X8781Y10676D01*
X8769Y10682D01*
X8770Y10690D01*
X8766Y10716D01*
X8756Y10740D01*
X8740Y10761D01*
X8719Y10777D01*
X8695Y10787D01*
X8669Y10790D01*
X8643Y10787D01*
X8618Y10777D01*
X8597Y10761D01*
X8581Y10740D01*
X8571Y10716D01*
X8568Y10690D01*
X8571Y10663D01*
X8581Y10639D01*
X8597Y10618D01*
X8618Y10602D01*
X8643Y10592D01*
X8669Y10589D01*
X8677Y10590D01*
X8682Y10578D01*
X8095Y9990D01*
X8085Y9998D01*
X8086Y10000D01*
X8093Y10017D01*
X8096Y10035D01*
X8093Y10053D01*
X8086Y10070D01*
X8075Y10085D01*
X8024Y10136D01*
X8009Y10147D01*
X7992Y10154D01*
X7974Y10157D01*
X7826D01*
X7808Y10154D01*
X7791Y10147D01*
X7776Y10136D01*
X7765Y10121D01*
X7758Y10104D01*
X7756Y10086D01*
X7758Y10068D01*
X7765Y10051D01*
X7776Y10036D01*
X7791Y10025D01*
X7808Y10018D01*
X7826Y10015D01*
X7945D01*
X7975Y9985D01*
X7980Y9981D01*
X7976Y9968D01*
X7796D01*
X7773Y9978D01*
X7498Y10252D01*
X7480Y10267D01*
X7458Y10276D01*
X7434Y10279D01*
X6930D01*
X6907Y10276D01*
X6885Y10267D01*
X6866Y10252D01*
X6851Y10234D01*
X6842Y10212D01*
X6839Y10188D01*
X6842Y10165D01*
X6851Y10143D01*
X6866Y10124D01*
X6885Y10110D01*
X6907Y10101D01*
X6930Y10097D01*
X7397D01*
X7645Y9850D01*
X7651Y9835D01*
X7640Y9827D01*
X7422Y10045D01*
X7408Y10056D01*
X7391Y10063D01*
X7372Y10066D01*
X6442Y10066D01*
X6437Y10078D01*
X6448Y10086D01*
X6812Y10367D01*
X7144Y10611D01*
X7447Y10823D01*
X7637Y10950D01*
X7823Y11069D01*
X10300D01*
Y10441D01*
D02*
G37*
G36*
X6757Y9687D02*
X6749Y9672D01*
X6744Y9648D01*
X6745Y9623D01*
X6752Y9599D01*
X6823Y9658D01*
X6855Y9620D01*
X6785Y9561D01*
X6807Y9549D01*
X6814Y9548D01*
X6817Y9535D01*
X6756Y9484D01*
X6744Y9489D01*
X6744Y9493D01*
X6736Y9519D01*
X6722Y9541D01*
X6703Y9559D01*
X6679Y9571D01*
X6654Y9576D01*
X6627Y9575D01*
X6602Y9567D01*
X6580Y9553D01*
X6562Y9534D01*
X6551Y9540D01*
X6556Y9549D01*
X6560Y9568D01*
X6560Y9577D01*
X6572Y9587D01*
X6576Y9586D01*
X6594Y9587D01*
X6605Y9590D01*
X6563Y9640D01*
X6601Y9673D01*
X6643Y9622D01*
X6648Y9632D01*
X6652Y9650D01*
X6652Y9669D01*
X6646Y9686D01*
X6645Y9688D01*
X6651Y9699D01*
X6749D01*
X6757Y9687D01*
D02*
G37*
G36*
X6558Y9525D02*
X6550Y9510D01*
X6544Y9485D01*
X6545Y9458D01*
X6553Y9433D01*
X6568Y9411D01*
X6587Y9393D01*
X6610Y9381D01*
X6614Y9380D01*
X6617Y9368D01*
X6561Y9321D01*
X6550Y9326D01*
X6550Y9330D01*
X6542Y9355D01*
X6527Y9378D01*
X6508Y9395D01*
X6485Y9407D01*
X6459Y9413D01*
X6433Y9412D01*
X6408Y9404D01*
X6385Y9390D01*
X6373Y9376D01*
X6362Y9384D01*
X6363Y9384D01*
X6367Y9403D01*
X6367Y9409D01*
X6376Y9418D01*
X6382Y9416D01*
X6402Y9417D01*
X6421Y9423D01*
X6437Y9434D01*
X6451Y9448D01*
X6460Y9466D01*
X6464Y9485D01*
X6464Y9492D01*
X6474Y9501D01*
X6478Y9499D01*
X6498Y9500D01*
X6517Y9506D01*
X6533Y9517D01*
X6547Y9531D01*
X6558Y9525D01*
D02*
G37*
G36*
X6217Y9404D02*
X6217Y9397D01*
X6223Y9378D01*
X6234Y9361D01*
X6248Y9348D01*
X6266Y9339D01*
X6285Y9335D01*
X6305Y9336D01*
X6324Y9341D01*
X6340Y9352D01*
X6348Y9361D01*
X6359Y9354D01*
X6355Y9347D01*
X6350Y9321D01*
X6351Y9295D01*
X6359Y9270D01*
X6373Y9248D01*
X6392Y9230D01*
X6416Y9218D01*
X6419Y9217D01*
X6422Y9205D01*
X6367Y9159D01*
X6355Y9164D01*
X6355Y9167D01*
X6347Y9192D01*
X6333Y9214D01*
X6313Y9232D01*
X6290Y9244D01*
X6264Y9250D01*
X6238Y9249D01*
X6213Y9241D01*
X6191Y9227D01*
X6173Y9207D01*
X6161Y9184D01*
X6155Y9158D01*
X6156Y9132D01*
X6164Y9107D01*
X6178Y9085D01*
X6198Y9067D01*
X6221Y9055D01*
X6224Y9054D01*
X6227Y9042D01*
X6020Y8868D01*
X6020Y8868D01*
X6020Y8868D01*
X5807Y8686D01*
X5795Y8691D01*
X5795Y8696D01*
X5787Y8720D01*
X5717Y8660D01*
X5647Y8600D01*
X5669Y8589D01*
X5674Y8587D01*
X5677Y8575D01*
X5618Y8525D01*
X5607Y8530D01*
X5607Y8532D01*
X5598Y8557D01*
X5584Y8579D01*
X5565Y8597D01*
X5541Y8609D01*
X5515Y8614D01*
X5489Y8613D01*
X5475Y8608D01*
X5466Y8619D01*
X5470Y8627D01*
X5474Y8645D01*
X5473Y8663D01*
X5469Y8674D01*
X5420Y8631D01*
X5387Y8669D01*
X5438Y8712D01*
X5436Y8726D01*
X6204Y9410D01*
X6217Y9404D01*
D02*
G37*
G36*
X5311Y8642D02*
X5312Y8628D01*
X5312Y8625D01*
X5313Y8622D01*
X5314Y8620D01*
X5315Y8618D01*
X5317Y8617D01*
X5318Y8616D01*
X5259Y8582D01*
X5251Y8640D01*
X5311Y8648D01*
X5311Y8642D01*
D02*
G37*
G36*
X5212Y8560D02*
X5213Y8546D01*
X5214Y8543D01*
X5215Y8540D01*
X5216Y8538D01*
X5217Y8536D01*
X5218Y8535D01*
X5219Y8534D01*
X5162Y8499D01*
X5152Y8557D01*
X5212Y8565D01*
X5212Y8560D01*
D02*
G37*
G36*
X5357Y8561D02*
X5357Y8560D01*
X5364Y8553D01*
X5377Y8539D01*
X5335Y8497D01*
X5313Y8518D01*
X5356Y8561D01*
X5357Y8561D01*
D02*
G37*
G36*
X5454Y8461D02*
X5449Y8466D01*
X5444Y8469D01*
X5439Y8473D01*
X5434Y8476D01*
X5428Y8478D01*
X5422Y8480D01*
X5415Y8482D01*
X5408Y8483D01*
X5401Y8484D01*
X5394Y8484D01*
Y8544D01*
X5401Y8544D01*
X5408Y8545D01*
X5415Y8546D01*
X5422Y8547D01*
X5428Y8549D01*
X5434Y8552D01*
X5439Y8555D01*
X5444Y8558D01*
X5449Y8562D01*
X5454Y8566D01*
Y8461D01*
D02*
G37*
G36*
X5130Y8474D02*
X5131Y8461D01*
X5132Y8457D01*
X5133Y8454D01*
X5134Y8451D01*
X5135Y8449D01*
X5136Y8448D01*
X5138Y8447D01*
X5070Y8428D01*
X5070Y8457D01*
X5130Y8480D01*
X5130Y8474D01*
D02*
G37*
G36*
X5260Y8483D02*
X5261Y8481D01*
X5262Y8479D01*
X5263Y8477D01*
X5265Y8474D01*
X5270Y8468D01*
X5277Y8461D01*
X5281Y8457D01*
X5278Y8454D01*
X5282Y8456D01*
X5287Y8451D01*
X5298Y8441D01*
X5304Y8437D01*
X5314Y8430D01*
X5320Y8427D01*
X5325Y8425D01*
X5331Y8422D01*
X5336Y8421D01*
X5243Y8372D01*
X5245Y8378D01*
X5245Y8384D01*
X5245Y8389D01*
X5245Y8395D01*
X5243Y8400D01*
X5241Y8406D01*
X5238Y8412D01*
X5234Y8417D01*
X5231Y8422D01*
X5221Y8430D01*
X5219Y8432D01*
X5216Y8433D01*
X5214Y8434D01*
X5212Y8435D01*
X5211Y8435D01*
X5260Y8485D01*
X5260Y8483D01*
D02*
G37*
G36*
X5039Y8390D02*
X5040Y8376D01*
X5040Y8372D01*
X5041Y8369D01*
X5042Y8366D01*
X5043Y8364D01*
X5044Y8363D01*
X5046Y8361D01*
X4977Y8350D01*
X4977Y8350D01*
X4977Y8352D01*
X4978Y8354D01*
X4978Y8359D01*
X4979Y8371D01*
X4979Y8382D01*
X5039Y8395D01*
X5039Y8390D01*
D02*
G37*
G36*
X5154Y8373D02*
X5153Y8371D01*
X5153Y8369D01*
X5153Y8364D01*
X5152Y8352D01*
X5152Y8341D01*
X5092Y8328D01*
X5092Y8333D01*
X5091Y8347D01*
X5090Y8351D01*
X5090Y8354D01*
X5089Y8357D01*
X5088Y8359D01*
X5086Y8360D01*
X5085Y8362D01*
X5154Y8373D01*
X5154Y8373D01*
D02*
G37*
G36*
X5017Y8270D02*
X5015Y8270D01*
X5013Y8269D01*
X5011Y8268D01*
X5009Y8267D01*
X5006Y8265D01*
X5000Y8260D01*
X4993Y8253D01*
X4989Y8250D01*
X4946Y8292D01*
X4950Y8296D01*
X4962Y8309D01*
X4964Y8312D01*
X4965Y8314D01*
X4966Y8316D01*
X4967Y8318D01*
X4967Y8320D01*
X5017Y8270D01*
D02*
G37*
G36*
X5152Y8297D02*
X5152Y8290D01*
X5153Y8283D01*
X5154Y8276D01*
X5156Y8269D01*
X5158Y8263D01*
X5160Y8257D01*
X5163Y8252D01*
X5166Y8246D01*
X5170Y8242D01*
X5174Y8237D01*
X5069Y8238D01*
X5074Y8243D01*
X5077Y8247D01*
X5081Y8253D01*
X5084Y8258D01*
X5086Y8264D01*
X5088Y8270D01*
X5090Y8277D01*
X5091Y8283D01*
X5092Y8291D01*
X5092Y8298D01*
X5152Y8297D01*
D02*
G37*
G36*
X8921Y5074D02*
X8856Y5066D01*
X8856Y5067D01*
X8856Y5069D01*
X8856Y5070D01*
X8855Y5072D01*
X8853Y5075D01*
X8851Y5077D01*
X8846Y5084D01*
X8839Y5092D01*
X8890Y5125D01*
X8921Y5074D01*
D02*
G37*
G36*
X9044Y5076D02*
X8979Y5062D01*
X8979Y5063D01*
X8979Y5064D01*
X8979Y5066D01*
X8978Y5069D01*
X8977Y5071D01*
X8975Y5074D01*
X8972Y5077D01*
X8966Y5084D01*
X8962Y5088D01*
X9011Y5124D01*
X9044Y5076D01*
D02*
G37*
G36*
X9308Y4996D02*
X9307Y4994D01*
X9306Y4992D01*
X9305Y4989D01*
X9305Y4986D01*
X9304Y4978D01*
X9304Y4968D01*
X9304Y4962D01*
X9243D01*
X9243Y4968D01*
X9242Y4986D01*
X9242Y4989D01*
X9241Y4992D01*
X9240Y4994D01*
X9239Y4996D01*
X9239Y4997D01*
X9308D01*
X9308Y4996D01*
D02*
G37*
G36*
X9181D02*
X9180Y4994D01*
X9179Y4992D01*
X9178Y4989D01*
X9178Y4986D01*
X9177Y4978D01*
X9177Y4968D01*
X9176Y4962D01*
X9117D01*
X9116Y4968D01*
X9115Y4986D01*
X9115Y4989D01*
X9114Y4992D01*
X9113Y4994D01*
X9112Y4996D01*
X9111Y4997D01*
X9182D01*
X9181Y4996D01*
D02*
G37*
G36*
X4938Y8811D02*
Y8383D01*
X4938Y8383D01*
X4938Y8372D01*
X4937Y8362D01*
X4937Y8359D01*
X4937Y8359D01*
X4937Y8355D01*
X4936Y8351D01*
X4936Y8347D01*
X4936Y8346D01*
X4935Y8344D01*
X4932Y8340D01*
X4931Y8337D01*
X4929Y8335D01*
X4929Y8334D01*
X4920Y8324D01*
X4917Y8321D01*
X4917Y8320D01*
X4878Y8281D01*
X4867Y8267D01*
X4860Y8249D01*
X4857Y8231D01*
Y8090D01*
X4845Y8076D01*
X4833Y8053D01*
X4827Y8027D01*
X4829Y8001D01*
X4837Y7976D01*
X4851Y7953D01*
X4871Y7936D01*
X4894Y7924D01*
X4902Y7922D01*
X4905Y7910D01*
X4193Y7286D01*
X4192Y7285D01*
X4192Y7285D01*
X3293Y6478D01*
X3291Y6477D01*
X3290Y6475D01*
X3263Y6446D01*
X3261Y6442D01*
X3258Y6439D01*
X3238Y6405D01*
X3236Y6401D01*
X3234Y6397D01*
X3221Y6359D01*
X3221Y6355D01*
X3219Y6352D01*
X3214Y6312D01*
X3214Y6308D01*
X3214Y6304D01*
X3216Y6264D01*
X3218Y6260D01*
X3218Y6256D01*
X3228Y6217D01*
X3230Y6213D01*
X3231Y6210D01*
X3249Y6174D01*
X3252Y6171D01*
X3254Y6167D01*
X3279Y6136D01*
X3282Y6133D01*
X3284Y6130D01*
X3315Y6104D01*
X3319Y6102D01*
X3322Y6099D01*
X3357Y6080D01*
X3361Y6079D01*
X3364Y6077D01*
X3402Y6065D01*
X3407Y6065D01*
X3410Y6063D01*
X3450Y6059D01*
X3452Y6060D01*
X3454Y6059D01*
X7264D01*
X7266Y6060D01*
X7269Y6059D01*
X7313Y6064D01*
X7317Y6066D01*
X7322Y6067D01*
X7364Y6081D01*
X7368Y6084D01*
X7372Y6085D01*
X7410Y6109D01*
X7414Y6112D01*
X7418Y6115D01*
X7449Y6146D01*
X7452Y6150D01*
X7455Y6154D01*
X7479Y6192D01*
X7480Y6196D01*
X7483Y6200D01*
X7498Y6242D01*
X7498Y6247D01*
X7500Y6251D01*
X7505Y6295D01*
X7504Y6298D01*
X7505Y6300D01*
Y7121D01*
X7517Y7126D01*
X7808Y6834D01*
Y5501D01*
X7811Y5483D01*
X7818Y5466D01*
X7829Y5451D01*
X8115Y5165D01*
X8130Y5154D01*
X8147Y5147D01*
X8165Y5144D01*
X8496D01*
X8520Y5120D01*
X8514Y5108D01*
X8511Y5108D01*
X8492Y5106D01*
X8474Y5098D01*
X8458Y5086D01*
X8453Y5079D01*
X8437D01*
X8434Y5082D01*
X8420Y5094D01*
X8410Y5098D01*
Y5033D01*
Y4967D01*
X8420Y4971D01*
X8434Y4983D01*
X8437Y4986D01*
X8453D01*
X8458Y4979D01*
X8474Y4967D01*
X8492Y4959D01*
X8511Y4957D01*
X8531Y4959D01*
X8549Y4967D01*
X8565Y4979D01*
X8569Y4984D01*
X8581D01*
X8585Y4979D01*
X8601Y4967D01*
X8619Y4959D01*
X8639Y4957D01*
X8658Y4959D01*
X8676Y4967D01*
X8692Y4979D01*
X8696Y4984D01*
X8708D01*
X8712Y4979D01*
X8728Y4967D01*
X8746Y4959D01*
X8765Y4957D01*
X8785Y4959D01*
X8803Y4967D01*
X8819Y4979D01*
X8823Y4984D01*
X8835D01*
X8839Y4979D01*
X8855Y4967D01*
X8873Y4959D01*
X8893Y4957D01*
X8912Y4959D01*
X8930Y4967D01*
X8946Y4979D01*
X8950Y4984D01*
X8962D01*
X8966Y4979D01*
X8982Y4967D01*
X9000Y4959D01*
X9019Y4957D01*
X9039Y4959D01*
X9057Y4967D01*
X9063Y4971D01*
X9073Y4968D01*
X9076Y4965D01*
X9076Y4962D01*
X9076Y4961D01*
Y4824D01*
X9078Y4805D01*
X9085Y4788D01*
X9097Y4774D01*
X9219Y4651D01*
Y4553D01*
X9222Y4534D01*
X9229Y4517D01*
X9240Y4503D01*
X9255Y4491D01*
X9272Y4484D01*
X9290Y4482D01*
X9308Y4484D01*
X9325Y4491D01*
X9340Y4503D01*
X9346Y4510D01*
X9361D01*
X9368Y4503D01*
X9382Y4491D01*
X9399Y4484D01*
X9418Y4482D01*
X9436Y4484D01*
X9453Y4491D01*
X9467Y4503D01*
X9479Y4517D01*
X9486Y4534D01*
X9488Y4553D01*
Y4712D01*
X9486Y4731D01*
X9479Y4748D01*
X9467Y4762D01*
X9344Y4886D01*
Y4961D01*
X9344Y4962D01*
X9344Y4965D01*
X9349Y4968D01*
X9357Y4971D01*
X9363Y4967D01*
X9381Y4959D01*
X9400Y4957D01*
X9420Y4959D01*
X9438Y4967D01*
X9454Y4979D01*
X9458Y4984D01*
X9470D01*
X9474Y4979D01*
X9490Y4967D01*
X9508Y4959D01*
X9528Y4957D01*
X9547Y4959D01*
X9565Y4967D01*
X9581Y4979D01*
X9585Y4984D01*
X9597D01*
X9601Y4979D01*
X9617Y4967D01*
X9635Y4959D01*
X9654Y4957D01*
X9674Y4959D01*
X9692Y4967D01*
X9708Y4979D01*
X9712Y4984D01*
X9724D01*
X9728Y4979D01*
X9744Y4967D01*
X9762Y4959D01*
X9782Y4957D01*
X9801Y4959D01*
X9819Y4967D01*
X9835Y4979D01*
X9847Y4995D01*
X9855Y5013D01*
X9857Y5033D01*
X9855Y5052D01*
X9847Y5070D01*
X9835Y5086D01*
X9819Y5098D01*
X9801Y5106D01*
X9782Y5108D01*
X9762Y5106D01*
X9744Y5098D01*
X9728Y5086D01*
X9724Y5081D01*
X9712D01*
X9708Y5086D01*
X9692Y5098D01*
X9674Y5106D01*
X9654Y5108D01*
X9635Y5106D01*
X9617Y5098D01*
X9601Y5086D01*
X9597Y5081D01*
X9585D01*
X9581Y5086D01*
X9565Y5098D01*
X9547Y5106D01*
X9528Y5108D01*
X9508Y5106D01*
X9490Y5098D01*
X9474Y5086D01*
X9470Y5081D01*
X9458D01*
X9454Y5086D01*
X9438Y5098D01*
X9420Y5106D01*
X9400Y5108D01*
X9381Y5106D01*
X9363Y5098D01*
X9347Y5086D01*
X9343Y5081D01*
X9331D01*
X9327Y5086D01*
X9311Y5098D01*
X9293Y5106D01*
X9274Y5108D01*
X9254Y5106D01*
X9236Y5098D01*
X9220Y5086D01*
X9216Y5081D01*
X9204D01*
X9200Y5086D01*
X9184Y5098D01*
X9166Y5106D01*
X9146Y5108D01*
X9127Y5106D01*
X9109Y5098D01*
X9100Y5092D01*
X9098Y5092D01*
X9086Y5096D01*
X9081Y5108D01*
X9069Y5123D01*
X8745Y5447D01*
X8750Y5459D01*
X9805D01*
X9842Y5455D01*
X9876Y5443D01*
X9906Y5424D01*
X9931Y5399D01*
X9950Y5369D01*
X9962Y5335D01*
X9966Y5298D01*
Y5271D01*
X9967Y5269D01*
X9966Y5266D01*
X9971Y5224D01*
X9972Y5220D01*
X9973Y5216D01*
X9986Y5175D01*
X9988Y5171D01*
X9990Y5167D01*
X10012Y5131D01*
X10014Y5127D01*
X10017Y5124D01*
X10046Y5092D01*
X10049Y5090D01*
X10052Y5087D01*
X10087Y5062D01*
X10091Y5060D01*
X10095Y5058D01*
X10134Y5042D01*
X10135Y5041D01*
X10135Y5041D01*
X10210Y5012D01*
X10276Y4972D01*
X10335Y4922D01*
X10386Y4860D01*
X10387Y4859D01*
X10387Y4859D01*
X10419Y4823D01*
X10423Y4820D01*
X10426Y4816D01*
X10466Y4789D01*
X10470Y4787D01*
X10474Y4785D01*
X10519Y4768D01*
X10524Y4767D01*
X10529Y4765D01*
X10577Y4760D01*
X10579Y4760D01*
X10581Y4759D01*
X11567D01*
X11569Y4760D01*
X11571Y4759D01*
X11611Y4763D01*
X11615Y4765D01*
X11619Y4765D01*
X11658Y4777D01*
X11661Y4779D01*
X11665Y4780D01*
X11700Y4800D01*
X11703Y4802D01*
X11707Y4804D01*
X11738Y4830D01*
X11740Y4833D01*
X11743Y4836D01*
X11768Y4868D01*
X11770Y4871D01*
X11772Y4875D01*
X11790Y4910D01*
X11792Y4914D01*
X11793Y4918D01*
X11804Y4957D01*
X11804Y4961D01*
X11805Y4965D01*
X11808Y5005D01*
X11807Y5009D01*
X11807Y5013D01*
X11802Y5053D01*
X11801Y5057D01*
X11800Y5061D01*
X11787Y5099D01*
X11784Y5102D01*
X11783Y5106D01*
X11762Y5141D01*
X11761Y5142D01*
X11760Y5144D01*
X11604Y5354D01*
X11970Y5720D01*
X11984Y5721D01*
X12018Y5697D01*
X12022Y5695D01*
X12026Y5693D01*
X12064Y5676D01*
X12068Y5676D01*
X12072Y5674D01*
X12113Y5666D01*
X12117Y5666D01*
X12121Y5665D01*
X12163Y5665D01*
X12167Y5666D01*
X12171Y5666D01*
X12212Y5675D01*
X12216Y5677D01*
X12220Y5678D01*
X12258Y5695D01*
X12261Y5697D01*
X12265Y5699D01*
X12282Y5711D01*
X12293Y5704D01*
X12291Y5687D01*
X12295Y5661D01*
X12305Y5637D01*
X12321Y5616D01*
X12342Y5600D01*
X12366Y5590D01*
X12392Y5586D01*
X12400Y5587D01*
X12406Y5575D01*
X12218Y5388D01*
X12204Y5369D01*
X12195Y5347D01*
X12192Y5324D01*
Y4556D01*
X12182Y4532D01*
X12178Y4505D01*
X12182Y4478D01*
X12184Y4471D01*
X12177Y4461D01*
X10132D01*
X10128Y4473D01*
X10131Y4476D01*
X10153Y4502D01*
X10169Y4533D01*
X10179Y4566D01*
X10183Y4600D01*
X10179Y4634D01*
X10169Y4667D01*
X10153Y4698D01*
X10131Y4724D01*
X10105Y4746D01*
X10074Y4762D01*
X10041Y4772D01*
X10007Y4776D01*
X9973Y4772D01*
X9940Y4762D01*
X9909Y4746D01*
X9883Y4724D01*
X9861Y4698D01*
X9845Y4667D01*
X9835Y4634D01*
X9831Y4600D01*
X9835Y4566D01*
X9845Y4533D01*
X9861Y4502D01*
X9883Y4476D01*
X9886Y4473D01*
X9882Y4461D01*
X8302D01*
X7878Y4885D01*
X7850Y4908D01*
X7819Y4925D01*
X7785Y4935D01*
X7750Y4938D01*
X6990D01*
X6648Y5280D01*
X6620Y5303D01*
X6589Y5320D01*
X6555Y5330D01*
X6520Y5333D01*
X5840D01*
X5275Y5898D01*
X5248Y5920D01*
X5217Y5937D01*
X5183Y5947D01*
X5147Y5951D01*
X4114D01*
X4096Y5960D01*
X4058Y5972D01*
X4017Y5976D01*
X3977Y5972D01*
X3939Y5960D01*
X3903Y5941D01*
X3872Y5916D01*
X3846Y5884D01*
X3827Y5849D01*
X3815Y5810D01*
X3812Y5770D01*
X3815Y5730D01*
X3827Y5691D01*
X3846Y5656D01*
X3872Y5624D01*
X3903Y5599D01*
X3939Y5580D01*
X3977Y5568D01*
X4017Y5564D01*
X4058Y5568D01*
X4096Y5580D01*
X4114Y5589D01*
X5073D01*
X5637Y5025D01*
X5637Y5025D01*
X5665Y5002D01*
X5696Y4985D01*
X5730Y4975D01*
X5765Y4972D01*
X6445D01*
X6787Y4630D01*
X6815Y4607D01*
X6846Y4590D01*
X6880Y4580D01*
X6915Y4577D01*
X7675D01*
X8100Y4152D01*
X8100Y4152D01*
X8111Y4143D01*
X8107Y4131D01*
X2900D01*
Y6990D01*
X3071Y7149D01*
X3832Y7845D01*
X4499Y8443D01*
X4925Y8817D01*
X4938Y8811D01*
D02*
G37*
G36*
X12899Y5960D02*
X12900Y5958D01*
X12899Y5956D01*
X12904Y5914D01*
X12905Y5910D01*
X12906Y5906D01*
X12919Y5866D01*
X12921Y5862D01*
X12922Y5858D01*
X12944Y5821D01*
X12946Y5818D01*
X12949Y5814D01*
X12977Y5783D01*
X12980Y5781D01*
X12983Y5778D01*
X13018Y5753D01*
X13022Y5751D01*
X13025Y5749D01*
X13064Y5732D01*
X13068Y5731D01*
X13072Y5729D01*
X13113Y5721D01*
X13118Y5721D01*
X13122Y5720D01*
X13164Y5721D01*
X13168Y5722D01*
X13172Y5722D01*
X13214Y5731D01*
X13217Y5733D01*
X13222Y5734D01*
X13260Y5752D01*
X13263Y5754D01*
X13267Y5756D01*
X13301Y5781D01*
X13304Y5785D01*
X13307Y5787D01*
X13335Y5819D01*
X13336Y5821D01*
X13337Y5822D01*
X13374Y5875D01*
X13387Y5876D01*
X13752Y5511D01*
X13492Y5138D01*
X13491Y5136D01*
X13490Y5134D01*
X13469Y5096D01*
X13467Y5092D01*
X13465Y5088D01*
X13453Y5046D01*
X13453Y5041D01*
X13452Y5037D01*
X13449Y4994D01*
X13449Y4989D01*
X13449Y4985D01*
X13456Y4942D01*
X13457Y4938D01*
X13458Y4933D01*
X13474Y4893D01*
X13476Y4889D01*
X13478Y4885D01*
X13502Y4849D01*
X13505Y4846D01*
X13508Y4842D01*
X13539Y4812D01*
X13543Y4809D01*
X13546Y4806D01*
X13584Y4784D01*
X13588Y4782D01*
X13592Y4780D01*
X13633Y4766D01*
X13637Y4766D01*
X13642Y4764D01*
X13685Y4759D01*
X13687Y4760D01*
X13689Y4759D01*
X14353D01*
X14355Y4760D01*
X14357Y4759D01*
X14415Y4765D01*
X14419Y4766D01*
X14423Y4767D01*
X14479Y4784D01*
X14483Y4786D01*
X14487Y4787D01*
X14529Y4810D01*
X14542Y4802D01*
Y4131D01*
X12528D01*
X12524Y4143D01*
X12535Y4152D01*
X12893Y4510D01*
X12915Y4537D01*
X12932Y4568D01*
X12942Y4602D01*
X12946Y4638D01*
X12946Y4638D01*
Y5214D01*
X12955Y5231D01*
X12967Y5270D01*
X12971Y5310D01*
X12967Y5350D01*
X12955Y5389D01*
X12936Y5424D01*
X12911Y5456D01*
X12879Y5481D01*
X12844Y5500D01*
X12805Y5512D01*
X12765Y5516D01*
X12725Y5512D01*
X12686Y5500D01*
X12651Y5481D01*
X12619Y5456D01*
X12594Y5424D01*
X12575Y5389D01*
X12563Y5350D01*
X12559Y5310D01*
X12563Y5270D01*
X12575Y5231D01*
X12584Y5214D01*
Y4712D01*
X12396Y4524D01*
X12384Y4528D01*
X12383Y4532D01*
X12373Y4556D01*
Y5286D01*
X12680Y5593D01*
X12697Y5600D01*
X12717Y5616D01*
X12733Y5637D01*
X12744Y5661D01*
X12747Y5687D01*
X12744Y5713D01*
X12733Y5738D01*
X12717Y5759D01*
X12697Y5775D01*
X12672Y5785D01*
X12646Y5788D01*
X12620Y5785D01*
X12596Y5775D01*
X12575Y5759D01*
X12559Y5738D01*
X12552Y5722D01*
X12504Y5674D01*
X12492Y5679D01*
X12493Y5687D01*
X12490Y5713D01*
X12479Y5738D01*
X12463Y5759D01*
X12443Y5775D01*
X12418Y5785D01*
X12392Y5788D01*
X12366Y5785D01*
X12360Y5782D01*
X12352Y5792D01*
X12358Y5803D01*
X12360Y5807D01*
X12362Y5811D01*
X12374Y5851D01*
X12375Y5855D01*
X12376Y5859D01*
X12381Y5900D01*
X12380Y5903D01*
X12381Y5905D01*
Y6100D01*
X12899D01*
Y5960D01*
D02*
G37*
G36*
X9844Y4087D02*
X9841Y4085D01*
X9838Y4083D01*
X9834Y4081D01*
X9789Y4044D01*
X9786Y4041D01*
X9783Y4038D01*
X9746Y3993D01*
X9744Y3989D01*
X9742Y3986D01*
X9714Y3934D01*
X9713Y3930D01*
X9711Y3927D01*
X9694Y3870D01*
X9693Y3866D01*
X9692Y3863D01*
X9686Y3804D01*
X9687Y3802D01*
X9686Y3800D01*
Y1200D01*
X9687Y1198D01*
X9686Y1196D01*
X9692Y1137D01*
X9693Y1134D01*
X9694Y1130D01*
X9711Y1073D01*
X9713Y1070D01*
X9714Y1066D01*
X9742Y1014D01*
X9744Y1011D01*
X9746Y1007D01*
X9783Y962D01*
X9786Y959D01*
X9789Y956D01*
X9834Y919D01*
X9838Y917D01*
X9841Y915D01*
X9893Y887D01*
X9897Y886D01*
X9900Y884D01*
X9957Y867D01*
X9961Y866D01*
X9964Y865D01*
X10023Y859D01*
X10025Y860D01*
X10027Y859D01*
X10200D01*
Y31D01*
X9578D01*
X9513Y36D01*
X9451Y53D01*
X9392Y80D01*
X9340Y117D01*
X9294Y163D01*
X9257Y215D01*
X9230Y274D01*
X9213Y336D01*
X9208Y401D01*
Y614D01*
X9220Y619D01*
X9236Y607D01*
X9259Y598D01*
Y690D01*
Y782D01*
X9236Y773D01*
X9220Y761D01*
X9208Y766D01*
Y4099D01*
X9841D01*
X9844Y4087D01*
D02*
G37*
%LPC*%
G36*
X8731Y10994D02*
X8711Y10991D01*
X8693Y10984D01*
X8678Y10972D01*
X8674Y10967D01*
X8661D01*
X8657Y10972D01*
X8642Y10984D01*
X8624Y10991D01*
X8604Y10994D01*
X8584Y10991D01*
X8566Y10984D01*
X8551Y10972D01*
X8546Y10966D01*
X8533D01*
X8530Y10970D01*
X8515Y10982D01*
X8497Y10989D01*
X8477Y10992D01*
X8457Y10989D01*
X8439Y10982D01*
X8424Y10970D01*
X8418Y10963D01*
X8402D01*
X8400Y10966D01*
X8385Y10977D01*
X8375Y10982D01*
Y10916D01*
Y10851D01*
X8385Y10855D01*
X8400Y10866D01*
X8402Y10869D01*
X8418D01*
X8424Y10863D01*
X8439Y10851D01*
X8457Y10843D01*
X8477Y10841D01*
X8497Y10843D01*
X8515Y10851D01*
X8530Y10863D01*
X8535Y10868D01*
X8548D01*
X8551Y10865D01*
X8566Y10853D01*
X8584Y10845D01*
X8604Y10843D01*
X8624Y10845D01*
X8642Y10853D01*
X8657Y10865D01*
X8661Y10869D01*
X8674D01*
X8678Y10865D01*
X8693Y10853D01*
X8711Y10845D01*
X8731Y10843D01*
X8751Y10845D01*
X8769Y10853D01*
X8784Y10865D01*
X8797Y10880D01*
X8804Y10899D01*
X8807Y10918D01*
X8804Y10938D01*
X8797Y10956D01*
X8784Y10972D01*
X8769Y10984D01*
X8751Y10991D01*
X8731Y10994D01*
D02*
G37*
G36*
X9749Y10990D02*
X9729Y10988D01*
X9711Y10980D01*
X9695Y10968D01*
X9691Y10962D01*
X9678D01*
X9675Y10966D01*
X9659Y10978D01*
X9641Y10986D01*
X9621Y10988D01*
X9602Y10986D01*
X9584Y10978D01*
X9568Y10966D01*
X9564Y10961D01*
X9552D01*
X9548Y10966D01*
X9532Y10978D01*
X9514Y10986D01*
X9494Y10988D01*
X9475Y10986D01*
X9457Y10978D01*
X9441Y10966D01*
X9429Y10950D01*
X9421Y10932D01*
X9419Y10912D01*
X9421Y10893D01*
X9429Y10875D01*
X9441Y10859D01*
X9457Y10847D01*
X9475Y10839D01*
X9494Y10837D01*
X9514Y10839D01*
X9532Y10847D01*
X9548Y10859D01*
X9552Y10864D01*
X9564D01*
X9568Y10859D01*
X9584Y10847D01*
X9602Y10839D01*
X9621Y10837D01*
X9641Y10839D01*
X9659Y10847D01*
X9675Y10859D01*
X9679Y10865D01*
X9692D01*
X9695Y10861D01*
X9711Y10849D01*
X9729Y10841D01*
X9749Y10839D01*
X9768Y10841D01*
X9786Y10849D01*
X9802Y10861D01*
X9807Y10868D01*
X9823D01*
X9826Y10865D01*
X9840Y10853D01*
X9850Y10849D01*
Y10914D01*
Y10980D01*
X9840Y10976D01*
X9826Y10964D01*
X9823Y10961D01*
X9807D01*
X9802Y10968D01*
X9786Y10980D01*
X9768Y10988D01*
X9749Y10990D01*
D02*
G37*
G36*
X8325Y10982D02*
X8315Y10977D01*
X8300Y10966D01*
X8289Y10952D01*
X8285Y10941D01*
X8325D01*
Y10982D01*
D02*
G37*
G36*
X9900Y10980D02*
Y10939D01*
X9941D01*
X9937Y10950D01*
X9925Y10964D01*
X9911Y10976D01*
X9900Y10980D01*
D02*
G37*
G36*
X8325Y10891D02*
X8285D01*
X8289Y10881D01*
X8300Y10866D01*
X8315Y10855D01*
X8325Y10851D01*
Y10891D01*
D02*
G37*
G36*
X9941Y10889D02*
X9900D01*
Y10849D01*
X9911Y10853D01*
X9925Y10865D01*
X9937Y10879D01*
X9941Y10889D01*
D02*
G37*
G36*
X8186Y10782D02*
Y10715D01*
X8253D01*
X8244Y10738D01*
X8228Y10757D01*
X8209Y10773D01*
X8186Y10782D01*
D02*
G37*
G36*
X8136D02*
X8113Y10773D01*
X8093Y10757D01*
X8078Y10738D01*
X8068Y10715D01*
X8136D01*
Y10782D01*
D02*
G37*
G36*
X10096Y10777D02*
Y10710D01*
X10163D01*
X10154Y10733D01*
X10139Y10752D01*
X10119Y10768D01*
X10096Y10777D01*
D02*
G37*
G36*
X10046D02*
X10023Y10768D01*
X10003Y10752D01*
X9988Y10733D01*
X9978Y10710D01*
X10046D01*
Y10777D01*
D02*
G37*
G36*
X8253Y10665D02*
X8186D01*
Y10597D01*
X8209Y10607D01*
X8228Y10622D01*
X8244Y10642D01*
X8253Y10665D01*
D02*
G37*
G36*
X8136D02*
X8068D01*
X8078Y10642D01*
X8093Y10622D01*
X8113Y10607D01*
X8136Y10597D01*
Y10665D01*
D02*
G37*
G36*
X10163Y10660D02*
X10096D01*
Y10592D01*
X10119Y10602D01*
X10139Y10617D01*
X10154Y10637D01*
X10163Y10660D01*
D02*
G37*
G36*
X10046D02*
X9978D01*
X9988Y10637D01*
X10003Y10617D01*
X10023Y10602D01*
X10046Y10592D01*
Y10660D01*
D02*
G37*
G36*
X8415Y10790D02*
X8389Y10787D01*
X8364Y10777D01*
X8343Y10761D01*
X8327Y10740D01*
X8317Y10716D01*
X8314Y10690D01*
X8317Y10663D01*
X8327Y10639D01*
X8343Y10618D01*
X8364Y10602D01*
X8389Y10592D01*
X8415Y10589D01*
X8441Y10592D01*
X8465Y10602D01*
X8486Y10618D01*
X8502Y10639D01*
X8512Y10663D01*
X8516Y10690D01*
X8512Y10716D01*
X8502Y10740D01*
X8486Y10761D01*
X8465Y10777D01*
X8441Y10787D01*
X8415Y10790D01*
D02*
G37*
G36*
X9817Y10785D02*
X9791Y10782D01*
X9766Y10772D01*
X9745Y10756D01*
X9729Y10735D01*
X9719Y10711D01*
X9716Y10685D01*
X9719Y10658D01*
X9729Y10634D01*
X9745Y10613D01*
X9766Y10597D01*
X9791Y10587D01*
X9817Y10584D01*
X9843Y10587D01*
X9867Y10597D01*
X9888Y10613D01*
X9904Y10634D01*
X9914Y10658D01*
X9918Y10685D01*
X9914Y10711D01*
X9904Y10735D01*
X9888Y10756D01*
X9867Y10772D01*
X9843Y10782D01*
X9817Y10785D01*
D02*
G37*
G36*
X9563D02*
X9537Y10782D01*
X9512Y10772D01*
X9491Y10756D01*
X9475Y10735D01*
X9465Y10711D01*
X9462Y10685D01*
X9465Y10658D01*
X9475Y10634D01*
X9491Y10613D01*
X9512Y10597D01*
X9537Y10587D01*
X9563Y10584D01*
X9589Y10587D01*
X9613Y10597D01*
X9634Y10613D01*
X9650Y10634D01*
X9660Y10658D01*
X9664Y10685D01*
X9660Y10711D01*
X9650Y10735D01*
X9634Y10756D01*
X9613Y10772D01*
X9589Y10782D01*
X9563Y10785D01*
D02*
G37*
G36*
X9309D02*
X9283Y10782D01*
X9258Y10772D01*
X9237Y10756D01*
X9221Y10735D01*
X9211Y10711D01*
X9208Y10685D01*
X9211Y10658D01*
X9221Y10634D01*
X9237Y10613D01*
X9258Y10597D01*
X9283Y10587D01*
X9309Y10584D01*
X9335Y10587D01*
X9359Y10597D01*
X9380Y10613D01*
X9396Y10634D01*
X9406Y10658D01*
X9410Y10685D01*
X9406Y10711D01*
X9396Y10735D01*
X9380Y10756D01*
X9359Y10772D01*
X9335Y10782D01*
X9309Y10785D01*
D02*
G37*
G36*
X7547Y10619D02*
X7513Y10616D01*
X7480Y10606D01*
X7449Y10589D01*
X7423Y10568D01*
X7401Y10541D01*
X7385Y10511D01*
X7375Y10478D01*
X7371Y10443D01*
X7375Y10409D01*
X7385Y10376D01*
X7401Y10346D01*
X7423Y10319D01*
X7449Y10297D01*
X7480Y10281D01*
X7513Y10271D01*
X7547Y10267D01*
X7581Y10271D01*
X7614Y10281D01*
X7645Y10297D01*
X7671Y10319D01*
X7693Y10346D01*
X7709Y10376D01*
X7719Y10409D01*
X7723Y10443D01*
X7719Y10478D01*
X7709Y10511D01*
X7693Y10541D01*
X7671Y10568D01*
X7645Y10589D01*
X7614Y10606D01*
X7581Y10616D01*
X7547Y10619D01*
D02*
G37*
G36*
X5708Y8774D02*
X5683Y8773D01*
X5660Y8765D01*
X5703Y8714D01*
X5755Y8758D01*
X5733Y8769D01*
X5708Y8774D01*
D02*
G37*
G36*
X5622Y8733D02*
X5610Y8711D01*
X5605Y8686D01*
X5606Y8661D01*
X5614Y8638D01*
X5665Y8682D01*
X5622Y8733D01*
D02*
G37*
G36*
X3542Y5969D02*
Y5795D01*
X3716D01*
X3715Y5809D01*
X3703Y5847D01*
X3685Y5882D01*
X3660Y5912D01*
X3629Y5937D01*
X3594Y5956D01*
X3557Y5967D01*
X3542Y5969D01*
D02*
G37*
G36*
X3493D02*
X3478Y5967D01*
X3441Y5956D01*
X3406Y5937D01*
X3375Y5912D01*
X3350Y5882D01*
X3332Y5847D01*
X3320Y5809D01*
X3319Y5795D01*
X3493D01*
Y5969D01*
D02*
G37*
G36*
X3716Y5745D02*
X3542D01*
Y5571D01*
X3557Y5573D01*
X3594Y5584D01*
X3629Y5603D01*
X3660Y5628D01*
X3685Y5658D01*
X3703Y5693D01*
X3715Y5731D01*
X3716Y5745D01*
D02*
G37*
G36*
X3493D02*
X3319D01*
X3320Y5731D01*
X3332Y5693D01*
X3350Y5658D01*
X3375Y5628D01*
X3406Y5603D01*
X3441Y5584D01*
X3478Y5573D01*
X3493Y5571D01*
Y5745D01*
D02*
G37*
G36*
X8360Y5098D02*
X8349Y5094D01*
X8335Y5082D01*
X8323Y5068D01*
X8319Y5058D01*
X8360D01*
Y5098D01*
D02*
G37*
G36*
Y5008D02*
X8319D01*
X8323Y4997D01*
X8335Y4983D01*
X8349Y4971D01*
X8360Y4967D01*
Y5008D01*
D02*
G37*
G36*
X5390Y4905D02*
X5295D01*
Y4745D01*
X5390D01*
Y4905D01*
D02*
G37*
G36*
X5245D02*
X5150D01*
Y4745D01*
X5245D01*
Y4905D01*
D02*
G37*
G36*
X5390Y4695D02*
X5295D01*
Y4535D01*
X5390D01*
Y4695D01*
D02*
G37*
G36*
X5245D02*
X5150D01*
Y4535D01*
X5245D01*
Y4695D01*
D02*
G37*
G36*
X4770Y4925D02*
X4490D01*
Y4515D01*
X4539D01*
Y4450D01*
X4530Y4427D01*
X4526Y4400D01*
X4530Y4373D01*
X4540Y4348D01*
X4557Y4326D01*
X4578Y4310D01*
X4604Y4299D01*
X4631Y4296D01*
X4658Y4299D01*
X4683Y4310D01*
X4704Y4326D01*
X4721Y4348D01*
X4731Y4373D01*
X4735Y4400D01*
X4731Y4427D01*
X4721Y4452D01*
X4721Y4452D01*
Y4515D01*
X4770D01*
Y4925D01*
D02*
G37*
G36*
X12646Y6004D02*
X12627Y6002D01*
X12608Y5994D01*
X12593Y5982D01*
X12589Y5977D01*
X12576D01*
X12573Y5982D01*
X12557Y5994D01*
X12539Y6002D01*
X12519Y6004D01*
X12500Y6002D01*
X12481Y5994D01*
X12466Y5982D01*
X12454Y5966D01*
X12446Y5948D01*
X12443Y5929D01*
X12446Y5909D01*
X12454Y5891D01*
X12466Y5875D01*
X12481Y5863D01*
X12500Y5856D01*
X12519Y5853D01*
X12539Y5856D01*
X12557Y5863D01*
X12573Y5875D01*
X12576Y5880D01*
X12589D01*
X12593Y5875D01*
X12608Y5863D01*
X12627Y5856D01*
X12646Y5853D01*
X12666Y5856D01*
X12684Y5863D01*
X12700Y5875D01*
X12705Y5882D01*
X12721D01*
X12723Y5879D01*
X12738Y5867D01*
X12748Y5863D01*
Y5929D01*
Y5994D01*
X12738Y5990D01*
X12723Y5979D01*
X12721Y5975D01*
X12705D01*
X12700Y5982D01*
X12684Y5994D01*
X12666Y6002D01*
X12646Y6004D01*
D02*
G37*
G36*
X12798Y5994D02*
Y5954D01*
X12839D01*
X12834Y5964D01*
X12823Y5979D01*
X12808Y5990D01*
X12798Y5994D01*
D02*
G37*
G36*
X12839Y5904D02*
X12798D01*
Y5863D01*
X12808Y5867D01*
X12823Y5879D01*
X12834Y5893D01*
X12839Y5904D01*
D02*
G37*
G36*
X12925Y5780D02*
Y5712D01*
X12993D01*
X12983Y5735D01*
X12968Y5755D01*
X12948Y5770D01*
X12925Y5780D01*
D02*
G37*
G36*
X12875D02*
X12852Y5770D01*
X12832Y5755D01*
X12817Y5735D01*
X12808Y5712D01*
X12875D01*
Y5780D01*
D02*
G37*
G36*
X12993Y5662D02*
X12925D01*
Y5595D01*
X12948Y5604D01*
X12968Y5620D01*
X12983Y5639D01*
X12993Y5662D01*
D02*
G37*
G36*
X12875D02*
X12808D01*
X12817Y5639D01*
X12832Y5620D01*
X12852Y5604D01*
X12875Y5595D01*
Y5662D01*
D02*
G37*
G36*
X13290Y5509D02*
Y5335D01*
X13464D01*
X13462Y5349D01*
X13451Y5387D01*
X13432Y5422D01*
X13407Y5452D01*
X13377Y5477D01*
X13342Y5496D01*
X13304Y5507D01*
X13290Y5509D01*
D02*
G37*
G36*
X13240D02*
X13226Y5507D01*
X13188Y5496D01*
X13153Y5477D01*
X13123Y5452D01*
X13098Y5422D01*
X13079Y5387D01*
X13068Y5349D01*
X13066Y5335D01*
X13240D01*
Y5509D01*
D02*
G37*
G36*
X13464Y5285D02*
X13290D01*
Y5111D01*
X13304Y5113D01*
X13342Y5124D01*
X13377Y5143D01*
X13407Y5168D01*
X13432Y5198D01*
X13451Y5233D01*
X13462Y5271D01*
X13464Y5285D01*
D02*
G37*
G36*
X13240D02*
X13066D01*
X13068Y5271D01*
X13079Y5233D01*
X13098Y5198D01*
X13123Y5168D01*
X13153Y5143D01*
X13188Y5124D01*
X13226Y5113D01*
X13240Y5111D01*
Y5285D01*
D02*
G37*
G36*
X14236Y4637D02*
Y4597D01*
X14277D01*
X14272Y4607D01*
X14261Y4622D01*
X14247Y4633D01*
X14236Y4637D01*
D02*
G37*
G36*
X14277Y4547D02*
X14236D01*
Y4507D01*
X14247Y4511D01*
X14261Y4522D01*
X14272Y4537D01*
X14277Y4547D01*
D02*
G37*
G36*
X14084Y4648D02*
X14065Y4645D01*
X14046Y4638D01*
X14031Y4625D01*
X14019Y4610D01*
X14011Y4592D01*
X14009Y4572D01*
X14011Y4552D01*
X14019Y4534D01*
X14031Y4519D01*
X14046Y4506D01*
X14065Y4499D01*
X14084Y4496D01*
X14104Y4499D01*
X14122Y4506D01*
X14138Y4519D01*
X14143Y4525D01*
X14159D01*
X14161Y4522D01*
X14176Y4511D01*
X14186Y4507D01*
Y4572D01*
Y4637D01*
X14176Y4633D01*
X14161Y4622D01*
X14159Y4619D01*
X14143D01*
X14138Y4625D01*
X14122Y4638D01*
X14104Y4645D01*
X14084Y4648D01*
D02*
G37*
G36*
X14300Y4461D02*
Y4394D01*
X14367D01*
X14358Y4417D01*
X14343Y4437D01*
X14323Y4452D01*
X14300Y4461D01*
D02*
G37*
G36*
X14250D02*
X14227Y4452D01*
X14207Y4437D01*
X14192Y4417D01*
X14182Y4394D01*
X14250D01*
Y4461D01*
D02*
G37*
G36*
X14367Y4344D02*
X14300D01*
Y4276D01*
X14323Y4286D01*
X14343Y4301D01*
X14358Y4321D01*
X14367Y4344D01*
D02*
G37*
G36*
X14250D02*
X14182D01*
X14192Y4321D01*
X14207Y4301D01*
X14227Y4286D01*
X14250Y4276D01*
Y4344D01*
D02*
G37*
G36*
X14021Y4470D02*
X13995Y4466D01*
X13970Y4456D01*
X13949Y4440D01*
X13933Y4419D01*
X13923Y4395D01*
X13920Y4369D01*
X13923Y4343D01*
X13933Y4318D01*
X13949Y4297D01*
X13970Y4281D01*
X13995Y4271D01*
X14021Y4268D01*
X14047Y4271D01*
X14071Y4281D01*
X14092Y4297D01*
X14108Y4318D01*
X14118Y4343D01*
X14122Y4369D01*
X14118Y4395D01*
X14108Y4419D01*
X14092Y4440D01*
X14071Y4456D01*
X14047Y4466D01*
X14021Y4470D01*
D02*
G37*
G36*
X9692Y973D02*
X9673Y971D01*
X9654Y963D01*
X9639Y951D01*
X9635Y946D01*
X9622D01*
X9619Y951D01*
X9603Y963D01*
X9585Y971D01*
X9565Y973D01*
X9546Y971D01*
X9527Y963D01*
X9512Y951D01*
X9507Y945D01*
X9495D01*
X9492Y949D01*
X9476Y961D01*
X9458Y969D01*
X9438Y971D01*
X9419Y969D01*
X9400Y961D01*
X9385Y949D01*
X9380Y942D01*
X9364D01*
X9361Y945D01*
X9347Y957D01*
X9336Y961D01*
Y895D01*
Y830D01*
X9347Y834D01*
X9361Y846D01*
X9364Y849D01*
X9380D01*
X9385Y842D01*
X9400Y830D01*
X9419Y822D01*
X9438Y820D01*
X9458Y822D01*
X9476Y830D01*
X9492Y842D01*
X9496Y848D01*
X9509D01*
X9512Y844D01*
X9527Y832D01*
X9546Y824D01*
X9565Y822D01*
X9585Y824D01*
X9603Y832D01*
X9619Y844D01*
X9622Y849D01*
X9635D01*
X9639Y844D01*
X9654Y832D01*
X9673Y824D01*
X9692Y822D01*
X9712Y824D01*
X9730Y832D01*
X9746Y844D01*
X9758Y860D01*
X9765Y878D01*
X9768Y898D01*
X9765Y917D01*
X9758Y935D01*
X9746Y951D01*
X9730Y963D01*
X9712Y971D01*
X9692Y973D01*
D02*
G37*
G36*
X9286Y961D02*
X9276Y957D01*
X9261Y945D01*
X9250Y931D01*
X9246Y920D01*
X9286D01*
Y961D01*
D02*
G37*
G36*
Y870D02*
X9246D01*
X9250Y860D01*
X9261Y846D01*
X9276Y834D01*
X9286Y830D01*
Y870D01*
D02*
G37*
G36*
X9309Y782D02*
Y715D01*
X9376D01*
X9367Y738D01*
X9352Y758D01*
X9332Y773D01*
X9309Y782D01*
D02*
G37*
G36*
X9376Y665D02*
X9309D01*
Y598D01*
X9332Y607D01*
X9352Y622D01*
X9367Y642D01*
X9376Y665D01*
D02*
G37*
G36*
X10046Y791D02*
X10020Y787D01*
X9996Y777D01*
X9975Y761D01*
X9959Y740D01*
X9949Y716D01*
X9945Y690D01*
X9949Y664D01*
X9959Y640D01*
X9975Y619D01*
X9996Y603D01*
X10020Y593D01*
X10046Y589D01*
X10072Y593D01*
X10096Y603D01*
X10117Y619D01*
X10133Y640D01*
X10143Y664D01*
X10147Y690D01*
X10143Y716D01*
X10133Y740D01*
X10117Y761D01*
X10096Y777D01*
X10072Y787D01*
X10046Y791D01*
D02*
G37*
G36*
X9792D02*
X9766Y787D01*
X9742Y777D01*
X9721Y761D01*
X9705Y740D01*
X9695Y716D01*
X9691Y690D01*
X9695Y664D01*
X9705Y640D01*
X9721Y619D01*
X9742Y603D01*
X9766Y593D01*
X9792Y589D01*
X9818Y593D01*
X9842Y603D01*
X9863Y619D01*
X9879Y640D01*
X9889Y664D01*
X9893Y690D01*
X9889Y716D01*
X9879Y740D01*
X9863Y761D01*
X9842Y777D01*
X9818Y787D01*
X9792Y791D01*
D02*
G37*
G36*
X9538D02*
X9512Y787D01*
X9488Y777D01*
X9467Y761D01*
X9451Y740D01*
X9441Y716D01*
X9437Y690D01*
X9441Y664D01*
X9451Y640D01*
X9467Y619D01*
X9488Y603D01*
X9512Y593D01*
X9538Y589D01*
X9564Y593D01*
X9588Y603D01*
X9609Y619D01*
X9625Y640D01*
X9635Y664D01*
X9639Y690D01*
X9635Y716D01*
X9625Y740D01*
X9609Y761D01*
X9588Y777D01*
X9564Y787D01*
X9538Y791D01*
D02*
G37*
%LPD*%
D27*
X14400Y4600D02*
D03*
X14500Y4400D02*
D03*
X14400Y4200D02*
D03*
X14200D02*
D03*
X14000D02*
D03*
X13800D02*
D03*
X13600Y5400D02*
D03*
X13700Y4400D02*
D03*
X13600Y4200D02*
D03*
X13400Y5800D02*
D03*
X13500Y5600D02*
D03*
Y5200D02*
D03*
X13400Y5000D02*
D03*
X13500Y4800D02*
D03*
Y4400D02*
D03*
X13400Y4200D02*
D03*
X13300Y5600D02*
D03*
X13200Y5000D02*
D03*
X13300Y4800D02*
D03*
Y4400D02*
D03*
X13200Y4200D02*
D03*
X13100Y5600D02*
D03*
X13000Y5400D02*
D03*
Y5000D02*
D03*
X13100Y4800D02*
D03*
Y4400D02*
D03*
X13000Y4200D02*
D03*
X12900Y4400D02*
D03*
X12800Y4200D02*
D03*
X12600D02*
D03*
X12500Y5200D02*
D03*
X12400Y5000D02*
D03*
X12500Y4800D02*
D03*
X12100Y5600D02*
D03*
Y5200D02*
D03*
Y4800D02*
D03*
X11900Y5600D02*
D03*
X11800Y5400D02*
D03*
X11900Y5200D02*
D03*
X10200Y10600D02*
D03*
X10100Y400D02*
D03*
X10000Y200D02*
D03*
X9900Y10800D02*
D03*
X9800Y5400D02*
D03*
X9900Y5200D02*
D03*
Y4800D02*
D03*
X9800Y4600D02*
D03*
X9900Y400D02*
D03*
X9800Y200D02*
D03*
X9600Y5400D02*
D03*
X9700Y5200D02*
D03*
Y400D02*
D03*
X9600Y200D02*
D03*
X9400Y600D02*
D03*
X9500Y400D02*
D03*
X9400Y200D02*
D03*
X9200Y4600D02*
D03*
X9300Y400D02*
D03*
X9100Y10800D02*
D03*
X9000Y4600D02*
D03*
X8800D02*
D03*
X8700Y10000D02*
D03*
X8600Y9800D02*
D03*
Y4600D02*
D03*
X8500Y10000D02*
D03*
X8400Y9800D02*
D03*
Y4600D02*
D03*
X8300Y10800D02*
D03*
Y9600D02*
D03*
X8200Y5000D02*
D03*
Y4600D02*
D03*
X8000Y10600D02*
D03*
X8100Y10400D02*
D03*
X8000Y5000D02*
D03*
Y4200D02*
D03*
X7900Y10800D02*
D03*
X7800Y10600D02*
D03*
X7900Y10400D02*
D03*
X7800Y10200D02*
D03*
X7900Y5200D02*
D03*
X7800Y4200D02*
D03*
X7700Y10800D02*
D03*
X7600Y10200D02*
D03*
Y7000D02*
D03*
Y6600D02*
D03*
Y6200D02*
D03*
Y5800D02*
D03*
Y5400D02*
D03*
Y5000D02*
D03*
X7700Y4400D02*
D03*
X7600Y4200D02*
D03*
X7500Y10800D02*
D03*
X7400Y10600D02*
D03*
X7500Y6000D02*
D03*
X7400Y5800D02*
D03*
X7500Y5600D02*
D03*
X7400Y5400D02*
D03*
X7500Y5200D02*
D03*
X7400Y5000D02*
D03*
X7500Y4400D02*
D03*
X7400Y4200D02*
D03*
X7200Y10600D02*
D03*
X7300Y10400D02*
D03*
Y6000D02*
D03*
Y5600D02*
D03*
Y4400D02*
D03*
X7200Y4200D02*
D03*
X7100Y10400D02*
D03*
X7000Y5800D02*
D03*
X7100Y5600D02*
D03*
Y4400D02*
D03*
X7000Y4200D02*
D03*
X6900Y6000D02*
D03*
Y4400D02*
D03*
X6800Y4200D02*
D03*
X6700Y9600D02*
D03*
Y6000D02*
D03*
Y4400D02*
D03*
X6500Y6000D02*
D03*
X6300D02*
D03*
X6100Y9200D02*
D03*
X6000Y9000D02*
D03*
X5800D02*
D03*
X5900Y8800D02*
D03*
X5800Y5800D02*
D03*
X5500Y6000D02*
D03*
X5400Y5800D02*
D03*
X5500Y4800D02*
D03*
X5200Y5000D02*
D03*
X5000D02*
D03*
X4800Y8600D02*
D03*
X4900Y8400D02*
D03*
X4800Y8200D02*
D03*
Y5000D02*
D03*
X4700Y8400D02*
D03*
X4600Y8200D02*
D03*
X4700Y8000D02*
D03*
X4600Y7800D02*
D03*
Y5000D02*
D03*
X4500Y8400D02*
D03*
X4400Y8200D02*
D03*
X4500Y8000D02*
D03*
X4400Y7800D02*
D03*
X4500Y7600D02*
D03*
X4300Y8000D02*
D03*
X4200Y7800D02*
D03*
X4300Y7600D02*
D03*
X4200Y7400D02*
D03*
X4100Y8000D02*
D03*
X4000Y7800D02*
D03*
X4100Y7600D02*
D03*
X4000Y7400D02*
D03*
X3900Y7600D02*
D03*
X3800Y7400D02*
D03*
X3900Y7200D02*
D03*
X3800Y7000D02*
D03*
X3700Y7600D02*
D03*
X3600Y7400D02*
D03*
X3700Y7200D02*
D03*
X3600Y7000D02*
D03*
X3700Y6000D02*
D03*
Y5600D02*
D03*
X3600Y5400D02*
D03*
Y5000D02*
D03*
X3400Y7400D02*
D03*
X3500Y7200D02*
D03*
X3400Y7000D02*
D03*
X3500Y6800D02*
D03*
Y6000D02*
D03*
X3400Y5400D02*
D03*
X3500Y5200D02*
D03*
X3400Y5000D02*
D03*
X3500Y4800D02*
D03*
X3400Y4600D02*
D03*
X3500Y4400D02*
D03*
X3400Y4200D02*
D03*
X3300Y7200D02*
D03*
X3200Y7000D02*
D03*
X3300Y6800D02*
D03*
X3200Y6600D02*
D03*
Y6200D02*
D03*
X3300Y6000D02*
D03*
X3200Y5800D02*
D03*
X3300Y5600D02*
D03*
X3200Y5400D02*
D03*
X3300Y5200D02*
D03*
X3200Y5000D02*
D03*
X3300Y4800D02*
D03*
X3200Y4600D02*
D03*
X3300Y4400D02*
D03*
X3200Y4200D02*
D03*
X3000Y7000D02*
D03*
X3100Y6800D02*
D03*
X3000Y6600D02*
D03*
X3100Y6400D02*
D03*
X3000Y6200D02*
D03*
X3100Y6000D02*
D03*
X3000Y5800D02*
D03*
X3100Y5600D02*
D03*
X3000Y5400D02*
D03*
X3100Y5200D02*
D03*
X3000Y5000D02*
D03*
X3100Y4800D02*
D03*
X3000Y4600D02*
D03*
X3100Y4400D02*
D03*
X3000Y4200D02*
D03*
X8025Y10035D02*
D03*
X7826Y10086D02*
D03*
X9290Y4553D02*
D03*
X9418D02*
D03*
D31*
X7745Y9878D02*
D03*
X12282Y4505D02*
D03*
X4631Y4400D02*
D03*
D41*
X6388Y9995D02*
X7372Y9995D01*
X5009Y8828D02*
X6388Y9995D01*
X7372Y9995D02*
X7735Y9632D01*
X6430Y9920D02*
X7337Y9920D01*
X5100Y8785D02*
X6430Y9920D01*
X7337Y9920D02*
X7660Y9597D01*
X5100Y8416D02*
Y8785D01*
X5182Y8730D02*
X6465Y9845D01*
X6502Y9770D02*
X7265D01*
X5281Y8682D02*
X6502Y9770D01*
X5100Y8416D02*
X5114Y8403D01*
X5009Y8329D02*
Y8828D01*
X5281Y8594D02*
Y8682D01*
Y8594D02*
X5307Y8568D01*
X5182Y8513D02*
Y8730D01*
Y8513D02*
X5210Y8485D01*
X5009Y8329D02*
X5017Y8320D01*
X4928Y8231D02*
X5017Y8320D01*
X4928Y8019D02*
Y8231D01*
X5114Y8403D02*
X5121Y8395D01*
X5122D01*
Y8185D02*
Y8395D01*
X5121Y8184D02*
X5122Y8185D01*
X5307Y8568D02*
X5361Y8514D01*
X5507D01*
X5210Y8485D02*
X5314Y8381D01*
Y8349D02*
Y8381D01*
X6465Y9845D02*
X7300D01*
X9290Y4553D02*
Y4680D01*
X9146Y4824D02*
X9290Y4680D01*
X9146Y4824D02*
Y5033D01*
X9418Y4553D02*
Y4712D01*
X9274Y4856D02*
X9418Y4712D01*
X9274Y4856D02*
Y5033D01*
X9019D02*
Y5073D01*
X8653Y5440D02*
X9019Y5073D01*
X8258Y5440D02*
X8653D01*
X8893Y5033D02*
Y5080D01*
X8607Y5365D02*
X8893Y5080D01*
X8227Y5365D02*
X8607D01*
X8765Y5033D02*
Y5090D01*
X8565Y5290D02*
X8765Y5090D01*
X8196Y5290D02*
X8565D01*
X8639Y5033D02*
Y5101D01*
X8525Y5215D02*
X8639Y5101D01*
X8165Y5215D02*
X8525D01*
X7879Y5501D02*
X8165Y5215D01*
X7879Y5501D02*
Y6863D01*
X7510Y7232D02*
X7879Y6863D01*
X7510Y7232D02*
Y9525D01*
X7585Y7272D02*
Y9560D01*
Y7272D02*
X7954Y6903D01*
X7660Y7307D02*
X8029Y6938D01*
X7660Y7307D02*
Y9597D01*
X7735Y7345D02*
Y9632D01*
Y7345D02*
X8104Y6976D01*
Y5594D02*
Y6976D01*
X8029Y5563D02*
Y6938D01*
Y5563D02*
X8227Y5365D01*
X7300Y9845D02*
X7585Y9560D01*
X7954Y5532D02*
Y6903D01*
Y5532D02*
X8196Y5290D01*
X7265Y9770D02*
X7510Y9525D01*
X7974Y10086D02*
X8025Y10035D01*
X7826Y10086D02*
X7974D01*
X8104Y5594D02*
X8258Y5440D01*
D42*
X7434Y10188D02*
X7745Y9878D01*
X6930Y10188D02*
X7434D01*
X8111Y9878D02*
X8923Y10690D01*
X7745Y9878D02*
X8111D01*
X12282Y5324D02*
X12646Y5687D01*
X12282Y4505D02*
Y5324D01*
X4630Y4401D02*
Y4720D01*
D43*
Y4401D02*
X4631Y4400D01*
D46*
X5314Y8349D02*
D03*
X5121Y8184D02*
D03*
X4928Y8019D02*
D03*
X5507Y8514D02*
D03*
X5701Y8679D02*
D03*
X9792Y690D02*
D03*
X10046D02*
D03*
X9538D02*
D03*
X9284D02*
D03*
X10071Y10685D02*
D03*
X9817D02*
D03*
X9309D02*
D03*
X9563D02*
D03*
X8161Y10690D02*
D03*
X8415D02*
D03*
X8923D02*
D03*
X8669D02*
D03*
X6839Y9639D02*
D03*
X6645Y9476D02*
D03*
X6256Y9149D02*
D03*
X6450Y9313D02*
D03*
X12646Y5687D02*
D03*
X12900D02*
D03*
X12392D02*
D03*
X14275Y4369D02*
D03*
X14021D02*
D03*
D47*
X5403Y8650D02*
D03*
X5307Y8568D02*
D03*
X5017Y8320D02*
D03*
X5114Y8403D02*
D03*
X5210Y8485D02*
D03*
X6292Y9410D02*
D03*
X6389Y9492D02*
D03*
X6485Y9575D02*
D03*
X6582Y9656D02*
D03*
X9311Y895D02*
D03*
X9438D02*
D03*
X9565Y898D02*
D03*
X9692D02*
D03*
X9494Y10912D02*
D03*
X9621D02*
D03*
X9749Y10914D02*
D03*
X9875D02*
D03*
X8731Y10918D02*
D03*
X8604D02*
D03*
X8477Y10916D02*
D03*
X8350D02*
D03*
X12646Y5929D02*
D03*
X12519D02*
D03*
X12773D02*
D03*
X14084Y4572D02*
D03*
X14211D02*
D03*
X9782Y5033D02*
D03*
X9654D02*
D03*
X9528D02*
D03*
X9400D02*
D03*
X9274D02*
D03*
X9146D02*
D03*
X9019D02*
D03*
X8893D02*
D03*
X8765D02*
D03*
X8639D02*
D03*
X8511D02*
D03*
X8385D02*
D03*
D48*
X13265Y5310D02*
D03*
X12765D02*
D03*
X4017Y5770D02*
D03*
X3517D02*
D03*
D49*
X10007Y4600D02*
D03*
X10447Y500D02*
D03*
X15506Y8413D02*
D03*
X13100Y10368D02*
D03*
X7547Y10443D02*
D03*
X936Y4635D02*
D03*
D50*
X15427Y4900D02*
D03*
D51*
X6930Y10188D02*
D03*
D52*
X4630Y4720D02*
D03*
X5270D02*
D03*
D53*
X12765Y4638D02*
Y5310D01*
X12407Y4280D02*
X12765Y4638D01*
X8228Y4280D02*
X12407D01*
X7750Y4758D02*
X8228Y4280D01*
X6915Y4758D02*
X7750D01*
X6520Y5153D02*
X6915Y4758D01*
X5765Y5153D02*
X6520D01*
X5147Y5770D02*
X5765Y5153D01*
X4017Y5770D02*
X5147D01*
M02*
