G04*
G04 #@! TF.GenerationSoftware,Altium Limited,Altium Designer,18.1.7 (191)*
G04*
G04 Layer_Color=8388736*
%FSLAX42Y42*%
%MOMM*%
G71*
G01*
G75*
%ADD13R,1.45X1.75*%
%ADD14R,2.15X1.75*%
%ADD15R,1.35X3.35*%
%ADD16R,0.65X0.80*%
%ADD17R,1.00X1.00*%
%ADD18R,11.05X9.25*%
%ADD19R,1.20X2.65*%
%ADD20R,5.55X3.05*%
%ADD21R,1.17X0.90*%
%ADD22C,1.65*%
%ADD23C,1.15*%
%ADD24C,3.75*%
%ADD25C,3.15*%
%ADD26C,5.15*%
%ADD27C,0.60*%
%ADD28C,0.85*%
%ADD29C,1.42*%
%ADD30C,0.75*%
%ADD31C,1.27*%
D13*
X6150Y5642D02*
D03*
X5900D02*
D03*
D14*
X6025Y5933D02*
D03*
D15*
X7112Y5833D02*
D03*
Y5153D02*
D03*
X3740Y5290D02*
D03*
Y4610D02*
D03*
D16*
X7369Y4530D02*
D03*
X7465D02*
D03*
D17*
X7131D02*
D03*
X6991D02*
D03*
D18*
X4801Y5597D02*
D03*
D19*
X5141Y4607D02*
D03*
X4971D02*
D03*
X4801D02*
D03*
X4631D02*
D03*
X4461D02*
D03*
D20*
X6006Y4335D02*
D03*
Y5305D02*
D03*
D21*
X5612Y5924D02*
D03*
Y5776D02*
D03*
D22*
X5314Y8349D02*
D03*
X5121Y8184D02*
D03*
X4928Y8019D02*
D03*
X5507Y8514D02*
D03*
X5701Y8679D02*
D03*
X9792Y690D02*
D03*
X10046D02*
D03*
X9538D02*
D03*
X9284D02*
D03*
X10071Y10685D02*
D03*
X9817D02*
D03*
X9309D02*
D03*
X9563D02*
D03*
X8161Y10690D02*
D03*
X8415D02*
D03*
X8923D02*
D03*
X8669D02*
D03*
X6839Y9639D02*
D03*
X6645Y9476D02*
D03*
X6256Y9149D02*
D03*
X6450Y9313D02*
D03*
X12646Y5687D02*
D03*
X12900D02*
D03*
X12392D02*
D03*
X14275Y4369D02*
D03*
X14021D02*
D03*
D23*
X5403Y8650D02*
D03*
X5307Y8568D02*
D03*
X5017Y8320D02*
D03*
X5114Y8403D02*
D03*
X5210Y8485D02*
D03*
X6292Y9410D02*
D03*
X6389Y9492D02*
D03*
X6485Y9575D02*
D03*
X6582Y9656D02*
D03*
X9311Y895D02*
D03*
X9438D02*
D03*
X9565Y898D02*
D03*
X9692D02*
D03*
X9494Y10912D02*
D03*
X9621D02*
D03*
X9749Y10914D02*
D03*
X9875D02*
D03*
X8731Y10918D02*
D03*
X8604D02*
D03*
X8477Y10916D02*
D03*
X8350D02*
D03*
X12646Y5929D02*
D03*
X12519D02*
D03*
X12773D02*
D03*
X14084Y4572D02*
D03*
X14211D02*
D03*
X9782Y5033D02*
D03*
X9654D02*
D03*
X9528D02*
D03*
X9400D02*
D03*
X9274D02*
D03*
X9146D02*
D03*
X9019D02*
D03*
X8893D02*
D03*
X8765D02*
D03*
X8639D02*
D03*
X8511D02*
D03*
X8385D02*
D03*
D24*
X13265Y5310D02*
D03*
X12765D02*
D03*
X4017Y5770D02*
D03*
X3517D02*
D03*
D25*
X10007Y4600D02*
D03*
X10447Y500D02*
D03*
X15506Y8413D02*
D03*
X13100Y10368D02*
D03*
X7547Y10443D02*
D03*
X936Y4635D02*
D03*
D26*
X15427Y4900D02*
D03*
D27*
X14400Y4600D02*
D03*
X14500Y4400D02*
D03*
X14400Y4200D02*
D03*
X14200D02*
D03*
X14000D02*
D03*
X13800D02*
D03*
X13600Y5400D02*
D03*
X13700Y4400D02*
D03*
X13600Y4200D02*
D03*
X13400Y5800D02*
D03*
X13500Y5600D02*
D03*
Y5200D02*
D03*
X13400Y5000D02*
D03*
X13500Y4800D02*
D03*
Y4400D02*
D03*
X13400Y4200D02*
D03*
X13300Y5600D02*
D03*
X13200Y5000D02*
D03*
X13300Y4800D02*
D03*
Y4400D02*
D03*
X13200Y4200D02*
D03*
X13100Y5600D02*
D03*
X13000Y5400D02*
D03*
Y5000D02*
D03*
X13100Y4800D02*
D03*
Y4400D02*
D03*
X13000Y4200D02*
D03*
X12900Y4400D02*
D03*
X12800Y4200D02*
D03*
X12600D02*
D03*
X12500Y5200D02*
D03*
X12400Y5000D02*
D03*
X12500Y4800D02*
D03*
X12100Y5600D02*
D03*
Y5200D02*
D03*
Y4800D02*
D03*
X11900Y5600D02*
D03*
X11800Y5400D02*
D03*
X11900Y5200D02*
D03*
X10200Y10600D02*
D03*
X10100Y400D02*
D03*
X10000Y200D02*
D03*
X9900Y10800D02*
D03*
X9800Y5400D02*
D03*
X9900Y5200D02*
D03*
Y4800D02*
D03*
X9800Y4600D02*
D03*
X9900Y400D02*
D03*
X9800Y200D02*
D03*
X9600Y5400D02*
D03*
X9700Y5200D02*
D03*
Y400D02*
D03*
X9600Y200D02*
D03*
X9400Y600D02*
D03*
X9500Y400D02*
D03*
X9400Y200D02*
D03*
X9200Y4600D02*
D03*
X9300Y400D02*
D03*
X9100Y10800D02*
D03*
X9000Y4600D02*
D03*
X8800D02*
D03*
X8700Y10000D02*
D03*
X8600Y9800D02*
D03*
Y4600D02*
D03*
X8500Y10000D02*
D03*
X8400Y9800D02*
D03*
Y4600D02*
D03*
X8300Y10800D02*
D03*
Y9600D02*
D03*
X8200Y5000D02*
D03*
Y4600D02*
D03*
X8000Y10600D02*
D03*
X8100Y10400D02*
D03*
X8000Y5000D02*
D03*
Y4200D02*
D03*
X7900Y10800D02*
D03*
X7800Y10600D02*
D03*
X7900Y10400D02*
D03*
X7800Y10200D02*
D03*
X7900Y5200D02*
D03*
X7800Y4200D02*
D03*
X7700Y10800D02*
D03*
X7600Y10200D02*
D03*
Y7000D02*
D03*
Y6600D02*
D03*
Y6200D02*
D03*
Y5800D02*
D03*
Y5400D02*
D03*
Y5000D02*
D03*
X7700Y4400D02*
D03*
X7600Y4200D02*
D03*
X7500Y10800D02*
D03*
X7400Y10600D02*
D03*
X7500Y6000D02*
D03*
X7400Y5800D02*
D03*
X7500Y5600D02*
D03*
X7400Y5400D02*
D03*
X7500Y5200D02*
D03*
X7400Y5000D02*
D03*
X7500Y4400D02*
D03*
X7400Y4200D02*
D03*
X7200Y10600D02*
D03*
X7300Y10400D02*
D03*
Y6000D02*
D03*
Y5600D02*
D03*
Y4400D02*
D03*
X7200Y4200D02*
D03*
X7100Y10400D02*
D03*
X7000Y5800D02*
D03*
X7100Y5600D02*
D03*
Y4400D02*
D03*
X7000Y4200D02*
D03*
X6900Y6000D02*
D03*
Y4400D02*
D03*
X6800Y4200D02*
D03*
X6700Y9600D02*
D03*
Y6000D02*
D03*
Y4400D02*
D03*
X6500Y6000D02*
D03*
X6300D02*
D03*
X6100Y9200D02*
D03*
X6000Y9000D02*
D03*
X5800D02*
D03*
X5900Y8800D02*
D03*
X5800Y5800D02*
D03*
X5500Y6000D02*
D03*
X5400Y5800D02*
D03*
X5500Y4800D02*
D03*
X5200Y5000D02*
D03*
X5000D02*
D03*
X4800Y8600D02*
D03*
X4900Y8400D02*
D03*
X4800Y8200D02*
D03*
Y5000D02*
D03*
X4700Y8400D02*
D03*
X4600Y8200D02*
D03*
X4700Y8000D02*
D03*
X4600Y7800D02*
D03*
Y5000D02*
D03*
X4500Y8400D02*
D03*
X4400Y8200D02*
D03*
X4500Y8000D02*
D03*
X4400Y7800D02*
D03*
X4500Y7600D02*
D03*
X4300Y8000D02*
D03*
X4200Y7800D02*
D03*
X4300Y7600D02*
D03*
X4200Y7400D02*
D03*
X4100Y8000D02*
D03*
X4000Y7800D02*
D03*
X4100Y7600D02*
D03*
X4000Y7400D02*
D03*
X3900Y7600D02*
D03*
X3800Y7400D02*
D03*
X3900Y7200D02*
D03*
X3800Y7000D02*
D03*
X3700Y7600D02*
D03*
X3600Y7400D02*
D03*
X3700Y7200D02*
D03*
X3600Y7000D02*
D03*
X3700Y6000D02*
D03*
Y5600D02*
D03*
X3600Y5400D02*
D03*
Y5000D02*
D03*
X3400Y7400D02*
D03*
X3500Y7200D02*
D03*
X3400Y7000D02*
D03*
X3500Y6800D02*
D03*
Y6000D02*
D03*
X3400Y5400D02*
D03*
X3500Y5200D02*
D03*
X3400Y5000D02*
D03*
X3500Y4800D02*
D03*
X3400Y4600D02*
D03*
X3500Y4400D02*
D03*
X3400Y4200D02*
D03*
X3300Y7200D02*
D03*
X3200Y7000D02*
D03*
X3300Y6800D02*
D03*
X3200Y6600D02*
D03*
Y6200D02*
D03*
X3300Y6000D02*
D03*
X3200Y5800D02*
D03*
X3300Y5600D02*
D03*
X3200Y5400D02*
D03*
X3300Y5200D02*
D03*
X3200Y5000D02*
D03*
X3300Y4800D02*
D03*
X3200Y4600D02*
D03*
X3300Y4400D02*
D03*
X3200Y4200D02*
D03*
X3000Y7000D02*
D03*
X3100Y6800D02*
D03*
X3000Y6600D02*
D03*
X3100Y6400D02*
D03*
X3000Y6200D02*
D03*
X3100Y6000D02*
D03*
X3000Y5800D02*
D03*
X3100Y5600D02*
D03*
X3000Y5400D02*
D03*
X3100Y5200D02*
D03*
X3000Y5000D02*
D03*
X3100Y4800D02*
D03*
X3000Y4600D02*
D03*
X3100Y4400D02*
D03*
X3000Y4200D02*
D03*
D28*
X6930Y10188D02*
D03*
D29*
X7745Y9878D02*
D03*
D30*
X8025Y10035D02*
D03*
X7826Y10086D02*
D03*
X9290Y4553D02*
D03*
X9418D02*
D03*
D31*
X12282Y4505D02*
D03*
X4631Y4400D02*
D03*
M02*
