G04*
G04 #@! TF.GenerationSoftware,Altium Limited,Altium Designer,18.1.7 (191)*
G04*
G04 Layer_Physical_Order=1*
G04 Layer_Color=255*
%FSLAX42Y42*%
%MOMM*%
G71*
G01*
G75*
%ADD27C,0.60*%
%ADD31C,1.27*%
%ADD32R,1.30X1.60*%
%ADD33R,2.00X1.60*%
%ADD34R,1.20X3.20*%
%ADD35R,0.50X0.65*%
%ADD36R,0.85X0.85*%
%ADD37R,10.90X9.10*%
%ADD38R,1.05X2.50*%
%ADD39R,5.40X2.90*%
%ADD40R,1.02X0.75*%
%ADD41C,0.60*%
%ADD42C,1.00*%
%ADD43C,0.80*%
%ADD44C,0.40*%
%ADD45C,1.50*%
%ADD46C,1.50*%
%ADD47C,1.00*%
%ADD48C,3.60*%
%ADD49C,3.00*%
%ADD50C,5.00*%
%ADD51C,0.70*%
G36*
X10300Y10441D02*
X9712D01*
X9707Y10453D01*
X9842Y10587D01*
X9843Y10587D01*
X9867Y10597D01*
X9888Y10613D01*
X9904Y10634D01*
X9914Y10658D01*
X9918Y10685D01*
X9914Y10711D01*
X9904Y10735D01*
X9888Y10756D01*
X9867Y10772D01*
X9843Y10782D01*
X9819Y10785D01*
Y10843D01*
X9819Y10844D01*
X9819Y10849D01*
X9819Y10853D01*
X9827Y10858D01*
X9833Y10859D01*
X9840Y10853D01*
X9850Y10849D01*
Y10914D01*
Y10980D01*
X9840Y10976D01*
X9826Y10964D01*
X9823Y10961D01*
X9807D01*
X9802Y10968D01*
X9786Y10980D01*
X9768Y10988D01*
X9749Y10990D01*
X9729Y10988D01*
X9711Y10980D01*
X9695Y10968D01*
X9691Y10962D01*
X9678D01*
X9675Y10966D01*
X9659Y10978D01*
X9641Y10986D01*
X9621Y10988D01*
X9602Y10986D01*
X9584Y10978D01*
X9568Y10966D01*
X9567D01*
X9559Y10977D01*
X9540Y10991D01*
X9518Y11000D01*
X9494Y11003D01*
X9471Y11000D01*
X9449Y10991D01*
X9430Y10977D01*
X9416Y10958D01*
X9407Y10936D01*
X9404Y10912D01*
Y10908D01*
X9316Y10820D01*
X9316Y10820D01*
X9310Y10814D01*
X9293Y10798D01*
X9289Y10794D01*
X9288Y10793D01*
X9287Y10793D01*
X9283Y10791D01*
X9282Y10789D01*
X9281Y10788D01*
X9278Y10784D01*
X9278Y10784D01*
X9277Y10783D01*
X9277Y10783D01*
X9275Y10780D01*
X9024D01*
X9024Y10780D01*
X9016Y10780D01*
X8991Y10781D01*
X8986Y10781D01*
X8985Y10782D01*
X8984Y10782D01*
X8980Y10783D01*
X8978Y10783D01*
X8976Y10783D01*
X8971Y10782D01*
X8971Y10782D01*
X8970Y10782D01*
X8970Y10782D01*
X8964Y10781D01*
X8964Y10781D01*
X8957Y10784D01*
X8822Y10919D01*
X8819Y10942D01*
X8810Y10964D01*
X8795Y10982D01*
X8776Y10997D01*
X8754Y11006D01*
X8731Y11009D01*
X8708Y11006D01*
X8686Y10997D01*
X8667Y10982D01*
X8659Y10972D01*
X8657D01*
X8642Y10984D01*
X8624Y10991D01*
X8604Y10994D01*
X8584Y10991D01*
X8566Y10984D01*
X8551Y10972D01*
X8546Y10966D01*
X8533D01*
X8530Y10970D01*
X8515Y10982D01*
X8497Y10989D01*
X8477Y10992D01*
X8457Y10989D01*
X8439Y10982D01*
X8424Y10970D01*
X8418Y10963D01*
X8402D01*
X8400Y10966D01*
X8385Y10977D01*
X8375Y10982D01*
Y10916D01*
Y10851D01*
X8385Y10855D01*
X8393Y10861D01*
X8406Y10855D01*
X8406Y10850D01*
X8406Y10846D01*
X8406Y10845D01*
Y10789D01*
X8389Y10787D01*
X8364Y10777D01*
X8343Y10761D01*
X8327Y10740D01*
X8317Y10716D01*
X8314Y10690D01*
X8317Y10663D01*
X8327Y10639D01*
X8343Y10618D01*
X8344Y10618D01*
Y10566D01*
X7900Y10122D01*
X7885Y10125D01*
X7876Y10136D01*
X7862Y10147D01*
X7845Y10154D01*
X7826Y10157D01*
X7027D01*
X7018Y10169D01*
X7021Y10188D01*
X7018Y10212D01*
X7009Y10234D01*
X6994Y10252D01*
X6975Y10267D01*
X6953Y10276D01*
X6930Y10279D01*
X6798D01*
X6775Y10276D01*
X6753Y10267D01*
X6734Y10252D01*
X6574Y10092D01*
X6512D01*
X6489Y10089D01*
X6467Y10080D01*
X6448Y10066D01*
X6184Y9802D01*
X6170Y9783D01*
X6160Y9761D01*
X6157Y9738D01*
Y9453D01*
X6160Y9430D01*
X6170Y9408D01*
X6171Y9406D01*
X6168Y9398D01*
X6165Y9374D01*
Y9250D01*
X6165Y9250D01*
X6165Y9242D01*
X6164Y9218D01*
X6164Y9213D01*
X6164Y9211D01*
X6164Y9211D01*
X6163Y9207D01*
X6163Y9205D01*
X6162Y9203D01*
X6163Y9198D01*
X6163Y9198D01*
X6164Y9197D01*
X6164Y9197D01*
X6164Y9191D01*
X6164Y9191D01*
X6161Y9184D01*
X6155Y9158D01*
X6156Y9132D01*
X6164Y9107D01*
X6178Y9085D01*
X6198Y9067D01*
X6221Y9055D01*
X6224Y9054D01*
X6227Y9042D01*
X6020Y8868D01*
X6020Y8868D01*
X6020Y8868D01*
X5807Y8686D01*
X5795Y8691D01*
X5795Y8696D01*
X5787Y8720D01*
X5717Y8660D01*
X5647Y8600D01*
X5669Y8589D01*
X5674Y8587D01*
X5677Y8575D01*
X5618Y8525D01*
X5607Y8530D01*
X5607Y8532D01*
X5598Y8557D01*
X5584Y8579D01*
X5565Y8597D01*
X5541Y8609D01*
X5515Y8614D01*
X5489Y8613D01*
X5475Y8608D01*
X5466Y8619D01*
X5470Y8627D01*
X5474Y8645D01*
X5473Y8663D01*
X5469Y8674D01*
X5420Y8631D01*
X5403Y8650D01*
X5384Y8634D01*
X5342Y8684D01*
X5337Y8674D01*
X5333Y8656D01*
X5333Y8652D01*
X5321Y8641D01*
X5313Y8643D01*
X5293Y8642D01*
X5274Y8636D01*
X5258Y8625D01*
X5244Y8611D01*
X5235Y8593D01*
X5231Y8574D01*
X5232Y8568D01*
X5222Y8559D01*
X5216Y8561D01*
X5196Y8560D01*
X5178Y8553D01*
X5161Y8543D01*
X5148Y8528D01*
X5139Y8510D01*
X5135Y8491D01*
X5135Y8485D01*
X5125Y8477D01*
X5120Y8478D01*
X5100Y8477D01*
X5081Y8471D01*
X5064Y8460D01*
X5051Y8446D01*
X5042Y8428D01*
X5038Y8409D01*
X5039Y8403D01*
X5029Y8394D01*
X5023Y8396D01*
X5003Y8395D01*
X4984Y8389D01*
X4968Y8378D01*
X4955Y8363D01*
X4946Y8345D01*
X4942Y8326D01*
X4943Y8306D01*
X4949Y8288D01*
X4960Y8271D01*
X4974Y8258D01*
X4992Y8249D01*
X5011Y8245D01*
X5026Y8246D01*
X5034Y8236D01*
X5034Y8234D01*
X5026Y8218D01*
X5021Y8192D01*
X5022Y8166D01*
X5030Y8141D01*
X5044Y8118D01*
X5064Y8101D01*
X5087Y8089D01*
X5089Y8088D01*
X5093Y8075D01*
X5039Y8027D01*
X5027Y8032D01*
X5027Y8037D01*
X5019Y8062D01*
X5005Y8084D01*
X4985Y8102D01*
X4962Y8114D01*
X4936Y8120D01*
X4910Y8118D01*
X4885Y8110D01*
X4863Y8096D01*
X4845Y8076D01*
X4833Y8053D01*
X4827Y8027D01*
X4829Y8001D01*
X4837Y7976D01*
X4851Y7953D01*
X4871Y7936D01*
X4894Y7924D01*
X4902Y7922D01*
X4905Y7910D01*
X4193Y7286D01*
X4192Y7285D01*
X4192Y7285D01*
X3293Y6478D01*
X3291Y6477D01*
X3290Y6475D01*
X3263Y6446D01*
X3261Y6442D01*
X3258Y6439D01*
X3238Y6405D01*
X3236Y6401D01*
X3234Y6397D01*
X3221Y6359D01*
X3221Y6355D01*
X3219Y6352D01*
X3214Y6312D01*
X3214Y6308D01*
X3214Y6304D01*
X3216Y6264D01*
X3218Y6260D01*
X3218Y6256D01*
X3228Y6217D01*
X3230Y6213D01*
X3231Y6210D01*
X3249Y6174D01*
X3252Y6171D01*
X3254Y6167D01*
X3279Y6136D01*
X3282Y6133D01*
X3284Y6130D01*
X3315Y6104D01*
X3319Y6102D01*
X3322Y6099D01*
X3357Y6080D01*
X3361Y6079D01*
X3364Y6077D01*
X3402Y6065D01*
X3407Y6065D01*
X3410Y6063D01*
X3450Y6059D01*
X3452Y6060D01*
X3454Y6059D01*
X3691D01*
X3701Y6047D01*
X3699Y6030D01*
Y5881D01*
X3687Y5878D01*
X3685Y5882D01*
X3660Y5912D01*
X3629Y5937D01*
X3594Y5956D01*
X3557Y5967D01*
X3542Y5969D01*
Y5770D01*
Y5571D01*
X3557Y5573D01*
X3594Y5584D01*
X3629Y5603D01*
X3660Y5628D01*
X3685Y5658D01*
X3687Y5662D01*
X3699Y5659D01*
X3699Y5490D01*
X3701Y5480D01*
X3692Y5470D01*
X3660D01*
Y5110D01*
X3692D01*
X3701Y5100D01*
X3699Y5090D01*
Y5052D01*
X3569Y4921D01*
X3553Y4900D01*
X3543Y4876D01*
X3539Y4850D01*
Y4807D01*
X3541Y4796D01*
X3541Y4786D01*
X3542Y4783D01*
X3543Y4780D01*
X3547Y4771D01*
X3550Y4761D01*
X3552Y4759D01*
X3553Y4756D01*
X3559Y4748D01*
X3565Y4739D01*
X3567Y4737D01*
X3569Y4735D01*
X3577Y4729D01*
X3585Y4722D01*
X3595Y4715D01*
X3597Y4714D01*
X3600Y4713D01*
X3609Y4709D01*
Y4610D01*
Y4511D01*
X3607Y4510D01*
X3594Y4503D01*
X3592Y4502D01*
X3590Y4501D01*
X3581Y4494D01*
X3572Y4488D01*
X3571Y4486D01*
X3569Y4485D01*
X3562Y4476D01*
X3555Y4468D01*
X3554Y4466D01*
X3553Y4464D01*
X3549Y4454D01*
X3544Y4444D01*
X3544Y4442D01*
X3543Y4440D01*
X3541Y4429D01*
X3539Y4418D01*
X3539Y4416D01*
X3539Y4413D01*
Y4131D01*
X2900D01*
Y6990D01*
X3071Y7149D01*
X3832Y7845D01*
X4499Y8443D01*
X5080Y8952D01*
X5587Y9385D01*
X6043Y9762D01*
X6448Y10086D01*
X6812Y10367D01*
X7144Y10611D01*
X7447Y10823D01*
X7637Y10950D01*
X7823Y11069D01*
X10300D01*
Y10441D01*
D02*
G37*
G36*
X8638Y10881D02*
X8637Y10880D01*
X8636Y10877D01*
X8636Y10875D01*
X8635Y10871D01*
X8634Y10864D01*
X8634Y10854D01*
X8634Y10848D01*
X8574D01*
X8574Y10854D01*
X8573Y10871D01*
X8572Y10875D01*
X8572Y10877D01*
X8571Y10880D01*
X8570Y10881D01*
X8569Y10882D01*
X8639D01*
X8638Y10881D01*
D02*
G37*
G36*
X8511Y10879D02*
X8510Y10878D01*
X8509Y10875D01*
X8509Y10873D01*
X8508Y10869D01*
X8507Y10862D01*
X8507Y10852D01*
X8507Y10846D01*
X8447D01*
X8447Y10852D01*
X8446Y10869D01*
X8445Y10873D01*
X8445Y10875D01*
X8444Y10878D01*
X8443Y10879D01*
X8442Y10880D01*
X8512D01*
X8511Y10879D01*
D02*
G37*
G36*
X9783Y10878D02*
X9782Y10876D01*
X9781Y10874D01*
X9780Y10871D01*
X9780Y10868D01*
X9779Y10860D01*
X9779Y10850D01*
X9779Y10844D01*
X9718D01*
X9718Y10850D01*
X9717Y10868D01*
X9717Y10871D01*
X9716Y10874D01*
X9715Y10876D01*
X9714Y10878D01*
X9714Y10879D01*
X9783D01*
X9783Y10878D01*
D02*
G37*
G36*
X9416Y10721D02*
X9384Y10685D01*
X9310Y10760D01*
X9311Y10760D01*
X9312Y10761D01*
X9314Y10762D01*
X9320Y10768D01*
X9339Y10785D01*
X9345Y10791D01*
X9416Y10721D01*
D02*
G37*
G36*
X8977Y10742D02*
X8979Y10741D01*
X8982Y10741D01*
X8989Y10740D01*
X9015Y10740D01*
X9024Y10740D01*
Y10640D01*
X8976Y10637D01*
Y10742D01*
X8977Y10742D01*
D02*
G37*
G36*
X8701Y10621D02*
X8700Y10620D01*
X8700Y10618D01*
X8700Y10616D01*
X8699Y10609D01*
X8699Y10587D01*
X8639D01*
X8639Y10593D01*
X8637Y10621D01*
X8636Y10622D01*
X8701D01*
X8701Y10621D01*
D02*
G37*
G36*
X6507Y9644D02*
X6508Y9630D01*
X6509Y9626D01*
X6510Y9623D01*
X6510Y9621D01*
X6511Y9618D01*
X6513Y9617D01*
X6514Y9616D01*
X6445Y9605D01*
X6445Y9606D01*
X6446Y9607D01*
X6446Y9609D01*
X6446Y9612D01*
X6447Y9622D01*
X6447Y9638D01*
X6507Y9650D01*
X6507Y9644D01*
D02*
G37*
G36*
X8697Y10205D02*
X8696Y10195D01*
X8697Y10191D01*
X8697Y10187D01*
X8702Y10147D01*
X8704Y10143D01*
X8704Y10139D01*
X8717Y10101D01*
X8720Y10098D01*
X8721Y10094D01*
X8742Y10059D01*
X8743Y10058D01*
X8744Y10056D01*
X8838Y9930D01*
X8433Y9526D01*
X8432Y9526D01*
X8391Y9534D01*
X8387Y9534D01*
X8383Y9535D01*
X8341Y9535D01*
X8337Y9534D01*
X8333Y9534D01*
X8292Y9525D01*
X8288Y9523D01*
X8284Y9522D01*
X8246Y9505D01*
X8243Y9503D01*
X8239Y9501D01*
X8205Y9476D01*
X8203Y9473D01*
X8199Y9471D01*
X8186Y9456D01*
X8175Y9461D01*
Y9700D01*
X8685Y10211D01*
X8697Y10205D01*
D02*
G37*
G36*
X6400Y9565D02*
X6401Y9551D01*
X6402Y9548D01*
X6403Y9545D01*
X6404Y9542D01*
X6405Y9540D01*
X6406Y9539D01*
X6408Y9538D01*
X6343Y9512D01*
X6340Y9568D01*
X6400Y9570D01*
X6400Y9565D01*
D02*
G37*
G36*
X6535Y9573D02*
X6536Y9571D01*
X6537Y9569D01*
X6538Y9567D01*
X6540Y9564D01*
X6545Y9558D01*
X6552Y9551D01*
X6556Y9547D01*
X6513Y9504D01*
X6509Y9508D01*
X6496Y9520D01*
X6493Y9522D01*
X6491Y9523D01*
X6489Y9524D01*
X6487Y9525D01*
X6485Y9525D01*
X6535Y9574D01*
X6535Y9573D01*
D02*
G37*
G36*
X6439Y9490D02*
X6440Y9488D01*
X6441Y9486D01*
X6442Y9483D01*
X6444Y9481D01*
X6449Y9475D01*
X6456Y9467D01*
X6460Y9463D01*
X6423Y9426D01*
X6480D01*
X6480Y9419D01*
X6481Y9411D01*
X6482Y9404D01*
X6483Y9398D01*
X6485Y9392D01*
X6487Y9386D01*
X6490Y9381D01*
X6493Y9377D01*
X6496Y9373D01*
X6500Y9369D01*
X6400D01*
X6404Y9373D01*
X6408Y9377D01*
X6411Y9381D01*
X6413Y9386D01*
X6415Y9392D01*
X6417Y9398D01*
X6418Y9404D01*
X6419Y9411D01*
X6420Y9419D01*
X6420Y9424D01*
X6417Y9421D01*
X6413Y9425D01*
X6400Y9437D01*
X6397Y9438D01*
X6395Y9440D01*
X6393Y9441D01*
X6391Y9441D01*
X6389Y9442D01*
X6439Y9491D01*
X6439Y9490D01*
D02*
G37*
G36*
X6308Y9203D02*
X6203D01*
X6204Y9204D01*
X6204Y9206D01*
X6204Y9208D01*
X6205Y9216D01*
X6206Y9242D01*
X6206Y9250D01*
X6306D01*
X6308Y9203D01*
D02*
G37*
G36*
X7650Y9918D02*
X7644Y9905D01*
X7641Y9878D01*
X7644Y9850D01*
X7654Y9826D01*
Y4933D01*
X7431D01*
Y4998D01*
X7430Y5000D01*
X7431Y5002D01*
X7431Y5280D01*
X7427Y5306D01*
X7417Y5330D01*
X7401Y5351D01*
X7146Y5606D01*
X7141Y5610D01*
X7137Y5615D01*
X7131Y5618D01*
X7126Y5622D01*
X7123Y5623D01*
X7122Y5626D01*
X7118Y5631D01*
X7115Y5637D01*
X7111Y5640D01*
X7112Y5644D01*
X7117Y5653D01*
X7193D01*
Y5808D01*
X7112D01*
X7032D01*
Y5736D01*
X7021Y5732D01*
X6873Y5879D01*
X6853Y5895D01*
X6828Y5905D01*
X6802Y5908D01*
X6165D01*
Y6052D01*
X6175Y6059D01*
X7264D01*
X7266Y6060D01*
X7269Y6059D01*
X7313Y6064D01*
X7317Y6066D01*
X7322Y6067D01*
X7364Y6081D01*
X7368Y6084D01*
X7372Y6085D01*
X7410Y6109D01*
X7414Y6112D01*
X7418Y6115D01*
X7449Y6146D01*
X7452Y6150D01*
X7455Y6154D01*
X7479Y6192D01*
X7480Y6196D01*
X7483Y6200D01*
X7498Y6242D01*
X7498Y6247D01*
X7500Y6251D01*
X7505Y6295D01*
X7504Y6298D01*
X7505Y6300D01*
Y9381D01*
X7504Y9383D01*
X7505Y9385D01*
X7499Y9441D01*
X7498Y9445D01*
X7498Y9449D01*
X7482Y9503D01*
X7480Y9506D01*
X7479Y9510D01*
X7454Y9560D01*
X7451Y9563D01*
X7450Y9567D01*
X7415Y9612D01*
X7412Y9614D01*
X7410Y9617D01*
X7367Y9654D01*
X7364Y9656D01*
X7361Y9659D01*
X7313Y9688D01*
X7309Y9689D01*
X7306Y9691D01*
X7253Y9710D01*
X7249Y9711D01*
X7245Y9712D01*
X7189Y9721D01*
X7185Y9721D01*
X7182Y9721D01*
X7125Y9720D01*
X7121Y9719D01*
X7118Y9719D01*
X7063Y9706D01*
X7059Y9705D01*
X7055Y9704D01*
X7003Y9682D01*
X7000Y9679D01*
X6997Y9678D01*
X6950Y9646D01*
X6949Y9645D01*
X6947Y9644D01*
X6946Y9643D01*
X6934Y9648D01*
X6934Y9656D01*
X6926Y9680D01*
X6855Y9620D01*
X6785Y9561D01*
X6807Y9549D01*
X6814Y9548D01*
X6817Y9535D01*
X6756Y9484D01*
X6744Y9489D01*
X6744Y9493D01*
X6736Y9519D01*
X6722Y9541D01*
X6703Y9559D01*
X6679Y9571D01*
X6654Y9576D01*
X6627Y9575D01*
X6602Y9567D01*
X6596Y9563D01*
X6586Y9574D01*
X6586Y9577D01*
X6586Y9578D01*
X6591Y9587D01*
X6594Y9587D01*
X6605Y9590D01*
X6563Y9640D01*
X6582Y9656D01*
X6566Y9676D01*
X6619Y9720D01*
X6621Y9729D01*
X6739D01*
X6758Y9732D01*
X6775Y9739D01*
X6789Y9750D01*
X6970Y9931D01*
X7641D01*
X7650Y9918D01*
D02*
G37*
G36*
X4216Y5872D02*
X4203Y5869D01*
X4193Y5887D01*
X4167Y5919D01*
X4135Y5945D01*
X4098Y5965D01*
X4059Y5977D01*
X4047Y5978D01*
Y5770D01*
Y5562D01*
X4059Y5563D01*
X4098Y5575D01*
X4135Y5595D01*
X4167Y5621D01*
X4193Y5653D01*
X4203Y5671D01*
X4216Y5668D01*
Y5102D01*
X4248D01*
X4540Y4810D01*
Y4772D01*
X4538D01*
Y4762D01*
X4491D01*
Y4607D01*
Y4452D01*
X4526D01*
X4535Y4439D01*
X4530Y4427D01*
X4526Y4400D01*
X4530Y4373D01*
X4540Y4348D01*
Y4131D01*
X3640D01*
Y4413D01*
X3653Y4420D01*
X3710D01*
Y4610D01*
Y4800D01*
X3653D01*
X3650Y4800D01*
X3640Y4807D01*
Y4850D01*
X3800Y5010D01*
Y5090D01*
X3840D01*
Y5490D01*
X3800D01*
X3800Y5720D01*
X3813Y5722D01*
X3823Y5689D01*
X3842Y5653D01*
X3868Y5621D01*
X3900Y5595D01*
X3937Y5575D01*
X3976Y5563D01*
X3988Y5562D01*
Y5770D01*
Y5978D01*
X3976Y5977D01*
X3937Y5965D01*
X3900Y5945D01*
X3868Y5919D01*
X3842Y5887D01*
X3823Y5851D01*
X3813Y5818D01*
X3800Y5820D01*
Y6030D01*
X4216D01*
Y5872D01*
D02*
G37*
G36*
X12807Y5892D02*
X12806Y5890D01*
X12805Y5889D01*
X12804Y5886D01*
X12803Y5884D01*
X12802Y5880D01*
X12802Y5877D01*
X12801Y5868D01*
X12801Y5857D01*
X12741Y5860D01*
X12741Y5866D01*
X12740Y5887D01*
X12739Y5889D01*
X12738Y5891D01*
X12738Y5893D01*
X12737Y5894D01*
X12807Y5892D01*
D02*
G37*
G36*
X12555Y5893D02*
X12554Y5891D01*
X12553Y5889D01*
X12553Y5887D01*
X12552Y5883D01*
X12551Y5876D01*
X12551Y5866D01*
X12551Y5860D01*
X12491Y5857D01*
X12491Y5863D01*
X12490Y5880D01*
X12489Y5884D01*
X12488Y5886D01*
X12488Y5889D01*
X12487Y5890D01*
X12486Y5892D01*
X12556Y5894D01*
X12555Y5893D01*
D02*
G37*
G36*
X5885Y6052D02*
Y5907D01*
X5843Y5865D01*
X5830Y5848D01*
X5822Y5828D01*
X5819Y5808D01*
Y5762D01*
X5795D01*
Y5723D01*
X5779D01*
X5703Y5799D01*
Y5853D01*
X5646D01*
X5646Y5854D01*
X5652Y5867D01*
X5683D01*
Y5899D01*
X5612D01*
X5542D01*
Y5867D01*
X5573D01*
X5579Y5854D01*
X5579Y5853D01*
X5522D01*
Y5699D01*
X5576D01*
X5606Y5668D01*
X5493Y5555D01*
X5480Y5538D01*
X5472Y5518D01*
X5469Y5497D01*
Y5183D01*
X5264Y4978D01*
X5092D01*
X5072Y4975D01*
X5052Y4967D01*
X5035Y4955D01*
X4914Y4833D01*
X4901Y4816D01*
X4893Y4796D01*
X4890Y4778D01*
X4890Y4776D01*
X4890Y4772D01*
X4878D01*
Y4762D01*
X4873Y4752D01*
X4826D01*
Y4607D01*
X4776D01*
Y4752D01*
X4728D01*
X4723Y4762D01*
Y4772D01*
X4641D01*
Y4810D01*
X4641Y4810D01*
X4637Y4836D01*
X4627Y4860D01*
X4611Y4881D01*
X4383Y5110D01*
X4387Y5122D01*
X4776D01*
Y5597D01*
X4801D01*
Y5622D01*
X5366D01*
Y6059D01*
X5875D01*
X5885Y6052D01*
D02*
G37*
G36*
X12846Y5784D02*
X12852Y5779D01*
X12857Y5775D01*
X12863Y5772D01*
X12869Y5769D01*
X12875Y5766D01*
X12881Y5765D01*
X12887Y5763D01*
X12893Y5763D01*
X12899Y5762D01*
X12825Y5688D01*
X12825Y5694D01*
X12824Y5700D01*
X12823Y5707D01*
X12821Y5713D01*
X12819Y5718D01*
X12816Y5724D01*
X12812Y5730D01*
X12808Y5736D01*
X12804Y5741D01*
X12798Y5747D01*
X12841Y5789D01*
X12846Y5784D01*
D02*
G37*
G36*
X12899Y5960D02*
X12900Y5958D01*
X12899Y5956D01*
X12904Y5914D01*
X12905Y5910D01*
X12906Y5906D01*
X12919Y5866D01*
X12921Y5862D01*
X12922Y5858D01*
X12944Y5821D01*
X12946Y5818D01*
X12949Y5814D01*
X12977Y5783D01*
X12980Y5781D01*
X12983Y5778D01*
X13018Y5753D01*
X13022Y5751D01*
X13025Y5749D01*
X13064Y5732D01*
X13068Y5731D01*
X13072Y5729D01*
X13113Y5721D01*
X13118Y5721D01*
X13122Y5720D01*
X13164Y5721D01*
X13168Y5722D01*
X13172Y5722D01*
X13214Y5731D01*
X13217Y5733D01*
X13222Y5734D01*
X13260Y5752D01*
X13263Y5754D01*
X13267Y5756D01*
X13301Y5781D01*
X13304Y5785D01*
X13307Y5787D01*
X13335Y5819D01*
X13336Y5821D01*
X13337Y5822D01*
X13378Y5880D01*
X13391Y5882D01*
X13756Y5516D01*
X13492Y5138D01*
X13491Y5136D01*
X13490Y5134D01*
X13469Y5096D01*
X13467Y5092D01*
X13465Y5088D01*
X13453Y5046D01*
X13453Y5041D01*
X13452Y5037D01*
X13449Y4994D01*
X13449Y4989D01*
X13449Y4985D01*
X13456Y4942D01*
X13457Y4938D01*
X13458Y4933D01*
X13474Y4893D01*
X13476Y4889D01*
X13478Y4885D01*
X13502Y4849D01*
X13505Y4846D01*
X13508Y4842D01*
X13539Y4812D01*
X13543Y4809D01*
X13546Y4806D01*
X13584Y4784D01*
X13588Y4782D01*
X13592Y4780D01*
X13633Y4766D01*
X13637Y4766D01*
X13642Y4764D01*
X13685Y4759D01*
X13687Y4760D01*
X13689Y4759D01*
X14353D01*
X14355Y4760D01*
X14357Y4759D01*
X14415Y4765D01*
X14419Y4766D01*
X14423Y4767D01*
X14479Y4784D01*
X14483Y4786D01*
X14487Y4787D01*
X14529Y4810D01*
X14542Y4802D01*
Y4131D01*
X11277D01*
X11265Y4128D01*
X11255Y4122D01*
X11249Y4112D01*
X11246Y4100D01*
Y4086D01*
X10612D01*
X10561Y4113D01*
X10557Y4114D01*
X10554Y4116D01*
X10497Y4133D01*
X10493Y4134D01*
X10490Y4135D01*
X10431Y4141D01*
X10429Y4140D01*
X10427Y4141D01*
X10027D01*
X10025Y4140D01*
X10023Y4141D01*
X9964Y4135D01*
X9961Y4134D01*
X9957Y4133D01*
X9900Y4116D01*
X9897Y4114D01*
X9893Y4113D01*
X9841Y4085D01*
X9838Y4083D01*
X9834Y4081D01*
X9789Y4044D01*
X9786Y4041D01*
X9783Y4038D01*
X9746Y3993D01*
X9744Y3989D01*
X9742Y3986D01*
X9714Y3934D01*
X9713Y3933D01*
X9702Y3934D01*
X9701Y3935D01*
Y4224D01*
X9713Y4228D01*
X9728Y4213D01*
X9752Y4195D01*
X9780Y4183D01*
X9810Y4179D01*
X12072D01*
X12103Y4183D01*
X12130Y4195D01*
X12155Y4213D01*
X12365Y4423D01*
X12383Y4447D01*
X12395Y4475D01*
X12398Y4505D01*
X12395Y4535D01*
X12386Y4557D01*
X12393Y4569D01*
X13966D01*
X13967Y4569D01*
X13970Y4557D01*
X13960Y4544D01*
X13953Y4527D01*
X13950Y4508D01*
Y4441D01*
X13949Y4440D01*
X13933Y4419D01*
X13923Y4395D01*
X13920Y4369D01*
X13923Y4343D01*
X13933Y4318D01*
X13949Y4297D01*
X13970Y4281D01*
X13995Y4271D01*
X14021Y4268D01*
X14047Y4271D01*
X14071Y4281D01*
X14092Y4297D01*
X14108Y4318D01*
X14118Y4343D01*
X14122Y4369D01*
X14118Y4395D01*
X14108Y4419D01*
X14092Y4440D01*
X14091Y4441D01*
Y4479D01*
X14094Y4481D01*
X14098Y4484D01*
X14099Y4484D01*
X14102Y4486D01*
X14104Y4487D01*
X14108Y4490D01*
X14113Y4493D01*
X14114Y4495D01*
X14116Y4497D01*
X14118Y4502D01*
X14121Y4506D01*
X14122Y4506D01*
X14138Y4519D01*
X14143Y4525D01*
X14159D01*
X14161Y4522D01*
X14176Y4511D01*
X14186Y4507D01*
Y4572D01*
Y4637D01*
X14176Y4633D01*
X14161Y4622D01*
X14159Y4619D01*
X14143D01*
X14138Y4625D01*
X14122Y4638D01*
X14121Y4638D01*
X14118Y4642D01*
X14116Y4647D01*
X14114Y4649D01*
X14113Y4651D01*
X14108Y4654D01*
X14104Y4657D01*
X14102Y4658D01*
X14099Y4660D01*
X14098Y4660D01*
X14088Y4669D01*
X14085Y4672D01*
X14084Y4672D01*
X14066Y4690D01*
X14052Y4701D01*
X14035Y4708D01*
X14016Y4711D01*
X11862D01*
X11857Y4722D01*
X12067Y4933D01*
X12079Y4947D01*
X12086Y4964D01*
X12088Y4983D01*
Y5283D01*
X12391Y5587D01*
X12392Y5586D01*
X12418Y5590D01*
X12443Y5600D01*
X12463Y5616D01*
X12479Y5637D01*
X12490Y5661D01*
X12493Y5687D01*
X12493Y5688D01*
X12547Y5742D01*
X12558Y5735D01*
X12549Y5713D01*
X12545Y5687D01*
X12549Y5661D01*
X12559Y5637D01*
X12575Y5616D01*
X12596Y5600D01*
X12620Y5590D01*
X12646Y5586D01*
X12672Y5590D01*
X12697Y5600D01*
X12717Y5616D01*
X12733Y5637D01*
X12744Y5661D01*
X12747Y5687D01*
X12744Y5713D01*
X12735Y5735D01*
X12745Y5742D01*
X12768Y5719D01*
X12769Y5719D01*
X12773Y5714D01*
X12776Y5711D01*
X12778Y5707D01*
X12780Y5704D01*
X12781Y5702D01*
X12783Y5699D01*
X12783Y5696D01*
X12784Y5694D01*
X12784Y5691D01*
X12784Y5687D01*
X12786Y5680D01*
X12787Y5672D01*
X12788Y5672D01*
X12788Y5671D01*
X12792Y5665D01*
X12796Y5659D01*
X12797Y5659D01*
X12797Y5658D01*
X12803Y5654D01*
X12809Y5650D01*
X12810Y5650D01*
X12811Y5650D01*
X12813Y5650D01*
X12817Y5639D01*
X12832Y5620D01*
X12852Y5604D01*
X12875Y5595D01*
Y5687D01*
X12900D01*
Y5712D01*
X12993D01*
X12983Y5735D01*
X12968Y5755D01*
X12948Y5770D01*
X12938Y5774D01*
X12938Y5777D01*
X12937Y5777D01*
X12937Y5778D01*
X12933Y5784D01*
X12929Y5790D01*
X12929Y5791D01*
X12928Y5791D01*
X12922Y5795D01*
X12916Y5799D01*
X12916Y5800D01*
X12915Y5800D01*
X12908Y5801D01*
X12901Y5803D01*
X12896Y5803D01*
X12894Y5804D01*
X12891Y5804D01*
X12889Y5805D01*
X12886Y5806D01*
X12883Y5807D01*
X12880Y5809D01*
X12877Y5812D01*
X12873Y5814D01*
X12869Y5819D01*
X12868Y5819D01*
X12842Y5846D01*
Y5855D01*
X12842Y5855D01*
X12842Y5856D01*
X12842Y5856D01*
X12842Y5866D01*
X12843Y5872D01*
X12843Y5873D01*
X12844Y5874D01*
X12844Y5877D01*
X12845Y5879D01*
X12846Y5885D01*
X12847Y5890D01*
X12847Y5892D01*
X12847Y5895D01*
X12846Y5900D01*
X12845Y5904D01*
X12773D01*
Y5929D01*
X12748D01*
Y5995D01*
X12736Y5990D01*
X12721Y5979D01*
X12709D01*
X12703Y5986D01*
X12686Y5998D01*
X12667Y6007D01*
X12646Y6009D01*
X12625Y6007D01*
X12606Y5998D01*
X12589Y5986D01*
X12586Y5981D01*
X12573Y5981D01*
X12573Y5982D01*
X12557Y5994D01*
X12539Y6002D01*
X12519Y6004D01*
X12500Y6002D01*
X12481Y5994D01*
X12466Y5982D01*
X12454Y5966D01*
X12446Y5948D01*
X12443Y5929D01*
X12446Y5909D01*
X12447Y5906D01*
X12447Y5906D01*
X12446Y5900D01*
X12445Y5895D01*
X12445Y5892D01*
X12445Y5890D01*
X12446Y5885D01*
X12447Y5879D01*
X12448Y5877D01*
X12449Y5874D01*
X12449Y5873D01*
X12450Y5861D01*
X12450Y5857D01*
X12450Y5856D01*
X12450Y5855D01*
X12450Y5855D01*
Y5846D01*
X12393Y5788D01*
X12392Y5788D01*
X12366Y5785D01*
X12360Y5782D01*
X12352Y5792D01*
X12358Y5803D01*
X12360Y5807D01*
X12362Y5811D01*
X12374Y5851D01*
X12375Y5855D01*
X12376Y5859D01*
X12381Y5900D01*
X12380Y5903D01*
X12381Y5905D01*
Y6109D01*
X12899D01*
Y5960D01*
D02*
G37*
G36*
X7035Y5575D02*
X7039Y5565D01*
X7050Y5550D01*
X7065Y5539D01*
X7075Y5535D01*
X7330Y5280D01*
X7330Y5002D01*
X7329Y5000D01*
X7330Y4998D01*
X7330Y4611D01*
X7214D01*
Y4612D01*
X7049D01*
Y4603D01*
X7021D01*
Y4530D01*
X6991D01*
Y4500D01*
X6919D01*
Y4481D01*
X6906Y4470D01*
X6900Y4471D01*
X6882Y4468D01*
X6865Y4461D01*
X6853Y4453D01*
X6747D01*
X6735Y4461D01*
X6720Y4467D01*
X6720Y4606D01*
X6436Y4890D01*
X5630Y4890D01*
Y5145D01*
X5631Y5150D01*
Y5461D01*
X5690Y5520D01*
X6020Y5520D01*
X6020Y5755D01*
X6072Y5808D01*
X6802D01*
X7035Y5575D01*
D02*
G37*
G36*
X9842Y5455D02*
X9876Y5443D01*
X9906Y5424D01*
X9931Y5399D01*
X9950Y5369D01*
X9962Y5335D01*
X9966Y5298D01*
Y5271D01*
X9967Y5269D01*
X9966Y5266D01*
X9971Y5224D01*
X9972Y5220D01*
X9973Y5216D01*
X9986Y5175D01*
X9988Y5171D01*
X9990Y5167D01*
X10012Y5131D01*
X10014Y5127D01*
X10017Y5124D01*
X10025Y5115D01*
X10020Y5103D01*
X9853D01*
X9852Y5103D01*
X9847Y5103D01*
X9839Y5104D01*
X9834Y5104D01*
X9833Y5105D01*
X9830Y5106D01*
X9828Y5107D01*
X9823Y5107D01*
X9817Y5108D01*
X9815Y5108D01*
X9812Y5108D01*
X9807Y5106D01*
X9802Y5105D01*
X9801Y5106D01*
X9782Y5108D01*
X9762Y5106D01*
X9744Y5098D01*
X9728Y5086D01*
X9724Y5081D01*
X9712D01*
X9708Y5086D01*
X9692Y5098D01*
X9674Y5106D01*
X9654Y5108D01*
X9635Y5106D01*
X9617Y5098D01*
X9611Y5094D01*
X9598Y5100D01*
Y5160D01*
X9596Y5178D01*
X9589Y5195D01*
X9577Y5210D01*
X9340Y5447D01*
X9345Y5459D01*
X9805D01*
X9842Y5455D01*
D02*
G37*
G36*
X8113Y5165D02*
X8128Y5154D01*
X8145Y5147D01*
X8163Y5144D01*
X9076D01*
Y5104D01*
X9076Y5103D01*
X9076Y5100D01*
X9071Y5097D01*
X9063Y5094D01*
X9057Y5098D01*
X9039Y5106D01*
X9019Y5108D01*
X9000Y5106D01*
X8982Y5098D01*
X8966Y5086D01*
X8962Y5081D01*
X8950D01*
X8946Y5086D01*
X8930Y5098D01*
X8912Y5106D01*
X8893Y5108D01*
X8873Y5106D01*
X8855Y5098D01*
X8839Y5086D01*
X8835Y5081D01*
X8823D01*
X8819Y5086D01*
X8803Y5098D01*
X8785Y5106D01*
X8765Y5108D01*
X8746Y5106D01*
X8728Y5098D01*
X8712Y5086D01*
X8708Y5081D01*
X8696D01*
X8692Y5086D01*
X8676Y5098D01*
X8658Y5106D01*
X8639Y5108D01*
X8619Y5106D01*
X8601Y5098D01*
X8585Y5086D01*
X8584D01*
X8576Y5097D01*
X8557Y5111D01*
X8535Y5120D01*
X8511Y5123D01*
X8488Y5120D01*
X8466Y5111D01*
X8447Y5097D01*
X8436Y5082D01*
X8434D01*
X8420Y5094D01*
X8410Y5098D01*
Y5033D01*
Y4965D01*
X8421Y4958D01*
Y4933D01*
X7836D01*
Y5426D01*
X7848Y5431D01*
X8113Y5165D01*
D02*
G37*
G36*
X9431Y5097D02*
X9432Y5079D01*
X9432Y5076D01*
X9433Y5073D01*
X9434Y5071D01*
X9435Y5069D01*
X9436Y5068D01*
X9365D01*
X9366Y5069D01*
X9367Y5071D01*
X9368Y5073D01*
X9369Y5076D01*
X9369Y5079D01*
X9370Y5087D01*
X9370Y5097D01*
X9371Y5103D01*
X9431D01*
X9431Y5097D01*
D02*
G37*
G36*
X9304D02*
X9305Y5079D01*
X9305Y5076D01*
X9306Y5073D01*
X9307Y5071D01*
X9308Y5069D01*
X9308Y5068D01*
X9239D01*
X9239Y5069D01*
X9240Y5071D01*
X9241Y5073D01*
X9242Y5076D01*
X9242Y5079D01*
X9243Y5087D01*
X9243Y5097D01*
X9243Y5103D01*
X9304D01*
X9304Y5097D01*
D02*
G37*
G36*
X9177D02*
X9178Y5079D01*
X9178Y5076D01*
X9179Y5073D01*
X9180Y5071D01*
X9181Y5069D01*
X9182Y5068D01*
X9111D01*
X9112Y5069D01*
X9113Y5071D01*
X9114Y5073D01*
X9115Y5076D01*
X9115Y5079D01*
X9116Y5087D01*
X9116Y5097D01*
X9117Y5103D01*
X9176D01*
X9177Y5097D01*
D02*
G37*
G36*
X9818Y5067D02*
X9820Y5066D01*
X9822Y5065D01*
X9825Y5064D01*
X9828Y5064D01*
X9836Y5063D01*
X9846Y5063D01*
X9851Y5062D01*
Y5003D01*
X9846Y5002D01*
X9828Y5001D01*
X9825Y5001D01*
X9822Y5000D01*
X9820Y4999D01*
X9818Y4998D01*
X9817Y4997D01*
Y5067D01*
X9818Y5067D01*
D02*
G37*
G36*
X9474Y4979D02*
X9490Y4967D01*
X9508Y4959D01*
X9528Y4957D01*
X9547Y4959D01*
X9565Y4967D01*
X9573Y4973D01*
X9586Y4967D01*
X9593Y4950D01*
X9605Y4936D01*
X9663Y4878D01*
X9677Y4866D01*
X9694Y4859D01*
X9712Y4857D01*
X9981D01*
X10057Y4781D01*
X10050Y4770D01*
X10041Y4772D01*
X10007Y4776D01*
X9973Y4772D01*
X9940Y4762D01*
X9909Y4746D01*
X9883Y4724D01*
X9861Y4698D01*
X9845Y4667D01*
X9835Y4634D01*
X9831Y4600D01*
X9835Y4566D01*
X9845Y4533D01*
X9861Y4502D01*
X9883Y4476D01*
X9909Y4454D01*
X9940Y4438D01*
X9973Y4428D01*
X10007Y4424D01*
X10041Y4428D01*
X10074Y4438D01*
X10105Y4454D01*
X10131Y4476D01*
X10153Y4502D01*
X10169Y4533D01*
X10179Y4566D01*
X10183Y4600D01*
X10179Y4634D01*
X10177Y4643D01*
X10188Y4650D01*
X10248Y4590D01*
X10262Y4579D01*
X10279Y4572D01*
X10297Y4569D01*
X12166D01*
X12171Y4558D01*
X12024Y4411D01*
X9858D01*
X9726Y4543D01*
Y4720D01*
X9722Y4750D01*
X9710Y4778D01*
X9692Y4802D01*
X9595Y4900D01*
X9570Y4918D01*
X9543Y4930D01*
X9512Y4933D01*
X8602D01*
Y4955D01*
X8613Y4962D01*
X8619Y4959D01*
X8639Y4957D01*
X8658Y4959D01*
X8676Y4967D01*
X8692Y4979D01*
X8696Y4984D01*
X8708D01*
X8712Y4979D01*
X8728Y4967D01*
X8746Y4959D01*
X8765Y4957D01*
X8785Y4959D01*
X8803Y4967D01*
X8819Y4979D01*
X8823Y4984D01*
X8835D01*
X8839Y4979D01*
X8855Y4967D01*
X8873Y4959D01*
X8893Y4957D01*
X8912Y4959D01*
X8930Y4967D01*
X8946Y4979D01*
X8950Y4984D01*
X8962D01*
X8966Y4979D01*
X8982Y4967D01*
X9000Y4959D01*
X9019Y4957D01*
X9039Y4959D01*
X9057Y4967D01*
X9073Y4979D01*
X9077Y4984D01*
X9089D01*
X9093Y4979D01*
X9109Y4967D01*
X9127Y4959D01*
X9146Y4957D01*
X9166Y4959D01*
X9184Y4967D01*
X9200Y4979D01*
X9204Y4984D01*
X9216D01*
X9220Y4979D01*
X9236Y4967D01*
X9254Y4959D01*
X9274Y4957D01*
X9293Y4959D01*
X9311Y4967D01*
X9327Y4979D01*
X9331Y4984D01*
X9343D01*
X9347Y4979D01*
X9363Y4967D01*
X9381Y4959D01*
X9400Y4957D01*
X9420Y4959D01*
X9438Y4967D01*
X9454Y4979D01*
X9458Y4984D01*
X9470D01*
X9474Y4979D01*
D02*
G37*
G36*
X12018Y5697D02*
X12022Y5695D01*
X12026Y5693D01*
X12064Y5676D01*
X12068Y5676D01*
X12072Y5674D01*
X12113Y5666D01*
X12117Y5666D01*
X12121Y5665D01*
X12163Y5665D01*
X12167Y5666D01*
X12171Y5666D01*
X12212Y5675D01*
X12216Y5677D01*
X12220Y5678D01*
X12258Y5695D01*
X12261Y5697D01*
X12265Y5699D01*
X12282Y5711D01*
X12293Y5704D01*
X12291Y5687D01*
X12291Y5686D01*
X11968Y5363D01*
X11956Y5348D01*
X11949Y5331D01*
X11947Y5313D01*
Y5012D01*
X11736Y4801D01*
X11722D01*
X11718Y4813D01*
X11738Y4830D01*
X11740Y4833D01*
X11743Y4836D01*
X11768Y4868D01*
X11770Y4871D01*
X11772Y4875D01*
X11790Y4910D01*
X11792Y4914D01*
X11793Y4918D01*
X11804Y4957D01*
X11804Y4961D01*
X11805Y4965D01*
X11808Y5005D01*
X11807Y5009D01*
X11807Y5013D01*
X11802Y5053D01*
X11801Y5057D01*
X11800Y5061D01*
X11787Y5099D01*
X11784Y5102D01*
X11783Y5106D01*
X11762Y5141D01*
X11761Y5142D01*
X11760Y5144D01*
X11604Y5354D01*
X11970Y5720D01*
X11984Y5721D01*
X12018Y5697D01*
D02*
G37*
G36*
X5011Y4767D02*
X5013Y4735D01*
X5013Y4733D01*
X5014Y4732D01*
X5015Y4731D01*
X4926D01*
X4927Y4732D01*
X4928Y4733D01*
X4929Y4735D01*
X4929Y4738D01*
X4930Y4742D01*
X4930Y4760D01*
X4931Y4776D01*
X5011D01*
X5011Y4767D01*
D02*
G37*
G36*
X9494Y4672D02*
Y4584D01*
X9481Y4581D01*
X9479Y4588D01*
X9467Y4602D01*
X9453Y4614D01*
X9436Y4621D01*
X9418Y4623D01*
X9399Y4621D01*
X9382Y4614D01*
X9368Y4602D01*
X9361Y4595D01*
X9346D01*
X9340Y4602D01*
X9325Y4614D01*
X9308Y4621D01*
X9290Y4623D01*
X9272Y4621D01*
X9255Y4614D01*
X9240Y4602D01*
X9229Y4588D01*
X9222Y4571D01*
X9219Y4553D01*
X9222Y4534D01*
X9224Y4528D01*
X9222Y4510D01*
X9222Y1098D01*
X9224Y1079D01*
X9231Y1062D01*
X9243Y1048D01*
X9312Y978D01*
X9307Y965D01*
X9293Y964D01*
X9276Y957D01*
X9261Y945D01*
X9250Y931D01*
X9246Y920D01*
X9311D01*
Y895D01*
X9336D01*
Y830D01*
X9347Y834D01*
X9354Y840D01*
X9367Y834D01*
X9367Y830D01*
X9368Y825D01*
X9368Y824D01*
Y790D01*
X9370Y771D01*
X9377Y754D01*
X9388Y740D01*
X9437Y691D01*
X9437Y690D01*
X9441Y664D01*
X9451Y640D01*
X9467Y619D01*
X9488Y603D01*
X9512Y593D01*
X9538Y589D01*
X9564Y593D01*
X9588Y603D01*
X9609Y619D01*
X9625Y640D01*
X9635Y664D01*
X9635Y664D01*
X9649Y669D01*
X9678Y640D01*
X9690Y630D01*
X9700Y621D01*
X9703Y619D01*
X9706Y616D01*
X9710Y615D01*
X9714Y613D01*
X9717Y612D01*
X9721Y611D01*
X9725Y611D01*
X9729Y610D01*
X9731Y610D01*
X9742Y603D01*
X9766Y593D01*
X9792Y589D01*
X9818Y593D01*
X9842Y603D01*
X9863Y619D01*
X9879Y640D01*
X9889Y664D01*
X9891Y677D01*
X9905Y682D01*
X9961Y626D01*
X9980Y611D01*
X9990Y607D01*
X9996Y603D01*
X10020Y593D01*
X10046Y589D01*
X10072Y593D01*
X10096Y603D01*
X10117Y619D01*
X10133Y640D01*
X10143Y664D01*
X10147Y690D01*
X10143Y716D01*
X10133Y740D01*
X10117Y761D01*
X10096Y777D01*
X10072Y787D01*
X10054Y790D01*
X9993Y850D01*
X9998Y862D01*
X10023Y859D01*
X10025Y860D01*
X10027Y859D01*
X10200D01*
Y31D01*
X9578D01*
X9513Y36D01*
X9451Y53D01*
X9392Y80D01*
X9340Y117D01*
X9294Y163D01*
X9257Y215D01*
X9230Y274D01*
X9213Y336D01*
X9208Y401D01*
Y614D01*
X9220Y619D01*
X9236Y607D01*
X9259Y598D01*
Y690D01*
Y782D01*
X9236Y773D01*
X9220Y761D01*
X9208Y766D01*
Y4100D01*
X9205Y4112D01*
X9199Y4122D01*
X9189Y4128D01*
X9177Y4131D01*
X6701D01*
Y4349D01*
X6702Y4351D01*
X6714Y4358D01*
X6714Y4358D01*
X6720Y4355D01*
X6727Y4354D01*
X6733Y4353D01*
X6740D01*
X6747Y4352D01*
X6853D01*
X6860Y4353D01*
X6867D01*
X6873Y4354D01*
X6880Y4355D01*
X6886Y4358D01*
X6892Y4359D01*
X6898Y4363D01*
X6904Y4365D01*
X6909Y4369D01*
X6910Y4370D01*
X6919D01*
X6922Y4371D01*
X6926Y4371D01*
X6935Y4374D01*
X6945Y4377D01*
X6947Y4378D01*
X6951Y4379D01*
X6959Y4385D01*
X6967Y4390D01*
X6970Y4392D01*
X6973Y4394D01*
X6978Y4399D01*
X6991D01*
X7017Y4403D01*
X7042Y4413D01*
X7063Y4429D01*
X7076Y4446D01*
X7078Y4447D01*
X7214D01*
Y4449D01*
X7369D01*
X7390Y4452D01*
X7403Y4458D01*
X7434D01*
Y4478D01*
X7440D01*
Y4492D01*
X7447Y4509D01*
X7449Y4530D01*
X7447Y4551D01*
X7440Y4568D01*
Y4583D01*
X7434D01*
Y4603D01*
X7434Y4603D01*
X7431Y4615D01*
Y4702D01*
X9464D01*
X9494Y4672D01*
D02*
G37*
G36*
X14060Y4639D02*
X14073Y4627D01*
X14076Y4625D01*
X14078Y4624D01*
X14080Y4623D01*
X14082Y4622D01*
X14084Y4622D01*
X14034Y4572D01*
X14034Y4574D01*
X14033Y4576D01*
X14032Y4578D01*
X14031Y4580D01*
X14029Y4583D01*
X14024Y4589D01*
X14018Y4596D01*
X14014Y4600D01*
X14056Y4643D01*
X14060Y4639D01*
D02*
G37*
G36*
X5529Y4998D02*
Y4890D01*
X5533Y4864D01*
X5543Y4840D01*
X5545Y4837D01*
X5258Y4551D01*
X5233D01*
X5223Y4549D01*
X5213Y4558D01*
Y4582D01*
X5141D01*
Y4607D01*
X5116D01*
Y4752D01*
X5079D01*
X5074Y4765D01*
X5126Y4817D01*
X5297D01*
X5318Y4820D01*
X5338Y4828D01*
X5355Y4840D01*
X5517Y5003D01*
X5529Y4998D01*
D02*
G37*
G36*
X14084Y4522D02*
X14082Y4522D01*
X14080Y4521D01*
X14078Y4520D01*
X14076Y4519D01*
X14073Y4517D01*
X14067Y4512D01*
X14060Y4505D01*
X14056Y4501D01*
X14014Y4544D01*
X14018Y4548D01*
X14029Y4561D01*
X14031Y4564D01*
X14032Y4566D01*
X14033Y4568D01*
X14034Y4570D01*
X14034Y4572D01*
X14084Y4522D01*
D02*
G37*
G36*
X6370Y4780D02*
X6600Y4550D01*
Y4131D01*
X4641D01*
Y4348D01*
X4640Y4355D01*
Y4361D01*
X4638Y4368D01*
X4637Y4374D01*
X4635Y4380D01*
X4633Y4387D01*
X4628Y4399D01*
X4628Y4400D01*
X4628Y4401D01*
X4631Y4410D01*
X4634Y4419D01*
X4634Y4423D01*
X4635Y4426D01*
Y4436D01*
X4635Y4446D01*
X4647Y4452D01*
X4708D01*
Y4442D01*
X5233D01*
Y4450D01*
X5300D01*
X5630Y4780D01*
X6370Y4780D01*
D02*
G37*
G36*
X9510Y4437D02*
X9519Y4424D01*
X9519Y1128D01*
X9507Y1123D01*
X9491Y1140D01*
Y1188D01*
X9491Y4450D01*
X9503Y4452D01*
X9510Y4437D01*
D02*
G37*
G36*
X9472Y859D02*
X9471Y857D01*
X9471Y855D01*
X9470Y852D01*
X9470Y849D01*
X9469Y841D01*
X9468Y831D01*
X9468Y826D01*
X9408D01*
X9408Y831D01*
X9407Y849D01*
X9407Y852D01*
X9406Y855D01*
X9405Y857D01*
X9404Y859D01*
X9403Y860D01*
X9473D01*
X9472Y859D01*
D02*
G37*
G36*
X9703Y757D02*
X9708Y753D01*
X9714Y749D01*
X9719Y747D01*
X9724Y745D01*
X9729Y744D01*
X9733Y744D01*
X9738Y745D01*
X9742Y746D01*
X9746Y749D01*
X9728Y651D01*
X9665Y710D01*
X9697Y763D01*
X9703Y757D01*
D02*
G37*
%LPC*%
G36*
X8325Y10982D02*
X8315Y10977D01*
X8300Y10966D01*
X8289Y10952D01*
X8285Y10941D01*
X8325D01*
Y10982D01*
D02*
G37*
G36*
X9900Y10980D02*
Y10939D01*
X9941D01*
X9937Y10950D01*
X9925Y10964D01*
X9911Y10976D01*
X9900Y10980D01*
D02*
G37*
G36*
X8325Y10891D02*
X8285D01*
X8289Y10881D01*
X8300Y10866D01*
X8315Y10855D01*
X8325Y10851D01*
Y10891D01*
D02*
G37*
G36*
X9941Y10889D02*
X9900D01*
Y10849D01*
X9911Y10853D01*
X9925Y10865D01*
X9937Y10879D01*
X9941Y10889D01*
D02*
G37*
G36*
X8186Y10782D02*
Y10715D01*
X8253D01*
X8244Y10738D01*
X8228Y10757D01*
X8209Y10773D01*
X8186Y10782D01*
D02*
G37*
G36*
X8136D02*
X8113Y10773D01*
X8093Y10757D01*
X8078Y10738D01*
X8068Y10715D01*
X8136D01*
Y10782D01*
D02*
G37*
G36*
X10096Y10777D02*
Y10710D01*
X10163D01*
X10154Y10733D01*
X10139Y10752D01*
X10119Y10768D01*
X10096Y10777D01*
D02*
G37*
G36*
X10046D02*
X10023Y10768D01*
X10003Y10752D01*
X9988Y10733D01*
X9978Y10710D01*
X10046D01*
Y10777D01*
D02*
G37*
G36*
X8253Y10665D02*
X8186D01*
Y10597D01*
X8209Y10607D01*
X8228Y10622D01*
X8244Y10642D01*
X8253Y10665D01*
D02*
G37*
G36*
X8136D02*
X8068D01*
X8078Y10642D01*
X8093Y10622D01*
X8113Y10607D01*
X8136Y10597D01*
Y10665D01*
D02*
G37*
G36*
X10163Y10660D02*
X10096D01*
Y10592D01*
X10119Y10602D01*
X10139Y10617D01*
X10154Y10637D01*
X10163Y10660D01*
D02*
G37*
G36*
X10046D02*
X9978D01*
X9988Y10637D01*
X10003Y10617D01*
X10023Y10602D01*
X10046Y10592D01*
Y10660D01*
D02*
G37*
G36*
X7547Y10619D02*
X7513Y10616D01*
X7480Y10606D01*
X7449Y10589D01*
X7423Y10568D01*
X7401Y10541D01*
X7385Y10511D01*
X7375Y10478D01*
X7371Y10443D01*
X7375Y10409D01*
X7385Y10376D01*
X7401Y10346D01*
X7423Y10319D01*
X7449Y10297D01*
X7480Y10281D01*
X7513Y10271D01*
X7547Y10267D01*
X7581Y10271D01*
X7614Y10281D01*
X7645Y10297D01*
X7671Y10319D01*
X7693Y10346D01*
X7709Y10376D01*
X7719Y10409D01*
X7723Y10443D01*
X7719Y10478D01*
X7709Y10511D01*
X7693Y10541D01*
X7671Y10568D01*
X7645Y10589D01*
X7614Y10606D01*
X7581Y10616D01*
X7547Y10619D01*
D02*
G37*
G36*
X5708Y8774D02*
X5683Y8773D01*
X5660Y8765D01*
X5703Y8714D01*
X5755Y8758D01*
X5733Y8769D01*
X5708Y8774D01*
D02*
G37*
G36*
X5409Y8721D02*
X5390Y8720D01*
X5380Y8716D01*
X5406Y8685D01*
X5437Y8712D01*
X5427Y8717D01*
X5409Y8721D01*
D02*
G37*
G36*
X5622Y8733D02*
X5610Y8711D01*
X5605Y8686D01*
X5606Y8661D01*
X5614Y8638D01*
X5665Y8682D01*
X5622Y8733D01*
D02*
G37*
G36*
X3493Y5969D02*
X3478Y5967D01*
X3441Y5956D01*
X3406Y5937D01*
X3375Y5912D01*
X3350Y5882D01*
X3332Y5847D01*
X3320Y5809D01*
X3319Y5795D01*
X3493D01*
Y5969D01*
D02*
G37*
G36*
Y5745D02*
X3319D01*
X3320Y5731D01*
X3332Y5693D01*
X3350Y5658D01*
X3375Y5628D01*
X3406Y5603D01*
X3441Y5584D01*
X3478Y5573D01*
X3493Y5571D01*
Y5745D01*
D02*
G37*
G36*
X6848Y9735D02*
X6823Y9734D01*
X6799Y9726D01*
X6842Y9674D01*
X6894Y9718D01*
X6872Y9729D01*
X6848Y9735D01*
D02*
G37*
G36*
X6648Y9679D02*
X6617Y9653D01*
X6643Y9622D01*
X6648Y9632D01*
X6652Y9650D01*
X6652Y9669D01*
X6648Y9679D01*
D02*
G37*
G36*
X6761Y9694D02*
X6749Y9672D01*
X6744Y9648D01*
X6745Y9623D01*
X6752Y9599D01*
X6804Y9642D01*
X6761Y9694D01*
D02*
G37*
G36*
X7193Y6012D02*
X7138D01*
Y5858D01*
X7193D01*
Y6012D01*
D02*
G37*
G36*
X7088D02*
X7032D01*
Y5858D01*
X7088D01*
Y6012D01*
D02*
G37*
G36*
X3770Y4800D02*
Y4640D01*
X3830D01*
Y4800D01*
X3770D01*
D02*
G37*
G36*
X4431Y4762D02*
X4378D01*
Y4637D01*
X4431D01*
Y4762D01*
D02*
G37*
G36*
Y4577D02*
X4378D01*
Y4452D01*
X4431D01*
Y4577D01*
D02*
G37*
G36*
X3830Y4580D02*
X3770D01*
Y4420D01*
X3830D01*
Y4580D01*
D02*
G37*
G36*
X5683Y5981D02*
X5638D01*
Y5949D01*
X5683D01*
Y5981D01*
D02*
G37*
G36*
X5588D02*
X5542D01*
Y5949D01*
X5588D01*
Y5981D01*
D02*
G37*
G36*
X5366Y5572D02*
X4826D01*
Y5122D01*
X5366D01*
Y5572D01*
D02*
G37*
G36*
X12798Y5994D02*
Y5954D01*
X12839D01*
X12834Y5964D01*
X12823Y5979D01*
X12808Y5990D01*
X12798Y5994D01*
D02*
G37*
G36*
X12993Y5662D02*
X12925D01*
Y5595D01*
X12948Y5604D01*
X12968Y5620D01*
X12983Y5639D01*
X12993Y5662D01*
D02*
G37*
G36*
X13290Y5509D02*
Y5335D01*
X13464D01*
X13462Y5349D01*
X13451Y5387D01*
X13432Y5422D01*
X13407Y5452D01*
X13377Y5477D01*
X13342Y5496D01*
X13304Y5507D01*
X13290Y5509D01*
D02*
G37*
G36*
X13240D02*
X13226Y5507D01*
X13188Y5496D01*
X13153Y5477D01*
X13123Y5452D01*
X13098Y5422D01*
X13079Y5387D01*
X13068Y5349D01*
X13066Y5335D01*
X13240D01*
Y5509D01*
D02*
G37*
G36*
X13464Y5285D02*
X13290D01*
Y5111D01*
X13304Y5113D01*
X13342Y5124D01*
X13377Y5143D01*
X13407Y5168D01*
X13432Y5198D01*
X13451Y5233D01*
X13462Y5271D01*
X13464Y5285D01*
D02*
G37*
G36*
X13240D02*
X13066D01*
X13068Y5271D01*
X13079Y5233D01*
X13098Y5198D01*
X13123Y5168D01*
X13153Y5143D01*
X13188Y5124D01*
X13226Y5113D01*
X13240Y5111D01*
Y5285D01*
D02*
G37*
G36*
X12765Y5516D02*
X12725Y5512D01*
X12686Y5500D01*
X12651Y5481D01*
X12619Y5456D01*
X12594Y5424D01*
X12575Y5389D01*
X12563Y5350D01*
X12559Y5310D01*
X12563Y5270D01*
X12575Y5231D01*
X12594Y5196D01*
X12619Y5164D01*
X12651Y5139D01*
X12686Y5120D01*
X12725Y5108D01*
X12765Y5104D01*
X12805Y5108D01*
X12844Y5120D01*
X12879Y5139D01*
X12911Y5164D01*
X12936Y5196D01*
X12955Y5231D01*
X12967Y5270D01*
X12971Y5310D01*
X12967Y5350D01*
X12955Y5389D01*
X12936Y5424D01*
X12911Y5456D01*
X12879Y5481D01*
X12844Y5500D01*
X12805Y5512D01*
X12765Y5516D01*
D02*
G37*
G36*
X14236Y4637D02*
Y4597D01*
X14277D01*
X14272Y4607D01*
X14261Y4622D01*
X14247Y4633D01*
X14236Y4637D01*
D02*
G37*
G36*
X14277Y4547D02*
X14236D01*
Y4507D01*
X14247Y4511D01*
X14261Y4522D01*
X14272Y4537D01*
X14277Y4547D01*
D02*
G37*
G36*
X14300Y4461D02*
Y4394D01*
X14367D01*
X14358Y4417D01*
X14343Y4437D01*
X14323Y4452D01*
X14300Y4461D01*
D02*
G37*
G36*
X14250D02*
X14227Y4452D01*
X14207Y4437D01*
X14192Y4417D01*
X14182Y4394D01*
X14250D01*
Y4461D01*
D02*
G37*
G36*
X14367Y4344D02*
X14300D01*
Y4276D01*
X14323Y4286D01*
X14343Y4301D01*
X14358Y4321D01*
X14367Y4344D01*
D02*
G37*
G36*
X14250D02*
X14182D01*
X14192Y4321D01*
X14207Y4301D01*
X14227Y4286D01*
X14250Y4276D01*
Y4344D01*
D02*
G37*
G36*
X6245Y5753D02*
X6180D01*
Y5672D01*
X6245D01*
Y5753D01*
D02*
G37*
G36*
X6120D02*
X6055D01*
Y5672D01*
X6120D01*
Y5753D01*
D02*
G37*
G36*
X6245Y5612D02*
X6180D01*
Y5533D01*
X6245D01*
Y5612D01*
D02*
G37*
G36*
X6120D02*
X6055D01*
Y5533D01*
X6120D01*
Y5612D01*
D02*
G37*
G36*
X6306Y5480D02*
X6036D01*
Y5335D01*
X6306D01*
Y5480D01*
D02*
G37*
G36*
X5976D02*
X5706D01*
Y5335D01*
X5976D01*
Y5480D01*
D02*
G37*
G36*
X7203Y5342D02*
X7143D01*
Y5182D01*
X7203D01*
Y5342D01*
D02*
G37*
G36*
X7082D02*
X7022D01*
Y5182D01*
X7082D01*
Y5342D01*
D02*
G37*
G36*
X6306Y5275D02*
X6036D01*
Y5130D01*
X6306D01*
Y5275D01*
D02*
G37*
G36*
X5976D02*
X5706D01*
Y5130D01*
X5976D01*
Y5275D01*
D02*
G37*
G36*
X7203Y5122D02*
X7143D01*
Y4962D01*
X7203D01*
Y5122D01*
D02*
G37*
G36*
X7082D02*
X7022D01*
Y4962D01*
X7082D01*
Y5122D01*
D02*
G37*
G36*
X6961Y4603D02*
X6919D01*
Y4560D01*
X6961D01*
Y4603D01*
D02*
G37*
G36*
X8360Y5098D02*
X8349Y5094D01*
X8335Y5082D01*
X8323Y5068D01*
X8319Y5058D01*
X8360D01*
Y5098D01*
D02*
G37*
G36*
Y5008D02*
X8319D01*
X8323Y4997D01*
X8335Y4983D01*
X8349Y4971D01*
X8360Y4967D01*
Y5008D01*
D02*
G37*
G36*
X7510Y4583D02*
X7490D01*
Y4555D01*
X7510D01*
Y4583D01*
D02*
G37*
G36*
Y4505D02*
X7490D01*
Y4478D01*
X7510D01*
Y4505D01*
D02*
G37*
G36*
X9286Y870D02*
X9246D01*
X9250Y860D01*
X9261Y846D01*
X9276Y834D01*
X9286Y830D01*
Y870D01*
D02*
G37*
G36*
X9309Y782D02*
Y715D01*
X9376D01*
X9367Y738D01*
X9352Y758D01*
X9332Y773D01*
X9309Y782D01*
D02*
G37*
G36*
X9376Y665D02*
X9309D01*
Y598D01*
X9332Y607D01*
X9352Y622D01*
X9367Y642D01*
X9376Y665D01*
D02*
G37*
G36*
X5213Y4752D02*
X5166D01*
Y4632D01*
X5213D01*
Y4752D01*
D02*
G37*
G36*
X6306Y4510D02*
X6036D01*
Y4365D01*
X6306D01*
Y4510D01*
D02*
G37*
G36*
X5976D02*
X5706D01*
Y4365D01*
X5976D01*
Y4510D01*
D02*
G37*
G36*
X6306Y4305D02*
X6036D01*
Y4160D01*
X6306D01*
Y4305D01*
D02*
G37*
G36*
X5976D02*
X5706D01*
Y4160D01*
X5976D01*
Y4305D01*
D02*
G37*
%LPD*%
D27*
X14400Y4600D02*
D03*
X14500Y4400D02*
D03*
X14400Y4200D02*
D03*
X14200D02*
D03*
X14000D02*
D03*
X13800D02*
D03*
X13600Y5400D02*
D03*
X13700Y4400D02*
D03*
X13600Y4200D02*
D03*
X13400Y5800D02*
D03*
X13500Y5600D02*
D03*
Y5200D02*
D03*
X13400Y5000D02*
D03*
X13500Y4800D02*
D03*
Y4400D02*
D03*
X13400Y4200D02*
D03*
X13300Y5600D02*
D03*
X13200Y5000D02*
D03*
X13300Y4800D02*
D03*
Y4400D02*
D03*
X13200Y4200D02*
D03*
X13100Y5600D02*
D03*
X13000Y5400D02*
D03*
Y5000D02*
D03*
X13100Y4800D02*
D03*
Y4400D02*
D03*
X13000Y4200D02*
D03*
X12900Y4400D02*
D03*
X12800Y4200D02*
D03*
X12600D02*
D03*
X12500Y5200D02*
D03*
X12400Y5000D02*
D03*
X12500Y4800D02*
D03*
X12100Y5600D02*
D03*
Y5200D02*
D03*
Y4800D02*
D03*
X11900Y5600D02*
D03*
X11800Y5400D02*
D03*
X11900Y5200D02*
D03*
X10200Y10600D02*
D03*
X10100Y400D02*
D03*
X10000Y200D02*
D03*
X9900Y10800D02*
D03*
X9800Y5400D02*
D03*
X9900Y5200D02*
D03*
Y4800D02*
D03*
X9800Y4600D02*
D03*
X9900Y400D02*
D03*
X9800Y200D02*
D03*
X9600Y5400D02*
D03*
X9700Y5200D02*
D03*
Y400D02*
D03*
X9600Y200D02*
D03*
X9400Y600D02*
D03*
X9500Y400D02*
D03*
X9400Y200D02*
D03*
X9200Y4600D02*
D03*
X9300Y400D02*
D03*
X9100Y10800D02*
D03*
X9000Y4600D02*
D03*
X8800D02*
D03*
X8700Y10000D02*
D03*
X8600Y9800D02*
D03*
Y4600D02*
D03*
X8500Y10000D02*
D03*
X8400Y9800D02*
D03*
Y4600D02*
D03*
X8300Y10800D02*
D03*
Y9600D02*
D03*
X8200Y5000D02*
D03*
Y4600D02*
D03*
X8000Y10600D02*
D03*
X8100Y10400D02*
D03*
X8000Y5000D02*
D03*
Y4200D02*
D03*
X7900Y10800D02*
D03*
X7800Y10600D02*
D03*
X7900Y10400D02*
D03*
X7800Y10200D02*
D03*
X7900Y5200D02*
D03*
X7800Y4200D02*
D03*
X7700Y10800D02*
D03*
X7600Y10200D02*
D03*
Y7000D02*
D03*
Y6600D02*
D03*
Y6200D02*
D03*
Y5800D02*
D03*
Y5400D02*
D03*
Y5000D02*
D03*
X7700Y4400D02*
D03*
X7600Y4200D02*
D03*
X7500Y10800D02*
D03*
X7400Y10600D02*
D03*
X7500Y6000D02*
D03*
X7400Y5800D02*
D03*
X7500Y5600D02*
D03*
X7400Y5400D02*
D03*
X7500Y5200D02*
D03*
X7400Y5000D02*
D03*
X7500Y4400D02*
D03*
X7400Y4200D02*
D03*
X7200Y10600D02*
D03*
X7300Y10400D02*
D03*
Y6000D02*
D03*
Y5600D02*
D03*
Y4400D02*
D03*
X7200Y4200D02*
D03*
X7100Y10400D02*
D03*
X7000Y5800D02*
D03*
X7100Y5600D02*
D03*
Y4400D02*
D03*
X7000Y4200D02*
D03*
X6900Y6000D02*
D03*
Y4400D02*
D03*
X6800Y4200D02*
D03*
X6700Y9600D02*
D03*
Y6000D02*
D03*
Y4400D02*
D03*
X6500Y6000D02*
D03*
X6300D02*
D03*
X6100Y9200D02*
D03*
X6000Y9000D02*
D03*
X5800D02*
D03*
X5900Y8800D02*
D03*
X5800Y5800D02*
D03*
X5500Y6000D02*
D03*
X5400Y5800D02*
D03*
X5500Y4800D02*
D03*
X5200Y5000D02*
D03*
X5000D02*
D03*
X4800Y8600D02*
D03*
X4900Y8400D02*
D03*
X4800Y8200D02*
D03*
Y5000D02*
D03*
X4700Y8400D02*
D03*
X4600Y8200D02*
D03*
X4700Y8000D02*
D03*
X4600Y7800D02*
D03*
Y5000D02*
D03*
X4500Y8400D02*
D03*
X4400Y8200D02*
D03*
X4500Y8000D02*
D03*
X4400Y7800D02*
D03*
X4500Y7600D02*
D03*
X4300Y8000D02*
D03*
X4200Y7800D02*
D03*
X4300Y7600D02*
D03*
X4200Y7400D02*
D03*
X4100Y8000D02*
D03*
X4000Y7800D02*
D03*
X4100Y7600D02*
D03*
X4000Y7400D02*
D03*
X3900Y7600D02*
D03*
X3800Y7400D02*
D03*
X3900Y7200D02*
D03*
X3800Y7000D02*
D03*
X3700Y7600D02*
D03*
X3600Y7400D02*
D03*
X3700Y7200D02*
D03*
X3600Y7000D02*
D03*
X3700Y6000D02*
D03*
Y5600D02*
D03*
X3600Y5400D02*
D03*
Y5000D02*
D03*
X3400Y7400D02*
D03*
X3500Y7200D02*
D03*
X3400Y7000D02*
D03*
X3500Y6800D02*
D03*
Y6000D02*
D03*
X3400Y5400D02*
D03*
X3500Y5200D02*
D03*
X3400Y5000D02*
D03*
X3500Y4800D02*
D03*
X3400Y4600D02*
D03*
X3500Y4400D02*
D03*
X3400Y4200D02*
D03*
X3300Y7200D02*
D03*
X3200Y7000D02*
D03*
X3300Y6800D02*
D03*
X3200Y6600D02*
D03*
Y6200D02*
D03*
X3300Y6000D02*
D03*
X3200Y5800D02*
D03*
X3300Y5600D02*
D03*
X3200Y5400D02*
D03*
X3300Y5200D02*
D03*
X3200Y5000D02*
D03*
X3300Y4800D02*
D03*
X3200Y4600D02*
D03*
X3300Y4400D02*
D03*
X3200Y4200D02*
D03*
X3000Y7000D02*
D03*
X3100Y6800D02*
D03*
X3000Y6600D02*
D03*
X3100Y6400D02*
D03*
X3000Y6200D02*
D03*
X3100Y6000D02*
D03*
X3000Y5800D02*
D03*
X3100Y5600D02*
D03*
X3000Y5400D02*
D03*
X3100Y5200D02*
D03*
X3000Y5000D02*
D03*
X3100Y4800D02*
D03*
X3000Y4600D02*
D03*
X3100Y4400D02*
D03*
X3000Y4200D02*
D03*
X8025Y10035D02*
D03*
X7826Y10086D02*
D03*
X9290Y4553D02*
D03*
X9418D02*
D03*
D31*
X7745Y9878D02*
D03*
X12282Y4505D02*
D03*
X4631Y4400D02*
D03*
D32*
X6150Y5642D02*
D03*
X5900D02*
D03*
D33*
X6025Y5933D02*
D03*
D34*
X7112Y5833D02*
D03*
Y5153D02*
D03*
X3740Y5290D02*
D03*
Y4610D02*
D03*
D35*
X7369Y4530D02*
D03*
X7465D02*
D03*
D36*
X7131D02*
D03*
X6991D02*
D03*
D37*
X4801Y5597D02*
D03*
D38*
X5141Y4607D02*
D03*
X4971D02*
D03*
X4801D02*
D03*
X4631D02*
D03*
X4461D02*
D03*
D39*
X6006Y4335D02*
D03*
Y5305D02*
D03*
D40*
X5612Y5924D02*
D03*
Y5776D02*
D03*
D41*
X6941Y10002D02*
X7879D01*
X6739Y9800D02*
X6941Y10002D01*
X6565Y9800D02*
X6739D01*
X6869Y10086D02*
X7826D01*
X6683Y9900D02*
X6869Y10086D01*
X6559Y9900D02*
X6683D01*
X6370Y9711D02*
X6559Y9900D01*
X6477Y9712D02*
X6565Y9800D01*
X7879Y10002D02*
X7879Y5499D01*
X8163Y5215D01*
X6370Y9511D02*
Y9711D01*
Y9511D02*
X6389Y9492D01*
X6477Y9583D02*
Y9712D01*
Y9583D02*
X6485Y9575D01*
X14021Y4508D02*
X14084Y4572D01*
X14021Y4369D02*
Y4508D01*
X9528Y5033D02*
Y5160D01*
X9247Y5440D02*
X9528Y5160D01*
X8258Y5440D02*
X9247D01*
X9400Y5033D02*
Y5169D01*
X9205Y5365D02*
X9400Y5169D01*
X8225Y5365D02*
X9205D01*
X9274Y5033D02*
Y5179D01*
X9162Y5290D02*
X9274Y5179D01*
X8194Y5290D02*
X9162D01*
X8029Y9772D02*
X8029Y5561D01*
X8029Y9772D02*
X8807Y10550D01*
X8029Y5561D02*
X8225Y5365D01*
X7954Y9872D02*
X8669Y10587D01*
X8025Y10035D02*
X8071Y9989D01*
X6389Y9492D02*
X6450Y9430D01*
Y9313D02*
Y9430D01*
X6584Y9476D02*
X6645D01*
X6485Y9575D02*
X6584Y9476D01*
X14016Y4640D02*
X14084Y4572D01*
X12521Y5816D02*
Y5929D01*
X8604Y10754D02*
Y10918D01*
Y10754D02*
X8669Y10690D01*
X8477Y10752D02*
Y10916D01*
X8415Y10690D02*
X8477Y10752D01*
X8415Y10537D02*
Y10690D01*
X9420Y1111D02*
Y1188D01*
Y1111D02*
X9565Y966D01*
X9420Y1188D02*
X9420Y4510D01*
X9565Y898D02*
Y966D01*
X9438Y895D02*
Y952D01*
X9293Y1098D02*
X9438Y952D01*
X9293Y1098D02*
X9293Y4510D01*
X9728Y690D02*
X9792D01*
X9565Y852D02*
X9728Y690D01*
X9565Y852D02*
Y898D01*
X9438Y790D02*
X9538Y690D01*
X9438Y790D02*
Y895D01*
X7954Y9872D02*
X7954Y5530D01*
X8669Y10587D02*
Y10690D01*
X7879Y10002D02*
X8415Y10537D01*
X9621Y10903D02*
Y10912D01*
Y10743D02*
Y10903D01*
X9563Y10685D02*
X9621Y10743D01*
X9749Y10753D02*
Y10914D01*
Y10753D02*
X9817Y10685D01*
X9625Y10470D02*
X9819Y10665D01*
X8845Y10470D02*
X9625D01*
X9428Y10550D02*
X9475Y10597D01*
X8807Y10550D02*
X9428D01*
X9475Y10597D02*
X9563Y10685D01*
X8104Y9729D02*
X8845Y10470D01*
X10297Y4640D02*
X14016D01*
X10010Y4928D02*
X10297Y4640D01*
X12018Y5313D02*
X12392Y5687D01*
X12018Y4983D02*
Y5313D01*
X11765Y4730D02*
X12018Y4983D01*
X10353Y4730D02*
X11765D01*
X9712Y4928D02*
X10010D01*
X9654Y4985D02*
X9712Y4928D01*
X9654Y4985D02*
Y5033D01*
X9782D02*
X10050D01*
X8104Y5594D02*
X8258Y5440D01*
X8104Y9729D02*
X8104Y5594D01*
X8163Y5215D02*
X9118D01*
X9146Y5186D01*
Y5033D02*
Y5186D01*
X7954Y5530D02*
X8194Y5290D01*
X10050Y5033D02*
X10353Y4730D01*
X12771Y5816D02*
X12900Y5687D01*
X12771Y5816D02*
Y5929D01*
X12392Y5687D02*
X12521Y5816D01*
D42*
X6612Y10002D02*
X6798Y10188D01*
X6512Y10002D02*
X6612D01*
X6248Y9738D02*
X6512Y10002D01*
X6248Y9453D02*
Y9738D01*
X6798Y10188D02*
X6930D01*
X6248Y9453D02*
X6292Y9410D01*
X6256Y9374D02*
X6292Y9410D01*
X6256Y9149D02*
Y9374D01*
X7745Y4828D02*
X7755Y4817D01*
X7745Y4828D02*
Y9878D01*
X9494Y10870D02*
Y10912D01*
X9309Y10685D02*
X9494Y10870D01*
X9304Y10690D02*
X9309Y10685D01*
X8923Y10690D02*
X9304D01*
X8731Y10881D02*
Y10918D01*
Y10881D02*
X8923Y10690D01*
X9610Y1088D02*
X9610Y4495D01*
X9692Y898D02*
Y1005D01*
X9610Y1088D02*
X9692Y1005D01*
X9747Y843D02*
X9872D01*
X9692Y898D02*
X9747Y843D01*
X9872D02*
X10025Y690D01*
X10046D01*
X8511Y4817D02*
Y5033D01*
D43*
X5550Y5497D02*
X5695Y5642D01*
X5550Y5150D02*
Y5497D01*
X5695Y5642D02*
X5746D01*
X5900D01*
X5297Y4897D02*
X5550Y5150D01*
X5092Y4897D02*
X5297D01*
X4971Y4776D02*
X5092Y4897D01*
X5612Y5776D02*
X5746Y5642D01*
X5900Y5808D02*
X6025Y5933D01*
X5900Y5642D02*
Y5808D01*
X4971Y4607D02*
Y4776D01*
X7131Y4530D02*
X7369D01*
X12646Y5687D02*
Y5929D01*
D44*
X9614Y10911D02*
X9621Y10903D01*
D45*
X7755Y4817D02*
X8511D01*
X7230D02*
X7755D01*
X8511D02*
X9512D01*
X9610Y4495D02*
X9810Y4295D01*
X12072D01*
X9512Y4817D02*
X9610Y4720D01*
Y4495D02*
Y4720D01*
X12072Y4295D02*
X12282Y4505D01*
X7112Y4935D02*
Y5153D01*
Y4935D02*
X7230Y4817D01*
D46*
X5314Y8349D02*
D03*
X5121Y8184D02*
D03*
X4928Y8019D02*
D03*
X5507Y8514D02*
D03*
X5701Y8679D02*
D03*
X9792Y690D02*
D03*
X10046D02*
D03*
X9538D02*
D03*
X9284D02*
D03*
X10071Y10685D02*
D03*
X9817D02*
D03*
X9309D02*
D03*
X9563D02*
D03*
X8161Y10690D02*
D03*
X8415D02*
D03*
X8923D02*
D03*
X8669D02*
D03*
X6839Y9639D02*
D03*
X6645Y9476D02*
D03*
X6256Y9149D02*
D03*
X6450Y9313D02*
D03*
X12646Y5687D02*
D03*
X12900D02*
D03*
X12392D02*
D03*
X14275Y4369D02*
D03*
X14021D02*
D03*
D47*
X5403Y8650D02*
D03*
X5307Y8568D02*
D03*
X5017Y8320D02*
D03*
X5114Y8403D02*
D03*
X5210Y8485D02*
D03*
X6292Y9410D02*
D03*
X6389Y9492D02*
D03*
X6485Y9575D02*
D03*
X6582Y9656D02*
D03*
X9311Y895D02*
D03*
X9438D02*
D03*
X9565Y898D02*
D03*
X9692D02*
D03*
X9494Y10912D02*
D03*
X9621D02*
D03*
X9749Y10914D02*
D03*
X9875D02*
D03*
X8731Y10918D02*
D03*
X8604D02*
D03*
X8477Y10916D02*
D03*
X8350D02*
D03*
X12646Y5929D02*
D03*
X12519D02*
D03*
X12773D02*
D03*
X14084Y4572D02*
D03*
X14211D02*
D03*
X9782Y5033D02*
D03*
X9654D02*
D03*
X9528D02*
D03*
X9400D02*
D03*
X9274D02*
D03*
X9146D02*
D03*
X9019D02*
D03*
X8893D02*
D03*
X8765D02*
D03*
X8639D02*
D03*
X8511D02*
D03*
X8385D02*
D03*
D48*
X13265Y5310D02*
D03*
X12765D02*
D03*
X4017Y5770D02*
D03*
X3517D02*
D03*
D49*
X10007Y4600D02*
D03*
X10447Y500D02*
D03*
X15506Y8413D02*
D03*
X13100Y10368D02*
D03*
X7547Y10443D02*
D03*
X936Y4635D02*
D03*
D50*
X15427Y4900D02*
D03*
D51*
X6930Y10188D02*
D03*
M02*
