G04*
G04 #@! TF.GenerationSoftware,Altium Limited,Altium Designer,18.1.7 (191)*
G04*
G04 Layer_Color=8388736*
%FSLAX42Y42*%
%MOMM*%
G71*
G01*
G75*
%ADD14O,1.95X0.45*%
%ADD15O,0.45X1.95*%
%ADD16R,0.80X0.65*%
%ADD17R,0.65X0.80*%
%ADD18C,3.15*%
%ADD19C,5.15*%
%ADD20C,2.15*%
%ADD21R,2.15X2.15*%
%ADD22C,1.65*%
%ADD23C,1.05*%
%ADD24C,0.30*%
%ADD25C,0.50*%
%ADD26C,0.85*%
%ADD27C,0.40*%
D14*
X7325Y10037D02*
D03*
Y9987D02*
D03*
Y9937D02*
D03*
Y9887D02*
D03*
Y9837D02*
D03*
Y9787D02*
D03*
Y9737D02*
D03*
Y9687D02*
D03*
Y9637D02*
D03*
Y9587D02*
D03*
Y9537D02*
D03*
Y9487D02*
D03*
Y9437D02*
D03*
Y9387D02*
D03*
Y9337D02*
D03*
Y9287D02*
D03*
X8435D02*
D03*
Y9337D02*
D03*
Y9387D02*
D03*
Y9437D02*
D03*
Y9487D02*
D03*
Y9537D02*
D03*
Y9587D02*
D03*
Y9637D02*
D03*
Y9687D02*
D03*
Y9737D02*
D03*
Y9787D02*
D03*
Y9837D02*
D03*
Y9887D02*
D03*
Y9937D02*
D03*
Y9987D02*
D03*
Y10037D02*
D03*
D15*
X7505Y9107D02*
D03*
X7555D02*
D03*
X7605D02*
D03*
X7655D02*
D03*
X7705D02*
D03*
X7755D02*
D03*
X7805D02*
D03*
X7855D02*
D03*
X7905D02*
D03*
X7955D02*
D03*
X8005D02*
D03*
X8055D02*
D03*
X8105D02*
D03*
X8155D02*
D03*
X8205D02*
D03*
X8255D02*
D03*
Y10217D02*
D03*
X8205D02*
D03*
X8155D02*
D03*
X8105D02*
D03*
X8055D02*
D03*
X8005D02*
D03*
X7955D02*
D03*
X7905D02*
D03*
X7855D02*
D03*
X7805D02*
D03*
X7755D02*
D03*
X7705D02*
D03*
X7655D02*
D03*
X7605D02*
D03*
X7555D02*
D03*
X7505D02*
D03*
D16*
X8205Y10379D02*
D03*
Y10475D02*
D03*
X8055Y10382D02*
D03*
Y10478D02*
D03*
D17*
X8589Y9408D02*
D03*
X8686D02*
D03*
Y9316D02*
D03*
X8589D02*
D03*
X8686Y9222D02*
D03*
X8589D02*
D03*
D18*
X5980Y4600D02*
D03*
X6420Y500D02*
D03*
X921Y8413D02*
D03*
X3327Y10368D02*
D03*
X8880Y10443D02*
D03*
X15491Y4635D02*
D03*
D19*
X1000Y4900D02*
D03*
D20*
X8780Y4470D02*
D03*
X8526D02*
D03*
X9034D02*
D03*
D21*
X8272D02*
D03*
D22*
X6864Y10848D02*
D03*
X7371D02*
D03*
X7118D02*
D03*
D23*
X8605Y4800D02*
D03*
X8480D02*
D03*
X8730D02*
D03*
X8855D02*
D03*
X7118Y10600D02*
D03*
X6993D02*
D03*
X7243D02*
D03*
D24*
X11700Y8400D02*
D03*
X11400D02*
D03*
X11550Y8100D02*
D03*
X11400Y7800D02*
D03*
X11100Y8400D02*
D03*
X11250Y8100D02*
D03*
X10800Y8400D02*
D03*
X10500Y9600D02*
D03*
X10650Y9300D02*
D03*
X10200Y9600D02*
D03*
X10350Y9300D02*
D03*
X10050Y9900D02*
D03*
X9600Y10200D02*
D03*
X9750Y9900D02*
D03*
X9300Y10200D02*
D03*
X9450Y9900D02*
D03*
X9300Y4200D02*
D03*
X9150Y10500D02*
D03*
Y9900D02*
D03*
X9000Y4800D02*
D03*
Y4200D02*
D03*
X8700Y10800D02*
D03*
Y4200D02*
D03*
X8400Y10800D02*
D03*
Y8400D02*
D03*
Y7800D02*
D03*
Y7200D02*
D03*
Y6600D02*
D03*
Y6000D02*
D03*
Y5400D02*
D03*
Y4200D02*
D03*
X8100Y4800D02*
D03*
Y4200D02*
D03*
X7800Y10800D02*
D03*
X7500D02*
D03*
X7350Y10500D02*
D03*
X7200Y9000D02*
D03*
X7350Y8700D02*
D03*
X7050Y9900D02*
D03*
Y9300D02*
D03*
Y8700D02*
D03*
X10850Y8613D02*
D03*
X10757Y8615D02*
D03*
D25*
X7568Y9943D02*
D03*
X8129Y9843D02*
D03*
X7793Y9943D02*
D03*
X8557Y9080D02*
D03*
X6752Y10556D02*
D03*
X8245Y9480D02*
D03*
X8637Y9762D02*
D03*
X7339Y9138D02*
D03*
X7622Y8866D02*
D03*
D26*
X8570Y8895D02*
D03*
X7815Y9268D02*
D03*
X7935Y9268D02*
D03*
X8297Y9637D02*
D03*
X7980Y9368D02*
D03*
X7970Y10732D02*
D03*
X8195Y10060D02*
D03*
X7485Y10410D02*
D03*
X7915Y9575D02*
D03*
X7662Y9440D02*
D03*
X7925Y10525D02*
D03*
X7230Y10193D02*
D03*
X8730Y8845D02*
D03*
D27*
X8308Y9337D02*
D03*
M02*
