G04*
G04 #@! TF.GenerationSoftware,Altium Limited,Altium Designer,18.1.7 (191)*
G04*
G04 Layer_Color=16711935*
%FSLAX42Y42*%
%MOMM*%
G71*
G01*
G75*
%ADD16R,0.80X0.65*%
%ADD17R,0.65X0.80*%
%ADD18C,3.15*%
%ADD19C,5.15*%
%ADD20C,2.15*%
%ADD21R,2.15X2.15*%
%ADD22C,1.65*%
%ADD23C,1.05*%
%ADD24C,0.30*%
%ADD25C,0.50*%
%ADD26C,0.85*%
%ADD27C,0.40*%
%ADD53P,2.90X4X364.5*%
G04:AMPARAMS|DCode=54|XSize=1.95mm|YSize=2.05mm|CornerRadius=0mm|HoleSize=0mm|Usage=FLASHONLY|Rotation=319.500|XOffset=0mm|YOffset=0mm|HoleType=Round|Shape=Rectangle|*
%AMROTATEDRECTD54*
4,1,4,-1.41,-0.15,-0.08,1.41,1.41,0.15,0.08,-1.41,-1.41,-0.15,0.0*
%
%ADD54ROTATEDRECTD54*%

G04:AMPARAMS|DCode=55|XSize=2.25mm|YSize=1.75mm|CornerRadius=0mm|HoleSize=0mm|Usage=FLASHONLY|Rotation=319.500|XOffset=0mm|YOffset=0mm|HoleType=Round|Shape=Rectangle|*
%AMROTATEDRECTD55*
4,1,4,-1.42,0.07,-0.29,1.40,1.42,-0.07,0.29,-1.40,-1.42,0.07,0.0*
%
%ADD55ROTATEDRECTD55*%

G04:AMPARAMS|DCode=56|XSize=0.55mm|YSize=1.5mm|CornerRadius=0mm|HoleSize=0mm|Usage=FLASHONLY|Rotation=319.500|XOffset=0mm|YOffset=0mm|HoleType=Round|Shape=Rectangle|*
%AMROTATEDRECTD56*
4,1,4,-0.70,-0.39,0.28,0.75,0.70,0.39,-0.28,-0.75,-0.70,-0.39,0.0*
%
%ADD56ROTATEDRECTD56*%

%ADD57R,1.00X1.00*%
%ADD58R,1.45X1.25*%
%ADD59R,1.00X1.00*%
D16*
X7668Y10320D02*
D03*
Y10416D02*
D03*
X7920Y10419D02*
D03*
Y10323D02*
D03*
D17*
X7880Y9378D02*
D03*
X7784D02*
D03*
X7878Y9483D02*
D03*
X7782D02*
D03*
X8208Y8715D02*
D03*
X8112D02*
D03*
Y8901D02*
D03*
X8208D02*
D03*
D18*
X5980Y4600D02*
D03*
X6420Y500D02*
D03*
X921Y8413D02*
D03*
X3327Y10368D02*
D03*
X8880Y10443D02*
D03*
X15491Y4635D02*
D03*
D19*
X1000Y4900D02*
D03*
D20*
X8780Y4470D02*
D03*
X8526D02*
D03*
X9034D02*
D03*
D21*
X8272D02*
D03*
D22*
X6864Y10848D02*
D03*
X7371D02*
D03*
X7118D02*
D03*
D23*
X8605Y4800D02*
D03*
X8480D02*
D03*
X8730D02*
D03*
X8855D02*
D03*
X7118Y10600D02*
D03*
X6993D02*
D03*
X7243D02*
D03*
D24*
X11700Y8400D02*
D03*
X11400D02*
D03*
X11550Y8100D02*
D03*
X11400Y7800D02*
D03*
X11100Y8400D02*
D03*
X11250Y8100D02*
D03*
X10800Y8400D02*
D03*
X10500Y9600D02*
D03*
X10650Y9300D02*
D03*
X10200Y9600D02*
D03*
X10350Y9300D02*
D03*
X10050Y9900D02*
D03*
X9600Y10200D02*
D03*
X9750Y9900D02*
D03*
X9300Y10200D02*
D03*
X9450Y9900D02*
D03*
X9300Y4200D02*
D03*
X9150Y10500D02*
D03*
Y9900D02*
D03*
X9000Y4800D02*
D03*
Y4200D02*
D03*
X8700Y10800D02*
D03*
Y4200D02*
D03*
X8400Y10800D02*
D03*
Y8400D02*
D03*
Y7800D02*
D03*
Y7200D02*
D03*
Y6600D02*
D03*
Y6000D02*
D03*
Y5400D02*
D03*
Y4200D02*
D03*
X8100Y4800D02*
D03*
Y4200D02*
D03*
X7800Y10800D02*
D03*
X7500D02*
D03*
X7350Y10500D02*
D03*
X7200Y9000D02*
D03*
X7350Y8700D02*
D03*
X7050Y9900D02*
D03*
Y9300D02*
D03*
Y8700D02*
D03*
X10850Y8613D02*
D03*
X10757Y8615D02*
D03*
D25*
X7568Y9943D02*
D03*
X8129Y9843D02*
D03*
X7793Y9943D02*
D03*
X8557Y9080D02*
D03*
X6752Y10556D02*
D03*
X8245Y9480D02*
D03*
X8637Y9762D02*
D03*
X7339Y9138D02*
D03*
X7622Y8866D02*
D03*
D26*
X8570Y8895D02*
D03*
X7815Y9268D02*
D03*
X7935Y9268D02*
D03*
X8297Y9637D02*
D03*
X7980Y9368D02*
D03*
X7970Y10732D02*
D03*
X8195Y10060D02*
D03*
X7485Y10410D02*
D03*
X7915Y9575D02*
D03*
X7662Y9440D02*
D03*
X7925Y10525D02*
D03*
X7230Y10193D02*
D03*
X8730Y8845D02*
D03*
D27*
X8308Y9337D02*
D03*
D53*
X11201Y8842D02*
D03*
X11018Y8998D02*
D03*
D54*
X10805Y9180D02*
D03*
X11413Y8660D02*
D03*
D55*
X10708Y8927D02*
D03*
X11179Y8525D02*
D03*
D56*
X11034Y8632D02*
D03*
X10985Y8674D02*
D03*
X10935Y8716D02*
D03*
X10886Y8759D02*
D03*
X10837Y8801D02*
D03*
D57*
X7668Y10182D02*
D03*
Y10043D02*
D03*
X7918Y10185D02*
D03*
Y10045D02*
D03*
D58*
X7780Y9635D02*
D03*
Y9815D02*
D03*
X7550D02*
D03*
Y9635D02*
D03*
D59*
X7832Y8715D02*
D03*
X7972D02*
D03*
X7835Y8897D02*
D03*
X7975D02*
D03*
M02*
