G04*
G04 #@! TF.GenerationSoftware,Altium Limited,Altium Designer,18.1.7 (191)*
G04*
G04 Layer_Color=65535*
%FSLAX42Y42*%
%MOMM*%
G71*
G01*
G75*
%ADD10C,0.25*%
%ADD11C,0.60*%
%ADD12C,0.25*%
%ADD13C,0.20*%
G36*
X10838Y9278D02*
X10841Y9275D01*
X10847Y9269D01*
X10854Y9262D01*
X10861Y9254D01*
X10867Y9247D01*
X10873Y9240D01*
X10873Y9239D01*
X10873Y9238D01*
X10874Y9237D01*
X10875Y9236D01*
X10878Y9230D01*
X10881Y9223D01*
X10884Y9216D01*
X10887Y9206D01*
X10889Y9197D01*
X10890Y9186D01*
X10890Y9186D01*
X10890Y9184D01*
X10890Y9181D01*
X10890Y9175D01*
X10889Y9168D01*
X10888Y9159D01*
X10886Y9149D01*
X10884Y9138D01*
X10880Y9127D01*
X10879Y9126D01*
X10879Y9125D01*
X10878Y9123D01*
X10877Y9121D01*
X10876Y9119D01*
X10874Y9115D01*
X10872Y9112D01*
X10870Y9107D01*
X10868Y9103D01*
X10864Y9097D01*
X10861Y9092D01*
X10857Y9087D01*
X10849Y9075D01*
X10839Y9062D01*
X10838Y9062D01*
X10837Y9061D01*
X10836Y9059D01*
X10834Y9057D01*
X10832Y9055D01*
X10829Y9052D01*
X10826Y9049D01*
X10822Y9045D01*
X10815Y9038D01*
X10806Y9030D01*
X10796Y9024D01*
X10787Y9017D01*
X10786Y9017D01*
X10785Y9016D01*
X10784Y9016D01*
X10781Y9014D01*
X10779Y9013D01*
X10775Y9011D01*
X10767Y9007D01*
X10758Y9004D01*
X10747Y9000D01*
X10735Y8998D01*
X10724Y8996D01*
X10722Y8996D01*
X10719Y8996D01*
X10715Y8996D01*
X10709Y8997D01*
X10701Y8998D01*
X10693Y9000D01*
X10683Y9002D01*
X10673Y9006D01*
X10672Y9007D01*
X10672Y9006D01*
X10671Y9007D01*
X10669Y9008D01*
X10665Y9011D01*
X10659Y9014D01*
X10652Y9018D01*
X10644Y9023D01*
X10635Y9030D01*
X10625Y9038D01*
X10533Y9117D01*
X10741Y9361D01*
X10838Y9278D01*
D02*
G37*
G36*
X11003Y9104D02*
X11011Y9103D01*
X11019Y9103D01*
X11028Y9101D01*
X11037Y9099D01*
X11037Y9098D01*
X11038Y9098D01*
X11040Y9098D01*
X11042Y9096D01*
X11045Y9096D01*
X11049Y9094D01*
X11052Y9092D01*
X11056Y9091D01*
X11066Y9086D01*
X11076Y9080D01*
X11087Y9072D01*
X11098Y9064D01*
X11100Y9062D01*
X11103Y9059D01*
X11106Y9056D01*
X11110Y9051D01*
X11115Y9046D01*
X11120Y9040D01*
X11125Y9033D01*
X11130Y9025D01*
X11136Y9017D01*
X11140Y9009D01*
X11145Y8999D01*
X11149Y8989D01*
X11152Y8979D01*
X11154Y8968D01*
X11155Y8956D01*
X11155Y8956D01*
X11155Y8954D01*
X11155Y8950D01*
X11155Y8946D01*
X11154Y8940D01*
X11154Y8934D01*
X11152Y8926D01*
X11151Y8918D01*
X11149Y8909D01*
X11146Y8900D01*
X11142Y8890D01*
X11137Y8880D01*
X11132Y8869D01*
X11125Y8858D01*
X11117Y8847D01*
X11108Y8836D01*
X11108Y8835D01*
X11106Y8833D01*
X11103Y8830D01*
X11099Y8826D01*
X11095Y8822D01*
X11089Y8817D01*
X11082Y8811D01*
X11076Y8805D01*
X11067Y8799D01*
X11059Y8793D01*
X11049Y8788D01*
X11040Y8783D01*
X11030Y8779D01*
X11019Y8775D01*
X11008Y8772D01*
X10997Y8770D01*
X10996Y8770D01*
X10994Y8770D01*
X10991Y8770D01*
X10986Y8770D01*
X10981Y8770D01*
X10974Y8771D01*
X10968Y8772D01*
X10960Y8773D01*
X10951Y8775D01*
X10942Y8778D01*
X10933Y8781D01*
X10923Y8785D01*
X10913Y8790D01*
X10903Y8796D01*
X10893Y8802D01*
X10883Y8810D01*
X10880Y8812D01*
X10878Y8815D01*
X10875Y8819D01*
X10870Y8823D01*
X10866Y8828D01*
X10861Y8834D01*
X10855Y8841D01*
X10850Y8849D01*
X10845Y8857D01*
X10840Y8866D01*
X10836Y8875D01*
X10831Y8885D01*
X10828Y8895D01*
X10826Y8906D01*
X10825Y8917D01*
X10825Y8918D01*
X10825Y8920D01*
X10825Y8923D01*
X10825Y8927D01*
X10826Y8933D01*
X10826Y8940D01*
X10827Y8947D01*
X10829Y8955D01*
X10831Y8963D01*
X10835Y8973D01*
X10838Y8982D01*
X10842Y8993D01*
X10848Y9003D01*
X10855Y9014D01*
X10862Y9025D01*
X10871Y9036D01*
X10871Y9036D01*
X10872Y9038D01*
X10874Y9039D01*
X10877Y9042D01*
X10879Y9045D01*
X10883Y9048D01*
X10887Y9052D01*
X10891Y9057D01*
X10901Y9065D01*
X10912Y9074D01*
X10923Y9082D01*
X10935Y9089D01*
X10936Y9090D01*
X10936Y9090D01*
X10938Y9090D01*
X10939Y9091D01*
X10945Y9093D01*
X10951Y9095D01*
X10959Y9098D01*
X10967Y9100D01*
X10977Y9102D01*
X10986Y9103D01*
X10987Y9104D01*
X10988Y9104D01*
X10991Y9104D01*
X10997Y9104D01*
X11003Y9104D01*
D02*
G37*
G36*
X11427Y8774D02*
X11392Y8733D01*
X11320Y8795D01*
X11147Y8592D01*
X11098Y8634D01*
X11271Y8837D01*
X11199Y8898D01*
X11234Y8939D01*
X11427Y8774D01*
D02*
G37*
G36*
X10478Y8954D02*
X10434Y8835D01*
X10418Y8797D01*
X10419Y8797D01*
X10420Y8798D01*
X10423Y8799D01*
X10425Y8801D01*
X10432Y8805D01*
X10434Y8806D01*
X10436Y8808D01*
X10436Y8808D01*
X10438Y8809D01*
X10439Y8810D01*
X10441Y8811D01*
X10447Y8815D01*
X10454Y8818D01*
X10565Y8880D01*
X10613Y8839D01*
X10392Y8722D01*
X10349Y8758D01*
X10429Y8995D01*
X10478Y8954D01*
D02*
G37*
G36*
X10640Y8785D02*
X10644Y8785D01*
X10649Y8785D01*
X10654Y8785D01*
X10660Y8784D01*
X10665Y8783D01*
X10672Y8781D01*
X10678Y8780D01*
X10685Y8777D01*
X10692Y8774D01*
X10699Y8770D01*
X10705Y8766D01*
X10712Y8761D01*
X10716Y8757D01*
X10718Y8755D01*
X10721Y8752D01*
X10724Y8748D01*
X10728Y8743D01*
X10732Y8738D01*
X10735Y8733D01*
X10739Y8727D01*
X10742Y8720D01*
X10745Y8713D01*
X10748Y8706D01*
X10750Y8698D01*
X10751Y8690D01*
X10751Y8681D01*
X10751Y8681D01*
X10751Y8679D01*
X10751Y8677D01*
X10751Y8673D01*
X10750Y8669D01*
X10749Y8664D01*
X10748Y8658D01*
X10746Y8652D01*
X10743Y8645D01*
X10740Y8637D01*
X10737Y8629D01*
X10732Y8620D01*
X10727Y8612D01*
X10721Y8602D01*
X10714Y8593D01*
X10706Y8583D01*
X10589Y8683D01*
X10588Y8682D01*
X10588Y8682D01*
X10587Y8681D01*
X10586Y8679D01*
X10583Y8675D01*
X10580Y8670D01*
X10577Y8663D01*
X10574Y8656D01*
X10572Y8649D01*
X10572Y8641D01*
X10572Y8640D01*
X10573Y8637D01*
X10573Y8634D01*
X10575Y8629D01*
X10577Y8624D01*
X10580Y8618D01*
X10584Y8612D01*
X10589Y8607D01*
X10591Y8605D01*
X10594Y8604D01*
X10596Y8602D01*
X10600Y8600D01*
X10604Y8599D01*
X10608Y8597D01*
X10613Y8597D01*
X10614Y8597D01*
X10615Y8597D01*
X10618Y8597D01*
X10621Y8598D01*
X10626Y8599D01*
X10630Y8601D01*
X10635Y8603D01*
X10641Y8606D01*
X10681Y8559D01*
X10681Y8559D01*
X10680Y8558D01*
X10678Y8557D01*
X10675Y8556D01*
X10673Y8555D01*
X10669Y8553D01*
X10661Y8551D01*
X10652Y8548D01*
X10642Y8545D01*
X10630Y8544D01*
X10619Y8544D01*
X10619Y8545D01*
X10618Y8544D01*
X10616Y8545D01*
X10614Y8545D01*
X10611Y8546D01*
X10608Y8547D01*
X10604Y8548D01*
X10600Y8549D01*
X10591Y8553D01*
X10581Y8557D01*
X10570Y8564D01*
X10559Y8572D01*
X10557Y8574D01*
X10555Y8576D01*
X10552Y8579D01*
X10549Y8583D01*
X10545Y8587D01*
X10541Y8592D01*
X10537Y8598D01*
X10533Y8604D01*
X10529Y8611D01*
X10525Y8618D01*
X10522Y8626D01*
X10519Y8634D01*
X10517Y8643D01*
X10517Y8651D01*
X10517Y8660D01*
X10517Y8661D01*
X10517Y8662D01*
X10517Y8664D01*
X10517Y8667D01*
X10518Y8670D01*
X10519Y8674D01*
X10520Y8679D01*
X10522Y8684D01*
X10524Y8690D01*
X10527Y8696D01*
X10529Y8702D01*
X10533Y8709D01*
X10537Y8715D01*
X10541Y8722D01*
X10546Y8729D01*
X10551Y8736D01*
X10552Y8736D01*
X10553Y8738D01*
X10555Y8740D01*
X10558Y8743D01*
X10561Y8746D01*
X10565Y8750D01*
X10570Y8754D01*
X10576Y8758D01*
X10588Y8767D01*
X10594Y8771D01*
X10601Y8775D01*
X10609Y8779D01*
X10617Y8781D01*
X10625Y8783D01*
X10633Y8785D01*
X10634Y8785D01*
X10635Y8785D01*
X10637Y8785D01*
X10640Y8785D01*
D02*
G37*
G36*
X11131Y8514D02*
X10922Y8269D01*
X10875Y8309D01*
X11025Y8486D01*
X11025Y8486D01*
X11023Y8486D01*
X11021Y8486D01*
X11017Y8486D01*
X11013Y8486D01*
X11009Y8486D01*
X11003Y8487D01*
X10997Y8487D01*
X10990Y8488D01*
X10983Y8489D01*
X10975Y8490D01*
X10968Y8492D01*
X10952Y8496D01*
X10935Y8502D01*
X10971Y8544D01*
X10972Y8544D01*
X10972Y8544D01*
X10974Y8543D01*
X10975Y8542D01*
X10980Y8541D01*
X10987Y8539D01*
X10995Y8537D01*
X11005Y8535D01*
X11017Y8534D01*
X11030Y8533D01*
X11030Y8533D01*
X11031Y8532D01*
X11033Y8533D01*
X11036Y8533D01*
X11043Y8533D01*
X11051Y8534D01*
X11061Y8535D01*
X11071Y8538D01*
X11082Y8542D01*
X11093Y8547D01*
X11131Y8514D01*
D02*
G37*
G36*
X10872Y8617D02*
X10851Y8592D01*
X10852Y8592D01*
X10855Y8593D01*
X10860Y8594D01*
X10866Y8596D01*
X10872Y8597D01*
X10879Y8598D01*
X10885Y8599D01*
X10890Y8598D01*
X10891Y8599D01*
X10893Y8598D01*
X10895Y8597D01*
X10899Y8596D01*
X10903Y8595D01*
X10907Y8593D01*
X10911Y8590D01*
X10915Y8587D01*
X10918Y8585D01*
X10921Y8582D01*
X10924Y8577D01*
X10928Y8572D01*
X10932Y8566D01*
X10936Y8559D01*
X10938Y8551D01*
X10889Y8524D01*
X10889Y8524D01*
X10888Y8526D01*
X10887Y8530D01*
X10885Y8533D01*
X10883Y8538D01*
X10881Y8542D01*
X10877Y8546D01*
X10874Y8550D01*
X10873Y8551D01*
X10870Y8553D01*
X10868Y8554D01*
X10865Y8555D01*
X10861Y8557D01*
X10857Y8558D01*
X10853Y8558D01*
X10852Y8558D01*
X10851Y8558D01*
X10848Y8558D01*
X10845Y8557D01*
X10841Y8556D01*
X10836Y8554D01*
X10831Y8551D01*
X10825Y8548D01*
X10825Y8547D01*
X10823Y8546D01*
X10822Y8545D01*
X10821Y8544D01*
X10818Y8542D01*
X10816Y8539D01*
X10813Y8537D01*
X10809Y8533D01*
X10805Y8529D01*
X10801Y8525D01*
X10796Y8519D01*
X10790Y8513D01*
X10784Y8507D01*
X10778Y8500D01*
X10771Y8492D01*
X10725Y8437D01*
X10678Y8477D01*
X10829Y8654D01*
X10872Y8617D01*
D02*
G37*
G36*
X11337Y8511D02*
X11297Y8464D01*
X11251Y8504D01*
X11291Y8551D01*
X11337Y8511D01*
D02*
G37*
%LPC*%
G36*
X10755Y9277D02*
X10617Y9116D01*
X10661Y9079D01*
X10666Y9076D01*
X10671Y9071D01*
X10676Y9068D01*
X10681Y9064D01*
X10685Y9062D01*
X10686Y9061D01*
X10688Y9061D01*
X10691Y9060D01*
X10695Y9058D01*
X10699Y9057D01*
X10704Y9056D01*
X10709Y9055D01*
X10714Y9055D01*
X10714Y9055D01*
X10716Y9055D01*
X10719Y9056D01*
X10723Y9057D01*
X10728Y9058D01*
X10733Y9060D01*
X10739Y9064D01*
X10746Y9067D01*
X10747Y9068D01*
X10747Y9068D01*
X10748Y9069D01*
X10750Y9070D01*
X10752Y9071D01*
X10754Y9073D01*
X10759Y9077D01*
X10765Y9083D01*
X10773Y9089D01*
X10781Y9098D01*
X10790Y9108D01*
X10790Y9108D01*
X10791Y9109D01*
X10792Y9110D01*
X10794Y9112D01*
X10796Y9115D01*
X10798Y9118D01*
X10803Y9124D01*
X10808Y9132D01*
X10814Y9140D01*
X10818Y9148D01*
X10821Y9155D01*
X10822Y9156D01*
X10822Y9156D01*
X10823Y9159D01*
X10824Y9163D01*
X10825Y9167D01*
X10826Y9173D01*
X10827Y9179D01*
X10828Y9185D01*
X10828Y9191D01*
X10827Y9192D01*
X10827Y9194D01*
X10826Y9197D01*
X10825Y9201D01*
X10824Y9206D01*
X10821Y9211D01*
X10819Y9216D01*
X10815Y9222D01*
X10815Y9222D01*
X10813Y9224D01*
X10811Y9227D01*
X10807Y9231D01*
X10805Y9233D01*
X10802Y9236D01*
X10799Y9239D01*
X10796Y9242D01*
X10791Y9246D01*
X10787Y9250D01*
X10755Y9277D01*
D02*
G37*
G36*
X11002Y9043D02*
X10995Y9042D01*
X10995Y9042D01*
X10994Y9042D01*
X10992Y9042D01*
X10989Y9041D01*
X10986Y9039D01*
X10982Y9038D01*
X10978Y9036D01*
X10973Y9034D01*
X10967Y9031D01*
X10962Y9028D01*
X10956Y9024D01*
X10950Y9020D01*
X10943Y9014D01*
X10936Y9009D01*
X10930Y9002D01*
X10923Y8994D01*
X10923Y8994D01*
X10922Y8993D01*
X10920Y8991D01*
X10918Y8987D01*
X10915Y8984D01*
X10912Y8979D01*
X10909Y8974D01*
X10905Y8969D01*
X10899Y8957D01*
X10894Y8944D01*
X10891Y8936D01*
X10889Y8929D01*
X10889Y8922D01*
X10888Y8915D01*
X10888Y8915D01*
X10888Y8913D01*
X10889Y8911D01*
X10889Y8909D01*
X10889Y8906D01*
X10890Y8902D01*
X10891Y8898D01*
X10893Y8893D01*
X10896Y8883D01*
X10901Y8873D01*
X10905Y8868D01*
X10909Y8862D01*
X10914Y8857D01*
X10919Y8852D01*
X10921Y8850D01*
X10924Y8848D01*
X10927Y8847D01*
X10930Y8845D01*
X10938Y8841D01*
X10948Y8836D01*
X10953Y8835D01*
X10959Y8833D01*
X10965Y8832D01*
X10971Y8831D01*
X10978Y8831D01*
X10985Y8832D01*
X10985Y8832D01*
X10986Y8833D01*
X10988Y8833D01*
X10991Y8834D01*
X10995Y8835D01*
X10999Y8836D01*
X11003Y8838D01*
X11008Y8840D01*
X11013Y8843D01*
X11019Y8846D01*
X11025Y8850D01*
X11032Y8855D01*
X11038Y8860D01*
X11045Y8865D01*
X11052Y8873D01*
X11058Y8880D01*
X11059Y8880D01*
X11060Y8882D01*
X11062Y8884D01*
X11064Y8887D01*
X11067Y8891D01*
X11070Y8895D01*
X11073Y8900D01*
X11076Y8906D01*
X11083Y8918D01*
X11089Y8931D01*
X11091Y8938D01*
X11092Y8945D01*
X11093Y8952D01*
X11094Y8959D01*
X11094Y8960D01*
X11094Y8961D01*
X11093Y8962D01*
X11093Y8965D01*
X11093Y8968D01*
X11092Y8972D01*
X11091Y8976D01*
X11090Y8981D01*
X11088Y8985D01*
X11086Y8990D01*
X11080Y9001D01*
X11077Y9006D01*
X11073Y9011D01*
X11068Y9016D01*
X11063Y9021D01*
X11060Y9024D01*
X11058Y9025D01*
X11054Y9027D01*
X11051Y9029D01*
X11043Y9034D01*
X11033Y9038D01*
X11028Y9040D01*
X11021Y9041D01*
X11016Y9042D01*
X11009Y9043D01*
X11002Y9043D01*
D02*
G37*
G36*
X10657Y8733D02*
X10649Y8732D01*
X10649Y8732D01*
X10646Y8732D01*
X10642Y8731D01*
X10638Y8729D01*
X10632Y8726D01*
X10626Y8722D01*
X10620Y8717D01*
X10614Y8711D01*
X10683Y8651D01*
X10684Y8651D01*
X10684Y8652D01*
X10685Y8653D01*
X10686Y8655D01*
X10689Y8659D01*
X10692Y8664D01*
X10694Y8670D01*
X10697Y8676D01*
X10699Y8684D01*
X10699Y8691D01*
X10699Y8691D01*
X10699Y8694D01*
X10698Y8698D01*
X10697Y8702D01*
X10695Y8707D01*
X10692Y8712D01*
X10689Y8718D01*
X10684Y8722D01*
X10682Y8724D01*
X10678Y8726D01*
X10674Y8728D01*
X10669Y8730D01*
X10663Y8732D01*
X10657Y8733D01*
D02*
G37*
%LPD*%
D10*
X7338Y10107D02*
G03*
X7338Y10107I-12J0D01*
G01*
D11*
X7585Y9987D02*
G03*
X7585Y9987I-30J0D01*
G01*
D12*
X8145Y4597D02*
X8399D01*
Y4343D02*
Y4597D01*
X8145Y4343D02*
Y4597D01*
X8399Y4533D02*
X8462Y4597D01*
X8589D01*
X8653Y4533D01*
Y4406D02*
Y4533D01*
X8589Y4343D02*
X8653Y4406D01*
X8462Y4343D02*
X8589D01*
X8399Y4406D02*
X8462Y4343D01*
X8145D02*
X8399D01*
X8653Y4406D02*
X8717Y4343D01*
X8843Y4343D01*
X8907Y4406D01*
Y4533D01*
X8843Y4597D02*
X8907Y4533D01*
X8717Y4597D02*
X8843Y4597D01*
X8653Y4533D02*
X8717Y4597D01*
X8907Y4406D02*
X8971Y4343D01*
X9097D01*
X9161Y4406D01*
Y4533D01*
X9097Y4597D02*
X9161Y4533D01*
X8971Y4597D02*
X9097D01*
X8907Y4533D02*
X8971Y4597D01*
X6420Y10952D02*
Y10825D01*
X6445Y10800D01*
X6496D01*
X6522Y10825D01*
Y10952D01*
X6674D02*
X6623Y10927D01*
X6572Y10876D01*
Y10825D01*
X6598Y10800D01*
X6649D01*
X6674Y10825D01*
Y10851D01*
X6649Y10876D01*
X6572D01*
X7794Y4532D02*
Y4405D01*
X7819Y4380D01*
X7870D01*
X7896Y4405D01*
Y4532D01*
X8048D02*
X7946D01*
Y4456D01*
X7997Y4482D01*
X8023D01*
X8048Y4456D01*
Y4405D01*
X8023Y4380D01*
X7972D01*
X7946Y4405D01*
X7747Y9742D02*
Y9615D01*
X7773Y9590D01*
X7824D01*
X7849Y9615D01*
Y9742D01*
X7976Y9590D02*
Y9742D01*
X7900Y9666D01*
X8001D01*
X6420Y10677D02*
Y10550D01*
X6445Y10525D01*
X6496D01*
X6522Y10550D01*
Y10677D01*
X6674Y10525D02*
X6572D01*
X6674Y10627D01*
Y10652D01*
X6649Y10677D01*
X6598D01*
X6572Y10652D01*
X8180Y4882D02*
Y4755D01*
X8205Y4730D01*
X8256D01*
X8282Y4755D01*
Y4882D01*
X8332Y4730D02*
X8383D01*
X8358D01*
Y4882D01*
X8332Y4857D01*
X8590Y9482D02*
Y9635D01*
X8666D01*
X8692Y9609D01*
Y9559D01*
X8666Y9533D01*
X8590D01*
X8641D02*
X8692Y9482D01*
X8742Y9635D02*
X8844D01*
Y9609D01*
X8742Y9508D01*
Y9482D01*
X8178Y10555D02*
Y10707D01*
X8254D01*
X8279Y10682D01*
Y10631D01*
X8254Y10606D01*
X8178D01*
X8228D02*
X8279Y10555D01*
X8431Y10707D02*
X8381Y10682D01*
X8330Y10631D01*
Y10580D01*
X8355Y10555D01*
X8406D01*
X8431Y10580D01*
Y10606D01*
X8406Y10631D01*
X8330D01*
X8687Y9122D02*
X8661Y9147D01*
X8610D01*
X8585Y9122D01*
Y9020D01*
X8610Y8995D01*
X8661D01*
X8687Y9020D01*
X8839Y8995D02*
X8737D01*
X8839Y9097D01*
Y9122D01*
X8814Y9147D01*
X8763D01*
X8737Y9122D01*
X8844Y9369D02*
X8819Y9395D01*
X8768D01*
X8743Y9369D01*
Y9268D01*
X8768Y9243D01*
X8819D01*
X8844Y9268D01*
X8895Y9243D02*
X8946D01*
X8920D01*
Y9395D01*
X8895Y9369D01*
X7845Y10550D02*
Y10702D01*
X7921D01*
X7947Y10677D01*
Y10626D01*
X7921Y10601D01*
X7845D01*
X7896D02*
X7947Y10550D01*
X8099Y10702D02*
X7997D01*
Y10626D01*
X8048Y10652D01*
X8074D01*
X8099Y10626D01*
Y10575D01*
X8074Y10550D01*
X8023D01*
X7997Y10575D01*
D13*
X7455Y9237D02*
Y10087D01*
X8305Y9237D02*
Y10087D01*
X7455D02*
X8305D01*
X7455Y9237D02*
X8305D01*
M02*
