G04*
G04 #@! TF.GenerationSoftware,Altium Limited,Altium Designer,18.1.7 (191)*
G04*
G04 Layer_Color=16711935*
%FSLAX42Y42*%
%MOMM*%
G71*
G01*
G75*
%ADD52C,0.50*%
D52*
X9932Y8989D02*
X9947Y8973D01*
X9921Y9009D02*
X9932Y8989D01*
X9915Y9030D02*
X9921Y9009D01*
X9913Y9053D02*
X9915Y9030D01*
X9913Y9053D02*
X9917Y9075D01*
X9924Y9128D01*
X9919Y9171D02*
X9924Y9128D01*
X9905Y9213D02*
X9919Y9171D01*
X9883Y9250D02*
X9905Y9213D01*
X9852Y9281D02*
X9883Y9250D01*
X9454Y9612D02*
X9852Y9281D01*
X9407Y9644D02*
X9454Y9612D01*
X9356Y9667D02*
X9407Y9644D01*
X9301Y9679D02*
X9356Y9667D01*
X9244Y9681D02*
X9301Y9679D01*
X9188Y9672D02*
X9244Y9681D01*
X9135Y9653D02*
X9188Y9672D01*
X9087Y9624D02*
X9135Y9653D01*
X9044Y9587D02*
X9087Y9624D01*
X9010Y9542D02*
X9044Y9587D01*
X8984Y9492D02*
X9010Y9542D01*
X8968Y9437D02*
X8984Y9492D01*
X8963Y9381D02*
X8968Y9437D01*
X8963Y5200D02*
Y9381D01*
Y5200D02*
X8969Y5131D01*
X8987Y5063D01*
X9017Y5000D01*
X9057Y4943D01*
X9106Y4894D01*
X9163Y4854D01*
X9226Y4824D01*
X9294Y4806D01*
X9363Y4800D01*
X11645Y7744D02*
X11679Y7721D01*
X11607Y7761D02*
X11645Y7744D01*
X11567Y7769D02*
X11607Y7761D01*
X11526Y7769D02*
X11567Y7769D01*
X11486Y7760D02*
X11526Y7769D01*
X11448Y7744D02*
X11486Y7760D01*
X11429Y7736D02*
X11448Y7744D01*
X11409Y7731D02*
X11429Y7736D01*
X11388Y7731D02*
X11409Y7731D01*
X11368Y7735D02*
X11388Y7731D01*
X11349Y7744D02*
X11368Y7735D01*
X11333Y7756D02*
X11349Y7744D01*
X9947Y8973D02*
X11333Y7756D01*
X7863Y4800D02*
X7932Y4806D01*
X8000Y4824D01*
X8063Y4854D01*
X8120Y4894D01*
X8169Y4943D01*
X8209Y5000D01*
X8239Y5063D01*
X8257Y5131D01*
X8263Y5200D01*
Y8400D01*
X8258Y8445D02*
X8263Y8400D01*
X8243Y8487D02*
X8258Y8445D01*
X8219Y8525D02*
X8243Y8487D01*
X8188Y8556D02*
X8219Y8525D01*
X8150Y8580D02*
X8188Y8556D01*
X8107Y8595D02*
X8150Y8580D01*
X8063Y8600D02*
X8107Y8595D01*
X8613Y11100D02*
X8807Y10976D01*
X8998Y10848D01*
X9301Y10636D01*
X9633Y10391D01*
X9998Y10110D01*
X10403Y9786D01*
X10860Y9408D01*
X11367Y8975D01*
X11948Y8466D01*
X9363Y4800D02*
X14127D01*
X14186Y4806D01*
X14243Y4823D01*
X14295Y4852D01*
X14341Y4890D01*
X14378Y4937D01*
X14406Y4990D01*
X14422Y5047D01*
X14427Y5107D01*
X14419Y5166D02*
X14427Y5107D01*
X14401Y5222D02*
X14419Y5166D01*
X14371Y5274D02*
X14401Y5222D01*
X14332Y5319D02*
X14371Y5274D01*
X13457Y6130D02*
X14332Y5319D01*
X12572Y6930D02*
X13457Y6130D01*
X11679Y7721D02*
X12572Y6930D01*
X4328Y10394D02*
X4387Y10400D01*
X4272Y10377D02*
X4328Y10394D01*
X4220Y10349D02*
X4272Y10377D01*
X4175Y10312D02*
X4220Y10349D01*
X4138Y10267D02*
X4175Y10312D01*
X4110Y10215D02*
X4138Y10267D01*
X4093Y10159D02*
X4110Y10215D01*
X4087Y10100D02*
X4093Y10159D01*
X4087Y5905D02*
Y10100D01*
Y5905D02*
X4091Y5863D01*
X4104Y5824D01*
X4125Y5788D01*
X4153Y5757D01*
X4186Y5732D01*
X4224Y5715D01*
X4265Y5706D01*
X4306Y5706D01*
X4347Y5714D01*
X4385Y5730D01*
X4419Y5754D01*
X4447Y5785D01*
X6890Y9061D01*
X6912Y9098D01*
X6925Y9138D01*
X6930Y9181D01*
Y10200D01*
X6925Y10245D02*
X6930Y10200D01*
X6910Y10287D02*
X6925Y10245D01*
X6886Y10325D02*
X6910Y10287D01*
X6855Y10356D02*
X6886Y10325D01*
X6817Y10380D02*
X6855Y10356D01*
X6775Y10395D02*
X6817Y10380D01*
X6730Y10400D02*
X6775Y10395D01*
X4387Y10400D02*
X6730D01*
X5406Y4800D02*
X5453Y4806D01*
X5498Y4823D01*
X5538Y4850D01*
X5570Y4886D01*
X5616Y4943D01*
X5671Y4993D01*
X5732Y5034D01*
X5799Y5066D01*
X5870Y5088D01*
X5943Y5099D01*
X6017D01*
X6090Y5088D01*
X6161Y5066D01*
X6228Y5034D01*
X6289Y4993D01*
X6344Y4943D01*
X6390Y4886D01*
X6422Y4850D01*
X6462Y4823D01*
X6507Y4806D01*
X6554Y4800D01*
X7863D01*
X7395Y8600D02*
X8063D01*
X7349Y8595D02*
X7395Y8600D01*
X7306Y8579D02*
X7349Y8595D01*
X7267Y8553D02*
X7306Y8579D01*
X7235Y8520D02*
X7267Y8553D01*
X4700Y5120D02*
X7235Y8520D01*
X4679Y5085D02*
X4700Y5120D01*
X4666Y5047D02*
X4679Y5085D01*
X4660Y5008D02*
X4666Y5047D01*
X4660Y5008D02*
X4663Y4967D01*
X4673Y4929D01*
X4691Y4893D01*
X4716Y4861D01*
X4746Y4835D01*
X4782Y4816D01*
X4820Y4804D01*
X4860Y4800D01*
X5406D01*
X1150Y5724D02*
X1156Y5666D01*
X1173Y5609D01*
X1201Y5558D01*
X1238Y5512D01*
X1862Y4888D01*
X1908Y4851D01*
X1959Y4823D01*
X2016Y4806D01*
X2074Y4800D01*
X2738D01*
X2782Y4805D01*
X2824Y4820D01*
X2862Y4844D01*
X2894Y4875D01*
X2918Y4913D01*
X2933Y4955D01*
X2938Y5000D01*
X2934Y5040D02*
X2938Y5000D01*
X2921Y5079D02*
X2934Y5040D01*
X2902Y5114D02*
X2921Y5079D01*
X1514Y7103D02*
X2902Y5114D01*
X1486Y7135D02*
X1514Y7103D01*
X1453Y7160D02*
X1486Y7135D01*
X1415Y7178D02*
X1453Y7160D01*
X1373Y7187D02*
X1415Y7178D01*
X1331Y7187D02*
X1373Y7187D01*
X1290Y7179D02*
X1331Y7187D01*
X1251Y7162D02*
X1290Y7179D01*
X1217Y7138D02*
X1251Y7162D01*
X1189Y7107D02*
X1217Y7138D01*
X1168Y7070D02*
X1189Y7107D01*
X1154Y7030D02*
X1168Y7070D01*
X1150Y6988D02*
X1154Y7030D01*
X1150Y5724D02*
Y6988D01*
X3482Y9509D02*
X3487Y9454D01*
X3467Y9563D02*
X3482Y9509D01*
X3442Y9612D02*
X3467Y9563D01*
X3408Y9657D02*
X3442Y9612D01*
X3367Y9694D02*
X3408Y9657D01*
X3319Y9723D02*
X3367Y9694D01*
X3268Y9743D02*
X3319Y9723D01*
X3213Y9753D02*
X3268Y9743D01*
X3157Y9752D02*
X3213Y9753D01*
X3103Y9742D02*
X3157Y9752D01*
X3051Y9721D02*
X3103Y9742D01*
X3004Y9691D02*
X3051Y9721D01*
X2628Y9396D02*
X3004Y9691D01*
X2266Y9102D02*
X2628Y9396D01*
X1880Y8779D02*
X2266Y9102D01*
X1514Y8465D02*
X1880Y8779D01*
X1484Y8434D02*
X1514Y8465D01*
X1463Y8397D02*
X1484Y8434D01*
X1449Y8356D02*
X1463Y8397D01*
X1444Y8314D02*
X1449Y8356D01*
X1444Y8314D02*
X1449Y8273D01*
X1461Y8235D01*
X1480Y8199D01*
X3123Y5846D01*
X3151Y5814D01*
X3184Y5789D01*
X3223Y5771D01*
X3264Y5762D01*
X3306Y5761D01*
X3347Y5769D01*
X3386Y5786D01*
X3420Y5811D01*
X3448Y5842D01*
X3469Y5878D01*
X3483Y5918D01*
X3487Y5960D01*
Y9454D01*
X6000Y4100D02*
X6400D01*
X5941Y4094D02*
X6000Y4100D01*
X5885Y4077D02*
X5941Y4094D01*
X5833Y4049D02*
X5885Y4077D01*
X5788Y4012D02*
X5833Y4049D01*
X5751Y3967D02*
X5788Y4012D01*
X5723Y3915D02*
X5751Y3967D01*
X5706Y3859D02*
X5723Y3915D01*
X5700Y3800D02*
X5706Y3859D01*
X5700Y1200D02*
Y3800D01*
Y1200D02*
X5706Y1141D01*
X5723Y1085D01*
X5751Y1033D01*
X5788Y988D01*
X5833Y951D01*
X5885Y923D01*
X5941Y906D01*
X6000Y900D01*
X6400D01*
X6459Y906D01*
X6515Y923D01*
X6567Y951D01*
X6612Y988D01*
X6649Y1033D01*
X6677Y1085D01*
X6694Y1141D01*
X6700Y1200D01*
Y3800D01*
X6694Y3859D02*
X6700Y3800D01*
X6677Y3915D02*
X6694Y3859D01*
X6649Y3967D02*
X6677Y3915D01*
X6612Y4012D02*
X6649Y3967D01*
X6567Y4049D02*
X6612Y4012D01*
X6515Y4077D02*
X6567Y4049D01*
X6459Y4094D02*
X6515Y4077D01*
X6400Y4100D02*
X6459Y4094D01*
X3787Y11100D02*
X8613D01*
X11948Y8466D02*
X12616Y7868D01*
X13377Y7171D01*
X14276Y6335D01*
X15298Y5370D01*
X16427Y4292D01*
Y4100D02*
Y4292D01*
X7250Y4100D02*
X16427D01*
X7250Y400D02*
Y4100D01*
X7244Y331D02*
X7250Y400D01*
X7226Y263D02*
X7244Y331D01*
X7196Y200D02*
X7226Y263D01*
X7156Y143D02*
X7196Y200D01*
X7107Y94D02*
X7156Y143D01*
X7050Y54D02*
X7107Y94D01*
X6987Y24D02*
X7050Y54D01*
X6919Y6D02*
X6987Y24D01*
X6850Y0D02*
X6919Y6D01*
X5550Y0D02*
X6850D01*
X5481Y6D02*
X5550Y0D01*
X5413Y24D02*
X5481Y6D01*
X5350Y54D02*
X5413Y24D01*
X5293Y94D02*
X5350Y54D01*
X5244Y143D02*
X5293Y94D01*
X5204Y200D02*
X5244Y143D01*
X5174Y263D02*
X5204Y200D01*
X5156Y331D02*
X5174Y263D01*
X5150Y400D02*
X5156Y331D01*
X5150Y400D02*
Y4100D01*
X-0D02*
X5150D01*
X-0D02*
Y4500D01*
X450Y5279D01*
Y8239D01*
X457Y8324D01*
X478Y8406D01*
X513Y8483D01*
X561Y8553D01*
X619Y8614D01*
X984Y8934D01*
X1351Y9250D01*
X1817Y9640D01*
X2228Y9975D01*
X2607Y10271D01*
X2946Y10526D01*
X3258Y10750D01*
X3520Y10929D01*
X3787Y11100D01*
M02*
